%
M48
M72
T01C0.0138
T02C0.0591
T03C0.0669
T04C0.1300
T05C0.1575
%
T01
X15225Y11665
X20225Y13165
T02
X13225Y14665
X10725Y13665
X5725Y14665
X3225Y13665
X5725Y7165
X3225Y6165
X10725Y6165
X13225Y7165
X10725Y21165
X13225Y22165
X10725Y28665
X13225Y29665
X5725Y29665
X3225Y28665
X5725Y22165
X3225Y21165
T03
X2725Y20165
X6725Y20165
X10225Y20165
X14225Y20165
X14225Y12665
X10225Y12665
X6725Y12665
X2725Y12665
X2725Y5165
X6725Y5165
X10225Y5165
X14225Y5165
X14225Y27665
X10225Y27665
X6725Y27665
X2725Y27665
T04
X1225Y1665
X27225Y1665
X27225Y31165
X1225Y31165
T05
X4725Y27665
X4725Y20165
X4725Y12665
X4725Y5165
X12225Y5165
X12225Y12665
X12225Y20165
X12225Y27665
M30
