G75*
%MOIN*%
%OFA0B0*%
%FSLAX25Y25*%
%IPPOS*%
%LPD*%
%AMOC8*
5,1,8,0,0,1.08239X$1,22.5*
%
%ADD10C,0.08858*%
%ADD11R,0.03268X0.02480*%
%ADD12C,0.00600*%
%ADD13C,0.02578*%
%ADD14C,0.01000*%
D10*
X0032250Y0061650D03*
X0057250Y0071650D03*
X0107250Y0061650D03*
X0132250Y0071650D03*
X0107250Y0136650D03*
X0132250Y0146650D03*
X0107250Y0211650D03*
X0132250Y0221650D03*
X0107250Y0286650D03*
X0132250Y0296650D03*
X0057250Y0296650D03*
X0032250Y0286650D03*
X0057250Y0221650D03*
X0032250Y0211650D03*
X0057250Y0146650D03*
X0032250Y0136650D03*
D11*
X0072250Y0137122D03*
X0072250Y0146178D03*
X0072250Y0212122D03*
X0072250Y0221178D03*
X0073250Y0287122D03*
X0073250Y0296178D03*
X0147250Y0296178D03*
X0147250Y0287122D03*
X0147250Y0221178D03*
X0147250Y0212122D03*
X0147250Y0146178D03*
X0147250Y0137122D03*
X0147250Y0071178D03*
X0147250Y0062122D03*
X0072250Y0062122D03*
X0072250Y0071178D03*
D12*
X0071778Y0071650D01*
X0057250Y0071650D01*
X0072250Y0062122D02*
X0072722Y0061650D01*
X0082250Y0061650D01*
X0087250Y0066650D01*
X0087250Y0116650D01*
X0152250Y0116650D01*
X0157250Y0126650D02*
X0156778Y0127122D01*
X0156778Y0127595D01*
X0147250Y0137122D01*
X0147250Y0146178D02*
X0146778Y0146650D01*
X0132250Y0146650D01*
X0157250Y0131650D02*
X0157250Y0126650D01*
X0157250Y0061650D01*
X0147722Y0061650D01*
X0147250Y0062122D01*
X0147250Y0071178D02*
X0146778Y0071650D01*
X0132250Y0071650D01*
X0087250Y0116650D02*
X0087250Y0136650D01*
X0087250Y0211650D01*
X0072722Y0211650D01*
X0072250Y0212122D01*
X0072250Y0221178D02*
X0071778Y0221650D01*
X0057250Y0221650D01*
X0087250Y0211650D02*
X0087250Y0281650D01*
X0081778Y0287122D01*
X0073250Y0287122D01*
X0073250Y0296178D02*
X0072778Y0296650D01*
X0057250Y0296650D01*
X0132250Y0296650D02*
X0146778Y0296650D01*
X0147250Y0296178D01*
X0147250Y0287122D02*
X0151778Y0287122D01*
X0157250Y0281650D01*
X0157250Y0211650D01*
X0156778Y0212122D01*
X0147250Y0212122D01*
X0147250Y0221178D02*
X0146778Y0221650D01*
X0132250Y0221650D01*
X0157250Y0211650D02*
X0157250Y0131650D01*
X0202250Y0131650D01*
X0087250Y0136650D02*
X0072722Y0136650D01*
X0072250Y0137122D01*
X0072250Y0146178D02*
X0071778Y0146650D01*
X0057250Y0146650D01*
D13*
X0152250Y0116650D03*
X0202250Y0131650D03*
D14*
X0007570Y0008350D02*
X0003950Y0008350D01*
X0003950Y0012226D01*
X0004938Y0010515D01*
X0004938Y0010515D01*
X0007477Y0008384D01*
X0007477Y0008384D01*
X0007570Y0008350D01*
X0007146Y0008662D02*
X0003950Y0008662D01*
X0003950Y0009660D02*
X0005956Y0009660D01*
X0004855Y0010659D02*
X0003950Y0010659D01*
X0003950Y0011657D02*
X0004278Y0011657D01*
X0003950Y0021074D02*
X0003950Y0307226D01*
X0004938Y0305515D01*
X0004938Y0305515D01*
X0007477Y0303384D01*
X0007477Y0303384D01*
X0010593Y0302250D01*
X0013907Y0302250D01*
X0017022Y0303384D01*
X0017023Y0303384D01*
X0019562Y0305515D01*
X0021219Y0308385D01*
X0021219Y0308385D01*
X0021795Y0311650D01*
X0021219Y0314915D01*
X0019562Y0317785D01*
X0019562Y0317785D01*
X0017339Y0319651D01*
X0267161Y0319651D01*
X0264938Y0317785D01*
X0263281Y0314915D01*
X0262705Y0311650D01*
X0262705Y0311650D01*
X0263281Y0308385D01*
X0264938Y0305515D01*
X0264938Y0305515D01*
X0267477Y0303384D01*
X0267477Y0303384D01*
X0270593Y0302250D01*
X0273907Y0302250D01*
X0277022Y0303384D01*
X0277023Y0303384D01*
X0279562Y0305515D01*
X0280471Y0307090D01*
X0280471Y0021210D01*
X0279562Y0022785D01*
X0279562Y0022785D01*
X0277023Y0024916D01*
X0277022Y0024916D01*
X0273907Y0026050D01*
X0270593Y0026050D01*
X0267477Y0024916D01*
X0264938Y0022785D01*
X0263281Y0019915D01*
X0262705Y0016650D01*
X0021795Y0016650D01*
X0021219Y0019915D01*
X0019562Y0022785D01*
X0019562Y0022785D01*
X0017023Y0024916D01*
X0017022Y0024916D01*
X0013907Y0026050D01*
X0010593Y0026050D01*
X0007477Y0024916D01*
X0004938Y0022785D01*
X0003950Y0021074D01*
X0003950Y0021643D02*
X0004278Y0021643D01*
X0003950Y0022641D02*
X0004855Y0022641D01*
X0004938Y0022785D02*
X0004938Y0022785D01*
X0004938Y0022785D01*
X0003950Y0023640D02*
X0005956Y0023640D01*
X0007146Y0024638D02*
X0003950Y0024638D01*
X0003950Y0025637D02*
X0009457Y0025637D01*
X0007477Y0024916D02*
X0007477Y0024916D01*
X0003950Y0026635D02*
X0280471Y0026635D01*
X0280471Y0025637D02*
X0275043Y0025637D01*
X0277354Y0024638D02*
X0280471Y0024638D01*
X0280471Y0023640D02*
X0278544Y0023640D01*
X0279645Y0022641D02*
X0280471Y0022641D01*
X0280471Y0021643D02*
X0280222Y0021643D01*
X0280471Y0027634D02*
X0003950Y0027634D01*
X0003950Y0028632D02*
X0280471Y0028632D01*
X0280471Y0029631D02*
X0003950Y0029631D01*
X0003950Y0030629D02*
X0280471Y0030629D01*
X0280471Y0031628D02*
X0003950Y0031628D01*
X0003950Y0032626D02*
X0280471Y0032626D01*
X0280471Y0033625D02*
X0003950Y0033625D01*
X0003950Y0034623D02*
X0280471Y0034623D01*
X0280471Y0035622D02*
X0003950Y0035622D01*
X0003950Y0036620D02*
X0280471Y0036620D01*
X0280471Y0037619D02*
X0003950Y0037619D01*
X0003950Y0038617D02*
X0280471Y0038617D01*
X0280471Y0039616D02*
X0003950Y0039616D01*
X0003950Y0040614D02*
X0280471Y0040614D01*
X0280471Y0041613D02*
X0003950Y0041613D01*
X0003950Y0042611D02*
X0044053Y0042611D01*
X0045346Y0042076D02*
X0049154Y0042076D01*
X0052673Y0043534D01*
X0055366Y0046227D01*
X0056824Y0049746D01*
X0056824Y0053554D01*
X0055366Y0057073D01*
X0052673Y0059766D01*
X0049154Y0061224D01*
X0045346Y0061224D01*
X0041827Y0059766D01*
X0039134Y0057073D01*
X0037676Y0053554D01*
X0037676Y0049746D01*
X0039134Y0046227D01*
X0041827Y0043534D01*
X0045346Y0042076D01*
X0041750Y0043610D02*
X0003950Y0043610D01*
X0003950Y0044608D02*
X0040752Y0044608D01*
X0039753Y0045607D02*
X0003950Y0045607D01*
X0003950Y0046605D02*
X0026242Y0046605D01*
X0026246Y0046604D02*
X0028254Y0046604D01*
X0030109Y0047372D01*
X0031528Y0048791D01*
X0032296Y0050646D01*
X0032296Y0052654D01*
X0031528Y0054509D01*
X0030152Y0055885D01*
X0031031Y0055521D01*
X0033469Y0055521D01*
X0035722Y0056454D01*
X0037446Y0058178D01*
X0038379Y0060431D01*
X0038379Y0062869D01*
X0037446Y0065122D01*
X0035722Y0066846D01*
X0033469Y0067779D01*
X0031031Y0067779D01*
X0028778Y0066846D01*
X0027054Y0065122D01*
X0026121Y0062869D01*
X0026121Y0060431D01*
X0027054Y0058178D01*
X0028735Y0056497D01*
X0028254Y0056696D01*
X0026246Y0056696D01*
X0024391Y0055928D01*
X0022972Y0054509D01*
X0022204Y0052654D01*
X0022204Y0050646D01*
X0022972Y0048791D01*
X0024391Y0047372D01*
X0026246Y0046604D01*
X0028258Y0046605D02*
X0038977Y0046605D01*
X0038563Y0047604D02*
X0030341Y0047604D01*
X0031339Y0048602D02*
X0038150Y0048602D01*
X0037736Y0049601D02*
X0031863Y0049601D01*
X0032277Y0050599D02*
X0037676Y0050599D01*
X0037676Y0051598D02*
X0032296Y0051598D01*
X0032296Y0052596D02*
X0037676Y0052596D01*
X0037693Y0053595D02*
X0031907Y0053595D01*
X0031443Y0054593D02*
X0038106Y0054593D01*
X0038520Y0055592D02*
X0033641Y0055592D01*
X0035858Y0056590D02*
X0038934Y0056590D01*
X0039649Y0057589D02*
X0036857Y0057589D01*
X0037616Y0058587D02*
X0040648Y0058587D01*
X0041646Y0059586D02*
X0038029Y0059586D01*
X0038379Y0060584D02*
X0043802Y0060584D01*
X0038379Y0061583D02*
X0068916Y0061583D01*
X0068916Y0060584D02*
X0050698Y0060584D01*
X0052854Y0059586D02*
X0069508Y0059586D01*
X0069912Y0059182D02*
X0074588Y0059182D01*
X0075056Y0059650D01*
X0083078Y0059650D01*
X0084250Y0060822D01*
X0089250Y0065822D01*
X0089250Y0114650D01*
X0150023Y0114650D01*
X0150557Y0114116D01*
X0151655Y0113661D01*
X0152845Y0113661D01*
X0153943Y0114116D01*
X0154784Y0114957D01*
X0155239Y0116055D01*
X0155239Y0117245D01*
X0154784Y0118343D01*
X0153943Y0119184D01*
X0152845Y0119639D01*
X0151655Y0119639D01*
X0150557Y0119184D01*
X0150023Y0118650D01*
X0127790Y0118650D01*
X0130366Y0121227D01*
X0131824Y0124746D01*
X0131824Y0128554D01*
X0130366Y0132073D01*
X0127673Y0134766D01*
X0124154Y0136224D01*
X0120346Y0136224D01*
X0116827Y0134766D01*
X0114134Y0132073D01*
X0112676Y0128554D01*
X0112676Y0124746D01*
X0114134Y0121227D01*
X0116710Y0118650D01*
X0089250Y0118650D01*
X0089250Y0282478D01*
X0088078Y0283650D01*
X0082606Y0289122D01*
X0076528Y0289122D01*
X0075588Y0290063D01*
X0070912Y0290063D01*
X0069916Y0289067D01*
X0069916Y0285178D01*
X0070912Y0284182D01*
X0075588Y0284182D01*
X0076528Y0285122D01*
X0080949Y0285122D01*
X0085250Y0280822D01*
X0085250Y0213650D01*
X0075584Y0213650D01*
X0075584Y0214067D01*
X0074588Y0215063D01*
X0069912Y0215063D01*
X0068916Y0214067D01*
X0068916Y0210178D01*
X0069912Y0209182D01*
X0074588Y0209182D01*
X0075056Y0209650D01*
X0085250Y0209650D01*
X0085250Y0138650D01*
X0075584Y0138650D01*
X0075584Y0139067D01*
X0074588Y0140063D01*
X0069912Y0140063D01*
X0068916Y0139067D01*
X0068916Y0135178D01*
X0069912Y0134182D01*
X0074588Y0134182D01*
X0075056Y0134650D01*
X0085250Y0134650D01*
X0085250Y0067478D01*
X0081422Y0063650D01*
X0075584Y0063650D01*
X0075584Y0064067D01*
X0074588Y0065063D01*
X0069912Y0065063D01*
X0068916Y0064067D01*
X0068916Y0060178D01*
X0069912Y0059182D01*
X0068510Y0056590D02*
X0100990Y0056590D01*
X0101246Y0056696D02*
X0099391Y0055928D01*
X0097972Y0054509D01*
X0097204Y0052654D01*
X0097204Y0050646D01*
X0097972Y0048791D01*
X0099391Y0047372D01*
X0101246Y0046604D01*
X0103254Y0046604D01*
X0105109Y0047372D01*
X0106528Y0048791D01*
X0107296Y0050646D01*
X0107296Y0052654D01*
X0106528Y0054509D01*
X0105152Y0055885D01*
X0106031Y0055521D01*
X0108469Y0055521D01*
X0110722Y0056454D01*
X0112446Y0058178D01*
X0113379Y0060431D01*
X0113379Y0062869D01*
X0112446Y0065122D01*
X0110722Y0066846D01*
X0108469Y0067779D01*
X0106031Y0067779D01*
X0103778Y0066846D01*
X0102054Y0065122D01*
X0101121Y0062869D01*
X0101121Y0060431D01*
X0102054Y0058178D01*
X0103735Y0056497D01*
X0103254Y0056696D01*
X0101246Y0056696D01*
X0102643Y0057589D02*
X0054851Y0057589D01*
X0055566Y0056590D02*
X0065990Y0056590D01*
X0066246Y0056696D02*
X0064391Y0055928D01*
X0062972Y0054509D01*
X0062204Y0052654D01*
X0062204Y0050646D01*
X0062972Y0048791D01*
X0064391Y0047372D01*
X0066246Y0046604D01*
X0068254Y0046604D01*
X0070109Y0047372D01*
X0071528Y0048791D01*
X0072296Y0050646D01*
X0072296Y0052654D01*
X0071528Y0054509D01*
X0070109Y0055928D01*
X0068254Y0056696D01*
X0066246Y0056696D01*
X0064055Y0055592D02*
X0055980Y0055592D01*
X0056394Y0054593D02*
X0063057Y0054593D01*
X0062593Y0053595D02*
X0056807Y0053595D01*
X0056824Y0052596D02*
X0062204Y0052596D01*
X0062204Y0051598D02*
X0056824Y0051598D01*
X0056824Y0050599D02*
X0062223Y0050599D01*
X0062637Y0049601D02*
X0056764Y0049601D01*
X0056350Y0048602D02*
X0063161Y0048602D01*
X0064159Y0047604D02*
X0055937Y0047604D01*
X0055523Y0046605D02*
X0066242Y0046605D01*
X0068258Y0046605D02*
X0101242Y0046605D01*
X0103258Y0046605D02*
X0113977Y0046605D01*
X0114134Y0046227D02*
X0116827Y0043534D01*
X0120346Y0042076D01*
X0124154Y0042076D01*
X0127673Y0043534D01*
X0130366Y0046227D01*
X0131824Y0049746D01*
X0131824Y0053554D01*
X0130366Y0057073D01*
X0127673Y0059766D01*
X0124154Y0061224D01*
X0120346Y0061224D01*
X0116827Y0059766D01*
X0114134Y0057073D01*
X0112676Y0053554D01*
X0112676Y0049746D01*
X0114134Y0046227D01*
X0114753Y0045607D02*
X0054747Y0045607D01*
X0053748Y0044608D02*
X0115752Y0044608D01*
X0116750Y0043610D02*
X0052750Y0043610D01*
X0050447Y0042611D02*
X0119053Y0042611D01*
X0113563Y0047604D02*
X0105341Y0047604D01*
X0106339Y0048602D02*
X0113150Y0048602D01*
X0112736Y0049601D02*
X0106863Y0049601D01*
X0107277Y0050599D02*
X0112676Y0050599D01*
X0112676Y0051598D02*
X0107296Y0051598D01*
X0107296Y0052596D02*
X0112676Y0052596D01*
X0112693Y0053595D02*
X0106907Y0053595D01*
X0106443Y0054593D02*
X0113106Y0054593D01*
X0113520Y0055592D02*
X0108641Y0055592D01*
X0110858Y0056590D02*
X0113934Y0056590D01*
X0114649Y0057589D02*
X0111857Y0057589D01*
X0112616Y0058587D02*
X0115648Y0058587D01*
X0116646Y0059586D02*
X0113029Y0059586D01*
X0113379Y0060584D02*
X0118802Y0060584D01*
X0113379Y0061583D02*
X0143916Y0061583D01*
X0143916Y0060584D02*
X0125698Y0060584D01*
X0127854Y0059586D02*
X0144508Y0059586D01*
X0144912Y0059182D02*
X0149588Y0059182D01*
X0150056Y0059650D01*
X0158078Y0059650D01*
X0159250Y0060822D01*
X0159250Y0129650D01*
X0200023Y0129650D01*
X0200557Y0129116D01*
X0201655Y0128661D01*
X0202845Y0128661D01*
X0203943Y0129116D01*
X0204784Y0129957D01*
X0205239Y0131055D01*
X0205239Y0132245D01*
X0204784Y0133343D01*
X0203943Y0134184D01*
X0202845Y0134639D01*
X0201655Y0134639D01*
X0200557Y0134184D01*
X0200023Y0133650D01*
X0159250Y0133650D01*
X0159250Y0282478D01*
X0158078Y0283650D01*
X0152606Y0289122D01*
X0150528Y0289122D01*
X0149588Y0290063D01*
X0144912Y0290063D01*
X0143916Y0289067D01*
X0143916Y0285178D01*
X0144912Y0284182D01*
X0149588Y0284182D01*
X0150528Y0285122D01*
X0150949Y0285122D01*
X0155250Y0280822D01*
X0155250Y0214122D01*
X0150528Y0214122D01*
X0149588Y0215063D01*
X0144912Y0215063D01*
X0143916Y0214067D01*
X0143916Y0210178D01*
X0144912Y0209182D01*
X0149588Y0209182D01*
X0150528Y0210122D01*
X0155250Y0210122D01*
X0155250Y0131951D01*
X0150584Y0136617D01*
X0150584Y0139067D01*
X0149588Y0140063D01*
X0144912Y0140063D01*
X0143916Y0139067D01*
X0143916Y0135178D01*
X0144912Y0134182D01*
X0147362Y0134182D01*
X0154778Y0126766D01*
X0154778Y0126294D01*
X0155250Y0125822D01*
X0155250Y0063650D01*
X0150584Y0063650D01*
X0150584Y0064067D01*
X0149588Y0065063D01*
X0144912Y0065063D01*
X0143916Y0064067D01*
X0143916Y0060178D01*
X0144912Y0059182D01*
X0143510Y0056590D02*
X0280471Y0056590D01*
X0280471Y0055592D02*
X0145445Y0055592D01*
X0145109Y0055928D02*
X0143254Y0056696D01*
X0141246Y0056696D01*
X0139391Y0055928D01*
X0137972Y0054509D01*
X0137204Y0052654D01*
X0137204Y0050646D01*
X0137972Y0048791D01*
X0139391Y0047372D01*
X0141246Y0046604D01*
X0143254Y0046604D01*
X0145109Y0047372D01*
X0146528Y0048791D01*
X0147296Y0050646D01*
X0147296Y0052654D01*
X0146528Y0054509D01*
X0145109Y0055928D01*
X0146443Y0054593D02*
X0280471Y0054593D01*
X0280471Y0053595D02*
X0146907Y0053595D01*
X0147296Y0052596D02*
X0280471Y0052596D01*
X0280471Y0051598D02*
X0147296Y0051598D01*
X0147277Y0050599D02*
X0280471Y0050599D01*
X0280471Y0049601D02*
X0146863Y0049601D01*
X0146339Y0048602D02*
X0280471Y0048602D01*
X0280471Y0047604D02*
X0145341Y0047604D01*
X0143258Y0046605D02*
X0280471Y0046605D01*
X0280471Y0045607D02*
X0129747Y0045607D01*
X0130523Y0046605D02*
X0141242Y0046605D01*
X0139159Y0047604D02*
X0130937Y0047604D01*
X0131350Y0048602D02*
X0138161Y0048602D01*
X0137637Y0049601D02*
X0131764Y0049601D01*
X0131824Y0050599D02*
X0137223Y0050599D01*
X0137204Y0051598D02*
X0131824Y0051598D01*
X0131824Y0052596D02*
X0137204Y0052596D01*
X0137593Y0053595D02*
X0131807Y0053595D01*
X0131394Y0054593D02*
X0138057Y0054593D01*
X0139055Y0055592D02*
X0130980Y0055592D01*
X0130566Y0056590D02*
X0140990Y0056590D01*
X0143916Y0062582D02*
X0113379Y0062582D01*
X0113085Y0063580D02*
X0143916Y0063580D01*
X0144428Y0064579D02*
X0112671Y0064579D01*
X0111991Y0065577D02*
X0130895Y0065577D01*
X0131031Y0065521D02*
X0133469Y0065521D01*
X0135722Y0066454D01*
X0137446Y0068178D01*
X0138056Y0069650D01*
X0143916Y0069650D01*
X0143916Y0069233D01*
X0144912Y0068237D01*
X0149588Y0068237D01*
X0150584Y0069233D01*
X0150584Y0073122D01*
X0149588Y0074118D01*
X0144912Y0074118D01*
X0144444Y0073650D01*
X0138056Y0073650D01*
X0137446Y0075122D01*
X0135722Y0076846D01*
X0133469Y0077779D01*
X0131031Y0077779D01*
X0128778Y0076846D01*
X0127054Y0075122D01*
X0126121Y0072869D01*
X0126121Y0070431D01*
X0127054Y0068178D01*
X0128778Y0066454D01*
X0131031Y0065521D01*
X0133605Y0065577D02*
X0155250Y0065577D01*
X0155250Y0064579D02*
X0150072Y0064579D01*
X0149992Y0059586D02*
X0280471Y0059586D01*
X0280471Y0060584D02*
X0159013Y0060584D01*
X0159250Y0061583D02*
X0280471Y0061583D01*
X0280471Y0062582D02*
X0159250Y0062582D01*
X0159250Y0063580D02*
X0280471Y0063580D01*
X0280471Y0064579D02*
X0159250Y0064579D01*
X0159250Y0065577D02*
X0280471Y0065577D01*
X0280471Y0066576D02*
X0159250Y0066576D01*
X0159250Y0067574D02*
X0280471Y0067574D01*
X0280471Y0068573D02*
X0159250Y0068573D01*
X0159250Y0069571D02*
X0280471Y0069571D01*
X0280471Y0070570D02*
X0159250Y0070570D01*
X0159250Y0071568D02*
X0280471Y0071568D01*
X0280471Y0072567D02*
X0159250Y0072567D01*
X0159250Y0073565D02*
X0280471Y0073565D01*
X0280471Y0074564D02*
X0159250Y0074564D01*
X0159250Y0075562D02*
X0280471Y0075562D01*
X0280471Y0076561D02*
X0159250Y0076561D01*
X0159250Y0077559D02*
X0280471Y0077559D01*
X0280471Y0078558D02*
X0159250Y0078558D01*
X0159250Y0079556D02*
X0280471Y0079556D01*
X0280471Y0080555D02*
X0159250Y0080555D01*
X0159250Y0081553D02*
X0280471Y0081553D01*
X0280471Y0082552D02*
X0159250Y0082552D01*
X0159250Y0083550D02*
X0280471Y0083550D01*
X0280471Y0084549D02*
X0159250Y0084549D01*
X0159250Y0085547D02*
X0280471Y0085547D01*
X0280471Y0086546D02*
X0159250Y0086546D01*
X0159250Y0087544D02*
X0280471Y0087544D01*
X0280471Y0088543D02*
X0159250Y0088543D01*
X0159250Y0089541D02*
X0280471Y0089541D01*
X0280471Y0090540D02*
X0159250Y0090540D01*
X0159250Y0091538D02*
X0280471Y0091538D01*
X0280471Y0092537D02*
X0159250Y0092537D01*
X0159250Y0093535D02*
X0280471Y0093535D01*
X0280471Y0094534D02*
X0159250Y0094534D01*
X0159250Y0095532D02*
X0280471Y0095532D01*
X0280471Y0096531D02*
X0159250Y0096531D01*
X0159250Y0097529D02*
X0280471Y0097529D01*
X0280471Y0098528D02*
X0159250Y0098528D01*
X0159250Y0099526D02*
X0280471Y0099526D01*
X0280471Y0100525D02*
X0159250Y0100525D01*
X0159250Y0101523D02*
X0280471Y0101523D01*
X0280471Y0102522D02*
X0159250Y0102522D01*
X0159250Y0103520D02*
X0280471Y0103520D01*
X0280471Y0104519D02*
X0159250Y0104519D01*
X0159250Y0105518D02*
X0280471Y0105518D01*
X0280471Y0106516D02*
X0159250Y0106516D01*
X0159250Y0107515D02*
X0280471Y0107515D01*
X0280471Y0108513D02*
X0159250Y0108513D01*
X0159250Y0109512D02*
X0280471Y0109512D01*
X0280471Y0110510D02*
X0159250Y0110510D01*
X0159250Y0111509D02*
X0280471Y0111509D01*
X0280471Y0112507D02*
X0159250Y0112507D01*
X0159250Y0113506D02*
X0280471Y0113506D01*
X0280471Y0114504D02*
X0159250Y0114504D01*
X0159250Y0115503D02*
X0280471Y0115503D01*
X0280471Y0116501D02*
X0159250Y0116501D01*
X0159250Y0117500D02*
X0280471Y0117500D01*
X0280471Y0118498D02*
X0159250Y0118498D01*
X0159250Y0119497D02*
X0280471Y0119497D01*
X0280471Y0120495D02*
X0159250Y0120495D01*
X0159250Y0121494D02*
X0280471Y0121494D01*
X0280471Y0122492D02*
X0159250Y0122492D01*
X0159250Y0123491D02*
X0280471Y0123491D01*
X0280471Y0124489D02*
X0159250Y0124489D01*
X0159250Y0125488D02*
X0280471Y0125488D01*
X0280471Y0126486D02*
X0159250Y0126486D01*
X0159250Y0127485D02*
X0280471Y0127485D01*
X0280471Y0128483D02*
X0159250Y0128483D01*
X0159250Y0129482D02*
X0200191Y0129482D01*
X0204309Y0129482D02*
X0280471Y0129482D01*
X0280471Y0130480D02*
X0205001Y0130480D01*
X0205239Y0131479D02*
X0280471Y0131479D01*
X0280471Y0132477D02*
X0205143Y0132477D01*
X0204651Y0133476D02*
X0280471Y0133476D01*
X0280471Y0134474D02*
X0203242Y0134474D01*
X0201258Y0134474D02*
X0159250Y0134474D01*
X0159250Y0135473D02*
X0280471Y0135473D01*
X0280471Y0136471D02*
X0159250Y0136471D01*
X0159250Y0137470D02*
X0280471Y0137470D01*
X0280471Y0138468D02*
X0159250Y0138468D01*
X0159250Y0139467D02*
X0280471Y0139467D01*
X0280471Y0140465D02*
X0159250Y0140465D01*
X0159250Y0141464D02*
X0280471Y0141464D01*
X0280471Y0142462D02*
X0159250Y0142462D01*
X0159250Y0143461D02*
X0280471Y0143461D01*
X0280471Y0144459D02*
X0159250Y0144459D01*
X0159250Y0145458D02*
X0280471Y0145458D01*
X0280471Y0146456D02*
X0159250Y0146456D01*
X0159250Y0147455D02*
X0280471Y0147455D01*
X0280471Y0148453D02*
X0159250Y0148453D01*
X0159250Y0149452D02*
X0280471Y0149452D01*
X0280471Y0150451D02*
X0159250Y0150451D01*
X0159250Y0151449D02*
X0280471Y0151449D01*
X0280471Y0152448D02*
X0159250Y0152448D01*
X0159250Y0153446D02*
X0280471Y0153446D01*
X0280471Y0154445D02*
X0159250Y0154445D01*
X0159250Y0155443D02*
X0280471Y0155443D01*
X0280471Y0156442D02*
X0159250Y0156442D01*
X0159250Y0157440D02*
X0280471Y0157440D01*
X0280471Y0158439D02*
X0159250Y0158439D01*
X0159250Y0159437D02*
X0280471Y0159437D01*
X0280471Y0160436D02*
X0159250Y0160436D01*
X0159250Y0161434D02*
X0280471Y0161434D01*
X0280471Y0162433D02*
X0159250Y0162433D01*
X0159250Y0163431D02*
X0280471Y0163431D01*
X0280471Y0164430D02*
X0159250Y0164430D01*
X0159250Y0165428D02*
X0280471Y0165428D01*
X0280471Y0166427D02*
X0159250Y0166427D01*
X0159250Y0167425D02*
X0280471Y0167425D01*
X0280471Y0168424D02*
X0159250Y0168424D01*
X0159250Y0169422D02*
X0280471Y0169422D01*
X0280471Y0170421D02*
X0159250Y0170421D01*
X0159250Y0171419D02*
X0280471Y0171419D01*
X0280471Y0172418D02*
X0159250Y0172418D01*
X0159250Y0173416D02*
X0280471Y0173416D01*
X0280471Y0174415D02*
X0159250Y0174415D01*
X0159250Y0175413D02*
X0280471Y0175413D01*
X0280471Y0176412D02*
X0159250Y0176412D01*
X0159250Y0177410D02*
X0280471Y0177410D01*
X0280471Y0178409D02*
X0159250Y0178409D01*
X0159250Y0179407D02*
X0280471Y0179407D01*
X0280471Y0180406D02*
X0159250Y0180406D01*
X0159250Y0181404D02*
X0280471Y0181404D01*
X0280471Y0182403D02*
X0159250Y0182403D01*
X0159250Y0183401D02*
X0280471Y0183401D01*
X0280471Y0184400D02*
X0159250Y0184400D01*
X0159250Y0185398D02*
X0280471Y0185398D01*
X0280471Y0186397D02*
X0159250Y0186397D01*
X0159250Y0187395D02*
X0280471Y0187395D01*
X0280471Y0188394D02*
X0159250Y0188394D01*
X0159250Y0189392D02*
X0280471Y0189392D01*
X0280471Y0190391D02*
X0159250Y0190391D01*
X0159250Y0191389D02*
X0280471Y0191389D01*
X0280471Y0192388D02*
X0159250Y0192388D01*
X0159250Y0193387D02*
X0280471Y0193387D01*
X0280471Y0194385D02*
X0159250Y0194385D01*
X0159250Y0195384D02*
X0280471Y0195384D01*
X0280471Y0196382D02*
X0159250Y0196382D01*
X0159250Y0197381D02*
X0280471Y0197381D01*
X0280471Y0198379D02*
X0159250Y0198379D01*
X0159250Y0199378D02*
X0280471Y0199378D01*
X0280471Y0200376D02*
X0159250Y0200376D01*
X0159250Y0201375D02*
X0280471Y0201375D01*
X0280471Y0202373D02*
X0159250Y0202373D01*
X0159250Y0203372D02*
X0280471Y0203372D01*
X0280471Y0204370D02*
X0159250Y0204370D01*
X0159250Y0205369D02*
X0280471Y0205369D01*
X0280471Y0206367D02*
X0159250Y0206367D01*
X0159250Y0207366D02*
X0280471Y0207366D01*
X0280471Y0208364D02*
X0159250Y0208364D01*
X0159250Y0209363D02*
X0280471Y0209363D01*
X0280471Y0210361D02*
X0159250Y0210361D01*
X0159250Y0211360D02*
X0280471Y0211360D01*
X0280471Y0212358D02*
X0159250Y0212358D01*
X0159250Y0213357D02*
X0280471Y0213357D01*
X0280471Y0214355D02*
X0159250Y0214355D01*
X0159250Y0215354D02*
X0280471Y0215354D01*
X0280471Y0216352D02*
X0159250Y0216352D01*
X0159250Y0217351D02*
X0280471Y0217351D01*
X0280471Y0218349D02*
X0159250Y0218349D01*
X0159250Y0219348D02*
X0280471Y0219348D01*
X0280471Y0220346D02*
X0159250Y0220346D01*
X0159250Y0221345D02*
X0280471Y0221345D01*
X0280471Y0222343D02*
X0159250Y0222343D01*
X0159250Y0223342D02*
X0280471Y0223342D01*
X0280471Y0224340D02*
X0159250Y0224340D01*
X0159250Y0225339D02*
X0280471Y0225339D01*
X0280471Y0226337D02*
X0159250Y0226337D01*
X0159250Y0227336D02*
X0280471Y0227336D01*
X0280471Y0228334D02*
X0159250Y0228334D01*
X0159250Y0229333D02*
X0280471Y0229333D01*
X0280471Y0230331D02*
X0159250Y0230331D01*
X0159250Y0231330D02*
X0280471Y0231330D01*
X0280471Y0232328D02*
X0159250Y0232328D01*
X0159250Y0233327D02*
X0280471Y0233327D01*
X0280471Y0234325D02*
X0159250Y0234325D01*
X0159250Y0235324D02*
X0280471Y0235324D01*
X0280471Y0236322D02*
X0159250Y0236322D01*
X0159250Y0237321D02*
X0280471Y0237321D01*
X0280471Y0238320D02*
X0159250Y0238320D01*
X0159250Y0239318D02*
X0280471Y0239318D01*
X0280471Y0240317D02*
X0159250Y0240317D01*
X0159250Y0241315D02*
X0280471Y0241315D01*
X0280471Y0242314D02*
X0159250Y0242314D01*
X0159250Y0243312D02*
X0280471Y0243312D01*
X0280471Y0244311D02*
X0159250Y0244311D01*
X0159250Y0245309D02*
X0280471Y0245309D01*
X0280471Y0246308D02*
X0159250Y0246308D01*
X0159250Y0247306D02*
X0280471Y0247306D01*
X0280471Y0248305D02*
X0159250Y0248305D01*
X0159250Y0249303D02*
X0280471Y0249303D01*
X0280471Y0250302D02*
X0159250Y0250302D01*
X0159250Y0251300D02*
X0280471Y0251300D01*
X0280471Y0252299D02*
X0159250Y0252299D01*
X0159250Y0253297D02*
X0280471Y0253297D01*
X0280471Y0254296D02*
X0159250Y0254296D01*
X0159250Y0255294D02*
X0280471Y0255294D01*
X0280471Y0256293D02*
X0159250Y0256293D01*
X0159250Y0257291D02*
X0280471Y0257291D01*
X0280471Y0258290D02*
X0159250Y0258290D01*
X0159250Y0259288D02*
X0280471Y0259288D01*
X0280471Y0260287D02*
X0159250Y0260287D01*
X0159250Y0261285D02*
X0280471Y0261285D01*
X0280471Y0262284D02*
X0159250Y0262284D01*
X0159250Y0263282D02*
X0280471Y0263282D01*
X0280471Y0264281D02*
X0159250Y0264281D01*
X0159250Y0265279D02*
X0280471Y0265279D01*
X0280471Y0266278D02*
X0159250Y0266278D01*
X0159250Y0267276D02*
X0280471Y0267276D01*
X0280471Y0268275D02*
X0159250Y0268275D01*
X0159250Y0269273D02*
X0280471Y0269273D01*
X0280471Y0270272D02*
X0159250Y0270272D01*
X0159250Y0271270D02*
X0280471Y0271270D01*
X0280471Y0272269D02*
X0159250Y0272269D01*
X0159250Y0273267D02*
X0280471Y0273267D01*
X0280471Y0274266D02*
X0159250Y0274266D01*
X0159250Y0275264D02*
X0280471Y0275264D01*
X0280471Y0276263D02*
X0159250Y0276263D01*
X0159250Y0277261D02*
X0280471Y0277261D01*
X0280471Y0278260D02*
X0159250Y0278260D01*
X0159250Y0279258D02*
X0280471Y0279258D01*
X0280471Y0280257D02*
X0159250Y0280257D01*
X0159250Y0281255D02*
X0280471Y0281255D01*
X0280471Y0282254D02*
X0159250Y0282254D01*
X0158476Y0283253D02*
X0280471Y0283253D01*
X0280471Y0284251D02*
X0157477Y0284251D01*
X0156479Y0285250D02*
X0280471Y0285250D01*
X0280471Y0286248D02*
X0155480Y0286248D01*
X0154482Y0287247D02*
X0280471Y0287247D01*
X0280471Y0288245D02*
X0153483Y0288245D01*
X0150407Y0289244D02*
X0280471Y0289244D01*
X0280471Y0290242D02*
X0112326Y0290242D01*
X0112446Y0290122D02*
X0110722Y0291846D01*
X0108469Y0292779D01*
X0106031Y0292779D01*
X0103778Y0291846D01*
X0102054Y0290122D01*
X0101121Y0287869D01*
X0101121Y0285431D01*
X0102054Y0283178D01*
X0103735Y0281497D01*
X0103254Y0281696D01*
X0101246Y0281696D01*
X0099391Y0280928D01*
X0097972Y0279509D01*
X0097204Y0277654D01*
X0097204Y0275646D01*
X0097972Y0273791D01*
X0099391Y0272372D01*
X0101246Y0271604D01*
X0103254Y0271604D01*
X0105109Y0272372D01*
X0106528Y0273791D01*
X0107296Y0275646D01*
X0107296Y0277654D01*
X0106528Y0279509D01*
X0105152Y0280885D01*
X0106031Y0280521D01*
X0108469Y0280521D01*
X0110722Y0281454D01*
X0112446Y0283178D01*
X0113379Y0285431D01*
X0113379Y0287869D01*
X0112446Y0290122D01*
X0112810Y0289244D02*
X0144093Y0289244D01*
X0143916Y0288245D02*
X0113223Y0288245D01*
X0113379Y0287247D02*
X0143916Y0287247D01*
X0143916Y0286248D02*
X0113379Y0286248D01*
X0113304Y0285250D02*
X0117993Y0285250D01*
X0116827Y0284766D02*
X0114134Y0282073D01*
X0112676Y0278554D01*
X0112676Y0274746D01*
X0114134Y0271227D01*
X0116827Y0268534D01*
X0120346Y0267076D01*
X0124154Y0267076D01*
X0127673Y0268534D01*
X0130366Y0271227D01*
X0131824Y0274746D01*
X0131824Y0278554D01*
X0130366Y0282073D01*
X0127673Y0284766D01*
X0124154Y0286224D01*
X0120346Y0286224D01*
X0116827Y0284766D01*
X0116311Y0284251D02*
X0112890Y0284251D01*
X0112477Y0283253D02*
X0115313Y0283253D01*
X0114314Y0282254D02*
X0111522Y0282254D01*
X0110243Y0281255D02*
X0113795Y0281255D01*
X0113381Y0280257D02*
X0105780Y0280257D01*
X0106632Y0279258D02*
X0112968Y0279258D01*
X0112676Y0278260D02*
X0107045Y0278260D01*
X0107296Y0277261D02*
X0112676Y0277261D01*
X0112676Y0276263D02*
X0107296Y0276263D01*
X0107138Y0275264D02*
X0112676Y0275264D01*
X0112875Y0274266D02*
X0106725Y0274266D01*
X0106004Y0273267D02*
X0113288Y0273267D01*
X0113702Y0272269D02*
X0104860Y0272269D01*
X0099640Y0272269D02*
X0089250Y0272269D01*
X0089250Y0273267D02*
X0098496Y0273267D01*
X0097775Y0274266D02*
X0089250Y0274266D01*
X0089250Y0275264D02*
X0097362Y0275264D01*
X0097204Y0276263D02*
X0089250Y0276263D01*
X0089250Y0277261D02*
X0097204Y0277261D01*
X0097455Y0278260D02*
X0089250Y0278260D01*
X0089250Y0279258D02*
X0097868Y0279258D01*
X0098720Y0280257D02*
X0089250Y0280257D01*
X0089250Y0281255D02*
X0100182Y0281255D01*
X0102023Y0283253D02*
X0088476Y0283253D01*
X0089250Y0282254D02*
X0102978Y0282254D01*
X0101610Y0284251D02*
X0087477Y0284251D01*
X0086479Y0285250D02*
X0101196Y0285250D01*
X0101121Y0286248D02*
X0085480Y0286248D01*
X0084482Y0287247D02*
X0101121Y0287247D01*
X0101277Y0288245D02*
X0083483Y0288245D01*
X0081821Y0284251D02*
X0075657Y0284251D01*
X0071528Y0279509D02*
X0070109Y0280928D01*
X0068254Y0281696D01*
X0066246Y0281696D01*
X0064391Y0280928D01*
X0062972Y0279509D01*
X0062204Y0277654D01*
X0062204Y0275646D01*
X0062972Y0273791D01*
X0064391Y0272372D01*
X0066246Y0271604D01*
X0068254Y0271604D01*
X0070109Y0272372D01*
X0071528Y0273791D01*
X0072296Y0275646D01*
X0072296Y0277654D01*
X0071528Y0279509D01*
X0071632Y0279258D02*
X0085250Y0279258D01*
X0085250Y0278260D02*
X0072045Y0278260D01*
X0072296Y0277261D02*
X0085250Y0277261D01*
X0085250Y0276263D02*
X0072296Y0276263D01*
X0072138Y0275264D02*
X0085250Y0275264D01*
X0085250Y0274266D02*
X0071725Y0274266D01*
X0071004Y0273267D02*
X0085250Y0273267D01*
X0085250Y0272269D02*
X0069860Y0272269D01*
X0064640Y0272269D02*
X0055798Y0272269D01*
X0056212Y0273267D02*
X0063496Y0273267D01*
X0062775Y0274266D02*
X0056625Y0274266D01*
X0056824Y0274746D02*
X0055366Y0271227D01*
X0052673Y0268534D01*
X0049154Y0267076D01*
X0045346Y0267076D01*
X0041827Y0268534D01*
X0039134Y0271227D01*
X0037676Y0274746D01*
X0037676Y0278554D01*
X0039134Y0282073D01*
X0041827Y0284766D01*
X0045346Y0286224D01*
X0049154Y0286224D01*
X0052673Y0284766D01*
X0055366Y0282073D01*
X0056824Y0278554D01*
X0056824Y0274746D01*
X0056824Y0275264D02*
X0062362Y0275264D01*
X0062204Y0276263D02*
X0056824Y0276263D01*
X0056824Y0277261D02*
X0062204Y0277261D01*
X0062455Y0278260D02*
X0056824Y0278260D01*
X0056532Y0279258D02*
X0062868Y0279258D01*
X0063720Y0280257D02*
X0056119Y0280257D01*
X0055705Y0281255D02*
X0065182Y0281255D01*
X0069318Y0281255D02*
X0084816Y0281255D01*
X0085250Y0280257D02*
X0070780Y0280257D01*
X0070843Y0284251D02*
X0053189Y0284251D01*
X0054187Y0283253D02*
X0082819Y0283253D01*
X0083818Y0282254D02*
X0055186Y0282254D01*
X0051507Y0285250D02*
X0069916Y0285250D01*
X0069916Y0286248D02*
X0038379Y0286248D01*
X0038379Y0285431D02*
X0038379Y0287869D01*
X0037446Y0290122D01*
X0035722Y0291846D01*
X0033469Y0292779D01*
X0031031Y0292779D01*
X0028778Y0291846D01*
X0027054Y0290122D01*
X0026121Y0287869D01*
X0026121Y0285431D01*
X0027054Y0283178D01*
X0028735Y0281497D01*
X0028254Y0281696D01*
X0026246Y0281696D01*
X0024391Y0280928D01*
X0022972Y0279509D01*
X0022204Y0277654D01*
X0022204Y0275646D01*
X0022972Y0273791D01*
X0024391Y0272372D01*
X0026246Y0271604D01*
X0028254Y0271604D01*
X0030109Y0272372D01*
X0031528Y0273791D01*
X0032296Y0275646D01*
X0032296Y0277654D01*
X0031528Y0279509D01*
X0030152Y0280885D01*
X0031031Y0280521D01*
X0033469Y0280521D01*
X0035722Y0281454D01*
X0037446Y0283178D01*
X0038379Y0285431D01*
X0038304Y0285250D02*
X0042993Y0285250D01*
X0041311Y0284251D02*
X0037890Y0284251D01*
X0037477Y0283253D02*
X0040313Y0283253D01*
X0039314Y0282254D02*
X0036522Y0282254D01*
X0035243Y0281255D02*
X0038795Y0281255D01*
X0038381Y0280257D02*
X0030780Y0280257D01*
X0031632Y0279258D02*
X0037968Y0279258D01*
X0037676Y0278260D02*
X0032045Y0278260D01*
X0032296Y0277261D02*
X0037676Y0277261D01*
X0037676Y0276263D02*
X0032296Y0276263D01*
X0032138Y0275264D02*
X0037676Y0275264D01*
X0037875Y0274266D02*
X0031725Y0274266D01*
X0031004Y0273267D02*
X0038288Y0273267D01*
X0038702Y0272269D02*
X0029860Y0272269D01*
X0024640Y0272269D02*
X0003950Y0272269D01*
X0003950Y0273267D02*
X0023496Y0273267D01*
X0022775Y0274266D02*
X0003950Y0274266D01*
X0003950Y0275264D02*
X0022362Y0275264D01*
X0022204Y0276263D02*
X0003950Y0276263D01*
X0003950Y0277261D02*
X0022204Y0277261D01*
X0022455Y0278260D02*
X0003950Y0278260D01*
X0003950Y0279258D02*
X0022868Y0279258D01*
X0023720Y0280257D02*
X0003950Y0280257D01*
X0003950Y0281255D02*
X0025182Y0281255D01*
X0027023Y0283253D02*
X0003950Y0283253D01*
X0003950Y0284251D02*
X0026610Y0284251D01*
X0026196Y0285250D02*
X0003950Y0285250D01*
X0003950Y0286248D02*
X0026121Y0286248D01*
X0026121Y0287247D02*
X0003950Y0287247D01*
X0003950Y0288245D02*
X0026277Y0288245D01*
X0026690Y0289244D02*
X0003950Y0289244D01*
X0003950Y0290242D02*
X0027174Y0290242D01*
X0028173Y0291241D02*
X0003950Y0291241D01*
X0003950Y0292239D02*
X0029727Y0292239D01*
X0034773Y0292239D02*
X0052993Y0292239D01*
X0053778Y0291454D02*
X0052054Y0293178D01*
X0051121Y0295431D01*
X0051121Y0297869D01*
X0052054Y0300122D01*
X0053778Y0301846D01*
X0056031Y0302779D01*
X0058469Y0302779D01*
X0060722Y0301846D01*
X0062446Y0300122D01*
X0063056Y0298650D01*
X0070444Y0298650D01*
X0070912Y0299118D01*
X0075588Y0299118D01*
X0076584Y0298122D01*
X0076584Y0294233D01*
X0075588Y0293237D01*
X0070912Y0293237D01*
X0069916Y0294233D01*
X0069916Y0294650D01*
X0063056Y0294650D01*
X0062446Y0293178D01*
X0060722Y0291454D01*
X0058469Y0290521D01*
X0056031Y0290521D01*
X0053778Y0291454D01*
X0054293Y0291241D02*
X0036327Y0291241D01*
X0037326Y0290242D02*
X0102174Y0290242D01*
X0101690Y0289244D02*
X0076407Y0289244D01*
X0075588Y0293238D02*
X0127029Y0293238D01*
X0127054Y0293178D02*
X0128778Y0291454D01*
X0131031Y0290521D01*
X0133469Y0290521D01*
X0135722Y0291454D01*
X0137446Y0293178D01*
X0138056Y0294650D01*
X0143916Y0294650D01*
X0143916Y0294233D01*
X0144912Y0293237D01*
X0149588Y0293237D01*
X0150584Y0294233D01*
X0150584Y0298122D01*
X0149588Y0299118D01*
X0144912Y0299118D01*
X0144444Y0298650D01*
X0138056Y0298650D01*
X0137446Y0300122D01*
X0135722Y0301846D01*
X0133469Y0302779D01*
X0131031Y0302779D01*
X0128778Y0301846D01*
X0127054Y0300122D01*
X0126121Y0297869D01*
X0126121Y0295431D01*
X0127054Y0293178D01*
X0126616Y0294236D02*
X0076584Y0294236D01*
X0076584Y0295235D02*
X0126202Y0295235D01*
X0126121Y0296233D02*
X0076584Y0296233D01*
X0076584Y0297232D02*
X0126121Y0297232D01*
X0126270Y0298230D02*
X0076476Y0298230D01*
X0070912Y0293238D02*
X0062471Y0293238D01*
X0062884Y0294236D02*
X0069916Y0294236D01*
X0070093Y0289244D02*
X0037810Y0289244D01*
X0038223Y0288245D02*
X0069916Y0288245D01*
X0069916Y0287247D02*
X0038379Y0287247D01*
X0027978Y0282254D02*
X0003950Y0282254D01*
X0003950Y0293238D02*
X0052029Y0293238D01*
X0051616Y0294236D02*
X0003950Y0294236D01*
X0003950Y0295235D02*
X0051202Y0295235D01*
X0051121Y0296233D02*
X0003950Y0296233D01*
X0003950Y0297232D02*
X0051121Y0297232D01*
X0051270Y0298230D02*
X0003950Y0298230D01*
X0003950Y0299229D02*
X0051684Y0299229D01*
X0052159Y0300227D02*
X0003950Y0300227D01*
X0003950Y0301226D02*
X0053158Y0301226D01*
X0054691Y0302224D02*
X0003950Y0302224D01*
X0003950Y0303223D02*
X0007920Y0303223D01*
X0006479Y0304221D02*
X0003950Y0304221D01*
X0003950Y0305220D02*
X0005289Y0305220D01*
X0004532Y0306218D02*
X0003950Y0306218D01*
X0003950Y0307217D02*
X0003955Y0307217D01*
X0003950Y0316074D02*
X0003950Y0319651D01*
X0007161Y0319651D01*
X0004938Y0317785D01*
X0003950Y0316074D01*
X0003950Y0316203D02*
X0004025Y0316203D01*
X0003950Y0317202D02*
X0004601Y0317202D01*
X0004938Y0317785D02*
X0004938Y0317785D01*
X0004938Y0317785D01*
X0005433Y0318200D02*
X0003950Y0318200D01*
X0003950Y0319199D02*
X0006623Y0319199D01*
X0017877Y0319199D02*
X0266623Y0319199D01*
X0265433Y0318200D02*
X0019067Y0318200D01*
X0019899Y0317202D02*
X0264601Y0317202D01*
X0264938Y0317785D02*
X0264938Y0317785D01*
X0264938Y0317785D01*
X0264025Y0316203D02*
X0020475Y0316203D01*
X0021052Y0315205D02*
X0263448Y0315205D01*
X0263281Y0314915D02*
X0263281Y0314915D01*
X0263156Y0314206D02*
X0021344Y0314206D01*
X0021219Y0314915D02*
X0021219Y0314915D01*
X0021520Y0313208D02*
X0262980Y0313208D01*
X0262804Y0312209D02*
X0021696Y0312209D01*
X0021795Y0311650D02*
X0021795Y0311650D01*
X0021718Y0311211D02*
X0262782Y0311211D01*
X0262958Y0310212D02*
X0021541Y0310212D01*
X0021365Y0309214D02*
X0263135Y0309214D01*
X0263281Y0308385D02*
X0263281Y0308385D01*
X0263379Y0308215D02*
X0021121Y0308215D01*
X0020545Y0307217D02*
X0263955Y0307217D01*
X0264532Y0306218D02*
X0019968Y0306218D01*
X0019562Y0305515D02*
X0019562Y0305515D01*
X0019562Y0305515D01*
X0019211Y0305220D02*
X0265289Y0305220D01*
X0266479Y0304221D02*
X0018021Y0304221D01*
X0016580Y0303223D02*
X0267920Y0303223D01*
X0276580Y0303223D02*
X0280471Y0303223D01*
X0280471Y0304221D02*
X0278021Y0304221D01*
X0279211Y0305220D02*
X0280471Y0305220D01*
X0279562Y0305515D02*
X0279562Y0305515D01*
X0279562Y0305515D01*
X0279968Y0306218D02*
X0280471Y0306218D01*
X0280471Y0302224D02*
X0134809Y0302224D01*
X0136342Y0301226D02*
X0280471Y0301226D01*
X0280471Y0300227D02*
X0137341Y0300227D01*
X0137816Y0299229D02*
X0280471Y0299229D01*
X0280471Y0298230D02*
X0150476Y0298230D01*
X0150584Y0297232D02*
X0280471Y0297232D01*
X0280471Y0296233D02*
X0150584Y0296233D01*
X0150584Y0295235D02*
X0280471Y0295235D01*
X0280471Y0294236D02*
X0150584Y0294236D01*
X0149588Y0293238D02*
X0280471Y0293238D01*
X0280471Y0292239D02*
X0136507Y0292239D01*
X0137471Y0293238D02*
X0144912Y0293238D01*
X0143916Y0294236D02*
X0137884Y0294236D01*
X0135207Y0291241D02*
X0280471Y0291241D01*
X0280471Y0316210D02*
X0279562Y0317785D01*
X0279562Y0317785D01*
X0277339Y0319651D01*
X0280471Y0319651D01*
X0280471Y0316210D01*
X0280471Y0317202D02*
X0279899Y0317202D01*
X0280471Y0318200D02*
X0279067Y0318200D01*
X0277877Y0319199D02*
X0280471Y0319199D01*
X0155250Y0280257D02*
X0145780Y0280257D01*
X0145109Y0280928D02*
X0143254Y0281696D01*
X0141246Y0281696D01*
X0139391Y0280928D01*
X0137972Y0279509D01*
X0137204Y0277654D01*
X0137204Y0275646D01*
X0137972Y0273791D01*
X0139391Y0272372D01*
X0141246Y0271604D01*
X0143254Y0271604D01*
X0145109Y0272372D01*
X0146528Y0273791D01*
X0147296Y0275646D01*
X0147296Y0277654D01*
X0146528Y0279509D01*
X0145109Y0280928D01*
X0144318Y0281255D02*
X0154816Y0281255D01*
X0153818Y0282254D02*
X0130186Y0282254D01*
X0130705Y0281255D02*
X0140182Y0281255D01*
X0138720Y0280257D02*
X0131119Y0280257D01*
X0131532Y0279258D02*
X0137868Y0279258D01*
X0137455Y0278260D02*
X0131824Y0278260D01*
X0131824Y0277261D02*
X0137204Y0277261D01*
X0137204Y0276263D02*
X0131824Y0276263D01*
X0131824Y0275264D02*
X0137362Y0275264D01*
X0137775Y0274266D02*
X0131625Y0274266D01*
X0131212Y0273267D02*
X0138496Y0273267D01*
X0139640Y0272269D02*
X0130798Y0272269D01*
X0130385Y0271270D02*
X0155250Y0271270D01*
X0155250Y0270272D02*
X0129412Y0270272D01*
X0128413Y0269273D02*
X0155250Y0269273D01*
X0155250Y0268275D02*
X0127049Y0268275D01*
X0124638Y0267276D02*
X0155250Y0267276D01*
X0155250Y0266278D02*
X0089250Y0266278D01*
X0089250Y0267276D02*
X0119862Y0267276D01*
X0117451Y0268275D02*
X0089250Y0268275D01*
X0089250Y0269273D02*
X0116087Y0269273D01*
X0115088Y0270272D02*
X0089250Y0270272D01*
X0089250Y0271270D02*
X0114115Y0271270D01*
X0126507Y0285250D02*
X0143916Y0285250D01*
X0144843Y0284251D02*
X0128189Y0284251D01*
X0129187Y0283253D02*
X0152819Y0283253D01*
X0151821Y0284251D02*
X0149657Y0284251D01*
X0146632Y0279258D02*
X0155250Y0279258D01*
X0155250Y0278260D02*
X0147045Y0278260D01*
X0147296Y0277261D02*
X0155250Y0277261D01*
X0155250Y0276263D02*
X0147296Y0276263D01*
X0147138Y0275264D02*
X0155250Y0275264D01*
X0155250Y0274266D02*
X0146725Y0274266D01*
X0146004Y0273267D02*
X0155250Y0273267D01*
X0155250Y0272269D02*
X0144860Y0272269D01*
X0155250Y0265279D02*
X0089250Y0265279D01*
X0089250Y0264281D02*
X0155250Y0264281D01*
X0155250Y0263282D02*
X0089250Y0263282D01*
X0089250Y0262284D02*
X0155250Y0262284D01*
X0155250Y0261285D02*
X0089250Y0261285D01*
X0089250Y0260287D02*
X0155250Y0260287D01*
X0155250Y0259288D02*
X0089250Y0259288D01*
X0089250Y0258290D02*
X0155250Y0258290D01*
X0155250Y0257291D02*
X0089250Y0257291D01*
X0089250Y0256293D02*
X0155250Y0256293D01*
X0155250Y0255294D02*
X0089250Y0255294D01*
X0089250Y0254296D02*
X0155250Y0254296D01*
X0155250Y0253297D02*
X0089250Y0253297D01*
X0089250Y0252299D02*
X0155250Y0252299D01*
X0155250Y0251300D02*
X0089250Y0251300D01*
X0089250Y0250302D02*
X0155250Y0250302D01*
X0155250Y0249303D02*
X0089250Y0249303D01*
X0089250Y0248305D02*
X0155250Y0248305D01*
X0155250Y0247306D02*
X0089250Y0247306D01*
X0089250Y0246308D02*
X0155250Y0246308D01*
X0155250Y0245309D02*
X0089250Y0245309D01*
X0089250Y0244311D02*
X0155250Y0244311D01*
X0155250Y0243312D02*
X0089250Y0243312D01*
X0089250Y0242314D02*
X0155250Y0242314D01*
X0155250Y0241315D02*
X0089250Y0241315D01*
X0089250Y0240317D02*
X0155250Y0240317D01*
X0155250Y0239318D02*
X0089250Y0239318D01*
X0089250Y0238320D02*
X0155250Y0238320D01*
X0155250Y0237321D02*
X0089250Y0237321D01*
X0089250Y0236322D02*
X0155250Y0236322D01*
X0155250Y0235324D02*
X0089250Y0235324D01*
X0089250Y0234325D02*
X0155250Y0234325D01*
X0155250Y0233327D02*
X0089250Y0233327D01*
X0089250Y0232328D02*
X0155250Y0232328D01*
X0155250Y0231330D02*
X0089250Y0231330D01*
X0089250Y0230331D02*
X0155250Y0230331D01*
X0155250Y0229333D02*
X0089250Y0229333D01*
X0089250Y0228334D02*
X0155250Y0228334D01*
X0155250Y0227336D02*
X0134539Y0227336D01*
X0133469Y0227779D02*
X0135722Y0226846D01*
X0137446Y0225122D01*
X0138056Y0223650D01*
X0144444Y0223650D01*
X0144912Y0224118D01*
X0149588Y0224118D01*
X0150584Y0223122D01*
X0150584Y0219233D01*
X0149588Y0218237D01*
X0144912Y0218237D01*
X0143916Y0219233D01*
X0143916Y0219650D01*
X0138056Y0219650D01*
X0137446Y0218178D01*
X0135722Y0216454D01*
X0133469Y0215521D01*
X0131031Y0215521D01*
X0128778Y0216454D01*
X0127054Y0218178D01*
X0126121Y0220431D01*
X0126121Y0222869D01*
X0127054Y0225122D01*
X0128778Y0226846D01*
X0131031Y0227779D01*
X0133469Y0227779D01*
X0136230Y0226337D02*
X0155250Y0226337D01*
X0155250Y0225339D02*
X0137229Y0225339D01*
X0137770Y0224340D02*
X0155250Y0224340D01*
X0155250Y0223342D02*
X0150364Y0223342D01*
X0150584Y0222343D02*
X0155250Y0222343D01*
X0155250Y0221345D02*
X0150584Y0221345D01*
X0150584Y0220346D02*
X0155250Y0220346D01*
X0155250Y0219348D02*
X0150584Y0219348D01*
X0149700Y0218349D02*
X0155250Y0218349D01*
X0155250Y0217351D02*
X0136619Y0217351D01*
X0137517Y0218349D02*
X0144800Y0218349D01*
X0143916Y0219348D02*
X0137930Y0219348D01*
X0135476Y0216352D02*
X0155250Y0216352D01*
X0155250Y0215354D02*
X0112214Y0215354D01*
X0112446Y0215122D02*
X0110722Y0216846D01*
X0108469Y0217779D01*
X0106031Y0217779D01*
X0103778Y0216846D01*
X0102054Y0215122D01*
X0101121Y0212869D01*
X0101121Y0210431D01*
X0102054Y0208178D01*
X0103735Y0206497D01*
X0103254Y0206696D01*
X0101246Y0206696D01*
X0099391Y0205928D01*
X0097972Y0204509D01*
X0097204Y0202654D01*
X0097204Y0200646D01*
X0097972Y0198791D01*
X0099391Y0197372D01*
X0101246Y0196604D01*
X0103254Y0196604D01*
X0105109Y0197372D01*
X0106528Y0198791D01*
X0107296Y0200646D01*
X0107296Y0202654D01*
X0106528Y0204509D01*
X0105152Y0205885D01*
X0106031Y0205521D01*
X0108469Y0205521D01*
X0110722Y0206454D01*
X0112446Y0208178D01*
X0113379Y0210431D01*
X0113379Y0212869D01*
X0112446Y0215122D01*
X0112764Y0214355D02*
X0144205Y0214355D01*
X0143916Y0213357D02*
X0113177Y0213357D01*
X0113379Y0212358D02*
X0143916Y0212358D01*
X0143916Y0211360D02*
X0113379Y0211360D01*
X0113350Y0210361D02*
X0118263Y0210361D01*
X0116827Y0209766D02*
X0114134Y0207073D01*
X0112676Y0203554D01*
X0112676Y0199746D01*
X0114134Y0196227D01*
X0116827Y0193534D01*
X0120346Y0192076D01*
X0124154Y0192076D01*
X0127673Y0193534D01*
X0130366Y0196227D01*
X0131824Y0199746D01*
X0131824Y0203554D01*
X0130366Y0207073D01*
X0127673Y0209766D01*
X0124154Y0211224D01*
X0120346Y0211224D01*
X0116827Y0209766D01*
X0116423Y0209363D02*
X0112937Y0209363D01*
X0112523Y0208364D02*
X0115424Y0208364D01*
X0114426Y0207366D02*
X0111634Y0207366D01*
X0110512Y0206367D02*
X0113841Y0206367D01*
X0113427Y0205369D02*
X0105668Y0205369D01*
X0106586Y0204370D02*
X0113014Y0204370D01*
X0112676Y0203372D02*
X0106999Y0203372D01*
X0107296Y0202373D02*
X0112676Y0202373D01*
X0112676Y0201375D02*
X0107296Y0201375D01*
X0107185Y0200376D02*
X0112676Y0200376D01*
X0112828Y0199378D02*
X0106771Y0199378D01*
X0106116Y0198379D02*
X0113242Y0198379D01*
X0113656Y0197381D02*
X0105117Y0197381D01*
X0099383Y0197381D02*
X0089250Y0197381D01*
X0089250Y0198379D02*
X0098384Y0198379D01*
X0097729Y0199378D02*
X0089250Y0199378D01*
X0089250Y0200376D02*
X0097315Y0200376D01*
X0097204Y0201375D02*
X0089250Y0201375D01*
X0089250Y0202373D02*
X0097204Y0202373D01*
X0097501Y0203372D02*
X0089250Y0203372D01*
X0089250Y0204370D02*
X0097914Y0204370D01*
X0098832Y0205369D02*
X0089250Y0205369D01*
X0089250Y0206367D02*
X0100451Y0206367D01*
X0101977Y0208364D02*
X0089250Y0208364D01*
X0089250Y0207366D02*
X0102866Y0207366D01*
X0101563Y0209363D02*
X0089250Y0209363D01*
X0089250Y0210361D02*
X0101150Y0210361D01*
X0101121Y0211360D02*
X0089250Y0211360D01*
X0089250Y0212358D02*
X0101121Y0212358D01*
X0101323Y0213357D02*
X0089250Y0213357D01*
X0089250Y0214355D02*
X0101736Y0214355D01*
X0102286Y0215354D02*
X0089250Y0215354D01*
X0089250Y0216352D02*
X0103284Y0216352D01*
X0104997Y0217351D02*
X0089250Y0217351D01*
X0089250Y0218349D02*
X0126983Y0218349D01*
X0126569Y0219348D02*
X0089250Y0219348D01*
X0089250Y0220346D02*
X0126156Y0220346D01*
X0126121Y0221345D02*
X0089250Y0221345D01*
X0089250Y0222343D02*
X0126121Y0222343D01*
X0126317Y0223342D02*
X0089250Y0223342D01*
X0089250Y0224340D02*
X0126730Y0224340D01*
X0127271Y0225339D02*
X0089250Y0225339D01*
X0089250Y0226337D02*
X0128269Y0226337D01*
X0129961Y0227336D02*
X0089250Y0227336D01*
X0085250Y0227336D02*
X0059539Y0227336D01*
X0058469Y0227779D02*
X0056031Y0227779D01*
X0053778Y0226846D01*
X0052054Y0225122D01*
X0051121Y0222869D01*
X0051121Y0220431D01*
X0052054Y0218178D01*
X0053778Y0216454D01*
X0056031Y0215521D01*
X0058469Y0215521D01*
X0060722Y0216454D01*
X0062446Y0218178D01*
X0063056Y0219650D01*
X0068916Y0219650D01*
X0068916Y0219233D01*
X0069912Y0218237D01*
X0074588Y0218237D01*
X0075584Y0219233D01*
X0075584Y0223122D01*
X0074588Y0224118D01*
X0069912Y0224118D01*
X0069444Y0223650D01*
X0063056Y0223650D01*
X0062446Y0225122D01*
X0060722Y0226846D01*
X0058469Y0227779D01*
X0061230Y0226337D02*
X0085250Y0226337D01*
X0085250Y0225339D02*
X0062229Y0225339D01*
X0062770Y0224340D02*
X0085250Y0224340D01*
X0085250Y0223342D02*
X0075364Y0223342D01*
X0075584Y0222343D02*
X0085250Y0222343D01*
X0085250Y0221345D02*
X0075584Y0221345D01*
X0075584Y0220346D02*
X0085250Y0220346D01*
X0085250Y0219348D02*
X0075584Y0219348D01*
X0074700Y0218349D02*
X0085250Y0218349D01*
X0085250Y0217351D02*
X0061619Y0217351D01*
X0062517Y0218349D02*
X0069800Y0218349D01*
X0068916Y0219348D02*
X0062930Y0219348D01*
X0060476Y0216352D02*
X0085250Y0216352D01*
X0085250Y0215354D02*
X0037214Y0215354D01*
X0037446Y0215122D02*
X0035722Y0216846D01*
X0033469Y0217779D01*
X0031031Y0217779D01*
X0028778Y0216846D01*
X0027054Y0215122D01*
X0026121Y0212869D01*
X0026121Y0210431D01*
X0027054Y0208178D01*
X0028735Y0206497D01*
X0028254Y0206696D01*
X0026246Y0206696D01*
X0024391Y0205928D01*
X0022972Y0204509D01*
X0022204Y0202654D01*
X0022204Y0200646D01*
X0022972Y0198791D01*
X0024391Y0197372D01*
X0026246Y0196604D01*
X0028254Y0196604D01*
X0030109Y0197372D01*
X0031528Y0198791D01*
X0032296Y0200646D01*
X0032296Y0202654D01*
X0031528Y0204509D01*
X0030152Y0205885D01*
X0031031Y0205521D01*
X0033469Y0205521D01*
X0035722Y0206454D01*
X0037446Y0208178D01*
X0038379Y0210431D01*
X0038379Y0212869D01*
X0037446Y0215122D01*
X0037764Y0214355D02*
X0069205Y0214355D01*
X0068916Y0213357D02*
X0038177Y0213357D01*
X0038379Y0212358D02*
X0068916Y0212358D01*
X0068916Y0211360D02*
X0038379Y0211360D01*
X0038350Y0210361D02*
X0043263Y0210361D01*
X0041827Y0209766D02*
X0045346Y0211224D01*
X0049154Y0211224D01*
X0052673Y0209766D01*
X0055366Y0207073D01*
X0056824Y0203554D01*
X0056824Y0199746D01*
X0055366Y0196227D01*
X0052673Y0193534D01*
X0049154Y0192076D01*
X0045346Y0192076D01*
X0041827Y0193534D01*
X0039134Y0196227D01*
X0037676Y0199746D01*
X0037676Y0203554D01*
X0039134Y0207073D01*
X0041827Y0209766D01*
X0041423Y0209363D02*
X0037937Y0209363D01*
X0037523Y0208364D02*
X0040424Y0208364D01*
X0039426Y0207366D02*
X0036634Y0207366D01*
X0035512Y0206367D02*
X0038841Y0206367D01*
X0038427Y0205369D02*
X0030668Y0205369D01*
X0031586Y0204370D02*
X0038014Y0204370D01*
X0037676Y0203372D02*
X0031999Y0203372D01*
X0032296Y0202373D02*
X0037676Y0202373D01*
X0037676Y0201375D02*
X0032296Y0201375D01*
X0032185Y0200376D02*
X0037676Y0200376D01*
X0037828Y0199378D02*
X0031771Y0199378D01*
X0031116Y0198379D02*
X0038242Y0198379D01*
X0038656Y0197381D02*
X0030117Y0197381D01*
X0024383Y0197381D02*
X0003950Y0197381D01*
X0003950Y0198379D02*
X0023384Y0198379D01*
X0022729Y0199378D02*
X0003950Y0199378D01*
X0003950Y0200376D02*
X0022315Y0200376D01*
X0022204Y0201375D02*
X0003950Y0201375D01*
X0003950Y0202373D02*
X0022204Y0202373D01*
X0022501Y0203372D02*
X0003950Y0203372D01*
X0003950Y0204370D02*
X0022914Y0204370D01*
X0023832Y0205369D02*
X0003950Y0205369D01*
X0003950Y0206367D02*
X0025451Y0206367D01*
X0026977Y0208364D02*
X0003950Y0208364D01*
X0003950Y0207366D02*
X0027866Y0207366D01*
X0026563Y0209363D02*
X0003950Y0209363D01*
X0003950Y0210361D02*
X0026150Y0210361D01*
X0026121Y0211360D02*
X0003950Y0211360D01*
X0003950Y0212358D02*
X0026121Y0212358D01*
X0026323Y0213357D02*
X0003950Y0213357D01*
X0003950Y0214355D02*
X0026736Y0214355D01*
X0027286Y0215354D02*
X0003950Y0215354D01*
X0003950Y0216352D02*
X0028284Y0216352D01*
X0029997Y0217351D02*
X0003950Y0217351D01*
X0003950Y0218349D02*
X0051983Y0218349D01*
X0051569Y0219348D02*
X0003950Y0219348D01*
X0003950Y0220346D02*
X0051156Y0220346D01*
X0051121Y0221345D02*
X0003950Y0221345D01*
X0003950Y0222343D02*
X0051121Y0222343D01*
X0051317Y0223342D02*
X0003950Y0223342D01*
X0003950Y0224340D02*
X0051730Y0224340D01*
X0052271Y0225339D02*
X0003950Y0225339D01*
X0003950Y0226337D02*
X0053269Y0226337D01*
X0054961Y0227336D02*
X0003950Y0227336D01*
X0003950Y0228334D02*
X0085250Y0228334D01*
X0085250Y0229333D02*
X0003950Y0229333D01*
X0003950Y0230331D02*
X0085250Y0230331D01*
X0085250Y0231330D02*
X0003950Y0231330D01*
X0003950Y0232328D02*
X0085250Y0232328D01*
X0085250Y0233327D02*
X0003950Y0233327D01*
X0003950Y0234325D02*
X0085250Y0234325D01*
X0085250Y0235324D02*
X0003950Y0235324D01*
X0003950Y0236322D02*
X0085250Y0236322D01*
X0085250Y0237321D02*
X0003950Y0237321D01*
X0003950Y0238320D02*
X0085250Y0238320D01*
X0085250Y0239318D02*
X0003950Y0239318D01*
X0003950Y0240317D02*
X0085250Y0240317D01*
X0085250Y0241315D02*
X0003950Y0241315D01*
X0003950Y0242314D02*
X0085250Y0242314D01*
X0085250Y0243312D02*
X0003950Y0243312D01*
X0003950Y0244311D02*
X0085250Y0244311D01*
X0085250Y0245309D02*
X0003950Y0245309D01*
X0003950Y0246308D02*
X0085250Y0246308D01*
X0085250Y0247306D02*
X0003950Y0247306D01*
X0003950Y0248305D02*
X0085250Y0248305D01*
X0085250Y0249303D02*
X0003950Y0249303D01*
X0003950Y0250302D02*
X0085250Y0250302D01*
X0085250Y0251300D02*
X0003950Y0251300D01*
X0003950Y0252299D02*
X0085250Y0252299D01*
X0085250Y0253297D02*
X0003950Y0253297D01*
X0003950Y0254296D02*
X0085250Y0254296D01*
X0085250Y0255294D02*
X0003950Y0255294D01*
X0003950Y0256293D02*
X0085250Y0256293D01*
X0085250Y0257291D02*
X0003950Y0257291D01*
X0003950Y0258290D02*
X0085250Y0258290D01*
X0085250Y0259288D02*
X0003950Y0259288D01*
X0003950Y0260287D02*
X0085250Y0260287D01*
X0085250Y0261285D02*
X0003950Y0261285D01*
X0003950Y0262284D02*
X0085250Y0262284D01*
X0085250Y0263282D02*
X0003950Y0263282D01*
X0003950Y0264281D02*
X0085250Y0264281D01*
X0085250Y0265279D02*
X0003950Y0265279D01*
X0003950Y0266278D02*
X0085250Y0266278D01*
X0085250Y0267276D02*
X0049638Y0267276D01*
X0052049Y0268275D02*
X0085250Y0268275D01*
X0085250Y0269273D02*
X0053413Y0269273D01*
X0054412Y0270272D02*
X0085250Y0270272D01*
X0085250Y0271270D02*
X0055385Y0271270D01*
X0044862Y0267276D02*
X0003950Y0267276D01*
X0003950Y0268275D02*
X0042451Y0268275D01*
X0041087Y0269273D02*
X0003950Y0269273D01*
X0003950Y0270272D02*
X0040088Y0270272D01*
X0039115Y0271270D02*
X0003950Y0271270D01*
X0034503Y0217351D02*
X0052881Y0217351D01*
X0054024Y0216352D02*
X0036216Y0216352D01*
X0051237Y0210361D02*
X0068916Y0210361D01*
X0069732Y0209363D02*
X0053077Y0209363D01*
X0054076Y0208364D02*
X0085250Y0208364D01*
X0085250Y0207366D02*
X0055074Y0207366D01*
X0055659Y0206367D02*
X0065451Y0206367D01*
X0066246Y0206696D02*
X0064391Y0205928D01*
X0062972Y0204509D01*
X0062204Y0202654D01*
X0062204Y0200646D01*
X0062972Y0198791D01*
X0064391Y0197372D01*
X0066246Y0196604D01*
X0068254Y0196604D01*
X0070109Y0197372D01*
X0071528Y0198791D01*
X0072296Y0200646D01*
X0072296Y0202654D01*
X0071528Y0204509D01*
X0070109Y0205928D01*
X0068254Y0206696D01*
X0066246Y0206696D01*
X0063832Y0205369D02*
X0056073Y0205369D01*
X0056486Y0204370D02*
X0062914Y0204370D01*
X0062501Y0203372D02*
X0056824Y0203372D01*
X0056824Y0202373D02*
X0062204Y0202373D01*
X0062204Y0201375D02*
X0056824Y0201375D01*
X0056824Y0200376D02*
X0062315Y0200376D01*
X0062729Y0199378D02*
X0056672Y0199378D01*
X0056258Y0198379D02*
X0063384Y0198379D01*
X0064383Y0197381D02*
X0055844Y0197381D01*
X0055431Y0196382D02*
X0085250Y0196382D01*
X0085250Y0195384D02*
X0054523Y0195384D01*
X0053525Y0194385D02*
X0085250Y0194385D01*
X0085250Y0193387D02*
X0052318Y0193387D01*
X0049908Y0192388D02*
X0085250Y0192388D01*
X0085250Y0191389D02*
X0003950Y0191389D01*
X0003950Y0190391D02*
X0085250Y0190391D01*
X0085250Y0189392D02*
X0003950Y0189392D01*
X0003950Y0188394D02*
X0085250Y0188394D01*
X0085250Y0187395D02*
X0003950Y0187395D01*
X0003950Y0186397D02*
X0085250Y0186397D01*
X0085250Y0185398D02*
X0003950Y0185398D01*
X0003950Y0184400D02*
X0085250Y0184400D01*
X0085250Y0183401D02*
X0003950Y0183401D01*
X0003950Y0182403D02*
X0085250Y0182403D01*
X0085250Y0181404D02*
X0003950Y0181404D01*
X0003950Y0180406D02*
X0085250Y0180406D01*
X0085250Y0179407D02*
X0003950Y0179407D01*
X0003950Y0178409D02*
X0085250Y0178409D01*
X0085250Y0177410D02*
X0003950Y0177410D01*
X0003950Y0176412D02*
X0085250Y0176412D01*
X0085250Y0175413D02*
X0003950Y0175413D01*
X0003950Y0174415D02*
X0085250Y0174415D01*
X0085250Y0173416D02*
X0003950Y0173416D01*
X0003950Y0172418D02*
X0085250Y0172418D01*
X0085250Y0171419D02*
X0003950Y0171419D01*
X0003950Y0170421D02*
X0085250Y0170421D01*
X0085250Y0169422D02*
X0003950Y0169422D01*
X0003950Y0168424D02*
X0085250Y0168424D01*
X0085250Y0167425D02*
X0003950Y0167425D01*
X0003950Y0166427D02*
X0085250Y0166427D01*
X0085250Y0165428D02*
X0003950Y0165428D01*
X0003950Y0164430D02*
X0085250Y0164430D01*
X0085250Y0163431D02*
X0003950Y0163431D01*
X0003950Y0162433D02*
X0085250Y0162433D01*
X0085250Y0161434D02*
X0003950Y0161434D01*
X0003950Y0160436D02*
X0085250Y0160436D01*
X0085250Y0159437D02*
X0003950Y0159437D01*
X0003950Y0158439D02*
X0085250Y0158439D01*
X0085250Y0157440D02*
X0003950Y0157440D01*
X0003950Y0156442D02*
X0085250Y0156442D01*
X0085250Y0155443D02*
X0003950Y0155443D01*
X0003950Y0154445D02*
X0085250Y0154445D01*
X0085250Y0153446D02*
X0003950Y0153446D01*
X0003950Y0152448D02*
X0055230Y0152448D01*
X0056031Y0152779D02*
X0053778Y0151846D01*
X0052054Y0150122D01*
X0051121Y0147869D01*
X0051121Y0145431D01*
X0052054Y0143178D01*
X0053778Y0141454D01*
X0056031Y0140521D01*
X0058469Y0140521D01*
X0060722Y0141454D01*
X0062446Y0143178D01*
X0063056Y0144650D01*
X0068916Y0144650D01*
X0068916Y0144233D01*
X0069912Y0143237D01*
X0074588Y0143237D01*
X0075584Y0144233D01*
X0075584Y0148122D01*
X0074588Y0149118D01*
X0069912Y0149118D01*
X0069444Y0148650D01*
X0063056Y0148650D01*
X0062446Y0150122D01*
X0060722Y0151846D01*
X0058469Y0152779D01*
X0056031Y0152779D01*
X0053381Y0151449D02*
X0003950Y0151449D01*
X0003950Y0150451D02*
X0052383Y0150451D01*
X0051777Y0149452D02*
X0003950Y0149452D01*
X0003950Y0148453D02*
X0051363Y0148453D01*
X0051121Y0147455D02*
X0003950Y0147455D01*
X0003950Y0146456D02*
X0051121Y0146456D01*
X0051121Y0145458D02*
X0003950Y0145458D01*
X0003950Y0144459D02*
X0051523Y0144459D01*
X0051937Y0143461D02*
X0003950Y0143461D01*
X0003950Y0142462D02*
X0030266Y0142462D01*
X0031031Y0142779D02*
X0028778Y0141846D01*
X0027054Y0140122D01*
X0026121Y0137869D01*
X0026121Y0135431D01*
X0027054Y0133178D01*
X0028735Y0131497D01*
X0028254Y0131696D01*
X0026246Y0131696D01*
X0024391Y0130928D01*
X0022972Y0129509D01*
X0022204Y0127654D01*
X0022204Y0125646D01*
X0022972Y0123791D01*
X0024391Y0122372D01*
X0026246Y0121604D01*
X0028254Y0121604D01*
X0030109Y0122372D01*
X0031528Y0123791D01*
X0032296Y0125646D01*
X0032296Y0127654D01*
X0031528Y0129509D01*
X0030152Y0130885D01*
X0031031Y0130521D01*
X0033469Y0130521D01*
X0035722Y0131454D01*
X0037446Y0133178D01*
X0038379Y0135431D01*
X0038379Y0137869D01*
X0037446Y0140122D01*
X0035722Y0141846D01*
X0033469Y0142779D01*
X0031031Y0142779D01*
X0028396Y0141464D02*
X0003950Y0141464D01*
X0003950Y0140465D02*
X0027398Y0140465D01*
X0026783Y0139467D02*
X0003950Y0139467D01*
X0003950Y0138468D02*
X0026369Y0138468D01*
X0026121Y0137470D02*
X0003950Y0137470D01*
X0003950Y0136471D02*
X0026121Y0136471D01*
X0026121Y0135473D02*
X0003950Y0135473D01*
X0003950Y0134474D02*
X0026517Y0134474D01*
X0026931Y0133476D02*
X0003950Y0133476D01*
X0003950Y0132477D02*
X0027755Y0132477D01*
X0025721Y0131479D02*
X0003950Y0131479D01*
X0003950Y0130480D02*
X0023944Y0130480D01*
X0022961Y0129482D02*
X0003950Y0129482D01*
X0003950Y0128483D02*
X0022547Y0128483D01*
X0022204Y0127485D02*
X0003950Y0127485D01*
X0003950Y0126486D02*
X0022204Y0126486D01*
X0022269Y0125488D02*
X0003950Y0125488D01*
X0003950Y0124489D02*
X0022683Y0124489D01*
X0023273Y0123491D02*
X0003950Y0123491D01*
X0003950Y0122492D02*
X0024271Y0122492D01*
X0030229Y0122492D02*
X0038609Y0122492D01*
X0039023Y0121494D02*
X0003950Y0121494D01*
X0003950Y0120495D02*
X0039865Y0120495D01*
X0039134Y0121227D02*
X0037676Y0124746D01*
X0037676Y0128554D01*
X0039134Y0132073D01*
X0041827Y0134766D01*
X0045346Y0136224D01*
X0049154Y0136224D01*
X0052673Y0134766D01*
X0055366Y0132073D01*
X0056824Y0128554D01*
X0056824Y0124746D01*
X0055366Y0121227D01*
X0052673Y0118534D01*
X0049154Y0117076D01*
X0045346Y0117076D01*
X0041827Y0118534D01*
X0039134Y0121227D01*
X0040864Y0119497D02*
X0003950Y0119497D01*
X0003950Y0118498D02*
X0041912Y0118498D01*
X0044323Y0117500D02*
X0003950Y0117500D01*
X0003950Y0116501D02*
X0085250Y0116501D01*
X0085250Y0115503D02*
X0003950Y0115503D01*
X0003950Y0114504D02*
X0085250Y0114504D01*
X0085250Y0113506D02*
X0003950Y0113506D01*
X0003950Y0112507D02*
X0085250Y0112507D01*
X0085250Y0111509D02*
X0003950Y0111509D01*
X0003950Y0110510D02*
X0085250Y0110510D01*
X0085250Y0109512D02*
X0003950Y0109512D01*
X0003950Y0108513D02*
X0085250Y0108513D01*
X0085250Y0107515D02*
X0003950Y0107515D01*
X0003950Y0106516D02*
X0085250Y0106516D01*
X0085250Y0105518D02*
X0003950Y0105518D01*
X0003950Y0104519D02*
X0085250Y0104519D01*
X0085250Y0103520D02*
X0003950Y0103520D01*
X0003950Y0102522D02*
X0085250Y0102522D01*
X0085250Y0101523D02*
X0003950Y0101523D01*
X0003950Y0100525D02*
X0085250Y0100525D01*
X0085250Y0099526D02*
X0003950Y0099526D01*
X0003950Y0098528D02*
X0085250Y0098528D01*
X0085250Y0097529D02*
X0003950Y0097529D01*
X0003950Y0096531D02*
X0085250Y0096531D01*
X0085250Y0095532D02*
X0003950Y0095532D01*
X0003950Y0094534D02*
X0085250Y0094534D01*
X0085250Y0093535D02*
X0003950Y0093535D01*
X0003950Y0092537D02*
X0085250Y0092537D01*
X0085250Y0091538D02*
X0003950Y0091538D01*
X0003950Y0090540D02*
X0085250Y0090540D01*
X0085250Y0089541D02*
X0003950Y0089541D01*
X0003950Y0088543D02*
X0085250Y0088543D01*
X0085250Y0087544D02*
X0003950Y0087544D01*
X0003950Y0086546D02*
X0085250Y0086546D01*
X0085250Y0085547D02*
X0003950Y0085547D01*
X0003950Y0084549D02*
X0085250Y0084549D01*
X0085250Y0083550D02*
X0003950Y0083550D01*
X0003950Y0082552D02*
X0085250Y0082552D01*
X0085250Y0081553D02*
X0003950Y0081553D01*
X0003950Y0080555D02*
X0085250Y0080555D01*
X0085250Y0079556D02*
X0003950Y0079556D01*
X0003950Y0078558D02*
X0085250Y0078558D01*
X0085250Y0077559D02*
X0059000Y0077559D01*
X0058469Y0077779D02*
X0056031Y0077779D01*
X0053778Y0076846D01*
X0052054Y0075122D01*
X0051121Y0072869D01*
X0051121Y0070431D01*
X0052054Y0068178D01*
X0053778Y0066454D01*
X0056031Y0065521D01*
X0058469Y0065521D01*
X0060722Y0066454D01*
X0062446Y0068178D01*
X0063056Y0069650D01*
X0068916Y0069650D01*
X0068916Y0069233D01*
X0069912Y0068237D01*
X0074588Y0068237D01*
X0075584Y0069233D01*
X0075584Y0073122D01*
X0074588Y0074118D01*
X0069912Y0074118D01*
X0069444Y0073650D01*
X0063056Y0073650D01*
X0062446Y0075122D01*
X0060722Y0076846D01*
X0058469Y0077779D01*
X0061007Y0076561D02*
X0085250Y0076561D01*
X0085250Y0075562D02*
X0062006Y0075562D01*
X0062677Y0074564D02*
X0085250Y0074564D01*
X0085250Y0073565D02*
X0075141Y0073565D01*
X0075584Y0072567D02*
X0085250Y0072567D01*
X0085250Y0071568D02*
X0075584Y0071568D01*
X0075584Y0070570D02*
X0085250Y0070570D01*
X0085250Y0069571D02*
X0075584Y0069571D01*
X0074923Y0068573D02*
X0085250Y0068573D01*
X0085250Y0067574D02*
X0061842Y0067574D01*
X0062609Y0068573D02*
X0069577Y0068573D01*
X0068916Y0069571D02*
X0063023Y0069571D01*
X0060843Y0066576D02*
X0084347Y0066576D01*
X0083349Y0065577D02*
X0058605Y0065577D01*
X0055895Y0065577D02*
X0036991Y0065577D01*
X0037671Y0064579D02*
X0069428Y0064579D01*
X0068916Y0063580D02*
X0038085Y0063580D01*
X0038379Y0062582D02*
X0068916Y0062582D01*
X0075072Y0064579D02*
X0082350Y0064579D01*
X0085011Y0061583D02*
X0101121Y0061583D01*
X0101121Y0060584D02*
X0084013Y0060584D01*
X0084250Y0060822D02*
X0084250Y0060822D01*
X0086010Y0062582D02*
X0101121Y0062582D01*
X0101415Y0063580D02*
X0087008Y0063580D01*
X0088007Y0064579D02*
X0101829Y0064579D01*
X0102509Y0065577D02*
X0089005Y0065577D01*
X0089250Y0066576D02*
X0103508Y0066576D01*
X0105536Y0067574D02*
X0089250Y0067574D01*
X0089250Y0068573D02*
X0126891Y0068573D01*
X0126477Y0069571D02*
X0089250Y0069571D01*
X0089250Y0070570D02*
X0126121Y0070570D01*
X0126121Y0071568D02*
X0089250Y0071568D01*
X0089250Y0072567D02*
X0126121Y0072567D01*
X0126409Y0073565D02*
X0089250Y0073565D01*
X0089250Y0074564D02*
X0126823Y0074564D01*
X0127494Y0075562D02*
X0089250Y0075562D01*
X0089250Y0076561D02*
X0128493Y0076561D01*
X0130500Y0077559D02*
X0089250Y0077559D01*
X0089250Y0078558D02*
X0155250Y0078558D01*
X0155250Y0079556D02*
X0089250Y0079556D01*
X0089250Y0080555D02*
X0155250Y0080555D01*
X0155250Y0081553D02*
X0089250Y0081553D01*
X0089250Y0082552D02*
X0155250Y0082552D01*
X0155250Y0083550D02*
X0089250Y0083550D01*
X0089250Y0084549D02*
X0155250Y0084549D01*
X0155250Y0085547D02*
X0089250Y0085547D01*
X0089250Y0086546D02*
X0155250Y0086546D01*
X0155250Y0087544D02*
X0089250Y0087544D01*
X0089250Y0088543D02*
X0155250Y0088543D01*
X0155250Y0089541D02*
X0089250Y0089541D01*
X0089250Y0090540D02*
X0155250Y0090540D01*
X0155250Y0091538D02*
X0089250Y0091538D01*
X0089250Y0092537D02*
X0155250Y0092537D01*
X0155250Y0093535D02*
X0089250Y0093535D01*
X0089250Y0094534D02*
X0155250Y0094534D01*
X0155250Y0095532D02*
X0089250Y0095532D01*
X0089250Y0096531D02*
X0155250Y0096531D01*
X0155250Y0097529D02*
X0089250Y0097529D01*
X0089250Y0098528D02*
X0155250Y0098528D01*
X0155250Y0099526D02*
X0089250Y0099526D01*
X0089250Y0100525D02*
X0155250Y0100525D01*
X0155250Y0101523D02*
X0089250Y0101523D01*
X0089250Y0102522D02*
X0155250Y0102522D01*
X0155250Y0103520D02*
X0089250Y0103520D01*
X0089250Y0104519D02*
X0155250Y0104519D01*
X0155250Y0105518D02*
X0089250Y0105518D01*
X0089250Y0106516D02*
X0155250Y0106516D01*
X0155250Y0107515D02*
X0089250Y0107515D01*
X0089250Y0108513D02*
X0155250Y0108513D01*
X0155250Y0109512D02*
X0089250Y0109512D01*
X0089250Y0110510D02*
X0155250Y0110510D01*
X0155250Y0111509D02*
X0089250Y0111509D01*
X0089250Y0112507D02*
X0155250Y0112507D01*
X0155250Y0113506D02*
X0089250Y0113506D01*
X0089250Y0114504D02*
X0150169Y0114504D01*
X0151312Y0119497D02*
X0128636Y0119497D01*
X0129635Y0120495D02*
X0155250Y0120495D01*
X0155250Y0119497D02*
X0153188Y0119497D01*
X0154629Y0118498D02*
X0155250Y0118498D01*
X0155250Y0117500D02*
X0155133Y0117500D01*
X0155239Y0116501D02*
X0155250Y0116501D01*
X0155250Y0115503D02*
X0155010Y0115503D01*
X0155250Y0114504D02*
X0154331Y0114504D01*
X0155250Y0121494D02*
X0130477Y0121494D01*
X0130891Y0122492D02*
X0139271Y0122492D01*
X0139391Y0122372D02*
X0141246Y0121604D01*
X0143254Y0121604D01*
X0145109Y0122372D01*
X0146528Y0123791D01*
X0147296Y0125646D01*
X0147296Y0127654D01*
X0146528Y0129509D01*
X0145109Y0130928D01*
X0143254Y0131696D01*
X0141246Y0131696D01*
X0139391Y0130928D01*
X0137972Y0129509D01*
X0137204Y0127654D01*
X0137204Y0125646D01*
X0137972Y0123791D01*
X0139391Y0122372D01*
X0138273Y0123491D02*
X0131304Y0123491D01*
X0131718Y0124489D02*
X0137683Y0124489D01*
X0137269Y0125488D02*
X0131824Y0125488D01*
X0131824Y0126486D02*
X0137204Y0126486D01*
X0137204Y0127485D02*
X0131824Y0127485D01*
X0131824Y0128483D02*
X0137547Y0128483D01*
X0137961Y0129482D02*
X0131440Y0129482D01*
X0131026Y0130480D02*
X0138944Y0130480D01*
X0140721Y0131479D02*
X0130613Y0131479D01*
X0129962Y0132477D02*
X0149067Y0132477D01*
X0150065Y0131479D02*
X0143779Y0131479D01*
X0145556Y0130480D02*
X0151064Y0130480D01*
X0152062Y0129482D02*
X0146539Y0129482D01*
X0146953Y0128483D02*
X0153061Y0128483D01*
X0154059Y0127485D02*
X0147296Y0127485D01*
X0147296Y0126486D02*
X0154778Y0126486D01*
X0155250Y0125488D02*
X0147231Y0125488D01*
X0146817Y0124489D02*
X0155250Y0124489D01*
X0155250Y0123491D02*
X0146227Y0123491D01*
X0145229Y0122492D02*
X0155250Y0122492D01*
X0155250Y0132477D02*
X0154724Y0132477D01*
X0155250Y0133476D02*
X0153725Y0133476D01*
X0152727Y0134474D02*
X0155250Y0134474D01*
X0155250Y0135473D02*
X0151728Y0135473D01*
X0150729Y0136471D02*
X0155250Y0136471D01*
X0155250Y0137470D02*
X0150584Y0137470D01*
X0150584Y0138468D02*
X0155250Y0138468D01*
X0155250Y0139467D02*
X0150184Y0139467D01*
X0149588Y0143237D02*
X0150584Y0144233D01*
X0150584Y0148122D01*
X0149588Y0149118D01*
X0144912Y0149118D01*
X0144444Y0148650D01*
X0138056Y0148650D01*
X0137446Y0150122D01*
X0135722Y0151846D01*
X0133469Y0152779D01*
X0131031Y0152779D01*
X0128778Y0151846D01*
X0127054Y0150122D01*
X0126121Y0147869D01*
X0126121Y0145431D01*
X0127054Y0143178D01*
X0128778Y0141454D01*
X0131031Y0140521D01*
X0133469Y0140521D01*
X0135722Y0141454D01*
X0137446Y0143178D01*
X0138056Y0144650D01*
X0143916Y0144650D01*
X0143916Y0144233D01*
X0144912Y0143237D01*
X0149588Y0143237D01*
X0149812Y0143461D02*
X0155250Y0143461D01*
X0155250Y0144459D02*
X0150584Y0144459D01*
X0150584Y0145458D02*
X0155250Y0145458D01*
X0155250Y0146456D02*
X0150584Y0146456D01*
X0150584Y0147455D02*
X0155250Y0147455D01*
X0155250Y0148453D02*
X0150252Y0148453D01*
X0155250Y0149452D02*
X0137723Y0149452D01*
X0137117Y0150451D02*
X0155250Y0150451D01*
X0155250Y0151449D02*
X0136119Y0151449D01*
X0134270Y0152448D02*
X0155250Y0152448D01*
X0155250Y0153446D02*
X0089250Y0153446D01*
X0089250Y0152448D02*
X0130230Y0152448D01*
X0128381Y0151449D02*
X0089250Y0151449D01*
X0089250Y0150451D02*
X0127383Y0150451D01*
X0126777Y0149452D02*
X0089250Y0149452D01*
X0089250Y0148453D02*
X0126363Y0148453D01*
X0126121Y0147455D02*
X0089250Y0147455D01*
X0089250Y0146456D02*
X0126121Y0146456D01*
X0126121Y0145458D02*
X0089250Y0145458D01*
X0089250Y0144459D02*
X0126523Y0144459D01*
X0126937Y0143461D02*
X0089250Y0143461D01*
X0089250Y0142462D02*
X0105266Y0142462D01*
X0106031Y0142779D02*
X0103778Y0141846D01*
X0102054Y0140122D01*
X0101121Y0137869D01*
X0101121Y0135431D01*
X0102054Y0133178D01*
X0103735Y0131497D01*
X0103254Y0131696D01*
X0101246Y0131696D01*
X0099391Y0130928D01*
X0097972Y0129509D01*
X0097204Y0127654D01*
X0097204Y0125646D01*
X0097972Y0123791D01*
X0099391Y0122372D01*
X0101246Y0121604D01*
X0103254Y0121604D01*
X0105109Y0122372D01*
X0106528Y0123791D01*
X0107296Y0125646D01*
X0107296Y0127654D01*
X0106528Y0129509D01*
X0105152Y0130885D01*
X0106031Y0130521D01*
X0108469Y0130521D01*
X0110722Y0131454D01*
X0112446Y0133178D01*
X0113379Y0135431D01*
X0113379Y0137869D01*
X0112446Y0140122D01*
X0110722Y0141846D01*
X0108469Y0142779D01*
X0106031Y0142779D01*
X0103396Y0141464D02*
X0089250Y0141464D01*
X0089250Y0140465D02*
X0102398Y0140465D01*
X0101783Y0139467D02*
X0089250Y0139467D01*
X0089250Y0138468D02*
X0101369Y0138468D01*
X0101121Y0137470D02*
X0089250Y0137470D01*
X0089250Y0136471D02*
X0101121Y0136471D01*
X0101121Y0135473D02*
X0089250Y0135473D01*
X0089250Y0134474D02*
X0101517Y0134474D01*
X0101931Y0133476D02*
X0089250Y0133476D01*
X0089250Y0132477D02*
X0102755Y0132477D01*
X0100721Y0131479D02*
X0089250Y0131479D01*
X0089250Y0130480D02*
X0098944Y0130480D01*
X0097961Y0129482D02*
X0089250Y0129482D01*
X0089250Y0128483D02*
X0097547Y0128483D01*
X0097204Y0127485D02*
X0089250Y0127485D01*
X0089250Y0126486D02*
X0097204Y0126486D01*
X0097269Y0125488D02*
X0089250Y0125488D01*
X0089250Y0124489D02*
X0097683Y0124489D01*
X0098273Y0123491D02*
X0089250Y0123491D01*
X0089250Y0122492D02*
X0099271Y0122492D01*
X0105229Y0122492D02*
X0113609Y0122492D01*
X0114023Y0121494D02*
X0089250Y0121494D01*
X0089250Y0120495D02*
X0114865Y0120495D01*
X0115864Y0119497D02*
X0089250Y0119497D01*
X0085250Y0119497D02*
X0053636Y0119497D01*
X0054635Y0120495D02*
X0085250Y0120495D01*
X0085250Y0121494D02*
X0055477Y0121494D01*
X0055891Y0122492D02*
X0064271Y0122492D01*
X0064391Y0122372D02*
X0066246Y0121604D01*
X0068254Y0121604D01*
X0070109Y0122372D01*
X0071528Y0123791D01*
X0072296Y0125646D01*
X0072296Y0127654D01*
X0071528Y0129509D01*
X0070109Y0130928D01*
X0068254Y0131696D01*
X0066246Y0131696D01*
X0064391Y0130928D01*
X0062972Y0129509D01*
X0062204Y0127654D01*
X0062204Y0125646D01*
X0062972Y0123791D01*
X0064391Y0122372D01*
X0063273Y0123491D02*
X0056304Y0123491D01*
X0056718Y0124489D02*
X0062683Y0124489D01*
X0062269Y0125488D02*
X0056824Y0125488D01*
X0056824Y0126486D02*
X0062204Y0126486D01*
X0062204Y0127485D02*
X0056824Y0127485D01*
X0056824Y0128483D02*
X0062547Y0128483D01*
X0062961Y0129482D02*
X0056440Y0129482D01*
X0056026Y0130480D02*
X0063944Y0130480D01*
X0065721Y0131479D02*
X0055613Y0131479D01*
X0054962Y0132477D02*
X0085250Y0132477D01*
X0085250Y0131479D02*
X0068779Y0131479D01*
X0070556Y0130480D02*
X0085250Y0130480D01*
X0085250Y0129482D02*
X0071539Y0129482D01*
X0071953Y0128483D02*
X0085250Y0128483D01*
X0085250Y0127485D02*
X0072296Y0127485D01*
X0072296Y0126486D02*
X0085250Y0126486D01*
X0085250Y0125488D02*
X0072231Y0125488D01*
X0071817Y0124489D02*
X0085250Y0124489D01*
X0085250Y0123491D02*
X0071227Y0123491D01*
X0070229Y0122492D02*
X0085250Y0122492D01*
X0085250Y0118498D02*
X0052588Y0118498D01*
X0050177Y0117500D02*
X0085250Y0117500D01*
X0085250Y0133476D02*
X0053964Y0133476D01*
X0052965Y0134474D02*
X0069620Y0134474D01*
X0068916Y0135473D02*
X0050968Y0135473D01*
X0053768Y0141464D02*
X0036104Y0141464D01*
X0037102Y0140465D02*
X0085250Y0140465D01*
X0085250Y0139467D02*
X0075184Y0139467D01*
X0074812Y0143461D02*
X0085250Y0143461D01*
X0085250Y0144459D02*
X0075584Y0144459D01*
X0075584Y0145458D02*
X0085250Y0145458D01*
X0085250Y0146456D02*
X0075584Y0146456D01*
X0075584Y0147455D02*
X0085250Y0147455D01*
X0085250Y0148453D02*
X0075252Y0148453D01*
X0069688Y0143461D02*
X0062563Y0143461D01*
X0062977Y0144459D02*
X0068916Y0144459D01*
X0069316Y0139467D02*
X0037717Y0139467D01*
X0038131Y0138468D02*
X0068916Y0138468D01*
X0068916Y0137470D02*
X0038379Y0137470D01*
X0038379Y0136471D02*
X0068916Y0136471D01*
X0074880Y0134474D02*
X0085250Y0134474D01*
X0085250Y0141464D02*
X0060732Y0141464D01*
X0061730Y0142462D02*
X0085250Y0142462D01*
X0085250Y0149452D02*
X0062723Y0149452D01*
X0062117Y0150451D02*
X0085250Y0150451D01*
X0085250Y0151449D02*
X0061119Y0151449D01*
X0059270Y0152448D02*
X0085250Y0152448D01*
X0089250Y0154445D02*
X0155250Y0154445D01*
X0155250Y0155443D02*
X0089250Y0155443D01*
X0089250Y0156442D02*
X0155250Y0156442D01*
X0155250Y0157440D02*
X0089250Y0157440D01*
X0089250Y0158439D02*
X0155250Y0158439D01*
X0155250Y0159437D02*
X0089250Y0159437D01*
X0089250Y0160436D02*
X0155250Y0160436D01*
X0155250Y0161434D02*
X0089250Y0161434D01*
X0089250Y0162433D02*
X0155250Y0162433D01*
X0155250Y0163431D02*
X0089250Y0163431D01*
X0089250Y0164430D02*
X0155250Y0164430D01*
X0155250Y0165428D02*
X0089250Y0165428D01*
X0089250Y0166427D02*
X0155250Y0166427D01*
X0155250Y0167425D02*
X0089250Y0167425D01*
X0089250Y0168424D02*
X0155250Y0168424D01*
X0155250Y0169422D02*
X0089250Y0169422D01*
X0089250Y0170421D02*
X0155250Y0170421D01*
X0155250Y0171419D02*
X0089250Y0171419D01*
X0089250Y0172418D02*
X0155250Y0172418D01*
X0155250Y0173416D02*
X0089250Y0173416D01*
X0089250Y0174415D02*
X0155250Y0174415D01*
X0155250Y0175413D02*
X0089250Y0175413D01*
X0089250Y0176412D02*
X0155250Y0176412D01*
X0155250Y0177410D02*
X0089250Y0177410D01*
X0089250Y0178409D02*
X0155250Y0178409D01*
X0155250Y0179407D02*
X0089250Y0179407D01*
X0089250Y0180406D02*
X0155250Y0180406D01*
X0155250Y0181404D02*
X0089250Y0181404D01*
X0089250Y0182403D02*
X0155250Y0182403D01*
X0155250Y0183401D02*
X0089250Y0183401D01*
X0089250Y0184400D02*
X0155250Y0184400D01*
X0155250Y0185398D02*
X0089250Y0185398D01*
X0089250Y0186397D02*
X0155250Y0186397D01*
X0155250Y0187395D02*
X0089250Y0187395D01*
X0089250Y0188394D02*
X0155250Y0188394D01*
X0155250Y0189392D02*
X0089250Y0189392D01*
X0089250Y0190391D02*
X0155250Y0190391D01*
X0155250Y0191389D02*
X0089250Y0191389D01*
X0089250Y0192388D02*
X0119592Y0192388D01*
X0117182Y0193387D02*
X0089250Y0193387D01*
X0089250Y0194385D02*
X0115975Y0194385D01*
X0114977Y0195384D02*
X0089250Y0195384D01*
X0089250Y0196382D02*
X0114069Y0196382D01*
X0124908Y0192388D02*
X0155250Y0192388D01*
X0155250Y0193387D02*
X0127318Y0193387D01*
X0128525Y0194385D02*
X0155250Y0194385D01*
X0155250Y0195384D02*
X0129523Y0195384D01*
X0130431Y0196382D02*
X0155250Y0196382D01*
X0155250Y0197381D02*
X0145117Y0197381D01*
X0145109Y0197372D02*
X0146528Y0198791D01*
X0147296Y0200646D01*
X0147296Y0202654D01*
X0146528Y0204509D01*
X0145109Y0205928D01*
X0143254Y0206696D01*
X0141246Y0206696D01*
X0139391Y0205928D01*
X0137972Y0204509D01*
X0137204Y0202654D01*
X0137204Y0200646D01*
X0137972Y0198791D01*
X0139391Y0197372D01*
X0141246Y0196604D01*
X0143254Y0196604D01*
X0145109Y0197372D01*
X0146116Y0198379D02*
X0155250Y0198379D01*
X0155250Y0199378D02*
X0146771Y0199378D01*
X0147185Y0200376D02*
X0155250Y0200376D01*
X0155250Y0201375D02*
X0147296Y0201375D01*
X0147296Y0202373D02*
X0155250Y0202373D01*
X0155250Y0203372D02*
X0146999Y0203372D01*
X0146586Y0204370D02*
X0155250Y0204370D01*
X0155250Y0205369D02*
X0145668Y0205369D01*
X0144049Y0206367D02*
X0155250Y0206367D01*
X0155250Y0207366D02*
X0130074Y0207366D01*
X0130659Y0206367D02*
X0140451Y0206367D01*
X0138832Y0205369D02*
X0131073Y0205369D01*
X0131486Y0204370D02*
X0137914Y0204370D01*
X0137501Y0203372D02*
X0131824Y0203372D01*
X0131824Y0202373D02*
X0137204Y0202373D01*
X0137204Y0201375D02*
X0131824Y0201375D01*
X0131824Y0200376D02*
X0137315Y0200376D01*
X0137729Y0199378D02*
X0131672Y0199378D01*
X0131258Y0198379D02*
X0138384Y0198379D01*
X0139383Y0197381D02*
X0130844Y0197381D01*
X0129076Y0208364D02*
X0155250Y0208364D01*
X0155250Y0209363D02*
X0149768Y0209363D01*
X0150295Y0214355D02*
X0155250Y0214355D01*
X0144732Y0209363D02*
X0128077Y0209363D01*
X0126237Y0210361D02*
X0143916Y0210361D01*
X0129024Y0216352D02*
X0111216Y0216352D01*
X0109503Y0217351D02*
X0127881Y0217351D01*
X0085250Y0214355D02*
X0075295Y0214355D01*
X0074768Y0209363D02*
X0085250Y0209363D01*
X0085250Y0206367D02*
X0069049Y0206367D01*
X0070668Y0205369D02*
X0085250Y0205369D01*
X0085250Y0204370D02*
X0071586Y0204370D01*
X0071999Y0203372D02*
X0085250Y0203372D01*
X0085250Y0202373D02*
X0072296Y0202373D01*
X0072296Y0201375D02*
X0085250Y0201375D01*
X0085250Y0200376D02*
X0072185Y0200376D01*
X0071771Y0199378D02*
X0085250Y0199378D01*
X0085250Y0198379D02*
X0071116Y0198379D01*
X0070117Y0197381D02*
X0085250Y0197381D01*
X0044592Y0192388D02*
X0003950Y0192388D01*
X0003950Y0193387D02*
X0042182Y0193387D01*
X0040975Y0194385D02*
X0003950Y0194385D01*
X0003950Y0195384D02*
X0039977Y0195384D01*
X0039069Y0196382D02*
X0003950Y0196382D01*
X0034234Y0142462D02*
X0052770Y0142462D01*
X0043532Y0135473D02*
X0038379Y0135473D01*
X0037983Y0134474D02*
X0041535Y0134474D01*
X0040536Y0133476D02*
X0037569Y0133476D01*
X0036745Y0132477D02*
X0039538Y0132477D01*
X0038887Y0131479D02*
X0035747Y0131479D01*
X0038474Y0130480D02*
X0030556Y0130480D01*
X0031539Y0129482D02*
X0038060Y0129482D01*
X0037676Y0128483D02*
X0031953Y0128483D01*
X0032296Y0127485D02*
X0037676Y0127485D01*
X0037676Y0126486D02*
X0032296Y0126486D01*
X0032231Y0125488D02*
X0037676Y0125488D01*
X0037782Y0124489D02*
X0031817Y0124489D01*
X0031227Y0123491D02*
X0038196Y0123491D01*
X0055500Y0077559D02*
X0003950Y0077559D01*
X0003950Y0076561D02*
X0053493Y0076561D01*
X0052494Y0075562D02*
X0003950Y0075562D01*
X0003950Y0074564D02*
X0051823Y0074564D01*
X0051409Y0073565D02*
X0003950Y0073565D01*
X0003950Y0072567D02*
X0051121Y0072567D01*
X0051121Y0071568D02*
X0003950Y0071568D01*
X0003950Y0070570D02*
X0051121Y0070570D01*
X0051477Y0069571D02*
X0003950Y0069571D01*
X0003950Y0068573D02*
X0051891Y0068573D01*
X0052658Y0067574D02*
X0033964Y0067574D01*
X0035992Y0066576D02*
X0053657Y0066576D01*
X0053852Y0058587D02*
X0101884Y0058587D01*
X0101471Y0059586D02*
X0074992Y0059586D01*
X0070445Y0055592D02*
X0099055Y0055592D01*
X0098057Y0054593D02*
X0071443Y0054593D01*
X0071907Y0053595D02*
X0097593Y0053595D01*
X0097204Y0052596D02*
X0072296Y0052596D01*
X0072296Y0051598D02*
X0097204Y0051598D01*
X0097223Y0050599D02*
X0072277Y0050599D01*
X0071863Y0049601D02*
X0097637Y0049601D01*
X0098161Y0048602D02*
X0071339Y0048602D01*
X0070341Y0047604D02*
X0099159Y0047604D01*
X0103510Y0056590D02*
X0103642Y0056590D01*
X0105445Y0055592D02*
X0105859Y0055592D01*
X0110992Y0066576D02*
X0128657Y0066576D01*
X0127658Y0067574D02*
X0108964Y0067574D01*
X0128852Y0058587D02*
X0280471Y0058587D01*
X0280471Y0057589D02*
X0129851Y0057589D01*
X0135843Y0066576D02*
X0155250Y0066576D01*
X0155250Y0067574D02*
X0136842Y0067574D01*
X0137609Y0068573D02*
X0144577Y0068573D01*
X0143916Y0069571D02*
X0138023Y0069571D01*
X0137677Y0074564D02*
X0155250Y0074564D01*
X0155250Y0075562D02*
X0137006Y0075562D01*
X0136007Y0076561D02*
X0155250Y0076561D01*
X0155250Y0077559D02*
X0134000Y0077559D01*
X0150141Y0073565D02*
X0155250Y0073565D01*
X0155250Y0072567D02*
X0150584Y0072567D01*
X0150584Y0071568D02*
X0155250Y0071568D01*
X0155250Y0070570D02*
X0150584Y0070570D01*
X0150584Y0069571D02*
X0155250Y0069571D01*
X0155250Y0068573D02*
X0149923Y0068573D01*
X0128748Y0044608D02*
X0280471Y0044608D01*
X0280471Y0043610D02*
X0127750Y0043610D01*
X0125447Y0042611D02*
X0280471Y0042611D01*
X0269457Y0025637D02*
X0015043Y0025637D01*
X0017354Y0024638D02*
X0267146Y0024638D01*
X0265956Y0023640D02*
X0018544Y0023640D01*
X0019645Y0022641D02*
X0264855Y0022641D01*
X0264938Y0022785D02*
X0264938Y0022785D01*
X0264938Y0022785D01*
X0264278Y0021643D02*
X0020222Y0021643D01*
X0020798Y0020644D02*
X0263702Y0020644D01*
X0263281Y0019915D02*
X0263281Y0019915D01*
X0263233Y0019646D02*
X0021267Y0019646D01*
X0021219Y0019915D02*
X0021219Y0019915D01*
X0021443Y0018647D02*
X0263057Y0018647D01*
X0262881Y0017649D02*
X0021619Y0017649D01*
X0021795Y0016650D02*
X0021795Y0016650D01*
X0021219Y0013385D01*
X0021219Y0013385D01*
X0019562Y0010515D01*
X0019562Y0010515D01*
X0019562Y0010515D01*
X0017023Y0008384D01*
X0017022Y0008384D01*
X0016930Y0008350D01*
X0267570Y0008350D01*
X0267477Y0008384D01*
X0267477Y0008384D01*
X0264938Y0010515D01*
X0264938Y0010515D01*
X0263281Y0013385D01*
X0263281Y0013385D01*
X0262705Y0016650D01*
X0262705Y0016650D01*
X0262881Y0015651D02*
X0021619Y0015651D01*
X0021443Y0014653D02*
X0263057Y0014653D01*
X0263233Y0013654D02*
X0021267Y0013654D01*
X0020798Y0012656D02*
X0263702Y0012656D01*
X0264278Y0011657D02*
X0020222Y0011657D01*
X0019645Y0010659D02*
X0264855Y0010659D01*
X0265956Y0009660D02*
X0018544Y0009660D01*
X0017354Y0008662D02*
X0267146Y0008662D01*
X0276930Y0008350D02*
X0277022Y0008384D01*
X0277023Y0008384D01*
X0279562Y0010515D01*
X0280471Y0012090D01*
X0280471Y0008350D01*
X0276930Y0008350D01*
X0277354Y0008662D02*
X0280471Y0008662D01*
X0280471Y0009660D02*
X0278544Y0009660D01*
X0279562Y0010515D02*
X0279562Y0010515D01*
X0279562Y0010515D01*
X0279645Y0010659D02*
X0280471Y0010659D01*
X0280471Y0011657D02*
X0280222Y0011657D01*
X0155250Y0140465D02*
X0112102Y0140465D01*
X0112717Y0139467D02*
X0144316Y0139467D01*
X0143916Y0138468D02*
X0113131Y0138468D01*
X0113379Y0137470D02*
X0143916Y0137470D01*
X0143916Y0136471D02*
X0113379Y0136471D01*
X0113379Y0135473D02*
X0118532Y0135473D01*
X0116535Y0134474D02*
X0112983Y0134474D01*
X0112569Y0133476D02*
X0115536Y0133476D01*
X0114538Y0132477D02*
X0111745Y0132477D01*
X0110747Y0131479D02*
X0113887Y0131479D01*
X0113474Y0130480D02*
X0105556Y0130480D01*
X0106539Y0129482D02*
X0113060Y0129482D01*
X0112676Y0128483D02*
X0106953Y0128483D01*
X0107296Y0127485D02*
X0112676Y0127485D01*
X0112676Y0126486D02*
X0107296Y0126486D01*
X0107231Y0125488D02*
X0112676Y0125488D01*
X0112782Y0124489D02*
X0106817Y0124489D01*
X0106227Y0123491D02*
X0113196Y0123491D01*
X0125968Y0135473D02*
X0143916Y0135473D01*
X0144620Y0134474D02*
X0127965Y0134474D01*
X0128964Y0133476D02*
X0148068Y0133476D01*
X0155250Y0141464D02*
X0135732Y0141464D01*
X0136730Y0142462D02*
X0155250Y0142462D01*
X0144688Y0143461D02*
X0137563Y0143461D01*
X0137977Y0144459D02*
X0143916Y0144459D01*
X0128768Y0141464D02*
X0111104Y0141464D01*
X0109234Y0142462D02*
X0127770Y0142462D01*
X0030536Y0067574D02*
X0003950Y0067574D01*
X0003950Y0066576D02*
X0028508Y0066576D01*
X0027509Y0065577D02*
X0003950Y0065577D01*
X0003950Y0064579D02*
X0026829Y0064579D01*
X0026415Y0063580D02*
X0003950Y0063580D01*
X0003950Y0062582D02*
X0026121Y0062582D01*
X0026121Y0061583D02*
X0003950Y0061583D01*
X0003950Y0060584D02*
X0026121Y0060584D01*
X0026471Y0059586D02*
X0003950Y0059586D01*
X0003950Y0058587D02*
X0026884Y0058587D01*
X0027643Y0057589D02*
X0003950Y0057589D01*
X0003950Y0056590D02*
X0025990Y0056590D01*
X0024055Y0055592D02*
X0003950Y0055592D01*
X0003950Y0054593D02*
X0023057Y0054593D01*
X0022593Y0053595D02*
X0003950Y0053595D01*
X0003950Y0052596D02*
X0022204Y0052596D01*
X0022204Y0051598D02*
X0003950Y0051598D01*
X0003950Y0050599D02*
X0022223Y0050599D01*
X0022637Y0049601D02*
X0003950Y0049601D01*
X0003950Y0048602D02*
X0023161Y0048602D01*
X0024159Y0047604D02*
X0003950Y0047604D01*
X0028510Y0056590D02*
X0028642Y0056590D01*
X0030445Y0055592D02*
X0030859Y0055592D01*
X0060207Y0291241D02*
X0103173Y0291241D01*
X0104727Y0292239D02*
X0061507Y0292239D01*
X0062816Y0299229D02*
X0126684Y0299229D01*
X0127159Y0300227D02*
X0062341Y0300227D01*
X0061342Y0301226D02*
X0128158Y0301226D01*
X0129691Y0302224D02*
X0059809Y0302224D01*
X0109773Y0292239D02*
X0127993Y0292239D01*
X0129293Y0291241D02*
X0111327Y0291241D01*
M02*
