G75*
%MOIN*%
%OFA0B0*%
%FSLAX25Y25*%
%IPPOS*%
%LPD*%
%AMOC8*
5,1,8,0,0,1.08239X$1,22.5*
%
%ADD10C,0.16548*%
%ADD11C,0.07493*%
%ADD12C,0.09658*%
%ADD13C,0.05800*%
%ADD14C,0.13800*%
D10*
X0047250Y0051650D03*
X0047250Y0126650D03*
X0047250Y0201650D03*
X0047250Y0276650D03*
X0122250Y0276650D03*
X0122250Y0201650D03*
X0122250Y0126650D03*
X0122250Y0051650D03*
D11*
X0102250Y0051650D03*
X0067250Y0051650D03*
X0027250Y0051650D03*
X0027250Y0126650D03*
X0067250Y0126650D03*
X0102250Y0126650D03*
X0142250Y0126650D03*
X0142250Y0201650D03*
X0102250Y0201650D03*
X0067250Y0201650D03*
X0027250Y0201650D03*
X0027250Y0276650D03*
X0067250Y0276650D03*
X0102250Y0276650D03*
X0142250Y0276650D03*
X0142250Y0051650D03*
D12*
X0132250Y0071650D03*
X0107250Y0061650D03*
X0057250Y0071650D03*
X0032250Y0061650D03*
X0032250Y0136650D03*
X0057250Y0146650D03*
X0107250Y0136650D03*
X0132250Y0146650D03*
X0107250Y0211650D03*
X0132250Y0221650D03*
X0107250Y0286650D03*
X0132250Y0296650D03*
X0057250Y0296650D03*
X0032250Y0286650D03*
X0057250Y0221650D03*
X0032250Y0211650D03*
D13*
X0184750Y0131650D02*
X0189750Y0131650D01*
X0189750Y0121650D02*
X0184750Y0121650D01*
X0184750Y0111650D02*
X0189750Y0111650D01*
X0189750Y0101650D02*
X0184750Y0101650D01*
X0184750Y0091650D02*
X0189750Y0091650D01*
X0189750Y0081650D02*
X0184750Y0081650D01*
X0184750Y0071650D02*
X0189750Y0071650D01*
X0189750Y0061650D02*
X0184750Y0061650D01*
X0184750Y0051650D02*
X0189750Y0051650D01*
X0189750Y0041650D02*
X0184750Y0041650D01*
X0184750Y0031650D02*
X0189750Y0031650D01*
X0189750Y0021650D02*
X0184750Y0021650D01*
X0254750Y0021650D02*
X0259750Y0021650D01*
X0259750Y0031650D02*
X0254750Y0031650D01*
X0254750Y0041650D02*
X0259750Y0041650D01*
X0259750Y0051650D02*
X0254750Y0051650D01*
X0254750Y0061650D02*
X0259750Y0061650D01*
X0259750Y0071650D02*
X0254750Y0071650D01*
X0254750Y0081650D02*
X0259750Y0081650D01*
X0259750Y0091650D02*
X0254750Y0091650D01*
X0254750Y0101650D02*
X0259750Y0101650D01*
X0259750Y0111650D02*
X0254750Y0111650D01*
X0254750Y0121650D02*
X0259750Y0121650D01*
X0259750Y0131650D02*
X0254750Y0131650D01*
D14*
X0012250Y0016650D03*
X0272250Y0016650D03*
X0272250Y0311650D03*
X0012250Y0311650D03*
M02*
