G75*
%MOIN*%
%OFA0B0*%
%FSLAX25Y25*%
%IPPOS*%
%LPD*%
%AMOC8*
5,1,8,0,0,1.08239X$1,22.5*
%
%ADD10C,0.00000*%
D10*
X0002250Y0006650D02*
X0002250Y0321351D01*
X0282171Y0321351D01*
X0282171Y0006650D01*
X0002250Y0006650D01*
X0005750Y0016650D02*
X0005752Y0016811D01*
X0005758Y0016971D01*
X0005768Y0017132D01*
X0005782Y0017292D01*
X0005800Y0017452D01*
X0005821Y0017611D01*
X0005847Y0017770D01*
X0005877Y0017928D01*
X0005910Y0018085D01*
X0005948Y0018242D01*
X0005989Y0018397D01*
X0006034Y0018551D01*
X0006083Y0018704D01*
X0006136Y0018856D01*
X0006192Y0019007D01*
X0006253Y0019156D01*
X0006316Y0019304D01*
X0006384Y0019450D01*
X0006455Y0019594D01*
X0006529Y0019736D01*
X0006607Y0019877D01*
X0006689Y0020015D01*
X0006774Y0020152D01*
X0006862Y0020286D01*
X0006954Y0020418D01*
X0007049Y0020548D01*
X0007147Y0020676D01*
X0007248Y0020801D01*
X0007352Y0020923D01*
X0007459Y0021043D01*
X0007569Y0021160D01*
X0007682Y0021275D01*
X0007798Y0021386D01*
X0007917Y0021495D01*
X0008038Y0021600D01*
X0008162Y0021703D01*
X0008288Y0021803D01*
X0008416Y0021899D01*
X0008547Y0021992D01*
X0008681Y0022082D01*
X0008816Y0022169D01*
X0008954Y0022252D01*
X0009093Y0022332D01*
X0009235Y0022408D01*
X0009378Y0022481D01*
X0009523Y0022550D01*
X0009670Y0022616D01*
X0009818Y0022678D01*
X0009968Y0022736D01*
X0010119Y0022791D01*
X0010272Y0022842D01*
X0010426Y0022889D01*
X0010581Y0022932D01*
X0010737Y0022971D01*
X0010893Y0023007D01*
X0011051Y0023038D01*
X0011209Y0023066D01*
X0011368Y0023090D01*
X0011528Y0023110D01*
X0011688Y0023126D01*
X0011848Y0023138D01*
X0012009Y0023146D01*
X0012170Y0023150D01*
X0012330Y0023150D01*
X0012491Y0023146D01*
X0012652Y0023138D01*
X0012812Y0023126D01*
X0012972Y0023110D01*
X0013132Y0023090D01*
X0013291Y0023066D01*
X0013449Y0023038D01*
X0013607Y0023007D01*
X0013763Y0022971D01*
X0013919Y0022932D01*
X0014074Y0022889D01*
X0014228Y0022842D01*
X0014381Y0022791D01*
X0014532Y0022736D01*
X0014682Y0022678D01*
X0014830Y0022616D01*
X0014977Y0022550D01*
X0015122Y0022481D01*
X0015265Y0022408D01*
X0015407Y0022332D01*
X0015546Y0022252D01*
X0015684Y0022169D01*
X0015819Y0022082D01*
X0015953Y0021992D01*
X0016084Y0021899D01*
X0016212Y0021803D01*
X0016338Y0021703D01*
X0016462Y0021600D01*
X0016583Y0021495D01*
X0016702Y0021386D01*
X0016818Y0021275D01*
X0016931Y0021160D01*
X0017041Y0021043D01*
X0017148Y0020923D01*
X0017252Y0020801D01*
X0017353Y0020676D01*
X0017451Y0020548D01*
X0017546Y0020418D01*
X0017638Y0020286D01*
X0017726Y0020152D01*
X0017811Y0020015D01*
X0017893Y0019877D01*
X0017971Y0019736D01*
X0018045Y0019594D01*
X0018116Y0019450D01*
X0018184Y0019304D01*
X0018247Y0019156D01*
X0018308Y0019007D01*
X0018364Y0018856D01*
X0018417Y0018704D01*
X0018466Y0018551D01*
X0018511Y0018397D01*
X0018552Y0018242D01*
X0018590Y0018085D01*
X0018623Y0017928D01*
X0018653Y0017770D01*
X0018679Y0017611D01*
X0018700Y0017452D01*
X0018718Y0017292D01*
X0018732Y0017132D01*
X0018742Y0016971D01*
X0018748Y0016811D01*
X0018750Y0016650D01*
X0018748Y0016489D01*
X0018742Y0016329D01*
X0018732Y0016168D01*
X0018718Y0016008D01*
X0018700Y0015848D01*
X0018679Y0015689D01*
X0018653Y0015530D01*
X0018623Y0015372D01*
X0018590Y0015215D01*
X0018552Y0015058D01*
X0018511Y0014903D01*
X0018466Y0014749D01*
X0018417Y0014596D01*
X0018364Y0014444D01*
X0018308Y0014293D01*
X0018247Y0014144D01*
X0018184Y0013996D01*
X0018116Y0013850D01*
X0018045Y0013706D01*
X0017971Y0013564D01*
X0017893Y0013423D01*
X0017811Y0013285D01*
X0017726Y0013148D01*
X0017638Y0013014D01*
X0017546Y0012882D01*
X0017451Y0012752D01*
X0017353Y0012624D01*
X0017252Y0012499D01*
X0017148Y0012377D01*
X0017041Y0012257D01*
X0016931Y0012140D01*
X0016818Y0012025D01*
X0016702Y0011914D01*
X0016583Y0011805D01*
X0016462Y0011700D01*
X0016338Y0011597D01*
X0016212Y0011497D01*
X0016084Y0011401D01*
X0015953Y0011308D01*
X0015819Y0011218D01*
X0015684Y0011131D01*
X0015546Y0011048D01*
X0015407Y0010968D01*
X0015265Y0010892D01*
X0015122Y0010819D01*
X0014977Y0010750D01*
X0014830Y0010684D01*
X0014682Y0010622D01*
X0014532Y0010564D01*
X0014381Y0010509D01*
X0014228Y0010458D01*
X0014074Y0010411D01*
X0013919Y0010368D01*
X0013763Y0010329D01*
X0013607Y0010293D01*
X0013449Y0010262D01*
X0013291Y0010234D01*
X0013132Y0010210D01*
X0012972Y0010190D01*
X0012812Y0010174D01*
X0012652Y0010162D01*
X0012491Y0010154D01*
X0012330Y0010150D01*
X0012170Y0010150D01*
X0012009Y0010154D01*
X0011848Y0010162D01*
X0011688Y0010174D01*
X0011528Y0010190D01*
X0011368Y0010210D01*
X0011209Y0010234D01*
X0011051Y0010262D01*
X0010893Y0010293D01*
X0010737Y0010329D01*
X0010581Y0010368D01*
X0010426Y0010411D01*
X0010272Y0010458D01*
X0010119Y0010509D01*
X0009968Y0010564D01*
X0009818Y0010622D01*
X0009670Y0010684D01*
X0009523Y0010750D01*
X0009378Y0010819D01*
X0009235Y0010892D01*
X0009093Y0010968D01*
X0008954Y0011048D01*
X0008816Y0011131D01*
X0008681Y0011218D01*
X0008547Y0011308D01*
X0008416Y0011401D01*
X0008288Y0011497D01*
X0008162Y0011597D01*
X0008038Y0011700D01*
X0007917Y0011805D01*
X0007798Y0011914D01*
X0007682Y0012025D01*
X0007569Y0012140D01*
X0007459Y0012257D01*
X0007352Y0012377D01*
X0007248Y0012499D01*
X0007147Y0012624D01*
X0007049Y0012752D01*
X0006954Y0012882D01*
X0006862Y0013014D01*
X0006774Y0013148D01*
X0006689Y0013285D01*
X0006607Y0013423D01*
X0006529Y0013564D01*
X0006455Y0013706D01*
X0006384Y0013850D01*
X0006316Y0013996D01*
X0006253Y0014144D01*
X0006192Y0014293D01*
X0006136Y0014444D01*
X0006083Y0014596D01*
X0006034Y0014749D01*
X0005989Y0014903D01*
X0005948Y0015058D01*
X0005910Y0015215D01*
X0005877Y0015372D01*
X0005847Y0015530D01*
X0005821Y0015689D01*
X0005800Y0015848D01*
X0005782Y0016008D01*
X0005768Y0016168D01*
X0005758Y0016329D01*
X0005752Y0016489D01*
X0005750Y0016650D01*
X0023904Y0051650D02*
X0023906Y0051765D01*
X0023912Y0051881D01*
X0023922Y0051996D01*
X0023936Y0052111D01*
X0023954Y0052225D01*
X0023976Y0052338D01*
X0024001Y0052451D01*
X0024031Y0052562D01*
X0024064Y0052673D01*
X0024101Y0052782D01*
X0024142Y0052890D01*
X0024187Y0052997D01*
X0024235Y0053102D01*
X0024287Y0053205D01*
X0024343Y0053306D01*
X0024402Y0053406D01*
X0024464Y0053503D01*
X0024530Y0053598D01*
X0024598Y0053691D01*
X0024670Y0053781D01*
X0024745Y0053869D01*
X0024824Y0053954D01*
X0024905Y0054036D01*
X0024988Y0054116D01*
X0025075Y0054192D01*
X0025164Y0054266D01*
X0025255Y0054336D01*
X0025349Y0054404D01*
X0025445Y0054468D01*
X0025544Y0054528D01*
X0025644Y0054585D01*
X0025746Y0054639D01*
X0025850Y0054689D01*
X0025956Y0054736D01*
X0026063Y0054779D01*
X0026172Y0054818D01*
X0026282Y0054853D01*
X0026393Y0054884D01*
X0026505Y0054912D01*
X0026618Y0054936D01*
X0026732Y0054956D01*
X0026847Y0054972D01*
X0026962Y0054984D01*
X0027077Y0054992D01*
X0027192Y0054996D01*
X0027308Y0054996D01*
X0027423Y0054992D01*
X0027538Y0054984D01*
X0027653Y0054972D01*
X0027768Y0054956D01*
X0027882Y0054936D01*
X0027995Y0054912D01*
X0028107Y0054884D01*
X0028218Y0054853D01*
X0028328Y0054818D01*
X0028437Y0054779D01*
X0028544Y0054736D01*
X0028650Y0054689D01*
X0028754Y0054639D01*
X0028856Y0054585D01*
X0028956Y0054528D01*
X0029055Y0054468D01*
X0029151Y0054404D01*
X0029245Y0054336D01*
X0029336Y0054266D01*
X0029425Y0054192D01*
X0029512Y0054116D01*
X0029595Y0054036D01*
X0029676Y0053954D01*
X0029755Y0053869D01*
X0029830Y0053781D01*
X0029902Y0053691D01*
X0029970Y0053598D01*
X0030036Y0053503D01*
X0030098Y0053406D01*
X0030157Y0053306D01*
X0030213Y0053205D01*
X0030265Y0053102D01*
X0030313Y0052997D01*
X0030358Y0052890D01*
X0030399Y0052782D01*
X0030436Y0052673D01*
X0030469Y0052562D01*
X0030499Y0052451D01*
X0030524Y0052338D01*
X0030546Y0052225D01*
X0030564Y0052111D01*
X0030578Y0051996D01*
X0030588Y0051881D01*
X0030594Y0051765D01*
X0030596Y0051650D01*
X0030594Y0051535D01*
X0030588Y0051419D01*
X0030578Y0051304D01*
X0030564Y0051189D01*
X0030546Y0051075D01*
X0030524Y0050962D01*
X0030499Y0050849D01*
X0030469Y0050738D01*
X0030436Y0050627D01*
X0030399Y0050518D01*
X0030358Y0050410D01*
X0030313Y0050303D01*
X0030265Y0050198D01*
X0030213Y0050095D01*
X0030157Y0049994D01*
X0030098Y0049894D01*
X0030036Y0049797D01*
X0029970Y0049702D01*
X0029902Y0049609D01*
X0029830Y0049519D01*
X0029755Y0049431D01*
X0029676Y0049346D01*
X0029595Y0049264D01*
X0029512Y0049184D01*
X0029425Y0049108D01*
X0029336Y0049034D01*
X0029245Y0048964D01*
X0029151Y0048896D01*
X0029055Y0048832D01*
X0028956Y0048772D01*
X0028856Y0048715D01*
X0028754Y0048661D01*
X0028650Y0048611D01*
X0028544Y0048564D01*
X0028437Y0048521D01*
X0028328Y0048482D01*
X0028218Y0048447D01*
X0028107Y0048416D01*
X0027995Y0048388D01*
X0027882Y0048364D01*
X0027768Y0048344D01*
X0027653Y0048328D01*
X0027538Y0048316D01*
X0027423Y0048308D01*
X0027308Y0048304D01*
X0027192Y0048304D01*
X0027077Y0048308D01*
X0026962Y0048316D01*
X0026847Y0048328D01*
X0026732Y0048344D01*
X0026618Y0048364D01*
X0026505Y0048388D01*
X0026393Y0048416D01*
X0026282Y0048447D01*
X0026172Y0048482D01*
X0026063Y0048521D01*
X0025956Y0048564D01*
X0025850Y0048611D01*
X0025746Y0048661D01*
X0025644Y0048715D01*
X0025544Y0048772D01*
X0025445Y0048832D01*
X0025349Y0048896D01*
X0025255Y0048964D01*
X0025164Y0049034D01*
X0025075Y0049108D01*
X0024988Y0049184D01*
X0024905Y0049264D01*
X0024824Y0049346D01*
X0024745Y0049431D01*
X0024670Y0049519D01*
X0024598Y0049609D01*
X0024530Y0049702D01*
X0024464Y0049797D01*
X0024402Y0049894D01*
X0024343Y0049994D01*
X0024287Y0050095D01*
X0024235Y0050198D01*
X0024187Y0050303D01*
X0024142Y0050410D01*
X0024101Y0050518D01*
X0024064Y0050627D01*
X0024031Y0050738D01*
X0024001Y0050849D01*
X0023976Y0050962D01*
X0023954Y0051075D01*
X0023936Y0051189D01*
X0023922Y0051304D01*
X0023912Y0051419D01*
X0023906Y0051535D01*
X0023904Y0051650D01*
X0039376Y0051650D02*
X0039378Y0051843D01*
X0039385Y0052036D01*
X0039397Y0052229D01*
X0039414Y0052422D01*
X0039435Y0052614D01*
X0039461Y0052805D01*
X0039492Y0052996D01*
X0039527Y0053186D01*
X0039567Y0053375D01*
X0039612Y0053563D01*
X0039661Y0053750D01*
X0039715Y0053936D01*
X0039773Y0054120D01*
X0039836Y0054303D01*
X0039904Y0054484D01*
X0039975Y0054663D01*
X0040052Y0054841D01*
X0040132Y0055017D01*
X0040217Y0055190D01*
X0040306Y0055362D01*
X0040399Y0055531D01*
X0040496Y0055698D01*
X0040598Y0055863D01*
X0040703Y0056025D01*
X0040812Y0056184D01*
X0040926Y0056341D01*
X0041043Y0056494D01*
X0041163Y0056645D01*
X0041288Y0056793D01*
X0041416Y0056938D01*
X0041547Y0057079D01*
X0041682Y0057218D01*
X0041821Y0057353D01*
X0041962Y0057484D01*
X0042107Y0057612D01*
X0042255Y0057737D01*
X0042406Y0057857D01*
X0042559Y0057974D01*
X0042716Y0058088D01*
X0042875Y0058197D01*
X0043037Y0058302D01*
X0043202Y0058404D01*
X0043369Y0058501D01*
X0043538Y0058594D01*
X0043710Y0058683D01*
X0043883Y0058768D01*
X0044059Y0058848D01*
X0044237Y0058925D01*
X0044416Y0058996D01*
X0044597Y0059064D01*
X0044780Y0059127D01*
X0044964Y0059185D01*
X0045150Y0059239D01*
X0045337Y0059288D01*
X0045525Y0059333D01*
X0045714Y0059373D01*
X0045904Y0059408D01*
X0046095Y0059439D01*
X0046286Y0059465D01*
X0046478Y0059486D01*
X0046671Y0059503D01*
X0046864Y0059515D01*
X0047057Y0059522D01*
X0047250Y0059524D01*
X0047443Y0059522D01*
X0047636Y0059515D01*
X0047829Y0059503D01*
X0048022Y0059486D01*
X0048214Y0059465D01*
X0048405Y0059439D01*
X0048596Y0059408D01*
X0048786Y0059373D01*
X0048975Y0059333D01*
X0049163Y0059288D01*
X0049350Y0059239D01*
X0049536Y0059185D01*
X0049720Y0059127D01*
X0049903Y0059064D01*
X0050084Y0058996D01*
X0050263Y0058925D01*
X0050441Y0058848D01*
X0050617Y0058768D01*
X0050790Y0058683D01*
X0050962Y0058594D01*
X0051131Y0058501D01*
X0051298Y0058404D01*
X0051463Y0058302D01*
X0051625Y0058197D01*
X0051784Y0058088D01*
X0051941Y0057974D01*
X0052094Y0057857D01*
X0052245Y0057737D01*
X0052393Y0057612D01*
X0052538Y0057484D01*
X0052679Y0057353D01*
X0052818Y0057218D01*
X0052953Y0057079D01*
X0053084Y0056938D01*
X0053212Y0056793D01*
X0053337Y0056645D01*
X0053457Y0056494D01*
X0053574Y0056341D01*
X0053688Y0056184D01*
X0053797Y0056025D01*
X0053902Y0055863D01*
X0054004Y0055698D01*
X0054101Y0055531D01*
X0054194Y0055362D01*
X0054283Y0055190D01*
X0054368Y0055017D01*
X0054448Y0054841D01*
X0054525Y0054663D01*
X0054596Y0054484D01*
X0054664Y0054303D01*
X0054727Y0054120D01*
X0054785Y0053936D01*
X0054839Y0053750D01*
X0054888Y0053563D01*
X0054933Y0053375D01*
X0054973Y0053186D01*
X0055008Y0052996D01*
X0055039Y0052805D01*
X0055065Y0052614D01*
X0055086Y0052422D01*
X0055103Y0052229D01*
X0055115Y0052036D01*
X0055122Y0051843D01*
X0055124Y0051650D01*
X0055122Y0051457D01*
X0055115Y0051264D01*
X0055103Y0051071D01*
X0055086Y0050878D01*
X0055065Y0050686D01*
X0055039Y0050495D01*
X0055008Y0050304D01*
X0054973Y0050114D01*
X0054933Y0049925D01*
X0054888Y0049737D01*
X0054839Y0049550D01*
X0054785Y0049364D01*
X0054727Y0049180D01*
X0054664Y0048997D01*
X0054596Y0048816D01*
X0054525Y0048637D01*
X0054448Y0048459D01*
X0054368Y0048283D01*
X0054283Y0048110D01*
X0054194Y0047938D01*
X0054101Y0047769D01*
X0054004Y0047602D01*
X0053902Y0047437D01*
X0053797Y0047275D01*
X0053688Y0047116D01*
X0053574Y0046959D01*
X0053457Y0046806D01*
X0053337Y0046655D01*
X0053212Y0046507D01*
X0053084Y0046362D01*
X0052953Y0046221D01*
X0052818Y0046082D01*
X0052679Y0045947D01*
X0052538Y0045816D01*
X0052393Y0045688D01*
X0052245Y0045563D01*
X0052094Y0045443D01*
X0051941Y0045326D01*
X0051784Y0045212D01*
X0051625Y0045103D01*
X0051463Y0044998D01*
X0051298Y0044896D01*
X0051131Y0044799D01*
X0050962Y0044706D01*
X0050790Y0044617D01*
X0050617Y0044532D01*
X0050441Y0044452D01*
X0050263Y0044375D01*
X0050084Y0044304D01*
X0049903Y0044236D01*
X0049720Y0044173D01*
X0049536Y0044115D01*
X0049350Y0044061D01*
X0049163Y0044012D01*
X0048975Y0043967D01*
X0048786Y0043927D01*
X0048596Y0043892D01*
X0048405Y0043861D01*
X0048214Y0043835D01*
X0048022Y0043814D01*
X0047829Y0043797D01*
X0047636Y0043785D01*
X0047443Y0043778D01*
X0047250Y0043776D01*
X0047057Y0043778D01*
X0046864Y0043785D01*
X0046671Y0043797D01*
X0046478Y0043814D01*
X0046286Y0043835D01*
X0046095Y0043861D01*
X0045904Y0043892D01*
X0045714Y0043927D01*
X0045525Y0043967D01*
X0045337Y0044012D01*
X0045150Y0044061D01*
X0044964Y0044115D01*
X0044780Y0044173D01*
X0044597Y0044236D01*
X0044416Y0044304D01*
X0044237Y0044375D01*
X0044059Y0044452D01*
X0043883Y0044532D01*
X0043710Y0044617D01*
X0043538Y0044706D01*
X0043369Y0044799D01*
X0043202Y0044896D01*
X0043037Y0044998D01*
X0042875Y0045103D01*
X0042716Y0045212D01*
X0042559Y0045326D01*
X0042406Y0045443D01*
X0042255Y0045563D01*
X0042107Y0045688D01*
X0041962Y0045816D01*
X0041821Y0045947D01*
X0041682Y0046082D01*
X0041547Y0046221D01*
X0041416Y0046362D01*
X0041288Y0046507D01*
X0041163Y0046655D01*
X0041043Y0046806D01*
X0040926Y0046959D01*
X0040812Y0047116D01*
X0040703Y0047275D01*
X0040598Y0047437D01*
X0040496Y0047602D01*
X0040399Y0047769D01*
X0040306Y0047938D01*
X0040217Y0048110D01*
X0040132Y0048283D01*
X0040052Y0048459D01*
X0039975Y0048637D01*
X0039904Y0048816D01*
X0039836Y0048997D01*
X0039773Y0049180D01*
X0039715Y0049364D01*
X0039661Y0049550D01*
X0039612Y0049737D01*
X0039567Y0049925D01*
X0039527Y0050114D01*
X0039492Y0050304D01*
X0039461Y0050495D01*
X0039435Y0050686D01*
X0039414Y0050878D01*
X0039397Y0051071D01*
X0039385Y0051264D01*
X0039378Y0051457D01*
X0039376Y0051650D01*
X0063904Y0051650D02*
X0063906Y0051765D01*
X0063912Y0051881D01*
X0063922Y0051996D01*
X0063936Y0052111D01*
X0063954Y0052225D01*
X0063976Y0052338D01*
X0064001Y0052451D01*
X0064031Y0052562D01*
X0064064Y0052673D01*
X0064101Y0052782D01*
X0064142Y0052890D01*
X0064187Y0052997D01*
X0064235Y0053102D01*
X0064287Y0053205D01*
X0064343Y0053306D01*
X0064402Y0053406D01*
X0064464Y0053503D01*
X0064530Y0053598D01*
X0064598Y0053691D01*
X0064670Y0053781D01*
X0064745Y0053869D01*
X0064824Y0053954D01*
X0064905Y0054036D01*
X0064988Y0054116D01*
X0065075Y0054192D01*
X0065164Y0054266D01*
X0065255Y0054336D01*
X0065349Y0054404D01*
X0065445Y0054468D01*
X0065544Y0054528D01*
X0065644Y0054585D01*
X0065746Y0054639D01*
X0065850Y0054689D01*
X0065956Y0054736D01*
X0066063Y0054779D01*
X0066172Y0054818D01*
X0066282Y0054853D01*
X0066393Y0054884D01*
X0066505Y0054912D01*
X0066618Y0054936D01*
X0066732Y0054956D01*
X0066847Y0054972D01*
X0066962Y0054984D01*
X0067077Y0054992D01*
X0067192Y0054996D01*
X0067308Y0054996D01*
X0067423Y0054992D01*
X0067538Y0054984D01*
X0067653Y0054972D01*
X0067768Y0054956D01*
X0067882Y0054936D01*
X0067995Y0054912D01*
X0068107Y0054884D01*
X0068218Y0054853D01*
X0068328Y0054818D01*
X0068437Y0054779D01*
X0068544Y0054736D01*
X0068650Y0054689D01*
X0068754Y0054639D01*
X0068856Y0054585D01*
X0068956Y0054528D01*
X0069055Y0054468D01*
X0069151Y0054404D01*
X0069245Y0054336D01*
X0069336Y0054266D01*
X0069425Y0054192D01*
X0069512Y0054116D01*
X0069595Y0054036D01*
X0069676Y0053954D01*
X0069755Y0053869D01*
X0069830Y0053781D01*
X0069902Y0053691D01*
X0069970Y0053598D01*
X0070036Y0053503D01*
X0070098Y0053406D01*
X0070157Y0053306D01*
X0070213Y0053205D01*
X0070265Y0053102D01*
X0070313Y0052997D01*
X0070358Y0052890D01*
X0070399Y0052782D01*
X0070436Y0052673D01*
X0070469Y0052562D01*
X0070499Y0052451D01*
X0070524Y0052338D01*
X0070546Y0052225D01*
X0070564Y0052111D01*
X0070578Y0051996D01*
X0070588Y0051881D01*
X0070594Y0051765D01*
X0070596Y0051650D01*
X0070594Y0051535D01*
X0070588Y0051419D01*
X0070578Y0051304D01*
X0070564Y0051189D01*
X0070546Y0051075D01*
X0070524Y0050962D01*
X0070499Y0050849D01*
X0070469Y0050738D01*
X0070436Y0050627D01*
X0070399Y0050518D01*
X0070358Y0050410D01*
X0070313Y0050303D01*
X0070265Y0050198D01*
X0070213Y0050095D01*
X0070157Y0049994D01*
X0070098Y0049894D01*
X0070036Y0049797D01*
X0069970Y0049702D01*
X0069902Y0049609D01*
X0069830Y0049519D01*
X0069755Y0049431D01*
X0069676Y0049346D01*
X0069595Y0049264D01*
X0069512Y0049184D01*
X0069425Y0049108D01*
X0069336Y0049034D01*
X0069245Y0048964D01*
X0069151Y0048896D01*
X0069055Y0048832D01*
X0068956Y0048772D01*
X0068856Y0048715D01*
X0068754Y0048661D01*
X0068650Y0048611D01*
X0068544Y0048564D01*
X0068437Y0048521D01*
X0068328Y0048482D01*
X0068218Y0048447D01*
X0068107Y0048416D01*
X0067995Y0048388D01*
X0067882Y0048364D01*
X0067768Y0048344D01*
X0067653Y0048328D01*
X0067538Y0048316D01*
X0067423Y0048308D01*
X0067308Y0048304D01*
X0067192Y0048304D01*
X0067077Y0048308D01*
X0066962Y0048316D01*
X0066847Y0048328D01*
X0066732Y0048344D01*
X0066618Y0048364D01*
X0066505Y0048388D01*
X0066393Y0048416D01*
X0066282Y0048447D01*
X0066172Y0048482D01*
X0066063Y0048521D01*
X0065956Y0048564D01*
X0065850Y0048611D01*
X0065746Y0048661D01*
X0065644Y0048715D01*
X0065544Y0048772D01*
X0065445Y0048832D01*
X0065349Y0048896D01*
X0065255Y0048964D01*
X0065164Y0049034D01*
X0065075Y0049108D01*
X0064988Y0049184D01*
X0064905Y0049264D01*
X0064824Y0049346D01*
X0064745Y0049431D01*
X0064670Y0049519D01*
X0064598Y0049609D01*
X0064530Y0049702D01*
X0064464Y0049797D01*
X0064402Y0049894D01*
X0064343Y0049994D01*
X0064287Y0050095D01*
X0064235Y0050198D01*
X0064187Y0050303D01*
X0064142Y0050410D01*
X0064101Y0050518D01*
X0064064Y0050627D01*
X0064031Y0050738D01*
X0064001Y0050849D01*
X0063976Y0050962D01*
X0063954Y0051075D01*
X0063936Y0051189D01*
X0063922Y0051304D01*
X0063912Y0051419D01*
X0063906Y0051535D01*
X0063904Y0051650D01*
X0098904Y0051650D02*
X0098906Y0051765D01*
X0098912Y0051881D01*
X0098922Y0051996D01*
X0098936Y0052111D01*
X0098954Y0052225D01*
X0098976Y0052338D01*
X0099001Y0052451D01*
X0099031Y0052562D01*
X0099064Y0052673D01*
X0099101Y0052782D01*
X0099142Y0052890D01*
X0099187Y0052997D01*
X0099235Y0053102D01*
X0099287Y0053205D01*
X0099343Y0053306D01*
X0099402Y0053406D01*
X0099464Y0053503D01*
X0099530Y0053598D01*
X0099598Y0053691D01*
X0099670Y0053781D01*
X0099745Y0053869D01*
X0099824Y0053954D01*
X0099905Y0054036D01*
X0099988Y0054116D01*
X0100075Y0054192D01*
X0100164Y0054266D01*
X0100255Y0054336D01*
X0100349Y0054404D01*
X0100445Y0054468D01*
X0100544Y0054528D01*
X0100644Y0054585D01*
X0100746Y0054639D01*
X0100850Y0054689D01*
X0100956Y0054736D01*
X0101063Y0054779D01*
X0101172Y0054818D01*
X0101282Y0054853D01*
X0101393Y0054884D01*
X0101505Y0054912D01*
X0101618Y0054936D01*
X0101732Y0054956D01*
X0101847Y0054972D01*
X0101962Y0054984D01*
X0102077Y0054992D01*
X0102192Y0054996D01*
X0102308Y0054996D01*
X0102423Y0054992D01*
X0102538Y0054984D01*
X0102653Y0054972D01*
X0102768Y0054956D01*
X0102882Y0054936D01*
X0102995Y0054912D01*
X0103107Y0054884D01*
X0103218Y0054853D01*
X0103328Y0054818D01*
X0103437Y0054779D01*
X0103544Y0054736D01*
X0103650Y0054689D01*
X0103754Y0054639D01*
X0103856Y0054585D01*
X0103956Y0054528D01*
X0104055Y0054468D01*
X0104151Y0054404D01*
X0104245Y0054336D01*
X0104336Y0054266D01*
X0104425Y0054192D01*
X0104512Y0054116D01*
X0104595Y0054036D01*
X0104676Y0053954D01*
X0104755Y0053869D01*
X0104830Y0053781D01*
X0104902Y0053691D01*
X0104970Y0053598D01*
X0105036Y0053503D01*
X0105098Y0053406D01*
X0105157Y0053306D01*
X0105213Y0053205D01*
X0105265Y0053102D01*
X0105313Y0052997D01*
X0105358Y0052890D01*
X0105399Y0052782D01*
X0105436Y0052673D01*
X0105469Y0052562D01*
X0105499Y0052451D01*
X0105524Y0052338D01*
X0105546Y0052225D01*
X0105564Y0052111D01*
X0105578Y0051996D01*
X0105588Y0051881D01*
X0105594Y0051765D01*
X0105596Y0051650D01*
X0105594Y0051535D01*
X0105588Y0051419D01*
X0105578Y0051304D01*
X0105564Y0051189D01*
X0105546Y0051075D01*
X0105524Y0050962D01*
X0105499Y0050849D01*
X0105469Y0050738D01*
X0105436Y0050627D01*
X0105399Y0050518D01*
X0105358Y0050410D01*
X0105313Y0050303D01*
X0105265Y0050198D01*
X0105213Y0050095D01*
X0105157Y0049994D01*
X0105098Y0049894D01*
X0105036Y0049797D01*
X0104970Y0049702D01*
X0104902Y0049609D01*
X0104830Y0049519D01*
X0104755Y0049431D01*
X0104676Y0049346D01*
X0104595Y0049264D01*
X0104512Y0049184D01*
X0104425Y0049108D01*
X0104336Y0049034D01*
X0104245Y0048964D01*
X0104151Y0048896D01*
X0104055Y0048832D01*
X0103956Y0048772D01*
X0103856Y0048715D01*
X0103754Y0048661D01*
X0103650Y0048611D01*
X0103544Y0048564D01*
X0103437Y0048521D01*
X0103328Y0048482D01*
X0103218Y0048447D01*
X0103107Y0048416D01*
X0102995Y0048388D01*
X0102882Y0048364D01*
X0102768Y0048344D01*
X0102653Y0048328D01*
X0102538Y0048316D01*
X0102423Y0048308D01*
X0102308Y0048304D01*
X0102192Y0048304D01*
X0102077Y0048308D01*
X0101962Y0048316D01*
X0101847Y0048328D01*
X0101732Y0048344D01*
X0101618Y0048364D01*
X0101505Y0048388D01*
X0101393Y0048416D01*
X0101282Y0048447D01*
X0101172Y0048482D01*
X0101063Y0048521D01*
X0100956Y0048564D01*
X0100850Y0048611D01*
X0100746Y0048661D01*
X0100644Y0048715D01*
X0100544Y0048772D01*
X0100445Y0048832D01*
X0100349Y0048896D01*
X0100255Y0048964D01*
X0100164Y0049034D01*
X0100075Y0049108D01*
X0099988Y0049184D01*
X0099905Y0049264D01*
X0099824Y0049346D01*
X0099745Y0049431D01*
X0099670Y0049519D01*
X0099598Y0049609D01*
X0099530Y0049702D01*
X0099464Y0049797D01*
X0099402Y0049894D01*
X0099343Y0049994D01*
X0099287Y0050095D01*
X0099235Y0050198D01*
X0099187Y0050303D01*
X0099142Y0050410D01*
X0099101Y0050518D01*
X0099064Y0050627D01*
X0099031Y0050738D01*
X0099001Y0050849D01*
X0098976Y0050962D01*
X0098954Y0051075D01*
X0098936Y0051189D01*
X0098922Y0051304D01*
X0098912Y0051419D01*
X0098906Y0051535D01*
X0098904Y0051650D01*
X0114376Y0051650D02*
X0114378Y0051843D01*
X0114385Y0052036D01*
X0114397Y0052229D01*
X0114414Y0052422D01*
X0114435Y0052614D01*
X0114461Y0052805D01*
X0114492Y0052996D01*
X0114527Y0053186D01*
X0114567Y0053375D01*
X0114612Y0053563D01*
X0114661Y0053750D01*
X0114715Y0053936D01*
X0114773Y0054120D01*
X0114836Y0054303D01*
X0114904Y0054484D01*
X0114975Y0054663D01*
X0115052Y0054841D01*
X0115132Y0055017D01*
X0115217Y0055190D01*
X0115306Y0055362D01*
X0115399Y0055531D01*
X0115496Y0055698D01*
X0115598Y0055863D01*
X0115703Y0056025D01*
X0115812Y0056184D01*
X0115926Y0056341D01*
X0116043Y0056494D01*
X0116163Y0056645D01*
X0116288Y0056793D01*
X0116416Y0056938D01*
X0116547Y0057079D01*
X0116682Y0057218D01*
X0116821Y0057353D01*
X0116962Y0057484D01*
X0117107Y0057612D01*
X0117255Y0057737D01*
X0117406Y0057857D01*
X0117559Y0057974D01*
X0117716Y0058088D01*
X0117875Y0058197D01*
X0118037Y0058302D01*
X0118202Y0058404D01*
X0118369Y0058501D01*
X0118538Y0058594D01*
X0118710Y0058683D01*
X0118883Y0058768D01*
X0119059Y0058848D01*
X0119237Y0058925D01*
X0119416Y0058996D01*
X0119597Y0059064D01*
X0119780Y0059127D01*
X0119964Y0059185D01*
X0120150Y0059239D01*
X0120337Y0059288D01*
X0120525Y0059333D01*
X0120714Y0059373D01*
X0120904Y0059408D01*
X0121095Y0059439D01*
X0121286Y0059465D01*
X0121478Y0059486D01*
X0121671Y0059503D01*
X0121864Y0059515D01*
X0122057Y0059522D01*
X0122250Y0059524D01*
X0122443Y0059522D01*
X0122636Y0059515D01*
X0122829Y0059503D01*
X0123022Y0059486D01*
X0123214Y0059465D01*
X0123405Y0059439D01*
X0123596Y0059408D01*
X0123786Y0059373D01*
X0123975Y0059333D01*
X0124163Y0059288D01*
X0124350Y0059239D01*
X0124536Y0059185D01*
X0124720Y0059127D01*
X0124903Y0059064D01*
X0125084Y0058996D01*
X0125263Y0058925D01*
X0125441Y0058848D01*
X0125617Y0058768D01*
X0125790Y0058683D01*
X0125962Y0058594D01*
X0126131Y0058501D01*
X0126298Y0058404D01*
X0126463Y0058302D01*
X0126625Y0058197D01*
X0126784Y0058088D01*
X0126941Y0057974D01*
X0127094Y0057857D01*
X0127245Y0057737D01*
X0127393Y0057612D01*
X0127538Y0057484D01*
X0127679Y0057353D01*
X0127818Y0057218D01*
X0127953Y0057079D01*
X0128084Y0056938D01*
X0128212Y0056793D01*
X0128337Y0056645D01*
X0128457Y0056494D01*
X0128574Y0056341D01*
X0128688Y0056184D01*
X0128797Y0056025D01*
X0128902Y0055863D01*
X0129004Y0055698D01*
X0129101Y0055531D01*
X0129194Y0055362D01*
X0129283Y0055190D01*
X0129368Y0055017D01*
X0129448Y0054841D01*
X0129525Y0054663D01*
X0129596Y0054484D01*
X0129664Y0054303D01*
X0129727Y0054120D01*
X0129785Y0053936D01*
X0129839Y0053750D01*
X0129888Y0053563D01*
X0129933Y0053375D01*
X0129973Y0053186D01*
X0130008Y0052996D01*
X0130039Y0052805D01*
X0130065Y0052614D01*
X0130086Y0052422D01*
X0130103Y0052229D01*
X0130115Y0052036D01*
X0130122Y0051843D01*
X0130124Y0051650D01*
X0130122Y0051457D01*
X0130115Y0051264D01*
X0130103Y0051071D01*
X0130086Y0050878D01*
X0130065Y0050686D01*
X0130039Y0050495D01*
X0130008Y0050304D01*
X0129973Y0050114D01*
X0129933Y0049925D01*
X0129888Y0049737D01*
X0129839Y0049550D01*
X0129785Y0049364D01*
X0129727Y0049180D01*
X0129664Y0048997D01*
X0129596Y0048816D01*
X0129525Y0048637D01*
X0129448Y0048459D01*
X0129368Y0048283D01*
X0129283Y0048110D01*
X0129194Y0047938D01*
X0129101Y0047769D01*
X0129004Y0047602D01*
X0128902Y0047437D01*
X0128797Y0047275D01*
X0128688Y0047116D01*
X0128574Y0046959D01*
X0128457Y0046806D01*
X0128337Y0046655D01*
X0128212Y0046507D01*
X0128084Y0046362D01*
X0127953Y0046221D01*
X0127818Y0046082D01*
X0127679Y0045947D01*
X0127538Y0045816D01*
X0127393Y0045688D01*
X0127245Y0045563D01*
X0127094Y0045443D01*
X0126941Y0045326D01*
X0126784Y0045212D01*
X0126625Y0045103D01*
X0126463Y0044998D01*
X0126298Y0044896D01*
X0126131Y0044799D01*
X0125962Y0044706D01*
X0125790Y0044617D01*
X0125617Y0044532D01*
X0125441Y0044452D01*
X0125263Y0044375D01*
X0125084Y0044304D01*
X0124903Y0044236D01*
X0124720Y0044173D01*
X0124536Y0044115D01*
X0124350Y0044061D01*
X0124163Y0044012D01*
X0123975Y0043967D01*
X0123786Y0043927D01*
X0123596Y0043892D01*
X0123405Y0043861D01*
X0123214Y0043835D01*
X0123022Y0043814D01*
X0122829Y0043797D01*
X0122636Y0043785D01*
X0122443Y0043778D01*
X0122250Y0043776D01*
X0122057Y0043778D01*
X0121864Y0043785D01*
X0121671Y0043797D01*
X0121478Y0043814D01*
X0121286Y0043835D01*
X0121095Y0043861D01*
X0120904Y0043892D01*
X0120714Y0043927D01*
X0120525Y0043967D01*
X0120337Y0044012D01*
X0120150Y0044061D01*
X0119964Y0044115D01*
X0119780Y0044173D01*
X0119597Y0044236D01*
X0119416Y0044304D01*
X0119237Y0044375D01*
X0119059Y0044452D01*
X0118883Y0044532D01*
X0118710Y0044617D01*
X0118538Y0044706D01*
X0118369Y0044799D01*
X0118202Y0044896D01*
X0118037Y0044998D01*
X0117875Y0045103D01*
X0117716Y0045212D01*
X0117559Y0045326D01*
X0117406Y0045443D01*
X0117255Y0045563D01*
X0117107Y0045688D01*
X0116962Y0045816D01*
X0116821Y0045947D01*
X0116682Y0046082D01*
X0116547Y0046221D01*
X0116416Y0046362D01*
X0116288Y0046507D01*
X0116163Y0046655D01*
X0116043Y0046806D01*
X0115926Y0046959D01*
X0115812Y0047116D01*
X0115703Y0047275D01*
X0115598Y0047437D01*
X0115496Y0047602D01*
X0115399Y0047769D01*
X0115306Y0047938D01*
X0115217Y0048110D01*
X0115132Y0048283D01*
X0115052Y0048459D01*
X0114975Y0048637D01*
X0114904Y0048816D01*
X0114836Y0048997D01*
X0114773Y0049180D01*
X0114715Y0049364D01*
X0114661Y0049550D01*
X0114612Y0049737D01*
X0114567Y0049925D01*
X0114527Y0050114D01*
X0114492Y0050304D01*
X0114461Y0050495D01*
X0114435Y0050686D01*
X0114414Y0050878D01*
X0114397Y0051071D01*
X0114385Y0051264D01*
X0114378Y0051457D01*
X0114376Y0051650D01*
X0138904Y0051650D02*
X0138906Y0051765D01*
X0138912Y0051881D01*
X0138922Y0051996D01*
X0138936Y0052111D01*
X0138954Y0052225D01*
X0138976Y0052338D01*
X0139001Y0052451D01*
X0139031Y0052562D01*
X0139064Y0052673D01*
X0139101Y0052782D01*
X0139142Y0052890D01*
X0139187Y0052997D01*
X0139235Y0053102D01*
X0139287Y0053205D01*
X0139343Y0053306D01*
X0139402Y0053406D01*
X0139464Y0053503D01*
X0139530Y0053598D01*
X0139598Y0053691D01*
X0139670Y0053781D01*
X0139745Y0053869D01*
X0139824Y0053954D01*
X0139905Y0054036D01*
X0139988Y0054116D01*
X0140075Y0054192D01*
X0140164Y0054266D01*
X0140255Y0054336D01*
X0140349Y0054404D01*
X0140445Y0054468D01*
X0140544Y0054528D01*
X0140644Y0054585D01*
X0140746Y0054639D01*
X0140850Y0054689D01*
X0140956Y0054736D01*
X0141063Y0054779D01*
X0141172Y0054818D01*
X0141282Y0054853D01*
X0141393Y0054884D01*
X0141505Y0054912D01*
X0141618Y0054936D01*
X0141732Y0054956D01*
X0141847Y0054972D01*
X0141962Y0054984D01*
X0142077Y0054992D01*
X0142192Y0054996D01*
X0142308Y0054996D01*
X0142423Y0054992D01*
X0142538Y0054984D01*
X0142653Y0054972D01*
X0142768Y0054956D01*
X0142882Y0054936D01*
X0142995Y0054912D01*
X0143107Y0054884D01*
X0143218Y0054853D01*
X0143328Y0054818D01*
X0143437Y0054779D01*
X0143544Y0054736D01*
X0143650Y0054689D01*
X0143754Y0054639D01*
X0143856Y0054585D01*
X0143956Y0054528D01*
X0144055Y0054468D01*
X0144151Y0054404D01*
X0144245Y0054336D01*
X0144336Y0054266D01*
X0144425Y0054192D01*
X0144512Y0054116D01*
X0144595Y0054036D01*
X0144676Y0053954D01*
X0144755Y0053869D01*
X0144830Y0053781D01*
X0144902Y0053691D01*
X0144970Y0053598D01*
X0145036Y0053503D01*
X0145098Y0053406D01*
X0145157Y0053306D01*
X0145213Y0053205D01*
X0145265Y0053102D01*
X0145313Y0052997D01*
X0145358Y0052890D01*
X0145399Y0052782D01*
X0145436Y0052673D01*
X0145469Y0052562D01*
X0145499Y0052451D01*
X0145524Y0052338D01*
X0145546Y0052225D01*
X0145564Y0052111D01*
X0145578Y0051996D01*
X0145588Y0051881D01*
X0145594Y0051765D01*
X0145596Y0051650D01*
X0145594Y0051535D01*
X0145588Y0051419D01*
X0145578Y0051304D01*
X0145564Y0051189D01*
X0145546Y0051075D01*
X0145524Y0050962D01*
X0145499Y0050849D01*
X0145469Y0050738D01*
X0145436Y0050627D01*
X0145399Y0050518D01*
X0145358Y0050410D01*
X0145313Y0050303D01*
X0145265Y0050198D01*
X0145213Y0050095D01*
X0145157Y0049994D01*
X0145098Y0049894D01*
X0145036Y0049797D01*
X0144970Y0049702D01*
X0144902Y0049609D01*
X0144830Y0049519D01*
X0144755Y0049431D01*
X0144676Y0049346D01*
X0144595Y0049264D01*
X0144512Y0049184D01*
X0144425Y0049108D01*
X0144336Y0049034D01*
X0144245Y0048964D01*
X0144151Y0048896D01*
X0144055Y0048832D01*
X0143956Y0048772D01*
X0143856Y0048715D01*
X0143754Y0048661D01*
X0143650Y0048611D01*
X0143544Y0048564D01*
X0143437Y0048521D01*
X0143328Y0048482D01*
X0143218Y0048447D01*
X0143107Y0048416D01*
X0142995Y0048388D01*
X0142882Y0048364D01*
X0142768Y0048344D01*
X0142653Y0048328D01*
X0142538Y0048316D01*
X0142423Y0048308D01*
X0142308Y0048304D01*
X0142192Y0048304D01*
X0142077Y0048308D01*
X0141962Y0048316D01*
X0141847Y0048328D01*
X0141732Y0048344D01*
X0141618Y0048364D01*
X0141505Y0048388D01*
X0141393Y0048416D01*
X0141282Y0048447D01*
X0141172Y0048482D01*
X0141063Y0048521D01*
X0140956Y0048564D01*
X0140850Y0048611D01*
X0140746Y0048661D01*
X0140644Y0048715D01*
X0140544Y0048772D01*
X0140445Y0048832D01*
X0140349Y0048896D01*
X0140255Y0048964D01*
X0140164Y0049034D01*
X0140075Y0049108D01*
X0139988Y0049184D01*
X0139905Y0049264D01*
X0139824Y0049346D01*
X0139745Y0049431D01*
X0139670Y0049519D01*
X0139598Y0049609D01*
X0139530Y0049702D01*
X0139464Y0049797D01*
X0139402Y0049894D01*
X0139343Y0049994D01*
X0139287Y0050095D01*
X0139235Y0050198D01*
X0139187Y0050303D01*
X0139142Y0050410D01*
X0139101Y0050518D01*
X0139064Y0050627D01*
X0139031Y0050738D01*
X0139001Y0050849D01*
X0138976Y0050962D01*
X0138954Y0051075D01*
X0138936Y0051189D01*
X0138922Y0051304D01*
X0138912Y0051419D01*
X0138906Y0051535D01*
X0138904Y0051650D01*
X0138904Y0126650D02*
X0138906Y0126765D01*
X0138912Y0126881D01*
X0138922Y0126996D01*
X0138936Y0127111D01*
X0138954Y0127225D01*
X0138976Y0127338D01*
X0139001Y0127451D01*
X0139031Y0127562D01*
X0139064Y0127673D01*
X0139101Y0127782D01*
X0139142Y0127890D01*
X0139187Y0127997D01*
X0139235Y0128102D01*
X0139287Y0128205D01*
X0139343Y0128306D01*
X0139402Y0128406D01*
X0139464Y0128503D01*
X0139530Y0128598D01*
X0139598Y0128691D01*
X0139670Y0128781D01*
X0139745Y0128869D01*
X0139824Y0128954D01*
X0139905Y0129036D01*
X0139988Y0129116D01*
X0140075Y0129192D01*
X0140164Y0129266D01*
X0140255Y0129336D01*
X0140349Y0129404D01*
X0140445Y0129468D01*
X0140544Y0129528D01*
X0140644Y0129585D01*
X0140746Y0129639D01*
X0140850Y0129689D01*
X0140956Y0129736D01*
X0141063Y0129779D01*
X0141172Y0129818D01*
X0141282Y0129853D01*
X0141393Y0129884D01*
X0141505Y0129912D01*
X0141618Y0129936D01*
X0141732Y0129956D01*
X0141847Y0129972D01*
X0141962Y0129984D01*
X0142077Y0129992D01*
X0142192Y0129996D01*
X0142308Y0129996D01*
X0142423Y0129992D01*
X0142538Y0129984D01*
X0142653Y0129972D01*
X0142768Y0129956D01*
X0142882Y0129936D01*
X0142995Y0129912D01*
X0143107Y0129884D01*
X0143218Y0129853D01*
X0143328Y0129818D01*
X0143437Y0129779D01*
X0143544Y0129736D01*
X0143650Y0129689D01*
X0143754Y0129639D01*
X0143856Y0129585D01*
X0143956Y0129528D01*
X0144055Y0129468D01*
X0144151Y0129404D01*
X0144245Y0129336D01*
X0144336Y0129266D01*
X0144425Y0129192D01*
X0144512Y0129116D01*
X0144595Y0129036D01*
X0144676Y0128954D01*
X0144755Y0128869D01*
X0144830Y0128781D01*
X0144902Y0128691D01*
X0144970Y0128598D01*
X0145036Y0128503D01*
X0145098Y0128406D01*
X0145157Y0128306D01*
X0145213Y0128205D01*
X0145265Y0128102D01*
X0145313Y0127997D01*
X0145358Y0127890D01*
X0145399Y0127782D01*
X0145436Y0127673D01*
X0145469Y0127562D01*
X0145499Y0127451D01*
X0145524Y0127338D01*
X0145546Y0127225D01*
X0145564Y0127111D01*
X0145578Y0126996D01*
X0145588Y0126881D01*
X0145594Y0126765D01*
X0145596Y0126650D01*
X0145594Y0126535D01*
X0145588Y0126419D01*
X0145578Y0126304D01*
X0145564Y0126189D01*
X0145546Y0126075D01*
X0145524Y0125962D01*
X0145499Y0125849D01*
X0145469Y0125738D01*
X0145436Y0125627D01*
X0145399Y0125518D01*
X0145358Y0125410D01*
X0145313Y0125303D01*
X0145265Y0125198D01*
X0145213Y0125095D01*
X0145157Y0124994D01*
X0145098Y0124894D01*
X0145036Y0124797D01*
X0144970Y0124702D01*
X0144902Y0124609D01*
X0144830Y0124519D01*
X0144755Y0124431D01*
X0144676Y0124346D01*
X0144595Y0124264D01*
X0144512Y0124184D01*
X0144425Y0124108D01*
X0144336Y0124034D01*
X0144245Y0123964D01*
X0144151Y0123896D01*
X0144055Y0123832D01*
X0143956Y0123772D01*
X0143856Y0123715D01*
X0143754Y0123661D01*
X0143650Y0123611D01*
X0143544Y0123564D01*
X0143437Y0123521D01*
X0143328Y0123482D01*
X0143218Y0123447D01*
X0143107Y0123416D01*
X0142995Y0123388D01*
X0142882Y0123364D01*
X0142768Y0123344D01*
X0142653Y0123328D01*
X0142538Y0123316D01*
X0142423Y0123308D01*
X0142308Y0123304D01*
X0142192Y0123304D01*
X0142077Y0123308D01*
X0141962Y0123316D01*
X0141847Y0123328D01*
X0141732Y0123344D01*
X0141618Y0123364D01*
X0141505Y0123388D01*
X0141393Y0123416D01*
X0141282Y0123447D01*
X0141172Y0123482D01*
X0141063Y0123521D01*
X0140956Y0123564D01*
X0140850Y0123611D01*
X0140746Y0123661D01*
X0140644Y0123715D01*
X0140544Y0123772D01*
X0140445Y0123832D01*
X0140349Y0123896D01*
X0140255Y0123964D01*
X0140164Y0124034D01*
X0140075Y0124108D01*
X0139988Y0124184D01*
X0139905Y0124264D01*
X0139824Y0124346D01*
X0139745Y0124431D01*
X0139670Y0124519D01*
X0139598Y0124609D01*
X0139530Y0124702D01*
X0139464Y0124797D01*
X0139402Y0124894D01*
X0139343Y0124994D01*
X0139287Y0125095D01*
X0139235Y0125198D01*
X0139187Y0125303D01*
X0139142Y0125410D01*
X0139101Y0125518D01*
X0139064Y0125627D01*
X0139031Y0125738D01*
X0139001Y0125849D01*
X0138976Y0125962D01*
X0138954Y0126075D01*
X0138936Y0126189D01*
X0138922Y0126304D01*
X0138912Y0126419D01*
X0138906Y0126535D01*
X0138904Y0126650D01*
X0114376Y0126650D02*
X0114378Y0126843D01*
X0114385Y0127036D01*
X0114397Y0127229D01*
X0114414Y0127422D01*
X0114435Y0127614D01*
X0114461Y0127805D01*
X0114492Y0127996D01*
X0114527Y0128186D01*
X0114567Y0128375D01*
X0114612Y0128563D01*
X0114661Y0128750D01*
X0114715Y0128936D01*
X0114773Y0129120D01*
X0114836Y0129303D01*
X0114904Y0129484D01*
X0114975Y0129663D01*
X0115052Y0129841D01*
X0115132Y0130017D01*
X0115217Y0130190D01*
X0115306Y0130362D01*
X0115399Y0130531D01*
X0115496Y0130698D01*
X0115598Y0130863D01*
X0115703Y0131025D01*
X0115812Y0131184D01*
X0115926Y0131341D01*
X0116043Y0131494D01*
X0116163Y0131645D01*
X0116288Y0131793D01*
X0116416Y0131938D01*
X0116547Y0132079D01*
X0116682Y0132218D01*
X0116821Y0132353D01*
X0116962Y0132484D01*
X0117107Y0132612D01*
X0117255Y0132737D01*
X0117406Y0132857D01*
X0117559Y0132974D01*
X0117716Y0133088D01*
X0117875Y0133197D01*
X0118037Y0133302D01*
X0118202Y0133404D01*
X0118369Y0133501D01*
X0118538Y0133594D01*
X0118710Y0133683D01*
X0118883Y0133768D01*
X0119059Y0133848D01*
X0119237Y0133925D01*
X0119416Y0133996D01*
X0119597Y0134064D01*
X0119780Y0134127D01*
X0119964Y0134185D01*
X0120150Y0134239D01*
X0120337Y0134288D01*
X0120525Y0134333D01*
X0120714Y0134373D01*
X0120904Y0134408D01*
X0121095Y0134439D01*
X0121286Y0134465D01*
X0121478Y0134486D01*
X0121671Y0134503D01*
X0121864Y0134515D01*
X0122057Y0134522D01*
X0122250Y0134524D01*
X0122443Y0134522D01*
X0122636Y0134515D01*
X0122829Y0134503D01*
X0123022Y0134486D01*
X0123214Y0134465D01*
X0123405Y0134439D01*
X0123596Y0134408D01*
X0123786Y0134373D01*
X0123975Y0134333D01*
X0124163Y0134288D01*
X0124350Y0134239D01*
X0124536Y0134185D01*
X0124720Y0134127D01*
X0124903Y0134064D01*
X0125084Y0133996D01*
X0125263Y0133925D01*
X0125441Y0133848D01*
X0125617Y0133768D01*
X0125790Y0133683D01*
X0125962Y0133594D01*
X0126131Y0133501D01*
X0126298Y0133404D01*
X0126463Y0133302D01*
X0126625Y0133197D01*
X0126784Y0133088D01*
X0126941Y0132974D01*
X0127094Y0132857D01*
X0127245Y0132737D01*
X0127393Y0132612D01*
X0127538Y0132484D01*
X0127679Y0132353D01*
X0127818Y0132218D01*
X0127953Y0132079D01*
X0128084Y0131938D01*
X0128212Y0131793D01*
X0128337Y0131645D01*
X0128457Y0131494D01*
X0128574Y0131341D01*
X0128688Y0131184D01*
X0128797Y0131025D01*
X0128902Y0130863D01*
X0129004Y0130698D01*
X0129101Y0130531D01*
X0129194Y0130362D01*
X0129283Y0130190D01*
X0129368Y0130017D01*
X0129448Y0129841D01*
X0129525Y0129663D01*
X0129596Y0129484D01*
X0129664Y0129303D01*
X0129727Y0129120D01*
X0129785Y0128936D01*
X0129839Y0128750D01*
X0129888Y0128563D01*
X0129933Y0128375D01*
X0129973Y0128186D01*
X0130008Y0127996D01*
X0130039Y0127805D01*
X0130065Y0127614D01*
X0130086Y0127422D01*
X0130103Y0127229D01*
X0130115Y0127036D01*
X0130122Y0126843D01*
X0130124Y0126650D01*
X0130122Y0126457D01*
X0130115Y0126264D01*
X0130103Y0126071D01*
X0130086Y0125878D01*
X0130065Y0125686D01*
X0130039Y0125495D01*
X0130008Y0125304D01*
X0129973Y0125114D01*
X0129933Y0124925D01*
X0129888Y0124737D01*
X0129839Y0124550D01*
X0129785Y0124364D01*
X0129727Y0124180D01*
X0129664Y0123997D01*
X0129596Y0123816D01*
X0129525Y0123637D01*
X0129448Y0123459D01*
X0129368Y0123283D01*
X0129283Y0123110D01*
X0129194Y0122938D01*
X0129101Y0122769D01*
X0129004Y0122602D01*
X0128902Y0122437D01*
X0128797Y0122275D01*
X0128688Y0122116D01*
X0128574Y0121959D01*
X0128457Y0121806D01*
X0128337Y0121655D01*
X0128212Y0121507D01*
X0128084Y0121362D01*
X0127953Y0121221D01*
X0127818Y0121082D01*
X0127679Y0120947D01*
X0127538Y0120816D01*
X0127393Y0120688D01*
X0127245Y0120563D01*
X0127094Y0120443D01*
X0126941Y0120326D01*
X0126784Y0120212D01*
X0126625Y0120103D01*
X0126463Y0119998D01*
X0126298Y0119896D01*
X0126131Y0119799D01*
X0125962Y0119706D01*
X0125790Y0119617D01*
X0125617Y0119532D01*
X0125441Y0119452D01*
X0125263Y0119375D01*
X0125084Y0119304D01*
X0124903Y0119236D01*
X0124720Y0119173D01*
X0124536Y0119115D01*
X0124350Y0119061D01*
X0124163Y0119012D01*
X0123975Y0118967D01*
X0123786Y0118927D01*
X0123596Y0118892D01*
X0123405Y0118861D01*
X0123214Y0118835D01*
X0123022Y0118814D01*
X0122829Y0118797D01*
X0122636Y0118785D01*
X0122443Y0118778D01*
X0122250Y0118776D01*
X0122057Y0118778D01*
X0121864Y0118785D01*
X0121671Y0118797D01*
X0121478Y0118814D01*
X0121286Y0118835D01*
X0121095Y0118861D01*
X0120904Y0118892D01*
X0120714Y0118927D01*
X0120525Y0118967D01*
X0120337Y0119012D01*
X0120150Y0119061D01*
X0119964Y0119115D01*
X0119780Y0119173D01*
X0119597Y0119236D01*
X0119416Y0119304D01*
X0119237Y0119375D01*
X0119059Y0119452D01*
X0118883Y0119532D01*
X0118710Y0119617D01*
X0118538Y0119706D01*
X0118369Y0119799D01*
X0118202Y0119896D01*
X0118037Y0119998D01*
X0117875Y0120103D01*
X0117716Y0120212D01*
X0117559Y0120326D01*
X0117406Y0120443D01*
X0117255Y0120563D01*
X0117107Y0120688D01*
X0116962Y0120816D01*
X0116821Y0120947D01*
X0116682Y0121082D01*
X0116547Y0121221D01*
X0116416Y0121362D01*
X0116288Y0121507D01*
X0116163Y0121655D01*
X0116043Y0121806D01*
X0115926Y0121959D01*
X0115812Y0122116D01*
X0115703Y0122275D01*
X0115598Y0122437D01*
X0115496Y0122602D01*
X0115399Y0122769D01*
X0115306Y0122938D01*
X0115217Y0123110D01*
X0115132Y0123283D01*
X0115052Y0123459D01*
X0114975Y0123637D01*
X0114904Y0123816D01*
X0114836Y0123997D01*
X0114773Y0124180D01*
X0114715Y0124364D01*
X0114661Y0124550D01*
X0114612Y0124737D01*
X0114567Y0124925D01*
X0114527Y0125114D01*
X0114492Y0125304D01*
X0114461Y0125495D01*
X0114435Y0125686D01*
X0114414Y0125878D01*
X0114397Y0126071D01*
X0114385Y0126264D01*
X0114378Y0126457D01*
X0114376Y0126650D01*
X0098904Y0126650D02*
X0098906Y0126765D01*
X0098912Y0126881D01*
X0098922Y0126996D01*
X0098936Y0127111D01*
X0098954Y0127225D01*
X0098976Y0127338D01*
X0099001Y0127451D01*
X0099031Y0127562D01*
X0099064Y0127673D01*
X0099101Y0127782D01*
X0099142Y0127890D01*
X0099187Y0127997D01*
X0099235Y0128102D01*
X0099287Y0128205D01*
X0099343Y0128306D01*
X0099402Y0128406D01*
X0099464Y0128503D01*
X0099530Y0128598D01*
X0099598Y0128691D01*
X0099670Y0128781D01*
X0099745Y0128869D01*
X0099824Y0128954D01*
X0099905Y0129036D01*
X0099988Y0129116D01*
X0100075Y0129192D01*
X0100164Y0129266D01*
X0100255Y0129336D01*
X0100349Y0129404D01*
X0100445Y0129468D01*
X0100544Y0129528D01*
X0100644Y0129585D01*
X0100746Y0129639D01*
X0100850Y0129689D01*
X0100956Y0129736D01*
X0101063Y0129779D01*
X0101172Y0129818D01*
X0101282Y0129853D01*
X0101393Y0129884D01*
X0101505Y0129912D01*
X0101618Y0129936D01*
X0101732Y0129956D01*
X0101847Y0129972D01*
X0101962Y0129984D01*
X0102077Y0129992D01*
X0102192Y0129996D01*
X0102308Y0129996D01*
X0102423Y0129992D01*
X0102538Y0129984D01*
X0102653Y0129972D01*
X0102768Y0129956D01*
X0102882Y0129936D01*
X0102995Y0129912D01*
X0103107Y0129884D01*
X0103218Y0129853D01*
X0103328Y0129818D01*
X0103437Y0129779D01*
X0103544Y0129736D01*
X0103650Y0129689D01*
X0103754Y0129639D01*
X0103856Y0129585D01*
X0103956Y0129528D01*
X0104055Y0129468D01*
X0104151Y0129404D01*
X0104245Y0129336D01*
X0104336Y0129266D01*
X0104425Y0129192D01*
X0104512Y0129116D01*
X0104595Y0129036D01*
X0104676Y0128954D01*
X0104755Y0128869D01*
X0104830Y0128781D01*
X0104902Y0128691D01*
X0104970Y0128598D01*
X0105036Y0128503D01*
X0105098Y0128406D01*
X0105157Y0128306D01*
X0105213Y0128205D01*
X0105265Y0128102D01*
X0105313Y0127997D01*
X0105358Y0127890D01*
X0105399Y0127782D01*
X0105436Y0127673D01*
X0105469Y0127562D01*
X0105499Y0127451D01*
X0105524Y0127338D01*
X0105546Y0127225D01*
X0105564Y0127111D01*
X0105578Y0126996D01*
X0105588Y0126881D01*
X0105594Y0126765D01*
X0105596Y0126650D01*
X0105594Y0126535D01*
X0105588Y0126419D01*
X0105578Y0126304D01*
X0105564Y0126189D01*
X0105546Y0126075D01*
X0105524Y0125962D01*
X0105499Y0125849D01*
X0105469Y0125738D01*
X0105436Y0125627D01*
X0105399Y0125518D01*
X0105358Y0125410D01*
X0105313Y0125303D01*
X0105265Y0125198D01*
X0105213Y0125095D01*
X0105157Y0124994D01*
X0105098Y0124894D01*
X0105036Y0124797D01*
X0104970Y0124702D01*
X0104902Y0124609D01*
X0104830Y0124519D01*
X0104755Y0124431D01*
X0104676Y0124346D01*
X0104595Y0124264D01*
X0104512Y0124184D01*
X0104425Y0124108D01*
X0104336Y0124034D01*
X0104245Y0123964D01*
X0104151Y0123896D01*
X0104055Y0123832D01*
X0103956Y0123772D01*
X0103856Y0123715D01*
X0103754Y0123661D01*
X0103650Y0123611D01*
X0103544Y0123564D01*
X0103437Y0123521D01*
X0103328Y0123482D01*
X0103218Y0123447D01*
X0103107Y0123416D01*
X0102995Y0123388D01*
X0102882Y0123364D01*
X0102768Y0123344D01*
X0102653Y0123328D01*
X0102538Y0123316D01*
X0102423Y0123308D01*
X0102308Y0123304D01*
X0102192Y0123304D01*
X0102077Y0123308D01*
X0101962Y0123316D01*
X0101847Y0123328D01*
X0101732Y0123344D01*
X0101618Y0123364D01*
X0101505Y0123388D01*
X0101393Y0123416D01*
X0101282Y0123447D01*
X0101172Y0123482D01*
X0101063Y0123521D01*
X0100956Y0123564D01*
X0100850Y0123611D01*
X0100746Y0123661D01*
X0100644Y0123715D01*
X0100544Y0123772D01*
X0100445Y0123832D01*
X0100349Y0123896D01*
X0100255Y0123964D01*
X0100164Y0124034D01*
X0100075Y0124108D01*
X0099988Y0124184D01*
X0099905Y0124264D01*
X0099824Y0124346D01*
X0099745Y0124431D01*
X0099670Y0124519D01*
X0099598Y0124609D01*
X0099530Y0124702D01*
X0099464Y0124797D01*
X0099402Y0124894D01*
X0099343Y0124994D01*
X0099287Y0125095D01*
X0099235Y0125198D01*
X0099187Y0125303D01*
X0099142Y0125410D01*
X0099101Y0125518D01*
X0099064Y0125627D01*
X0099031Y0125738D01*
X0099001Y0125849D01*
X0098976Y0125962D01*
X0098954Y0126075D01*
X0098936Y0126189D01*
X0098922Y0126304D01*
X0098912Y0126419D01*
X0098906Y0126535D01*
X0098904Y0126650D01*
X0063904Y0126650D02*
X0063906Y0126765D01*
X0063912Y0126881D01*
X0063922Y0126996D01*
X0063936Y0127111D01*
X0063954Y0127225D01*
X0063976Y0127338D01*
X0064001Y0127451D01*
X0064031Y0127562D01*
X0064064Y0127673D01*
X0064101Y0127782D01*
X0064142Y0127890D01*
X0064187Y0127997D01*
X0064235Y0128102D01*
X0064287Y0128205D01*
X0064343Y0128306D01*
X0064402Y0128406D01*
X0064464Y0128503D01*
X0064530Y0128598D01*
X0064598Y0128691D01*
X0064670Y0128781D01*
X0064745Y0128869D01*
X0064824Y0128954D01*
X0064905Y0129036D01*
X0064988Y0129116D01*
X0065075Y0129192D01*
X0065164Y0129266D01*
X0065255Y0129336D01*
X0065349Y0129404D01*
X0065445Y0129468D01*
X0065544Y0129528D01*
X0065644Y0129585D01*
X0065746Y0129639D01*
X0065850Y0129689D01*
X0065956Y0129736D01*
X0066063Y0129779D01*
X0066172Y0129818D01*
X0066282Y0129853D01*
X0066393Y0129884D01*
X0066505Y0129912D01*
X0066618Y0129936D01*
X0066732Y0129956D01*
X0066847Y0129972D01*
X0066962Y0129984D01*
X0067077Y0129992D01*
X0067192Y0129996D01*
X0067308Y0129996D01*
X0067423Y0129992D01*
X0067538Y0129984D01*
X0067653Y0129972D01*
X0067768Y0129956D01*
X0067882Y0129936D01*
X0067995Y0129912D01*
X0068107Y0129884D01*
X0068218Y0129853D01*
X0068328Y0129818D01*
X0068437Y0129779D01*
X0068544Y0129736D01*
X0068650Y0129689D01*
X0068754Y0129639D01*
X0068856Y0129585D01*
X0068956Y0129528D01*
X0069055Y0129468D01*
X0069151Y0129404D01*
X0069245Y0129336D01*
X0069336Y0129266D01*
X0069425Y0129192D01*
X0069512Y0129116D01*
X0069595Y0129036D01*
X0069676Y0128954D01*
X0069755Y0128869D01*
X0069830Y0128781D01*
X0069902Y0128691D01*
X0069970Y0128598D01*
X0070036Y0128503D01*
X0070098Y0128406D01*
X0070157Y0128306D01*
X0070213Y0128205D01*
X0070265Y0128102D01*
X0070313Y0127997D01*
X0070358Y0127890D01*
X0070399Y0127782D01*
X0070436Y0127673D01*
X0070469Y0127562D01*
X0070499Y0127451D01*
X0070524Y0127338D01*
X0070546Y0127225D01*
X0070564Y0127111D01*
X0070578Y0126996D01*
X0070588Y0126881D01*
X0070594Y0126765D01*
X0070596Y0126650D01*
X0070594Y0126535D01*
X0070588Y0126419D01*
X0070578Y0126304D01*
X0070564Y0126189D01*
X0070546Y0126075D01*
X0070524Y0125962D01*
X0070499Y0125849D01*
X0070469Y0125738D01*
X0070436Y0125627D01*
X0070399Y0125518D01*
X0070358Y0125410D01*
X0070313Y0125303D01*
X0070265Y0125198D01*
X0070213Y0125095D01*
X0070157Y0124994D01*
X0070098Y0124894D01*
X0070036Y0124797D01*
X0069970Y0124702D01*
X0069902Y0124609D01*
X0069830Y0124519D01*
X0069755Y0124431D01*
X0069676Y0124346D01*
X0069595Y0124264D01*
X0069512Y0124184D01*
X0069425Y0124108D01*
X0069336Y0124034D01*
X0069245Y0123964D01*
X0069151Y0123896D01*
X0069055Y0123832D01*
X0068956Y0123772D01*
X0068856Y0123715D01*
X0068754Y0123661D01*
X0068650Y0123611D01*
X0068544Y0123564D01*
X0068437Y0123521D01*
X0068328Y0123482D01*
X0068218Y0123447D01*
X0068107Y0123416D01*
X0067995Y0123388D01*
X0067882Y0123364D01*
X0067768Y0123344D01*
X0067653Y0123328D01*
X0067538Y0123316D01*
X0067423Y0123308D01*
X0067308Y0123304D01*
X0067192Y0123304D01*
X0067077Y0123308D01*
X0066962Y0123316D01*
X0066847Y0123328D01*
X0066732Y0123344D01*
X0066618Y0123364D01*
X0066505Y0123388D01*
X0066393Y0123416D01*
X0066282Y0123447D01*
X0066172Y0123482D01*
X0066063Y0123521D01*
X0065956Y0123564D01*
X0065850Y0123611D01*
X0065746Y0123661D01*
X0065644Y0123715D01*
X0065544Y0123772D01*
X0065445Y0123832D01*
X0065349Y0123896D01*
X0065255Y0123964D01*
X0065164Y0124034D01*
X0065075Y0124108D01*
X0064988Y0124184D01*
X0064905Y0124264D01*
X0064824Y0124346D01*
X0064745Y0124431D01*
X0064670Y0124519D01*
X0064598Y0124609D01*
X0064530Y0124702D01*
X0064464Y0124797D01*
X0064402Y0124894D01*
X0064343Y0124994D01*
X0064287Y0125095D01*
X0064235Y0125198D01*
X0064187Y0125303D01*
X0064142Y0125410D01*
X0064101Y0125518D01*
X0064064Y0125627D01*
X0064031Y0125738D01*
X0064001Y0125849D01*
X0063976Y0125962D01*
X0063954Y0126075D01*
X0063936Y0126189D01*
X0063922Y0126304D01*
X0063912Y0126419D01*
X0063906Y0126535D01*
X0063904Y0126650D01*
X0039376Y0126650D02*
X0039378Y0126843D01*
X0039385Y0127036D01*
X0039397Y0127229D01*
X0039414Y0127422D01*
X0039435Y0127614D01*
X0039461Y0127805D01*
X0039492Y0127996D01*
X0039527Y0128186D01*
X0039567Y0128375D01*
X0039612Y0128563D01*
X0039661Y0128750D01*
X0039715Y0128936D01*
X0039773Y0129120D01*
X0039836Y0129303D01*
X0039904Y0129484D01*
X0039975Y0129663D01*
X0040052Y0129841D01*
X0040132Y0130017D01*
X0040217Y0130190D01*
X0040306Y0130362D01*
X0040399Y0130531D01*
X0040496Y0130698D01*
X0040598Y0130863D01*
X0040703Y0131025D01*
X0040812Y0131184D01*
X0040926Y0131341D01*
X0041043Y0131494D01*
X0041163Y0131645D01*
X0041288Y0131793D01*
X0041416Y0131938D01*
X0041547Y0132079D01*
X0041682Y0132218D01*
X0041821Y0132353D01*
X0041962Y0132484D01*
X0042107Y0132612D01*
X0042255Y0132737D01*
X0042406Y0132857D01*
X0042559Y0132974D01*
X0042716Y0133088D01*
X0042875Y0133197D01*
X0043037Y0133302D01*
X0043202Y0133404D01*
X0043369Y0133501D01*
X0043538Y0133594D01*
X0043710Y0133683D01*
X0043883Y0133768D01*
X0044059Y0133848D01*
X0044237Y0133925D01*
X0044416Y0133996D01*
X0044597Y0134064D01*
X0044780Y0134127D01*
X0044964Y0134185D01*
X0045150Y0134239D01*
X0045337Y0134288D01*
X0045525Y0134333D01*
X0045714Y0134373D01*
X0045904Y0134408D01*
X0046095Y0134439D01*
X0046286Y0134465D01*
X0046478Y0134486D01*
X0046671Y0134503D01*
X0046864Y0134515D01*
X0047057Y0134522D01*
X0047250Y0134524D01*
X0047443Y0134522D01*
X0047636Y0134515D01*
X0047829Y0134503D01*
X0048022Y0134486D01*
X0048214Y0134465D01*
X0048405Y0134439D01*
X0048596Y0134408D01*
X0048786Y0134373D01*
X0048975Y0134333D01*
X0049163Y0134288D01*
X0049350Y0134239D01*
X0049536Y0134185D01*
X0049720Y0134127D01*
X0049903Y0134064D01*
X0050084Y0133996D01*
X0050263Y0133925D01*
X0050441Y0133848D01*
X0050617Y0133768D01*
X0050790Y0133683D01*
X0050962Y0133594D01*
X0051131Y0133501D01*
X0051298Y0133404D01*
X0051463Y0133302D01*
X0051625Y0133197D01*
X0051784Y0133088D01*
X0051941Y0132974D01*
X0052094Y0132857D01*
X0052245Y0132737D01*
X0052393Y0132612D01*
X0052538Y0132484D01*
X0052679Y0132353D01*
X0052818Y0132218D01*
X0052953Y0132079D01*
X0053084Y0131938D01*
X0053212Y0131793D01*
X0053337Y0131645D01*
X0053457Y0131494D01*
X0053574Y0131341D01*
X0053688Y0131184D01*
X0053797Y0131025D01*
X0053902Y0130863D01*
X0054004Y0130698D01*
X0054101Y0130531D01*
X0054194Y0130362D01*
X0054283Y0130190D01*
X0054368Y0130017D01*
X0054448Y0129841D01*
X0054525Y0129663D01*
X0054596Y0129484D01*
X0054664Y0129303D01*
X0054727Y0129120D01*
X0054785Y0128936D01*
X0054839Y0128750D01*
X0054888Y0128563D01*
X0054933Y0128375D01*
X0054973Y0128186D01*
X0055008Y0127996D01*
X0055039Y0127805D01*
X0055065Y0127614D01*
X0055086Y0127422D01*
X0055103Y0127229D01*
X0055115Y0127036D01*
X0055122Y0126843D01*
X0055124Y0126650D01*
X0055122Y0126457D01*
X0055115Y0126264D01*
X0055103Y0126071D01*
X0055086Y0125878D01*
X0055065Y0125686D01*
X0055039Y0125495D01*
X0055008Y0125304D01*
X0054973Y0125114D01*
X0054933Y0124925D01*
X0054888Y0124737D01*
X0054839Y0124550D01*
X0054785Y0124364D01*
X0054727Y0124180D01*
X0054664Y0123997D01*
X0054596Y0123816D01*
X0054525Y0123637D01*
X0054448Y0123459D01*
X0054368Y0123283D01*
X0054283Y0123110D01*
X0054194Y0122938D01*
X0054101Y0122769D01*
X0054004Y0122602D01*
X0053902Y0122437D01*
X0053797Y0122275D01*
X0053688Y0122116D01*
X0053574Y0121959D01*
X0053457Y0121806D01*
X0053337Y0121655D01*
X0053212Y0121507D01*
X0053084Y0121362D01*
X0052953Y0121221D01*
X0052818Y0121082D01*
X0052679Y0120947D01*
X0052538Y0120816D01*
X0052393Y0120688D01*
X0052245Y0120563D01*
X0052094Y0120443D01*
X0051941Y0120326D01*
X0051784Y0120212D01*
X0051625Y0120103D01*
X0051463Y0119998D01*
X0051298Y0119896D01*
X0051131Y0119799D01*
X0050962Y0119706D01*
X0050790Y0119617D01*
X0050617Y0119532D01*
X0050441Y0119452D01*
X0050263Y0119375D01*
X0050084Y0119304D01*
X0049903Y0119236D01*
X0049720Y0119173D01*
X0049536Y0119115D01*
X0049350Y0119061D01*
X0049163Y0119012D01*
X0048975Y0118967D01*
X0048786Y0118927D01*
X0048596Y0118892D01*
X0048405Y0118861D01*
X0048214Y0118835D01*
X0048022Y0118814D01*
X0047829Y0118797D01*
X0047636Y0118785D01*
X0047443Y0118778D01*
X0047250Y0118776D01*
X0047057Y0118778D01*
X0046864Y0118785D01*
X0046671Y0118797D01*
X0046478Y0118814D01*
X0046286Y0118835D01*
X0046095Y0118861D01*
X0045904Y0118892D01*
X0045714Y0118927D01*
X0045525Y0118967D01*
X0045337Y0119012D01*
X0045150Y0119061D01*
X0044964Y0119115D01*
X0044780Y0119173D01*
X0044597Y0119236D01*
X0044416Y0119304D01*
X0044237Y0119375D01*
X0044059Y0119452D01*
X0043883Y0119532D01*
X0043710Y0119617D01*
X0043538Y0119706D01*
X0043369Y0119799D01*
X0043202Y0119896D01*
X0043037Y0119998D01*
X0042875Y0120103D01*
X0042716Y0120212D01*
X0042559Y0120326D01*
X0042406Y0120443D01*
X0042255Y0120563D01*
X0042107Y0120688D01*
X0041962Y0120816D01*
X0041821Y0120947D01*
X0041682Y0121082D01*
X0041547Y0121221D01*
X0041416Y0121362D01*
X0041288Y0121507D01*
X0041163Y0121655D01*
X0041043Y0121806D01*
X0040926Y0121959D01*
X0040812Y0122116D01*
X0040703Y0122275D01*
X0040598Y0122437D01*
X0040496Y0122602D01*
X0040399Y0122769D01*
X0040306Y0122938D01*
X0040217Y0123110D01*
X0040132Y0123283D01*
X0040052Y0123459D01*
X0039975Y0123637D01*
X0039904Y0123816D01*
X0039836Y0123997D01*
X0039773Y0124180D01*
X0039715Y0124364D01*
X0039661Y0124550D01*
X0039612Y0124737D01*
X0039567Y0124925D01*
X0039527Y0125114D01*
X0039492Y0125304D01*
X0039461Y0125495D01*
X0039435Y0125686D01*
X0039414Y0125878D01*
X0039397Y0126071D01*
X0039385Y0126264D01*
X0039378Y0126457D01*
X0039376Y0126650D01*
X0023904Y0126650D02*
X0023906Y0126765D01*
X0023912Y0126881D01*
X0023922Y0126996D01*
X0023936Y0127111D01*
X0023954Y0127225D01*
X0023976Y0127338D01*
X0024001Y0127451D01*
X0024031Y0127562D01*
X0024064Y0127673D01*
X0024101Y0127782D01*
X0024142Y0127890D01*
X0024187Y0127997D01*
X0024235Y0128102D01*
X0024287Y0128205D01*
X0024343Y0128306D01*
X0024402Y0128406D01*
X0024464Y0128503D01*
X0024530Y0128598D01*
X0024598Y0128691D01*
X0024670Y0128781D01*
X0024745Y0128869D01*
X0024824Y0128954D01*
X0024905Y0129036D01*
X0024988Y0129116D01*
X0025075Y0129192D01*
X0025164Y0129266D01*
X0025255Y0129336D01*
X0025349Y0129404D01*
X0025445Y0129468D01*
X0025544Y0129528D01*
X0025644Y0129585D01*
X0025746Y0129639D01*
X0025850Y0129689D01*
X0025956Y0129736D01*
X0026063Y0129779D01*
X0026172Y0129818D01*
X0026282Y0129853D01*
X0026393Y0129884D01*
X0026505Y0129912D01*
X0026618Y0129936D01*
X0026732Y0129956D01*
X0026847Y0129972D01*
X0026962Y0129984D01*
X0027077Y0129992D01*
X0027192Y0129996D01*
X0027308Y0129996D01*
X0027423Y0129992D01*
X0027538Y0129984D01*
X0027653Y0129972D01*
X0027768Y0129956D01*
X0027882Y0129936D01*
X0027995Y0129912D01*
X0028107Y0129884D01*
X0028218Y0129853D01*
X0028328Y0129818D01*
X0028437Y0129779D01*
X0028544Y0129736D01*
X0028650Y0129689D01*
X0028754Y0129639D01*
X0028856Y0129585D01*
X0028956Y0129528D01*
X0029055Y0129468D01*
X0029151Y0129404D01*
X0029245Y0129336D01*
X0029336Y0129266D01*
X0029425Y0129192D01*
X0029512Y0129116D01*
X0029595Y0129036D01*
X0029676Y0128954D01*
X0029755Y0128869D01*
X0029830Y0128781D01*
X0029902Y0128691D01*
X0029970Y0128598D01*
X0030036Y0128503D01*
X0030098Y0128406D01*
X0030157Y0128306D01*
X0030213Y0128205D01*
X0030265Y0128102D01*
X0030313Y0127997D01*
X0030358Y0127890D01*
X0030399Y0127782D01*
X0030436Y0127673D01*
X0030469Y0127562D01*
X0030499Y0127451D01*
X0030524Y0127338D01*
X0030546Y0127225D01*
X0030564Y0127111D01*
X0030578Y0126996D01*
X0030588Y0126881D01*
X0030594Y0126765D01*
X0030596Y0126650D01*
X0030594Y0126535D01*
X0030588Y0126419D01*
X0030578Y0126304D01*
X0030564Y0126189D01*
X0030546Y0126075D01*
X0030524Y0125962D01*
X0030499Y0125849D01*
X0030469Y0125738D01*
X0030436Y0125627D01*
X0030399Y0125518D01*
X0030358Y0125410D01*
X0030313Y0125303D01*
X0030265Y0125198D01*
X0030213Y0125095D01*
X0030157Y0124994D01*
X0030098Y0124894D01*
X0030036Y0124797D01*
X0029970Y0124702D01*
X0029902Y0124609D01*
X0029830Y0124519D01*
X0029755Y0124431D01*
X0029676Y0124346D01*
X0029595Y0124264D01*
X0029512Y0124184D01*
X0029425Y0124108D01*
X0029336Y0124034D01*
X0029245Y0123964D01*
X0029151Y0123896D01*
X0029055Y0123832D01*
X0028956Y0123772D01*
X0028856Y0123715D01*
X0028754Y0123661D01*
X0028650Y0123611D01*
X0028544Y0123564D01*
X0028437Y0123521D01*
X0028328Y0123482D01*
X0028218Y0123447D01*
X0028107Y0123416D01*
X0027995Y0123388D01*
X0027882Y0123364D01*
X0027768Y0123344D01*
X0027653Y0123328D01*
X0027538Y0123316D01*
X0027423Y0123308D01*
X0027308Y0123304D01*
X0027192Y0123304D01*
X0027077Y0123308D01*
X0026962Y0123316D01*
X0026847Y0123328D01*
X0026732Y0123344D01*
X0026618Y0123364D01*
X0026505Y0123388D01*
X0026393Y0123416D01*
X0026282Y0123447D01*
X0026172Y0123482D01*
X0026063Y0123521D01*
X0025956Y0123564D01*
X0025850Y0123611D01*
X0025746Y0123661D01*
X0025644Y0123715D01*
X0025544Y0123772D01*
X0025445Y0123832D01*
X0025349Y0123896D01*
X0025255Y0123964D01*
X0025164Y0124034D01*
X0025075Y0124108D01*
X0024988Y0124184D01*
X0024905Y0124264D01*
X0024824Y0124346D01*
X0024745Y0124431D01*
X0024670Y0124519D01*
X0024598Y0124609D01*
X0024530Y0124702D01*
X0024464Y0124797D01*
X0024402Y0124894D01*
X0024343Y0124994D01*
X0024287Y0125095D01*
X0024235Y0125198D01*
X0024187Y0125303D01*
X0024142Y0125410D01*
X0024101Y0125518D01*
X0024064Y0125627D01*
X0024031Y0125738D01*
X0024001Y0125849D01*
X0023976Y0125962D01*
X0023954Y0126075D01*
X0023936Y0126189D01*
X0023922Y0126304D01*
X0023912Y0126419D01*
X0023906Y0126535D01*
X0023904Y0126650D01*
X0023904Y0201650D02*
X0023906Y0201765D01*
X0023912Y0201881D01*
X0023922Y0201996D01*
X0023936Y0202111D01*
X0023954Y0202225D01*
X0023976Y0202338D01*
X0024001Y0202451D01*
X0024031Y0202562D01*
X0024064Y0202673D01*
X0024101Y0202782D01*
X0024142Y0202890D01*
X0024187Y0202997D01*
X0024235Y0203102D01*
X0024287Y0203205D01*
X0024343Y0203306D01*
X0024402Y0203406D01*
X0024464Y0203503D01*
X0024530Y0203598D01*
X0024598Y0203691D01*
X0024670Y0203781D01*
X0024745Y0203869D01*
X0024824Y0203954D01*
X0024905Y0204036D01*
X0024988Y0204116D01*
X0025075Y0204192D01*
X0025164Y0204266D01*
X0025255Y0204336D01*
X0025349Y0204404D01*
X0025445Y0204468D01*
X0025544Y0204528D01*
X0025644Y0204585D01*
X0025746Y0204639D01*
X0025850Y0204689D01*
X0025956Y0204736D01*
X0026063Y0204779D01*
X0026172Y0204818D01*
X0026282Y0204853D01*
X0026393Y0204884D01*
X0026505Y0204912D01*
X0026618Y0204936D01*
X0026732Y0204956D01*
X0026847Y0204972D01*
X0026962Y0204984D01*
X0027077Y0204992D01*
X0027192Y0204996D01*
X0027308Y0204996D01*
X0027423Y0204992D01*
X0027538Y0204984D01*
X0027653Y0204972D01*
X0027768Y0204956D01*
X0027882Y0204936D01*
X0027995Y0204912D01*
X0028107Y0204884D01*
X0028218Y0204853D01*
X0028328Y0204818D01*
X0028437Y0204779D01*
X0028544Y0204736D01*
X0028650Y0204689D01*
X0028754Y0204639D01*
X0028856Y0204585D01*
X0028956Y0204528D01*
X0029055Y0204468D01*
X0029151Y0204404D01*
X0029245Y0204336D01*
X0029336Y0204266D01*
X0029425Y0204192D01*
X0029512Y0204116D01*
X0029595Y0204036D01*
X0029676Y0203954D01*
X0029755Y0203869D01*
X0029830Y0203781D01*
X0029902Y0203691D01*
X0029970Y0203598D01*
X0030036Y0203503D01*
X0030098Y0203406D01*
X0030157Y0203306D01*
X0030213Y0203205D01*
X0030265Y0203102D01*
X0030313Y0202997D01*
X0030358Y0202890D01*
X0030399Y0202782D01*
X0030436Y0202673D01*
X0030469Y0202562D01*
X0030499Y0202451D01*
X0030524Y0202338D01*
X0030546Y0202225D01*
X0030564Y0202111D01*
X0030578Y0201996D01*
X0030588Y0201881D01*
X0030594Y0201765D01*
X0030596Y0201650D01*
X0030594Y0201535D01*
X0030588Y0201419D01*
X0030578Y0201304D01*
X0030564Y0201189D01*
X0030546Y0201075D01*
X0030524Y0200962D01*
X0030499Y0200849D01*
X0030469Y0200738D01*
X0030436Y0200627D01*
X0030399Y0200518D01*
X0030358Y0200410D01*
X0030313Y0200303D01*
X0030265Y0200198D01*
X0030213Y0200095D01*
X0030157Y0199994D01*
X0030098Y0199894D01*
X0030036Y0199797D01*
X0029970Y0199702D01*
X0029902Y0199609D01*
X0029830Y0199519D01*
X0029755Y0199431D01*
X0029676Y0199346D01*
X0029595Y0199264D01*
X0029512Y0199184D01*
X0029425Y0199108D01*
X0029336Y0199034D01*
X0029245Y0198964D01*
X0029151Y0198896D01*
X0029055Y0198832D01*
X0028956Y0198772D01*
X0028856Y0198715D01*
X0028754Y0198661D01*
X0028650Y0198611D01*
X0028544Y0198564D01*
X0028437Y0198521D01*
X0028328Y0198482D01*
X0028218Y0198447D01*
X0028107Y0198416D01*
X0027995Y0198388D01*
X0027882Y0198364D01*
X0027768Y0198344D01*
X0027653Y0198328D01*
X0027538Y0198316D01*
X0027423Y0198308D01*
X0027308Y0198304D01*
X0027192Y0198304D01*
X0027077Y0198308D01*
X0026962Y0198316D01*
X0026847Y0198328D01*
X0026732Y0198344D01*
X0026618Y0198364D01*
X0026505Y0198388D01*
X0026393Y0198416D01*
X0026282Y0198447D01*
X0026172Y0198482D01*
X0026063Y0198521D01*
X0025956Y0198564D01*
X0025850Y0198611D01*
X0025746Y0198661D01*
X0025644Y0198715D01*
X0025544Y0198772D01*
X0025445Y0198832D01*
X0025349Y0198896D01*
X0025255Y0198964D01*
X0025164Y0199034D01*
X0025075Y0199108D01*
X0024988Y0199184D01*
X0024905Y0199264D01*
X0024824Y0199346D01*
X0024745Y0199431D01*
X0024670Y0199519D01*
X0024598Y0199609D01*
X0024530Y0199702D01*
X0024464Y0199797D01*
X0024402Y0199894D01*
X0024343Y0199994D01*
X0024287Y0200095D01*
X0024235Y0200198D01*
X0024187Y0200303D01*
X0024142Y0200410D01*
X0024101Y0200518D01*
X0024064Y0200627D01*
X0024031Y0200738D01*
X0024001Y0200849D01*
X0023976Y0200962D01*
X0023954Y0201075D01*
X0023936Y0201189D01*
X0023922Y0201304D01*
X0023912Y0201419D01*
X0023906Y0201535D01*
X0023904Y0201650D01*
X0039376Y0201650D02*
X0039378Y0201843D01*
X0039385Y0202036D01*
X0039397Y0202229D01*
X0039414Y0202422D01*
X0039435Y0202614D01*
X0039461Y0202805D01*
X0039492Y0202996D01*
X0039527Y0203186D01*
X0039567Y0203375D01*
X0039612Y0203563D01*
X0039661Y0203750D01*
X0039715Y0203936D01*
X0039773Y0204120D01*
X0039836Y0204303D01*
X0039904Y0204484D01*
X0039975Y0204663D01*
X0040052Y0204841D01*
X0040132Y0205017D01*
X0040217Y0205190D01*
X0040306Y0205362D01*
X0040399Y0205531D01*
X0040496Y0205698D01*
X0040598Y0205863D01*
X0040703Y0206025D01*
X0040812Y0206184D01*
X0040926Y0206341D01*
X0041043Y0206494D01*
X0041163Y0206645D01*
X0041288Y0206793D01*
X0041416Y0206938D01*
X0041547Y0207079D01*
X0041682Y0207218D01*
X0041821Y0207353D01*
X0041962Y0207484D01*
X0042107Y0207612D01*
X0042255Y0207737D01*
X0042406Y0207857D01*
X0042559Y0207974D01*
X0042716Y0208088D01*
X0042875Y0208197D01*
X0043037Y0208302D01*
X0043202Y0208404D01*
X0043369Y0208501D01*
X0043538Y0208594D01*
X0043710Y0208683D01*
X0043883Y0208768D01*
X0044059Y0208848D01*
X0044237Y0208925D01*
X0044416Y0208996D01*
X0044597Y0209064D01*
X0044780Y0209127D01*
X0044964Y0209185D01*
X0045150Y0209239D01*
X0045337Y0209288D01*
X0045525Y0209333D01*
X0045714Y0209373D01*
X0045904Y0209408D01*
X0046095Y0209439D01*
X0046286Y0209465D01*
X0046478Y0209486D01*
X0046671Y0209503D01*
X0046864Y0209515D01*
X0047057Y0209522D01*
X0047250Y0209524D01*
X0047443Y0209522D01*
X0047636Y0209515D01*
X0047829Y0209503D01*
X0048022Y0209486D01*
X0048214Y0209465D01*
X0048405Y0209439D01*
X0048596Y0209408D01*
X0048786Y0209373D01*
X0048975Y0209333D01*
X0049163Y0209288D01*
X0049350Y0209239D01*
X0049536Y0209185D01*
X0049720Y0209127D01*
X0049903Y0209064D01*
X0050084Y0208996D01*
X0050263Y0208925D01*
X0050441Y0208848D01*
X0050617Y0208768D01*
X0050790Y0208683D01*
X0050962Y0208594D01*
X0051131Y0208501D01*
X0051298Y0208404D01*
X0051463Y0208302D01*
X0051625Y0208197D01*
X0051784Y0208088D01*
X0051941Y0207974D01*
X0052094Y0207857D01*
X0052245Y0207737D01*
X0052393Y0207612D01*
X0052538Y0207484D01*
X0052679Y0207353D01*
X0052818Y0207218D01*
X0052953Y0207079D01*
X0053084Y0206938D01*
X0053212Y0206793D01*
X0053337Y0206645D01*
X0053457Y0206494D01*
X0053574Y0206341D01*
X0053688Y0206184D01*
X0053797Y0206025D01*
X0053902Y0205863D01*
X0054004Y0205698D01*
X0054101Y0205531D01*
X0054194Y0205362D01*
X0054283Y0205190D01*
X0054368Y0205017D01*
X0054448Y0204841D01*
X0054525Y0204663D01*
X0054596Y0204484D01*
X0054664Y0204303D01*
X0054727Y0204120D01*
X0054785Y0203936D01*
X0054839Y0203750D01*
X0054888Y0203563D01*
X0054933Y0203375D01*
X0054973Y0203186D01*
X0055008Y0202996D01*
X0055039Y0202805D01*
X0055065Y0202614D01*
X0055086Y0202422D01*
X0055103Y0202229D01*
X0055115Y0202036D01*
X0055122Y0201843D01*
X0055124Y0201650D01*
X0055122Y0201457D01*
X0055115Y0201264D01*
X0055103Y0201071D01*
X0055086Y0200878D01*
X0055065Y0200686D01*
X0055039Y0200495D01*
X0055008Y0200304D01*
X0054973Y0200114D01*
X0054933Y0199925D01*
X0054888Y0199737D01*
X0054839Y0199550D01*
X0054785Y0199364D01*
X0054727Y0199180D01*
X0054664Y0198997D01*
X0054596Y0198816D01*
X0054525Y0198637D01*
X0054448Y0198459D01*
X0054368Y0198283D01*
X0054283Y0198110D01*
X0054194Y0197938D01*
X0054101Y0197769D01*
X0054004Y0197602D01*
X0053902Y0197437D01*
X0053797Y0197275D01*
X0053688Y0197116D01*
X0053574Y0196959D01*
X0053457Y0196806D01*
X0053337Y0196655D01*
X0053212Y0196507D01*
X0053084Y0196362D01*
X0052953Y0196221D01*
X0052818Y0196082D01*
X0052679Y0195947D01*
X0052538Y0195816D01*
X0052393Y0195688D01*
X0052245Y0195563D01*
X0052094Y0195443D01*
X0051941Y0195326D01*
X0051784Y0195212D01*
X0051625Y0195103D01*
X0051463Y0194998D01*
X0051298Y0194896D01*
X0051131Y0194799D01*
X0050962Y0194706D01*
X0050790Y0194617D01*
X0050617Y0194532D01*
X0050441Y0194452D01*
X0050263Y0194375D01*
X0050084Y0194304D01*
X0049903Y0194236D01*
X0049720Y0194173D01*
X0049536Y0194115D01*
X0049350Y0194061D01*
X0049163Y0194012D01*
X0048975Y0193967D01*
X0048786Y0193927D01*
X0048596Y0193892D01*
X0048405Y0193861D01*
X0048214Y0193835D01*
X0048022Y0193814D01*
X0047829Y0193797D01*
X0047636Y0193785D01*
X0047443Y0193778D01*
X0047250Y0193776D01*
X0047057Y0193778D01*
X0046864Y0193785D01*
X0046671Y0193797D01*
X0046478Y0193814D01*
X0046286Y0193835D01*
X0046095Y0193861D01*
X0045904Y0193892D01*
X0045714Y0193927D01*
X0045525Y0193967D01*
X0045337Y0194012D01*
X0045150Y0194061D01*
X0044964Y0194115D01*
X0044780Y0194173D01*
X0044597Y0194236D01*
X0044416Y0194304D01*
X0044237Y0194375D01*
X0044059Y0194452D01*
X0043883Y0194532D01*
X0043710Y0194617D01*
X0043538Y0194706D01*
X0043369Y0194799D01*
X0043202Y0194896D01*
X0043037Y0194998D01*
X0042875Y0195103D01*
X0042716Y0195212D01*
X0042559Y0195326D01*
X0042406Y0195443D01*
X0042255Y0195563D01*
X0042107Y0195688D01*
X0041962Y0195816D01*
X0041821Y0195947D01*
X0041682Y0196082D01*
X0041547Y0196221D01*
X0041416Y0196362D01*
X0041288Y0196507D01*
X0041163Y0196655D01*
X0041043Y0196806D01*
X0040926Y0196959D01*
X0040812Y0197116D01*
X0040703Y0197275D01*
X0040598Y0197437D01*
X0040496Y0197602D01*
X0040399Y0197769D01*
X0040306Y0197938D01*
X0040217Y0198110D01*
X0040132Y0198283D01*
X0040052Y0198459D01*
X0039975Y0198637D01*
X0039904Y0198816D01*
X0039836Y0198997D01*
X0039773Y0199180D01*
X0039715Y0199364D01*
X0039661Y0199550D01*
X0039612Y0199737D01*
X0039567Y0199925D01*
X0039527Y0200114D01*
X0039492Y0200304D01*
X0039461Y0200495D01*
X0039435Y0200686D01*
X0039414Y0200878D01*
X0039397Y0201071D01*
X0039385Y0201264D01*
X0039378Y0201457D01*
X0039376Y0201650D01*
X0063904Y0201650D02*
X0063906Y0201765D01*
X0063912Y0201881D01*
X0063922Y0201996D01*
X0063936Y0202111D01*
X0063954Y0202225D01*
X0063976Y0202338D01*
X0064001Y0202451D01*
X0064031Y0202562D01*
X0064064Y0202673D01*
X0064101Y0202782D01*
X0064142Y0202890D01*
X0064187Y0202997D01*
X0064235Y0203102D01*
X0064287Y0203205D01*
X0064343Y0203306D01*
X0064402Y0203406D01*
X0064464Y0203503D01*
X0064530Y0203598D01*
X0064598Y0203691D01*
X0064670Y0203781D01*
X0064745Y0203869D01*
X0064824Y0203954D01*
X0064905Y0204036D01*
X0064988Y0204116D01*
X0065075Y0204192D01*
X0065164Y0204266D01*
X0065255Y0204336D01*
X0065349Y0204404D01*
X0065445Y0204468D01*
X0065544Y0204528D01*
X0065644Y0204585D01*
X0065746Y0204639D01*
X0065850Y0204689D01*
X0065956Y0204736D01*
X0066063Y0204779D01*
X0066172Y0204818D01*
X0066282Y0204853D01*
X0066393Y0204884D01*
X0066505Y0204912D01*
X0066618Y0204936D01*
X0066732Y0204956D01*
X0066847Y0204972D01*
X0066962Y0204984D01*
X0067077Y0204992D01*
X0067192Y0204996D01*
X0067308Y0204996D01*
X0067423Y0204992D01*
X0067538Y0204984D01*
X0067653Y0204972D01*
X0067768Y0204956D01*
X0067882Y0204936D01*
X0067995Y0204912D01*
X0068107Y0204884D01*
X0068218Y0204853D01*
X0068328Y0204818D01*
X0068437Y0204779D01*
X0068544Y0204736D01*
X0068650Y0204689D01*
X0068754Y0204639D01*
X0068856Y0204585D01*
X0068956Y0204528D01*
X0069055Y0204468D01*
X0069151Y0204404D01*
X0069245Y0204336D01*
X0069336Y0204266D01*
X0069425Y0204192D01*
X0069512Y0204116D01*
X0069595Y0204036D01*
X0069676Y0203954D01*
X0069755Y0203869D01*
X0069830Y0203781D01*
X0069902Y0203691D01*
X0069970Y0203598D01*
X0070036Y0203503D01*
X0070098Y0203406D01*
X0070157Y0203306D01*
X0070213Y0203205D01*
X0070265Y0203102D01*
X0070313Y0202997D01*
X0070358Y0202890D01*
X0070399Y0202782D01*
X0070436Y0202673D01*
X0070469Y0202562D01*
X0070499Y0202451D01*
X0070524Y0202338D01*
X0070546Y0202225D01*
X0070564Y0202111D01*
X0070578Y0201996D01*
X0070588Y0201881D01*
X0070594Y0201765D01*
X0070596Y0201650D01*
X0070594Y0201535D01*
X0070588Y0201419D01*
X0070578Y0201304D01*
X0070564Y0201189D01*
X0070546Y0201075D01*
X0070524Y0200962D01*
X0070499Y0200849D01*
X0070469Y0200738D01*
X0070436Y0200627D01*
X0070399Y0200518D01*
X0070358Y0200410D01*
X0070313Y0200303D01*
X0070265Y0200198D01*
X0070213Y0200095D01*
X0070157Y0199994D01*
X0070098Y0199894D01*
X0070036Y0199797D01*
X0069970Y0199702D01*
X0069902Y0199609D01*
X0069830Y0199519D01*
X0069755Y0199431D01*
X0069676Y0199346D01*
X0069595Y0199264D01*
X0069512Y0199184D01*
X0069425Y0199108D01*
X0069336Y0199034D01*
X0069245Y0198964D01*
X0069151Y0198896D01*
X0069055Y0198832D01*
X0068956Y0198772D01*
X0068856Y0198715D01*
X0068754Y0198661D01*
X0068650Y0198611D01*
X0068544Y0198564D01*
X0068437Y0198521D01*
X0068328Y0198482D01*
X0068218Y0198447D01*
X0068107Y0198416D01*
X0067995Y0198388D01*
X0067882Y0198364D01*
X0067768Y0198344D01*
X0067653Y0198328D01*
X0067538Y0198316D01*
X0067423Y0198308D01*
X0067308Y0198304D01*
X0067192Y0198304D01*
X0067077Y0198308D01*
X0066962Y0198316D01*
X0066847Y0198328D01*
X0066732Y0198344D01*
X0066618Y0198364D01*
X0066505Y0198388D01*
X0066393Y0198416D01*
X0066282Y0198447D01*
X0066172Y0198482D01*
X0066063Y0198521D01*
X0065956Y0198564D01*
X0065850Y0198611D01*
X0065746Y0198661D01*
X0065644Y0198715D01*
X0065544Y0198772D01*
X0065445Y0198832D01*
X0065349Y0198896D01*
X0065255Y0198964D01*
X0065164Y0199034D01*
X0065075Y0199108D01*
X0064988Y0199184D01*
X0064905Y0199264D01*
X0064824Y0199346D01*
X0064745Y0199431D01*
X0064670Y0199519D01*
X0064598Y0199609D01*
X0064530Y0199702D01*
X0064464Y0199797D01*
X0064402Y0199894D01*
X0064343Y0199994D01*
X0064287Y0200095D01*
X0064235Y0200198D01*
X0064187Y0200303D01*
X0064142Y0200410D01*
X0064101Y0200518D01*
X0064064Y0200627D01*
X0064031Y0200738D01*
X0064001Y0200849D01*
X0063976Y0200962D01*
X0063954Y0201075D01*
X0063936Y0201189D01*
X0063922Y0201304D01*
X0063912Y0201419D01*
X0063906Y0201535D01*
X0063904Y0201650D01*
X0098904Y0201650D02*
X0098906Y0201765D01*
X0098912Y0201881D01*
X0098922Y0201996D01*
X0098936Y0202111D01*
X0098954Y0202225D01*
X0098976Y0202338D01*
X0099001Y0202451D01*
X0099031Y0202562D01*
X0099064Y0202673D01*
X0099101Y0202782D01*
X0099142Y0202890D01*
X0099187Y0202997D01*
X0099235Y0203102D01*
X0099287Y0203205D01*
X0099343Y0203306D01*
X0099402Y0203406D01*
X0099464Y0203503D01*
X0099530Y0203598D01*
X0099598Y0203691D01*
X0099670Y0203781D01*
X0099745Y0203869D01*
X0099824Y0203954D01*
X0099905Y0204036D01*
X0099988Y0204116D01*
X0100075Y0204192D01*
X0100164Y0204266D01*
X0100255Y0204336D01*
X0100349Y0204404D01*
X0100445Y0204468D01*
X0100544Y0204528D01*
X0100644Y0204585D01*
X0100746Y0204639D01*
X0100850Y0204689D01*
X0100956Y0204736D01*
X0101063Y0204779D01*
X0101172Y0204818D01*
X0101282Y0204853D01*
X0101393Y0204884D01*
X0101505Y0204912D01*
X0101618Y0204936D01*
X0101732Y0204956D01*
X0101847Y0204972D01*
X0101962Y0204984D01*
X0102077Y0204992D01*
X0102192Y0204996D01*
X0102308Y0204996D01*
X0102423Y0204992D01*
X0102538Y0204984D01*
X0102653Y0204972D01*
X0102768Y0204956D01*
X0102882Y0204936D01*
X0102995Y0204912D01*
X0103107Y0204884D01*
X0103218Y0204853D01*
X0103328Y0204818D01*
X0103437Y0204779D01*
X0103544Y0204736D01*
X0103650Y0204689D01*
X0103754Y0204639D01*
X0103856Y0204585D01*
X0103956Y0204528D01*
X0104055Y0204468D01*
X0104151Y0204404D01*
X0104245Y0204336D01*
X0104336Y0204266D01*
X0104425Y0204192D01*
X0104512Y0204116D01*
X0104595Y0204036D01*
X0104676Y0203954D01*
X0104755Y0203869D01*
X0104830Y0203781D01*
X0104902Y0203691D01*
X0104970Y0203598D01*
X0105036Y0203503D01*
X0105098Y0203406D01*
X0105157Y0203306D01*
X0105213Y0203205D01*
X0105265Y0203102D01*
X0105313Y0202997D01*
X0105358Y0202890D01*
X0105399Y0202782D01*
X0105436Y0202673D01*
X0105469Y0202562D01*
X0105499Y0202451D01*
X0105524Y0202338D01*
X0105546Y0202225D01*
X0105564Y0202111D01*
X0105578Y0201996D01*
X0105588Y0201881D01*
X0105594Y0201765D01*
X0105596Y0201650D01*
X0105594Y0201535D01*
X0105588Y0201419D01*
X0105578Y0201304D01*
X0105564Y0201189D01*
X0105546Y0201075D01*
X0105524Y0200962D01*
X0105499Y0200849D01*
X0105469Y0200738D01*
X0105436Y0200627D01*
X0105399Y0200518D01*
X0105358Y0200410D01*
X0105313Y0200303D01*
X0105265Y0200198D01*
X0105213Y0200095D01*
X0105157Y0199994D01*
X0105098Y0199894D01*
X0105036Y0199797D01*
X0104970Y0199702D01*
X0104902Y0199609D01*
X0104830Y0199519D01*
X0104755Y0199431D01*
X0104676Y0199346D01*
X0104595Y0199264D01*
X0104512Y0199184D01*
X0104425Y0199108D01*
X0104336Y0199034D01*
X0104245Y0198964D01*
X0104151Y0198896D01*
X0104055Y0198832D01*
X0103956Y0198772D01*
X0103856Y0198715D01*
X0103754Y0198661D01*
X0103650Y0198611D01*
X0103544Y0198564D01*
X0103437Y0198521D01*
X0103328Y0198482D01*
X0103218Y0198447D01*
X0103107Y0198416D01*
X0102995Y0198388D01*
X0102882Y0198364D01*
X0102768Y0198344D01*
X0102653Y0198328D01*
X0102538Y0198316D01*
X0102423Y0198308D01*
X0102308Y0198304D01*
X0102192Y0198304D01*
X0102077Y0198308D01*
X0101962Y0198316D01*
X0101847Y0198328D01*
X0101732Y0198344D01*
X0101618Y0198364D01*
X0101505Y0198388D01*
X0101393Y0198416D01*
X0101282Y0198447D01*
X0101172Y0198482D01*
X0101063Y0198521D01*
X0100956Y0198564D01*
X0100850Y0198611D01*
X0100746Y0198661D01*
X0100644Y0198715D01*
X0100544Y0198772D01*
X0100445Y0198832D01*
X0100349Y0198896D01*
X0100255Y0198964D01*
X0100164Y0199034D01*
X0100075Y0199108D01*
X0099988Y0199184D01*
X0099905Y0199264D01*
X0099824Y0199346D01*
X0099745Y0199431D01*
X0099670Y0199519D01*
X0099598Y0199609D01*
X0099530Y0199702D01*
X0099464Y0199797D01*
X0099402Y0199894D01*
X0099343Y0199994D01*
X0099287Y0200095D01*
X0099235Y0200198D01*
X0099187Y0200303D01*
X0099142Y0200410D01*
X0099101Y0200518D01*
X0099064Y0200627D01*
X0099031Y0200738D01*
X0099001Y0200849D01*
X0098976Y0200962D01*
X0098954Y0201075D01*
X0098936Y0201189D01*
X0098922Y0201304D01*
X0098912Y0201419D01*
X0098906Y0201535D01*
X0098904Y0201650D01*
X0114376Y0201650D02*
X0114378Y0201843D01*
X0114385Y0202036D01*
X0114397Y0202229D01*
X0114414Y0202422D01*
X0114435Y0202614D01*
X0114461Y0202805D01*
X0114492Y0202996D01*
X0114527Y0203186D01*
X0114567Y0203375D01*
X0114612Y0203563D01*
X0114661Y0203750D01*
X0114715Y0203936D01*
X0114773Y0204120D01*
X0114836Y0204303D01*
X0114904Y0204484D01*
X0114975Y0204663D01*
X0115052Y0204841D01*
X0115132Y0205017D01*
X0115217Y0205190D01*
X0115306Y0205362D01*
X0115399Y0205531D01*
X0115496Y0205698D01*
X0115598Y0205863D01*
X0115703Y0206025D01*
X0115812Y0206184D01*
X0115926Y0206341D01*
X0116043Y0206494D01*
X0116163Y0206645D01*
X0116288Y0206793D01*
X0116416Y0206938D01*
X0116547Y0207079D01*
X0116682Y0207218D01*
X0116821Y0207353D01*
X0116962Y0207484D01*
X0117107Y0207612D01*
X0117255Y0207737D01*
X0117406Y0207857D01*
X0117559Y0207974D01*
X0117716Y0208088D01*
X0117875Y0208197D01*
X0118037Y0208302D01*
X0118202Y0208404D01*
X0118369Y0208501D01*
X0118538Y0208594D01*
X0118710Y0208683D01*
X0118883Y0208768D01*
X0119059Y0208848D01*
X0119237Y0208925D01*
X0119416Y0208996D01*
X0119597Y0209064D01*
X0119780Y0209127D01*
X0119964Y0209185D01*
X0120150Y0209239D01*
X0120337Y0209288D01*
X0120525Y0209333D01*
X0120714Y0209373D01*
X0120904Y0209408D01*
X0121095Y0209439D01*
X0121286Y0209465D01*
X0121478Y0209486D01*
X0121671Y0209503D01*
X0121864Y0209515D01*
X0122057Y0209522D01*
X0122250Y0209524D01*
X0122443Y0209522D01*
X0122636Y0209515D01*
X0122829Y0209503D01*
X0123022Y0209486D01*
X0123214Y0209465D01*
X0123405Y0209439D01*
X0123596Y0209408D01*
X0123786Y0209373D01*
X0123975Y0209333D01*
X0124163Y0209288D01*
X0124350Y0209239D01*
X0124536Y0209185D01*
X0124720Y0209127D01*
X0124903Y0209064D01*
X0125084Y0208996D01*
X0125263Y0208925D01*
X0125441Y0208848D01*
X0125617Y0208768D01*
X0125790Y0208683D01*
X0125962Y0208594D01*
X0126131Y0208501D01*
X0126298Y0208404D01*
X0126463Y0208302D01*
X0126625Y0208197D01*
X0126784Y0208088D01*
X0126941Y0207974D01*
X0127094Y0207857D01*
X0127245Y0207737D01*
X0127393Y0207612D01*
X0127538Y0207484D01*
X0127679Y0207353D01*
X0127818Y0207218D01*
X0127953Y0207079D01*
X0128084Y0206938D01*
X0128212Y0206793D01*
X0128337Y0206645D01*
X0128457Y0206494D01*
X0128574Y0206341D01*
X0128688Y0206184D01*
X0128797Y0206025D01*
X0128902Y0205863D01*
X0129004Y0205698D01*
X0129101Y0205531D01*
X0129194Y0205362D01*
X0129283Y0205190D01*
X0129368Y0205017D01*
X0129448Y0204841D01*
X0129525Y0204663D01*
X0129596Y0204484D01*
X0129664Y0204303D01*
X0129727Y0204120D01*
X0129785Y0203936D01*
X0129839Y0203750D01*
X0129888Y0203563D01*
X0129933Y0203375D01*
X0129973Y0203186D01*
X0130008Y0202996D01*
X0130039Y0202805D01*
X0130065Y0202614D01*
X0130086Y0202422D01*
X0130103Y0202229D01*
X0130115Y0202036D01*
X0130122Y0201843D01*
X0130124Y0201650D01*
X0130122Y0201457D01*
X0130115Y0201264D01*
X0130103Y0201071D01*
X0130086Y0200878D01*
X0130065Y0200686D01*
X0130039Y0200495D01*
X0130008Y0200304D01*
X0129973Y0200114D01*
X0129933Y0199925D01*
X0129888Y0199737D01*
X0129839Y0199550D01*
X0129785Y0199364D01*
X0129727Y0199180D01*
X0129664Y0198997D01*
X0129596Y0198816D01*
X0129525Y0198637D01*
X0129448Y0198459D01*
X0129368Y0198283D01*
X0129283Y0198110D01*
X0129194Y0197938D01*
X0129101Y0197769D01*
X0129004Y0197602D01*
X0128902Y0197437D01*
X0128797Y0197275D01*
X0128688Y0197116D01*
X0128574Y0196959D01*
X0128457Y0196806D01*
X0128337Y0196655D01*
X0128212Y0196507D01*
X0128084Y0196362D01*
X0127953Y0196221D01*
X0127818Y0196082D01*
X0127679Y0195947D01*
X0127538Y0195816D01*
X0127393Y0195688D01*
X0127245Y0195563D01*
X0127094Y0195443D01*
X0126941Y0195326D01*
X0126784Y0195212D01*
X0126625Y0195103D01*
X0126463Y0194998D01*
X0126298Y0194896D01*
X0126131Y0194799D01*
X0125962Y0194706D01*
X0125790Y0194617D01*
X0125617Y0194532D01*
X0125441Y0194452D01*
X0125263Y0194375D01*
X0125084Y0194304D01*
X0124903Y0194236D01*
X0124720Y0194173D01*
X0124536Y0194115D01*
X0124350Y0194061D01*
X0124163Y0194012D01*
X0123975Y0193967D01*
X0123786Y0193927D01*
X0123596Y0193892D01*
X0123405Y0193861D01*
X0123214Y0193835D01*
X0123022Y0193814D01*
X0122829Y0193797D01*
X0122636Y0193785D01*
X0122443Y0193778D01*
X0122250Y0193776D01*
X0122057Y0193778D01*
X0121864Y0193785D01*
X0121671Y0193797D01*
X0121478Y0193814D01*
X0121286Y0193835D01*
X0121095Y0193861D01*
X0120904Y0193892D01*
X0120714Y0193927D01*
X0120525Y0193967D01*
X0120337Y0194012D01*
X0120150Y0194061D01*
X0119964Y0194115D01*
X0119780Y0194173D01*
X0119597Y0194236D01*
X0119416Y0194304D01*
X0119237Y0194375D01*
X0119059Y0194452D01*
X0118883Y0194532D01*
X0118710Y0194617D01*
X0118538Y0194706D01*
X0118369Y0194799D01*
X0118202Y0194896D01*
X0118037Y0194998D01*
X0117875Y0195103D01*
X0117716Y0195212D01*
X0117559Y0195326D01*
X0117406Y0195443D01*
X0117255Y0195563D01*
X0117107Y0195688D01*
X0116962Y0195816D01*
X0116821Y0195947D01*
X0116682Y0196082D01*
X0116547Y0196221D01*
X0116416Y0196362D01*
X0116288Y0196507D01*
X0116163Y0196655D01*
X0116043Y0196806D01*
X0115926Y0196959D01*
X0115812Y0197116D01*
X0115703Y0197275D01*
X0115598Y0197437D01*
X0115496Y0197602D01*
X0115399Y0197769D01*
X0115306Y0197938D01*
X0115217Y0198110D01*
X0115132Y0198283D01*
X0115052Y0198459D01*
X0114975Y0198637D01*
X0114904Y0198816D01*
X0114836Y0198997D01*
X0114773Y0199180D01*
X0114715Y0199364D01*
X0114661Y0199550D01*
X0114612Y0199737D01*
X0114567Y0199925D01*
X0114527Y0200114D01*
X0114492Y0200304D01*
X0114461Y0200495D01*
X0114435Y0200686D01*
X0114414Y0200878D01*
X0114397Y0201071D01*
X0114385Y0201264D01*
X0114378Y0201457D01*
X0114376Y0201650D01*
X0138904Y0201650D02*
X0138906Y0201765D01*
X0138912Y0201881D01*
X0138922Y0201996D01*
X0138936Y0202111D01*
X0138954Y0202225D01*
X0138976Y0202338D01*
X0139001Y0202451D01*
X0139031Y0202562D01*
X0139064Y0202673D01*
X0139101Y0202782D01*
X0139142Y0202890D01*
X0139187Y0202997D01*
X0139235Y0203102D01*
X0139287Y0203205D01*
X0139343Y0203306D01*
X0139402Y0203406D01*
X0139464Y0203503D01*
X0139530Y0203598D01*
X0139598Y0203691D01*
X0139670Y0203781D01*
X0139745Y0203869D01*
X0139824Y0203954D01*
X0139905Y0204036D01*
X0139988Y0204116D01*
X0140075Y0204192D01*
X0140164Y0204266D01*
X0140255Y0204336D01*
X0140349Y0204404D01*
X0140445Y0204468D01*
X0140544Y0204528D01*
X0140644Y0204585D01*
X0140746Y0204639D01*
X0140850Y0204689D01*
X0140956Y0204736D01*
X0141063Y0204779D01*
X0141172Y0204818D01*
X0141282Y0204853D01*
X0141393Y0204884D01*
X0141505Y0204912D01*
X0141618Y0204936D01*
X0141732Y0204956D01*
X0141847Y0204972D01*
X0141962Y0204984D01*
X0142077Y0204992D01*
X0142192Y0204996D01*
X0142308Y0204996D01*
X0142423Y0204992D01*
X0142538Y0204984D01*
X0142653Y0204972D01*
X0142768Y0204956D01*
X0142882Y0204936D01*
X0142995Y0204912D01*
X0143107Y0204884D01*
X0143218Y0204853D01*
X0143328Y0204818D01*
X0143437Y0204779D01*
X0143544Y0204736D01*
X0143650Y0204689D01*
X0143754Y0204639D01*
X0143856Y0204585D01*
X0143956Y0204528D01*
X0144055Y0204468D01*
X0144151Y0204404D01*
X0144245Y0204336D01*
X0144336Y0204266D01*
X0144425Y0204192D01*
X0144512Y0204116D01*
X0144595Y0204036D01*
X0144676Y0203954D01*
X0144755Y0203869D01*
X0144830Y0203781D01*
X0144902Y0203691D01*
X0144970Y0203598D01*
X0145036Y0203503D01*
X0145098Y0203406D01*
X0145157Y0203306D01*
X0145213Y0203205D01*
X0145265Y0203102D01*
X0145313Y0202997D01*
X0145358Y0202890D01*
X0145399Y0202782D01*
X0145436Y0202673D01*
X0145469Y0202562D01*
X0145499Y0202451D01*
X0145524Y0202338D01*
X0145546Y0202225D01*
X0145564Y0202111D01*
X0145578Y0201996D01*
X0145588Y0201881D01*
X0145594Y0201765D01*
X0145596Y0201650D01*
X0145594Y0201535D01*
X0145588Y0201419D01*
X0145578Y0201304D01*
X0145564Y0201189D01*
X0145546Y0201075D01*
X0145524Y0200962D01*
X0145499Y0200849D01*
X0145469Y0200738D01*
X0145436Y0200627D01*
X0145399Y0200518D01*
X0145358Y0200410D01*
X0145313Y0200303D01*
X0145265Y0200198D01*
X0145213Y0200095D01*
X0145157Y0199994D01*
X0145098Y0199894D01*
X0145036Y0199797D01*
X0144970Y0199702D01*
X0144902Y0199609D01*
X0144830Y0199519D01*
X0144755Y0199431D01*
X0144676Y0199346D01*
X0144595Y0199264D01*
X0144512Y0199184D01*
X0144425Y0199108D01*
X0144336Y0199034D01*
X0144245Y0198964D01*
X0144151Y0198896D01*
X0144055Y0198832D01*
X0143956Y0198772D01*
X0143856Y0198715D01*
X0143754Y0198661D01*
X0143650Y0198611D01*
X0143544Y0198564D01*
X0143437Y0198521D01*
X0143328Y0198482D01*
X0143218Y0198447D01*
X0143107Y0198416D01*
X0142995Y0198388D01*
X0142882Y0198364D01*
X0142768Y0198344D01*
X0142653Y0198328D01*
X0142538Y0198316D01*
X0142423Y0198308D01*
X0142308Y0198304D01*
X0142192Y0198304D01*
X0142077Y0198308D01*
X0141962Y0198316D01*
X0141847Y0198328D01*
X0141732Y0198344D01*
X0141618Y0198364D01*
X0141505Y0198388D01*
X0141393Y0198416D01*
X0141282Y0198447D01*
X0141172Y0198482D01*
X0141063Y0198521D01*
X0140956Y0198564D01*
X0140850Y0198611D01*
X0140746Y0198661D01*
X0140644Y0198715D01*
X0140544Y0198772D01*
X0140445Y0198832D01*
X0140349Y0198896D01*
X0140255Y0198964D01*
X0140164Y0199034D01*
X0140075Y0199108D01*
X0139988Y0199184D01*
X0139905Y0199264D01*
X0139824Y0199346D01*
X0139745Y0199431D01*
X0139670Y0199519D01*
X0139598Y0199609D01*
X0139530Y0199702D01*
X0139464Y0199797D01*
X0139402Y0199894D01*
X0139343Y0199994D01*
X0139287Y0200095D01*
X0139235Y0200198D01*
X0139187Y0200303D01*
X0139142Y0200410D01*
X0139101Y0200518D01*
X0139064Y0200627D01*
X0139031Y0200738D01*
X0139001Y0200849D01*
X0138976Y0200962D01*
X0138954Y0201075D01*
X0138936Y0201189D01*
X0138922Y0201304D01*
X0138912Y0201419D01*
X0138906Y0201535D01*
X0138904Y0201650D01*
X0138904Y0276650D02*
X0138906Y0276765D01*
X0138912Y0276881D01*
X0138922Y0276996D01*
X0138936Y0277111D01*
X0138954Y0277225D01*
X0138976Y0277338D01*
X0139001Y0277451D01*
X0139031Y0277562D01*
X0139064Y0277673D01*
X0139101Y0277782D01*
X0139142Y0277890D01*
X0139187Y0277997D01*
X0139235Y0278102D01*
X0139287Y0278205D01*
X0139343Y0278306D01*
X0139402Y0278406D01*
X0139464Y0278503D01*
X0139530Y0278598D01*
X0139598Y0278691D01*
X0139670Y0278781D01*
X0139745Y0278869D01*
X0139824Y0278954D01*
X0139905Y0279036D01*
X0139988Y0279116D01*
X0140075Y0279192D01*
X0140164Y0279266D01*
X0140255Y0279336D01*
X0140349Y0279404D01*
X0140445Y0279468D01*
X0140544Y0279528D01*
X0140644Y0279585D01*
X0140746Y0279639D01*
X0140850Y0279689D01*
X0140956Y0279736D01*
X0141063Y0279779D01*
X0141172Y0279818D01*
X0141282Y0279853D01*
X0141393Y0279884D01*
X0141505Y0279912D01*
X0141618Y0279936D01*
X0141732Y0279956D01*
X0141847Y0279972D01*
X0141962Y0279984D01*
X0142077Y0279992D01*
X0142192Y0279996D01*
X0142308Y0279996D01*
X0142423Y0279992D01*
X0142538Y0279984D01*
X0142653Y0279972D01*
X0142768Y0279956D01*
X0142882Y0279936D01*
X0142995Y0279912D01*
X0143107Y0279884D01*
X0143218Y0279853D01*
X0143328Y0279818D01*
X0143437Y0279779D01*
X0143544Y0279736D01*
X0143650Y0279689D01*
X0143754Y0279639D01*
X0143856Y0279585D01*
X0143956Y0279528D01*
X0144055Y0279468D01*
X0144151Y0279404D01*
X0144245Y0279336D01*
X0144336Y0279266D01*
X0144425Y0279192D01*
X0144512Y0279116D01*
X0144595Y0279036D01*
X0144676Y0278954D01*
X0144755Y0278869D01*
X0144830Y0278781D01*
X0144902Y0278691D01*
X0144970Y0278598D01*
X0145036Y0278503D01*
X0145098Y0278406D01*
X0145157Y0278306D01*
X0145213Y0278205D01*
X0145265Y0278102D01*
X0145313Y0277997D01*
X0145358Y0277890D01*
X0145399Y0277782D01*
X0145436Y0277673D01*
X0145469Y0277562D01*
X0145499Y0277451D01*
X0145524Y0277338D01*
X0145546Y0277225D01*
X0145564Y0277111D01*
X0145578Y0276996D01*
X0145588Y0276881D01*
X0145594Y0276765D01*
X0145596Y0276650D01*
X0145594Y0276535D01*
X0145588Y0276419D01*
X0145578Y0276304D01*
X0145564Y0276189D01*
X0145546Y0276075D01*
X0145524Y0275962D01*
X0145499Y0275849D01*
X0145469Y0275738D01*
X0145436Y0275627D01*
X0145399Y0275518D01*
X0145358Y0275410D01*
X0145313Y0275303D01*
X0145265Y0275198D01*
X0145213Y0275095D01*
X0145157Y0274994D01*
X0145098Y0274894D01*
X0145036Y0274797D01*
X0144970Y0274702D01*
X0144902Y0274609D01*
X0144830Y0274519D01*
X0144755Y0274431D01*
X0144676Y0274346D01*
X0144595Y0274264D01*
X0144512Y0274184D01*
X0144425Y0274108D01*
X0144336Y0274034D01*
X0144245Y0273964D01*
X0144151Y0273896D01*
X0144055Y0273832D01*
X0143956Y0273772D01*
X0143856Y0273715D01*
X0143754Y0273661D01*
X0143650Y0273611D01*
X0143544Y0273564D01*
X0143437Y0273521D01*
X0143328Y0273482D01*
X0143218Y0273447D01*
X0143107Y0273416D01*
X0142995Y0273388D01*
X0142882Y0273364D01*
X0142768Y0273344D01*
X0142653Y0273328D01*
X0142538Y0273316D01*
X0142423Y0273308D01*
X0142308Y0273304D01*
X0142192Y0273304D01*
X0142077Y0273308D01*
X0141962Y0273316D01*
X0141847Y0273328D01*
X0141732Y0273344D01*
X0141618Y0273364D01*
X0141505Y0273388D01*
X0141393Y0273416D01*
X0141282Y0273447D01*
X0141172Y0273482D01*
X0141063Y0273521D01*
X0140956Y0273564D01*
X0140850Y0273611D01*
X0140746Y0273661D01*
X0140644Y0273715D01*
X0140544Y0273772D01*
X0140445Y0273832D01*
X0140349Y0273896D01*
X0140255Y0273964D01*
X0140164Y0274034D01*
X0140075Y0274108D01*
X0139988Y0274184D01*
X0139905Y0274264D01*
X0139824Y0274346D01*
X0139745Y0274431D01*
X0139670Y0274519D01*
X0139598Y0274609D01*
X0139530Y0274702D01*
X0139464Y0274797D01*
X0139402Y0274894D01*
X0139343Y0274994D01*
X0139287Y0275095D01*
X0139235Y0275198D01*
X0139187Y0275303D01*
X0139142Y0275410D01*
X0139101Y0275518D01*
X0139064Y0275627D01*
X0139031Y0275738D01*
X0139001Y0275849D01*
X0138976Y0275962D01*
X0138954Y0276075D01*
X0138936Y0276189D01*
X0138922Y0276304D01*
X0138912Y0276419D01*
X0138906Y0276535D01*
X0138904Y0276650D01*
X0114376Y0276650D02*
X0114378Y0276843D01*
X0114385Y0277036D01*
X0114397Y0277229D01*
X0114414Y0277422D01*
X0114435Y0277614D01*
X0114461Y0277805D01*
X0114492Y0277996D01*
X0114527Y0278186D01*
X0114567Y0278375D01*
X0114612Y0278563D01*
X0114661Y0278750D01*
X0114715Y0278936D01*
X0114773Y0279120D01*
X0114836Y0279303D01*
X0114904Y0279484D01*
X0114975Y0279663D01*
X0115052Y0279841D01*
X0115132Y0280017D01*
X0115217Y0280190D01*
X0115306Y0280362D01*
X0115399Y0280531D01*
X0115496Y0280698D01*
X0115598Y0280863D01*
X0115703Y0281025D01*
X0115812Y0281184D01*
X0115926Y0281341D01*
X0116043Y0281494D01*
X0116163Y0281645D01*
X0116288Y0281793D01*
X0116416Y0281938D01*
X0116547Y0282079D01*
X0116682Y0282218D01*
X0116821Y0282353D01*
X0116962Y0282484D01*
X0117107Y0282612D01*
X0117255Y0282737D01*
X0117406Y0282857D01*
X0117559Y0282974D01*
X0117716Y0283088D01*
X0117875Y0283197D01*
X0118037Y0283302D01*
X0118202Y0283404D01*
X0118369Y0283501D01*
X0118538Y0283594D01*
X0118710Y0283683D01*
X0118883Y0283768D01*
X0119059Y0283848D01*
X0119237Y0283925D01*
X0119416Y0283996D01*
X0119597Y0284064D01*
X0119780Y0284127D01*
X0119964Y0284185D01*
X0120150Y0284239D01*
X0120337Y0284288D01*
X0120525Y0284333D01*
X0120714Y0284373D01*
X0120904Y0284408D01*
X0121095Y0284439D01*
X0121286Y0284465D01*
X0121478Y0284486D01*
X0121671Y0284503D01*
X0121864Y0284515D01*
X0122057Y0284522D01*
X0122250Y0284524D01*
X0122443Y0284522D01*
X0122636Y0284515D01*
X0122829Y0284503D01*
X0123022Y0284486D01*
X0123214Y0284465D01*
X0123405Y0284439D01*
X0123596Y0284408D01*
X0123786Y0284373D01*
X0123975Y0284333D01*
X0124163Y0284288D01*
X0124350Y0284239D01*
X0124536Y0284185D01*
X0124720Y0284127D01*
X0124903Y0284064D01*
X0125084Y0283996D01*
X0125263Y0283925D01*
X0125441Y0283848D01*
X0125617Y0283768D01*
X0125790Y0283683D01*
X0125962Y0283594D01*
X0126131Y0283501D01*
X0126298Y0283404D01*
X0126463Y0283302D01*
X0126625Y0283197D01*
X0126784Y0283088D01*
X0126941Y0282974D01*
X0127094Y0282857D01*
X0127245Y0282737D01*
X0127393Y0282612D01*
X0127538Y0282484D01*
X0127679Y0282353D01*
X0127818Y0282218D01*
X0127953Y0282079D01*
X0128084Y0281938D01*
X0128212Y0281793D01*
X0128337Y0281645D01*
X0128457Y0281494D01*
X0128574Y0281341D01*
X0128688Y0281184D01*
X0128797Y0281025D01*
X0128902Y0280863D01*
X0129004Y0280698D01*
X0129101Y0280531D01*
X0129194Y0280362D01*
X0129283Y0280190D01*
X0129368Y0280017D01*
X0129448Y0279841D01*
X0129525Y0279663D01*
X0129596Y0279484D01*
X0129664Y0279303D01*
X0129727Y0279120D01*
X0129785Y0278936D01*
X0129839Y0278750D01*
X0129888Y0278563D01*
X0129933Y0278375D01*
X0129973Y0278186D01*
X0130008Y0277996D01*
X0130039Y0277805D01*
X0130065Y0277614D01*
X0130086Y0277422D01*
X0130103Y0277229D01*
X0130115Y0277036D01*
X0130122Y0276843D01*
X0130124Y0276650D01*
X0130122Y0276457D01*
X0130115Y0276264D01*
X0130103Y0276071D01*
X0130086Y0275878D01*
X0130065Y0275686D01*
X0130039Y0275495D01*
X0130008Y0275304D01*
X0129973Y0275114D01*
X0129933Y0274925D01*
X0129888Y0274737D01*
X0129839Y0274550D01*
X0129785Y0274364D01*
X0129727Y0274180D01*
X0129664Y0273997D01*
X0129596Y0273816D01*
X0129525Y0273637D01*
X0129448Y0273459D01*
X0129368Y0273283D01*
X0129283Y0273110D01*
X0129194Y0272938D01*
X0129101Y0272769D01*
X0129004Y0272602D01*
X0128902Y0272437D01*
X0128797Y0272275D01*
X0128688Y0272116D01*
X0128574Y0271959D01*
X0128457Y0271806D01*
X0128337Y0271655D01*
X0128212Y0271507D01*
X0128084Y0271362D01*
X0127953Y0271221D01*
X0127818Y0271082D01*
X0127679Y0270947D01*
X0127538Y0270816D01*
X0127393Y0270688D01*
X0127245Y0270563D01*
X0127094Y0270443D01*
X0126941Y0270326D01*
X0126784Y0270212D01*
X0126625Y0270103D01*
X0126463Y0269998D01*
X0126298Y0269896D01*
X0126131Y0269799D01*
X0125962Y0269706D01*
X0125790Y0269617D01*
X0125617Y0269532D01*
X0125441Y0269452D01*
X0125263Y0269375D01*
X0125084Y0269304D01*
X0124903Y0269236D01*
X0124720Y0269173D01*
X0124536Y0269115D01*
X0124350Y0269061D01*
X0124163Y0269012D01*
X0123975Y0268967D01*
X0123786Y0268927D01*
X0123596Y0268892D01*
X0123405Y0268861D01*
X0123214Y0268835D01*
X0123022Y0268814D01*
X0122829Y0268797D01*
X0122636Y0268785D01*
X0122443Y0268778D01*
X0122250Y0268776D01*
X0122057Y0268778D01*
X0121864Y0268785D01*
X0121671Y0268797D01*
X0121478Y0268814D01*
X0121286Y0268835D01*
X0121095Y0268861D01*
X0120904Y0268892D01*
X0120714Y0268927D01*
X0120525Y0268967D01*
X0120337Y0269012D01*
X0120150Y0269061D01*
X0119964Y0269115D01*
X0119780Y0269173D01*
X0119597Y0269236D01*
X0119416Y0269304D01*
X0119237Y0269375D01*
X0119059Y0269452D01*
X0118883Y0269532D01*
X0118710Y0269617D01*
X0118538Y0269706D01*
X0118369Y0269799D01*
X0118202Y0269896D01*
X0118037Y0269998D01*
X0117875Y0270103D01*
X0117716Y0270212D01*
X0117559Y0270326D01*
X0117406Y0270443D01*
X0117255Y0270563D01*
X0117107Y0270688D01*
X0116962Y0270816D01*
X0116821Y0270947D01*
X0116682Y0271082D01*
X0116547Y0271221D01*
X0116416Y0271362D01*
X0116288Y0271507D01*
X0116163Y0271655D01*
X0116043Y0271806D01*
X0115926Y0271959D01*
X0115812Y0272116D01*
X0115703Y0272275D01*
X0115598Y0272437D01*
X0115496Y0272602D01*
X0115399Y0272769D01*
X0115306Y0272938D01*
X0115217Y0273110D01*
X0115132Y0273283D01*
X0115052Y0273459D01*
X0114975Y0273637D01*
X0114904Y0273816D01*
X0114836Y0273997D01*
X0114773Y0274180D01*
X0114715Y0274364D01*
X0114661Y0274550D01*
X0114612Y0274737D01*
X0114567Y0274925D01*
X0114527Y0275114D01*
X0114492Y0275304D01*
X0114461Y0275495D01*
X0114435Y0275686D01*
X0114414Y0275878D01*
X0114397Y0276071D01*
X0114385Y0276264D01*
X0114378Y0276457D01*
X0114376Y0276650D01*
X0098904Y0276650D02*
X0098906Y0276765D01*
X0098912Y0276881D01*
X0098922Y0276996D01*
X0098936Y0277111D01*
X0098954Y0277225D01*
X0098976Y0277338D01*
X0099001Y0277451D01*
X0099031Y0277562D01*
X0099064Y0277673D01*
X0099101Y0277782D01*
X0099142Y0277890D01*
X0099187Y0277997D01*
X0099235Y0278102D01*
X0099287Y0278205D01*
X0099343Y0278306D01*
X0099402Y0278406D01*
X0099464Y0278503D01*
X0099530Y0278598D01*
X0099598Y0278691D01*
X0099670Y0278781D01*
X0099745Y0278869D01*
X0099824Y0278954D01*
X0099905Y0279036D01*
X0099988Y0279116D01*
X0100075Y0279192D01*
X0100164Y0279266D01*
X0100255Y0279336D01*
X0100349Y0279404D01*
X0100445Y0279468D01*
X0100544Y0279528D01*
X0100644Y0279585D01*
X0100746Y0279639D01*
X0100850Y0279689D01*
X0100956Y0279736D01*
X0101063Y0279779D01*
X0101172Y0279818D01*
X0101282Y0279853D01*
X0101393Y0279884D01*
X0101505Y0279912D01*
X0101618Y0279936D01*
X0101732Y0279956D01*
X0101847Y0279972D01*
X0101962Y0279984D01*
X0102077Y0279992D01*
X0102192Y0279996D01*
X0102308Y0279996D01*
X0102423Y0279992D01*
X0102538Y0279984D01*
X0102653Y0279972D01*
X0102768Y0279956D01*
X0102882Y0279936D01*
X0102995Y0279912D01*
X0103107Y0279884D01*
X0103218Y0279853D01*
X0103328Y0279818D01*
X0103437Y0279779D01*
X0103544Y0279736D01*
X0103650Y0279689D01*
X0103754Y0279639D01*
X0103856Y0279585D01*
X0103956Y0279528D01*
X0104055Y0279468D01*
X0104151Y0279404D01*
X0104245Y0279336D01*
X0104336Y0279266D01*
X0104425Y0279192D01*
X0104512Y0279116D01*
X0104595Y0279036D01*
X0104676Y0278954D01*
X0104755Y0278869D01*
X0104830Y0278781D01*
X0104902Y0278691D01*
X0104970Y0278598D01*
X0105036Y0278503D01*
X0105098Y0278406D01*
X0105157Y0278306D01*
X0105213Y0278205D01*
X0105265Y0278102D01*
X0105313Y0277997D01*
X0105358Y0277890D01*
X0105399Y0277782D01*
X0105436Y0277673D01*
X0105469Y0277562D01*
X0105499Y0277451D01*
X0105524Y0277338D01*
X0105546Y0277225D01*
X0105564Y0277111D01*
X0105578Y0276996D01*
X0105588Y0276881D01*
X0105594Y0276765D01*
X0105596Y0276650D01*
X0105594Y0276535D01*
X0105588Y0276419D01*
X0105578Y0276304D01*
X0105564Y0276189D01*
X0105546Y0276075D01*
X0105524Y0275962D01*
X0105499Y0275849D01*
X0105469Y0275738D01*
X0105436Y0275627D01*
X0105399Y0275518D01*
X0105358Y0275410D01*
X0105313Y0275303D01*
X0105265Y0275198D01*
X0105213Y0275095D01*
X0105157Y0274994D01*
X0105098Y0274894D01*
X0105036Y0274797D01*
X0104970Y0274702D01*
X0104902Y0274609D01*
X0104830Y0274519D01*
X0104755Y0274431D01*
X0104676Y0274346D01*
X0104595Y0274264D01*
X0104512Y0274184D01*
X0104425Y0274108D01*
X0104336Y0274034D01*
X0104245Y0273964D01*
X0104151Y0273896D01*
X0104055Y0273832D01*
X0103956Y0273772D01*
X0103856Y0273715D01*
X0103754Y0273661D01*
X0103650Y0273611D01*
X0103544Y0273564D01*
X0103437Y0273521D01*
X0103328Y0273482D01*
X0103218Y0273447D01*
X0103107Y0273416D01*
X0102995Y0273388D01*
X0102882Y0273364D01*
X0102768Y0273344D01*
X0102653Y0273328D01*
X0102538Y0273316D01*
X0102423Y0273308D01*
X0102308Y0273304D01*
X0102192Y0273304D01*
X0102077Y0273308D01*
X0101962Y0273316D01*
X0101847Y0273328D01*
X0101732Y0273344D01*
X0101618Y0273364D01*
X0101505Y0273388D01*
X0101393Y0273416D01*
X0101282Y0273447D01*
X0101172Y0273482D01*
X0101063Y0273521D01*
X0100956Y0273564D01*
X0100850Y0273611D01*
X0100746Y0273661D01*
X0100644Y0273715D01*
X0100544Y0273772D01*
X0100445Y0273832D01*
X0100349Y0273896D01*
X0100255Y0273964D01*
X0100164Y0274034D01*
X0100075Y0274108D01*
X0099988Y0274184D01*
X0099905Y0274264D01*
X0099824Y0274346D01*
X0099745Y0274431D01*
X0099670Y0274519D01*
X0099598Y0274609D01*
X0099530Y0274702D01*
X0099464Y0274797D01*
X0099402Y0274894D01*
X0099343Y0274994D01*
X0099287Y0275095D01*
X0099235Y0275198D01*
X0099187Y0275303D01*
X0099142Y0275410D01*
X0099101Y0275518D01*
X0099064Y0275627D01*
X0099031Y0275738D01*
X0099001Y0275849D01*
X0098976Y0275962D01*
X0098954Y0276075D01*
X0098936Y0276189D01*
X0098922Y0276304D01*
X0098912Y0276419D01*
X0098906Y0276535D01*
X0098904Y0276650D01*
X0063904Y0276650D02*
X0063906Y0276765D01*
X0063912Y0276881D01*
X0063922Y0276996D01*
X0063936Y0277111D01*
X0063954Y0277225D01*
X0063976Y0277338D01*
X0064001Y0277451D01*
X0064031Y0277562D01*
X0064064Y0277673D01*
X0064101Y0277782D01*
X0064142Y0277890D01*
X0064187Y0277997D01*
X0064235Y0278102D01*
X0064287Y0278205D01*
X0064343Y0278306D01*
X0064402Y0278406D01*
X0064464Y0278503D01*
X0064530Y0278598D01*
X0064598Y0278691D01*
X0064670Y0278781D01*
X0064745Y0278869D01*
X0064824Y0278954D01*
X0064905Y0279036D01*
X0064988Y0279116D01*
X0065075Y0279192D01*
X0065164Y0279266D01*
X0065255Y0279336D01*
X0065349Y0279404D01*
X0065445Y0279468D01*
X0065544Y0279528D01*
X0065644Y0279585D01*
X0065746Y0279639D01*
X0065850Y0279689D01*
X0065956Y0279736D01*
X0066063Y0279779D01*
X0066172Y0279818D01*
X0066282Y0279853D01*
X0066393Y0279884D01*
X0066505Y0279912D01*
X0066618Y0279936D01*
X0066732Y0279956D01*
X0066847Y0279972D01*
X0066962Y0279984D01*
X0067077Y0279992D01*
X0067192Y0279996D01*
X0067308Y0279996D01*
X0067423Y0279992D01*
X0067538Y0279984D01*
X0067653Y0279972D01*
X0067768Y0279956D01*
X0067882Y0279936D01*
X0067995Y0279912D01*
X0068107Y0279884D01*
X0068218Y0279853D01*
X0068328Y0279818D01*
X0068437Y0279779D01*
X0068544Y0279736D01*
X0068650Y0279689D01*
X0068754Y0279639D01*
X0068856Y0279585D01*
X0068956Y0279528D01*
X0069055Y0279468D01*
X0069151Y0279404D01*
X0069245Y0279336D01*
X0069336Y0279266D01*
X0069425Y0279192D01*
X0069512Y0279116D01*
X0069595Y0279036D01*
X0069676Y0278954D01*
X0069755Y0278869D01*
X0069830Y0278781D01*
X0069902Y0278691D01*
X0069970Y0278598D01*
X0070036Y0278503D01*
X0070098Y0278406D01*
X0070157Y0278306D01*
X0070213Y0278205D01*
X0070265Y0278102D01*
X0070313Y0277997D01*
X0070358Y0277890D01*
X0070399Y0277782D01*
X0070436Y0277673D01*
X0070469Y0277562D01*
X0070499Y0277451D01*
X0070524Y0277338D01*
X0070546Y0277225D01*
X0070564Y0277111D01*
X0070578Y0276996D01*
X0070588Y0276881D01*
X0070594Y0276765D01*
X0070596Y0276650D01*
X0070594Y0276535D01*
X0070588Y0276419D01*
X0070578Y0276304D01*
X0070564Y0276189D01*
X0070546Y0276075D01*
X0070524Y0275962D01*
X0070499Y0275849D01*
X0070469Y0275738D01*
X0070436Y0275627D01*
X0070399Y0275518D01*
X0070358Y0275410D01*
X0070313Y0275303D01*
X0070265Y0275198D01*
X0070213Y0275095D01*
X0070157Y0274994D01*
X0070098Y0274894D01*
X0070036Y0274797D01*
X0069970Y0274702D01*
X0069902Y0274609D01*
X0069830Y0274519D01*
X0069755Y0274431D01*
X0069676Y0274346D01*
X0069595Y0274264D01*
X0069512Y0274184D01*
X0069425Y0274108D01*
X0069336Y0274034D01*
X0069245Y0273964D01*
X0069151Y0273896D01*
X0069055Y0273832D01*
X0068956Y0273772D01*
X0068856Y0273715D01*
X0068754Y0273661D01*
X0068650Y0273611D01*
X0068544Y0273564D01*
X0068437Y0273521D01*
X0068328Y0273482D01*
X0068218Y0273447D01*
X0068107Y0273416D01*
X0067995Y0273388D01*
X0067882Y0273364D01*
X0067768Y0273344D01*
X0067653Y0273328D01*
X0067538Y0273316D01*
X0067423Y0273308D01*
X0067308Y0273304D01*
X0067192Y0273304D01*
X0067077Y0273308D01*
X0066962Y0273316D01*
X0066847Y0273328D01*
X0066732Y0273344D01*
X0066618Y0273364D01*
X0066505Y0273388D01*
X0066393Y0273416D01*
X0066282Y0273447D01*
X0066172Y0273482D01*
X0066063Y0273521D01*
X0065956Y0273564D01*
X0065850Y0273611D01*
X0065746Y0273661D01*
X0065644Y0273715D01*
X0065544Y0273772D01*
X0065445Y0273832D01*
X0065349Y0273896D01*
X0065255Y0273964D01*
X0065164Y0274034D01*
X0065075Y0274108D01*
X0064988Y0274184D01*
X0064905Y0274264D01*
X0064824Y0274346D01*
X0064745Y0274431D01*
X0064670Y0274519D01*
X0064598Y0274609D01*
X0064530Y0274702D01*
X0064464Y0274797D01*
X0064402Y0274894D01*
X0064343Y0274994D01*
X0064287Y0275095D01*
X0064235Y0275198D01*
X0064187Y0275303D01*
X0064142Y0275410D01*
X0064101Y0275518D01*
X0064064Y0275627D01*
X0064031Y0275738D01*
X0064001Y0275849D01*
X0063976Y0275962D01*
X0063954Y0276075D01*
X0063936Y0276189D01*
X0063922Y0276304D01*
X0063912Y0276419D01*
X0063906Y0276535D01*
X0063904Y0276650D01*
X0039376Y0276650D02*
X0039378Y0276843D01*
X0039385Y0277036D01*
X0039397Y0277229D01*
X0039414Y0277422D01*
X0039435Y0277614D01*
X0039461Y0277805D01*
X0039492Y0277996D01*
X0039527Y0278186D01*
X0039567Y0278375D01*
X0039612Y0278563D01*
X0039661Y0278750D01*
X0039715Y0278936D01*
X0039773Y0279120D01*
X0039836Y0279303D01*
X0039904Y0279484D01*
X0039975Y0279663D01*
X0040052Y0279841D01*
X0040132Y0280017D01*
X0040217Y0280190D01*
X0040306Y0280362D01*
X0040399Y0280531D01*
X0040496Y0280698D01*
X0040598Y0280863D01*
X0040703Y0281025D01*
X0040812Y0281184D01*
X0040926Y0281341D01*
X0041043Y0281494D01*
X0041163Y0281645D01*
X0041288Y0281793D01*
X0041416Y0281938D01*
X0041547Y0282079D01*
X0041682Y0282218D01*
X0041821Y0282353D01*
X0041962Y0282484D01*
X0042107Y0282612D01*
X0042255Y0282737D01*
X0042406Y0282857D01*
X0042559Y0282974D01*
X0042716Y0283088D01*
X0042875Y0283197D01*
X0043037Y0283302D01*
X0043202Y0283404D01*
X0043369Y0283501D01*
X0043538Y0283594D01*
X0043710Y0283683D01*
X0043883Y0283768D01*
X0044059Y0283848D01*
X0044237Y0283925D01*
X0044416Y0283996D01*
X0044597Y0284064D01*
X0044780Y0284127D01*
X0044964Y0284185D01*
X0045150Y0284239D01*
X0045337Y0284288D01*
X0045525Y0284333D01*
X0045714Y0284373D01*
X0045904Y0284408D01*
X0046095Y0284439D01*
X0046286Y0284465D01*
X0046478Y0284486D01*
X0046671Y0284503D01*
X0046864Y0284515D01*
X0047057Y0284522D01*
X0047250Y0284524D01*
X0047443Y0284522D01*
X0047636Y0284515D01*
X0047829Y0284503D01*
X0048022Y0284486D01*
X0048214Y0284465D01*
X0048405Y0284439D01*
X0048596Y0284408D01*
X0048786Y0284373D01*
X0048975Y0284333D01*
X0049163Y0284288D01*
X0049350Y0284239D01*
X0049536Y0284185D01*
X0049720Y0284127D01*
X0049903Y0284064D01*
X0050084Y0283996D01*
X0050263Y0283925D01*
X0050441Y0283848D01*
X0050617Y0283768D01*
X0050790Y0283683D01*
X0050962Y0283594D01*
X0051131Y0283501D01*
X0051298Y0283404D01*
X0051463Y0283302D01*
X0051625Y0283197D01*
X0051784Y0283088D01*
X0051941Y0282974D01*
X0052094Y0282857D01*
X0052245Y0282737D01*
X0052393Y0282612D01*
X0052538Y0282484D01*
X0052679Y0282353D01*
X0052818Y0282218D01*
X0052953Y0282079D01*
X0053084Y0281938D01*
X0053212Y0281793D01*
X0053337Y0281645D01*
X0053457Y0281494D01*
X0053574Y0281341D01*
X0053688Y0281184D01*
X0053797Y0281025D01*
X0053902Y0280863D01*
X0054004Y0280698D01*
X0054101Y0280531D01*
X0054194Y0280362D01*
X0054283Y0280190D01*
X0054368Y0280017D01*
X0054448Y0279841D01*
X0054525Y0279663D01*
X0054596Y0279484D01*
X0054664Y0279303D01*
X0054727Y0279120D01*
X0054785Y0278936D01*
X0054839Y0278750D01*
X0054888Y0278563D01*
X0054933Y0278375D01*
X0054973Y0278186D01*
X0055008Y0277996D01*
X0055039Y0277805D01*
X0055065Y0277614D01*
X0055086Y0277422D01*
X0055103Y0277229D01*
X0055115Y0277036D01*
X0055122Y0276843D01*
X0055124Y0276650D01*
X0055122Y0276457D01*
X0055115Y0276264D01*
X0055103Y0276071D01*
X0055086Y0275878D01*
X0055065Y0275686D01*
X0055039Y0275495D01*
X0055008Y0275304D01*
X0054973Y0275114D01*
X0054933Y0274925D01*
X0054888Y0274737D01*
X0054839Y0274550D01*
X0054785Y0274364D01*
X0054727Y0274180D01*
X0054664Y0273997D01*
X0054596Y0273816D01*
X0054525Y0273637D01*
X0054448Y0273459D01*
X0054368Y0273283D01*
X0054283Y0273110D01*
X0054194Y0272938D01*
X0054101Y0272769D01*
X0054004Y0272602D01*
X0053902Y0272437D01*
X0053797Y0272275D01*
X0053688Y0272116D01*
X0053574Y0271959D01*
X0053457Y0271806D01*
X0053337Y0271655D01*
X0053212Y0271507D01*
X0053084Y0271362D01*
X0052953Y0271221D01*
X0052818Y0271082D01*
X0052679Y0270947D01*
X0052538Y0270816D01*
X0052393Y0270688D01*
X0052245Y0270563D01*
X0052094Y0270443D01*
X0051941Y0270326D01*
X0051784Y0270212D01*
X0051625Y0270103D01*
X0051463Y0269998D01*
X0051298Y0269896D01*
X0051131Y0269799D01*
X0050962Y0269706D01*
X0050790Y0269617D01*
X0050617Y0269532D01*
X0050441Y0269452D01*
X0050263Y0269375D01*
X0050084Y0269304D01*
X0049903Y0269236D01*
X0049720Y0269173D01*
X0049536Y0269115D01*
X0049350Y0269061D01*
X0049163Y0269012D01*
X0048975Y0268967D01*
X0048786Y0268927D01*
X0048596Y0268892D01*
X0048405Y0268861D01*
X0048214Y0268835D01*
X0048022Y0268814D01*
X0047829Y0268797D01*
X0047636Y0268785D01*
X0047443Y0268778D01*
X0047250Y0268776D01*
X0047057Y0268778D01*
X0046864Y0268785D01*
X0046671Y0268797D01*
X0046478Y0268814D01*
X0046286Y0268835D01*
X0046095Y0268861D01*
X0045904Y0268892D01*
X0045714Y0268927D01*
X0045525Y0268967D01*
X0045337Y0269012D01*
X0045150Y0269061D01*
X0044964Y0269115D01*
X0044780Y0269173D01*
X0044597Y0269236D01*
X0044416Y0269304D01*
X0044237Y0269375D01*
X0044059Y0269452D01*
X0043883Y0269532D01*
X0043710Y0269617D01*
X0043538Y0269706D01*
X0043369Y0269799D01*
X0043202Y0269896D01*
X0043037Y0269998D01*
X0042875Y0270103D01*
X0042716Y0270212D01*
X0042559Y0270326D01*
X0042406Y0270443D01*
X0042255Y0270563D01*
X0042107Y0270688D01*
X0041962Y0270816D01*
X0041821Y0270947D01*
X0041682Y0271082D01*
X0041547Y0271221D01*
X0041416Y0271362D01*
X0041288Y0271507D01*
X0041163Y0271655D01*
X0041043Y0271806D01*
X0040926Y0271959D01*
X0040812Y0272116D01*
X0040703Y0272275D01*
X0040598Y0272437D01*
X0040496Y0272602D01*
X0040399Y0272769D01*
X0040306Y0272938D01*
X0040217Y0273110D01*
X0040132Y0273283D01*
X0040052Y0273459D01*
X0039975Y0273637D01*
X0039904Y0273816D01*
X0039836Y0273997D01*
X0039773Y0274180D01*
X0039715Y0274364D01*
X0039661Y0274550D01*
X0039612Y0274737D01*
X0039567Y0274925D01*
X0039527Y0275114D01*
X0039492Y0275304D01*
X0039461Y0275495D01*
X0039435Y0275686D01*
X0039414Y0275878D01*
X0039397Y0276071D01*
X0039385Y0276264D01*
X0039378Y0276457D01*
X0039376Y0276650D01*
X0023904Y0276650D02*
X0023906Y0276765D01*
X0023912Y0276881D01*
X0023922Y0276996D01*
X0023936Y0277111D01*
X0023954Y0277225D01*
X0023976Y0277338D01*
X0024001Y0277451D01*
X0024031Y0277562D01*
X0024064Y0277673D01*
X0024101Y0277782D01*
X0024142Y0277890D01*
X0024187Y0277997D01*
X0024235Y0278102D01*
X0024287Y0278205D01*
X0024343Y0278306D01*
X0024402Y0278406D01*
X0024464Y0278503D01*
X0024530Y0278598D01*
X0024598Y0278691D01*
X0024670Y0278781D01*
X0024745Y0278869D01*
X0024824Y0278954D01*
X0024905Y0279036D01*
X0024988Y0279116D01*
X0025075Y0279192D01*
X0025164Y0279266D01*
X0025255Y0279336D01*
X0025349Y0279404D01*
X0025445Y0279468D01*
X0025544Y0279528D01*
X0025644Y0279585D01*
X0025746Y0279639D01*
X0025850Y0279689D01*
X0025956Y0279736D01*
X0026063Y0279779D01*
X0026172Y0279818D01*
X0026282Y0279853D01*
X0026393Y0279884D01*
X0026505Y0279912D01*
X0026618Y0279936D01*
X0026732Y0279956D01*
X0026847Y0279972D01*
X0026962Y0279984D01*
X0027077Y0279992D01*
X0027192Y0279996D01*
X0027308Y0279996D01*
X0027423Y0279992D01*
X0027538Y0279984D01*
X0027653Y0279972D01*
X0027768Y0279956D01*
X0027882Y0279936D01*
X0027995Y0279912D01*
X0028107Y0279884D01*
X0028218Y0279853D01*
X0028328Y0279818D01*
X0028437Y0279779D01*
X0028544Y0279736D01*
X0028650Y0279689D01*
X0028754Y0279639D01*
X0028856Y0279585D01*
X0028956Y0279528D01*
X0029055Y0279468D01*
X0029151Y0279404D01*
X0029245Y0279336D01*
X0029336Y0279266D01*
X0029425Y0279192D01*
X0029512Y0279116D01*
X0029595Y0279036D01*
X0029676Y0278954D01*
X0029755Y0278869D01*
X0029830Y0278781D01*
X0029902Y0278691D01*
X0029970Y0278598D01*
X0030036Y0278503D01*
X0030098Y0278406D01*
X0030157Y0278306D01*
X0030213Y0278205D01*
X0030265Y0278102D01*
X0030313Y0277997D01*
X0030358Y0277890D01*
X0030399Y0277782D01*
X0030436Y0277673D01*
X0030469Y0277562D01*
X0030499Y0277451D01*
X0030524Y0277338D01*
X0030546Y0277225D01*
X0030564Y0277111D01*
X0030578Y0276996D01*
X0030588Y0276881D01*
X0030594Y0276765D01*
X0030596Y0276650D01*
X0030594Y0276535D01*
X0030588Y0276419D01*
X0030578Y0276304D01*
X0030564Y0276189D01*
X0030546Y0276075D01*
X0030524Y0275962D01*
X0030499Y0275849D01*
X0030469Y0275738D01*
X0030436Y0275627D01*
X0030399Y0275518D01*
X0030358Y0275410D01*
X0030313Y0275303D01*
X0030265Y0275198D01*
X0030213Y0275095D01*
X0030157Y0274994D01*
X0030098Y0274894D01*
X0030036Y0274797D01*
X0029970Y0274702D01*
X0029902Y0274609D01*
X0029830Y0274519D01*
X0029755Y0274431D01*
X0029676Y0274346D01*
X0029595Y0274264D01*
X0029512Y0274184D01*
X0029425Y0274108D01*
X0029336Y0274034D01*
X0029245Y0273964D01*
X0029151Y0273896D01*
X0029055Y0273832D01*
X0028956Y0273772D01*
X0028856Y0273715D01*
X0028754Y0273661D01*
X0028650Y0273611D01*
X0028544Y0273564D01*
X0028437Y0273521D01*
X0028328Y0273482D01*
X0028218Y0273447D01*
X0028107Y0273416D01*
X0027995Y0273388D01*
X0027882Y0273364D01*
X0027768Y0273344D01*
X0027653Y0273328D01*
X0027538Y0273316D01*
X0027423Y0273308D01*
X0027308Y0273304D01*
X0027192Y0273304D01*
X0027077Y0273308D01*
X0026962Y0273316D01*
X0026847Y0273328D01*
X0026732Y0273344D01*
X0026618Y0273364D01*
X0026505Y0273388D01*
X0026393Y0273416D01*
X0026282Y0273447D01*
X0026172Y0273482D01*
X0026063Y0273521D01*
X0025956Y0273564D01*
X0025850Y0273611D01*
X0025746Y0273661D01*
X0025644Y0273715D01*
X0025544Y0273772D01*
X0025445Y0273832D01*
X0025349Y0273896D01*
X0025255Y0273964D01*
X0025164Y0274034D01*
X0025075Y0274108D01*
X0024988Y0274184D01*
X0024905Y0274264D01*
X0024824Y0274346D01*
X0024745Y0274431D01*
X0024670Y0274519D01*
X0024598Y0274609D01*
X0024530Y0274702D01*
X0024464Y0274797D01*
X0024402Y0274894D01*
X0024343Y0274994D01*
X0024287Y0275095D01*
X0024235Y0275198D01*
X0024187Y0275303D01*
X0024142Y0275410D01*
X0024101Y0275518D01*
X0024064Y0275627D01*
X0024031Y0275738D01*
X0024001Y0275849D01*
X0023976Y0275962D01*
X0023954Y0276075D01*
X0023936Y0276189D01*
X0023922Y0276304D01*
X0023912Y0276419D01*
X0023906Y0276535D01*
X0023904Y0276650D01*
X0005750Y0311650D02*
X0005752Y0311811D01*
X0005758Y0311971D01*
X0005768Y0312132D01*
X0005782Y0312292D01*
X0005800Y0312452D01*
X0005821Y0312611D01*
X0005847Y0312770D01*
X0005877Y0312928D01*
X0005910Y0313085D01*
X0005948Y0313242D01*
X0005989Y0313397D01*
X0006034Y0313551D01*
X0006083Y0313704D01*
X0006136Y0313856D01*
X0006192Y0314007D01*
X0006253Y0314156D01*
X0006316Y0314304D01*
X0006384Y0314450D01*
X0006455Y0314594D01*
X0006529Y0314736D01*
X0006607Y0314877D01*
X0006689Y0315015D01*
X0006774Y0315152D01*
X0006862Y0315286D01*
X0006954Y0315418D01*
X0007049Y0315548D01*
X0007147Y0315676D01*
X0007248Y0315801D01*
X0007352Y0315923D01*
X0007459Y0316043D01*
X0007569Y0316160D01*
X0007682Y0316275D01*
X0007798Y0316386D01*
X0007917Y0316495D01*
X0008038Y0316600D01*
X0008162Y0316703D01*
X0008288Y0316803D01*
X0008416Y0316899D01*
X0008547Y0316992D01*
X0008681Y0317082D01*
X0008816Y0317169D01*
X0008954Y0317252D01*
X0009093Y0317332D01*
X0009235Y0317408D01*
X0009378Y0317481D01*
X0009523Y0317550D01*
X0009670Y0317616D01*
X0009818Y0317678D01*
X0009968Y0317736D01*
X0010119Y0317791D01*
X0010272Y0317842D01*
X0010426Y0317889D01*
X0010581Y0317932D01*
X0010737Y0317971D01*
X0010893Y0318007D01*
X0011051Y0318038D01*
X0011209Y0318066D01*
X0011368Y0318090D01*
X0011528Y0318110D01*
X0011688Y0318126D01*
X0011848Y0318138D01*
X0012009Y0318146D01*
X0012170Y0318150D01*
X0012330Y0318150D01*
X0012491Y0318146D01*
X0012652Y0318138D01*
X0012812Y0318126D01*
X0012972Y0318110D01*
X0013132Y0318090D01*
X0013291Y0318066D01*
X0013449Y0318038D01*
X0013607Y0318007D01*
X0013763Y0317971D01*
X0013919Y0317932D01*
X0014074Y0317889D01*
X0014228Y0317842D01*
X0014381Y0317791D01*
X0014532Y0317736D01*
X0014682Y0317678D01*
X0014830Y0317616D01*
X0014977Y0317550D01*
X0015122Y0317481D01*
X0015265Y0317408D01*
X0015407Y0317332D01*
X0015546Y0317252D01*
X0015684Y0317169D01*
X0015819Y0317082D01*
X0015953Y0316992D01*
X0016084Y0316899D01*
X0016212Y0316803D01*
X0016338Y0316703D01*
X0016462Y0316600D01*
X0016583Y0316495D01*
X0016702Y0316386D01*
X0016818Y0316275D01*
X0016931Y0316160D01*
X0017041Y0316043D01*
X0017148Y0315923D01*
X0017252Y0315801D01*
X0017353Y0315676D01*
X0017451Y0315548D01*
X0017546Y0315418D01*
X0017638Y0315286D01*
X0017726Y0315152D01*
X0017811Y0315015D01*
X0017893Y0314877D01*
X0017971Y0314736D01*
X0018045Y0314594D01*
X0018116Y0314450D01*
X0018184Y0314304D01*
X0018247Y0314156D01*
X0018308Y0314007D01*
X0018364Y0313856D01*
X0018417Y0313704D01*
X0018466Y0313551D01*
X0018511Y0313397D01*
X0018552Y0313242D01*
X0018590Y0313085D01*
X0018623Y0312928D01*
X0018653Y0312770D01*
X0018679Y0312611D01*
X0018700Y0312452D01*
X0018718Y0312292D01*
X0018732Y0312132D01*
X0018742Y0311971D01*
X0018748Y0311811D01*
X0018750Y0311650D01*
X0018748Y0311489D01*
X0018742Y0311329D01*
X0018732Y0311168D01*
X0018718Y0311008D01*
X0018700Y0310848D01*
X0018679Y0310689D01*
X0018653Y0310530D01*
X0018623Y0310372D01*
X0018590Y0310215D01*
X0018552Y0310058D01*
X0018511Y0309903D01*
X0018466Y0309749D01*
X0018417Y0309596D01*
X0018364Y0309444D01*
X0018308Y0309293D01*
X0018247Y0309144D01*
X0018184Y0308996D01*
X0018116Y0308850D01*
X0018045Y0308706D01*
X0017971Y0308564D01*
X0017893Y0308423D01*
X0017811Y0308285D01*
X0017726Y0308148D01*
X0017638Y0308014D01*
X0017546Y0307882D01*
X0017451Y0307752D01*
X0017353Y0307624D01*
X0017252Y0307499D01*
X0017148Y0307377D01*
X0017041Y0307257D01*
X0016931Y0307140D01*
X0016818Y0307025D01*
X0016702Y0306914D01*
X0016583Y0306805D01*
X0016462Y0306700D01*
X0016338Y0306597D01*
X0016212Y0306497D01*
X0016084Y0306401D01*
X0015953Y0306308D01*
X0015819Y0306218D01*
X0015684Y0306131D01*
X0015546Y0306048D01*
X0015407Y0305968D01*
X0015265Y0305892D01*
X0015122Y0305819D01*
X0014977Y0305750D01*
X0014830Y0305684D01*
X0014682Y0305622D01*
X0014532Y0305564D01*
X0014381Y0305509D01*
X0014228Y0305458D01*
X0014074Y0305411D01*
X0013919Y0305368D01*
X0013763Y0305329D01*
X0013607Y0305293D01*
X0013449Y0305262D01*
X0013291Y0305234D01*
X0013132Y0305210D01*
X0012972Y0305190D01*
X0012812Y0305174D01*
X0012652Y0305162D01*
X0012491Y0305154D01*
X0012330Y0305150D01*
X0012170Y0305150D01*
X0012009Y0305154D01*
X0011848Y0305162D01*
X0011688Y0305174D01*
X0011528Y0305190D01*
X0011368Y0305210D01*
X0011209Y0305234D01*
X0011051Y0305262D01*
X0010893Y0305293D01*
X0010737Y0305329D01*
X0010581Y0305368D01*
X0010426Y0305411D01*
X0010272Y0305458D01*
X0010119Y0305509D01*
X0009968Y0305564D01*
X0009818Y0305622D01*
X0009670Y0305684D01*
X0009523Y0305750D01*
X0009378Y0305819D01*
X0009235Y0305892D01*
X0009093Y0305968D01*
X0008954Y0306048D01*
X0008816Y0306131D01*
X0008681Y0306218D01*
X0008547Y0306308D01*
X0008416Y0306401D01*
X0008288Y0306497D01*
X0008162Y0306597D01*
X0008038Y0306700D01*
X0007917Y0306805D01*
X0007798Y0306914D01*
X0007682Y0307025D01*
X0007569Y0307140D01*
X0007459Y0307257D01*
X0007352Y0307377D01*
X0007248Y0307499D01*
X0007147Y0307624D01*
X0007049Y0307752D01*
X0006954Y0307882D01*
X0006862Y0308014D01*
X0006774Y0308148D01*
X0006689Y0308285D01*
X0006607Y0308423D01*
X0006529Y0308564D01*
X0006455Y0308706D01*
X0006384Y0308850D01*
X0006316Y0308996D01*
X0006253Y0309144D01*
X0006192Y0309293D01*
X0006136Y0309444D01*
X0006083Y0309596D01*
X0006034Y0309749D01*
X0005989Y0309903D01*
X0005948Y0310058D01*
X0005910Y0310215D01*
X0005877Y0310372D01*
X0005847Y0310530D01*
X0005821Y0310689D01*
X0005800Y0310848D01*
X0005782Y0311008D01*
X0005768Y0311168D01*
X0005758Y0311329D01*
X0005752Y0311489D01*
X0005750Y0311650D01*
X0265750Y0311650D02*
X0265752Y0311811D01*
X0265758Y0311971D01*
X0265768Y0312132D01*
X0265782Y0312292D01*
X0265800Y0312452D01*
X0265821Y0312611D01*
X0265847Y0312770D01*
X0265877Y0312928D01*
X0265910Y0313085D01*
X0265948Y0313242D01*
X0265989Y0313397D01*
X0266034Y0313551D01*
X0266083Y0313704D01*
X0266136Y0313856D01*
X0266192Y0314007D01*
X0266253Y0314156D01*
X0266316Y0314304D01*
X0266384Y0314450D01*
X0266455Y0314594D01*
X0266529Y0314736D01*
X0266607Y0314877D01*
X0266689Y0315015D01*
X0266774Y0315152D01*
X0266862Y0315286D01*
X0266954Y0315418D01*
X0267049Y0315548D01*
X0267147Y0315676D01*
X0267248Y0315801D01*
X0267352Y0315923D01*
X0267459Y0316043D01*
X0267569Y0316160D01*
X0267682Y0316275D01*
X0267798Y0316386D01*
X0267917Y0316495D01*
X0268038Y0316600D01*
X0268162Y0316703D01*
X0268288Y0316803D01*
X0268416Y0316899D01*
X0268547Y0316992D01*
X0268681Y0317082D01*
X0268816Y0317169D01*
X0268954Y0317252D01*
X0269093Y0317332D01*
X0269235Y0317408D01*
X0269378Y0317481D01*
X0269523Y0317550D01*
X0269670Y0317616D01*
X0269818Y0317678D01*
X0269968Y0317736D01*
X0270119Y0317791D01*
X0270272Y0317842D01*
X0270426Y0317889D01*
X0270581Y0317932D01*
X0270737Y0317971D01*
X0270893Y0318007D01*
X0271051Y0318038D01*
X0271209Y0318066D01*
X0271368Y0318090D01*
X0271528Y0318110D01*
X0271688Y0318126D01*
X0271848Y0318138D01*
X0272009Y0318146D01*
X0272170Y0318150D01*
X0272330Y0318150D01*
X0272491Y0318146D01*
X0272652Y0318138D01*
X0272812Y0318126D01*
X0272972Y0318110D01*
X0273132Y0318090D01*
X0273291Y0318066D01*
X0273449Y0318038D01*
X0273607Y0318007D01*
X0273763Y0317971D01*
X0273919Y0317932D01*
X0274074Y0317889D01*
X0274228Y0317842D01*
X0274381Y0317791D01*
X0274532Y0317736D01*
X0274682Y0317678D01*
X0274830Y0317616D01*
X0274977Y0317550D01*
X0275122Y0317481D01*
X0275265Y0317408D01*
X0275407Y0317332D01*
X0275546Y0317252D01*
X0275684Y0317169D01*
X0275819Y0317082D01*
X0275953Y0316992D01*
X0276084Y0316899D01*
X0276212Y0316803D01*
X0276338Y0316703D01*
X0276462Y0316600D01*
X0276583Y0316495D01*
X0276702Y0316386D01*
X0276818Y0316275D01*
X0276931Y0316160D01*
X0277041Y0316043D01*
X0277148Y0315923D01*
X0277252Y0315801D01*
X0277353Y0315676D01*
X0277451Y0315548D01*
X0277546Y0315418D01*
X0277638Y0315286D01*
X0277726Y0315152D01*
X0277811Y0315015D01*
X0277893Y0314877D01*
X0277971Y0314736D01*
X0278045Y0314594D01*
X0278116Y0314450D01*
X0278184Y0314304D01*
X0278247Y0314156D01*
X0278308Y0314007D01*
X0278364Y0313856D01*
X0278417Y0313704D01*
X0278466Y0313551D01*
X0278511Y0313397D01*
X0278552Y0313242D01*
X0278590Y0313085D01*
X0278623Y0312928D01*
X0278653Y0312770D01*
X0278679Y0312611D01*
X0278700Y0312452D01*
X0278718Y0312292D01*
X0278732Y0312132D01*
X0278742Y0311971D01*
X0278748Y0311811D01*
X0278750Y0311650D01*
X0278748Y0311489D01*
X0278742Y0311329D01*
X0278732Y0311168D01*
X0278718Y0311008D01*
X0278700Y0310848D01*
X0278679Y0310689D01*
X0278653Y0310530D01*
X0278623Y0310372D01*
X0278590Y0310215D01*
X0278552Y0310058D01*
X0278511Y0309903D01*
X0278466Y0309749D01*
X0278417Y0309596D01*
X0278364Y0309444D01*
X0278308Y0309293D01*
X0278247Y0309144D01*
X0278184Y0308996D01*
X0278116Y0308850D01*
X0278045Y0308706D01*
X0277971Y0308564D01*
X0277893Y0308423D01*
X0277811Y0308285D01*
X0277726Y0308148D01*
X0277638Y0308014D01*
X0277546Y0307882D01*
X0277451Y0307752D01*
X0277353Y0307624D01*
X0277252Y0307499D01*
X0277148Y0307377D01*
X0277041Y0307257D01*
X0276931Y0307140D01*
X0276818Y0307025D01*
X0276702Y0306914D01*
X0276583Y0306805D01*
X0276462Y0306700D01*
X0276338Y0306597D01*
X0276212Y0306497D01*
X0276084Y0306401D01*
X0275953Y0306308D01*
X0275819Y0306218D01*
X0275684Y0306131D01*
X0275546Y0306048D01*
X0275407Y0305968D01*
X0275265Y0305892D01*
X0275122Y0305819D01*
X0274977Y0305750D01*
X0274830Y0305684D01*
X0274682Y0305622D01*
X0274532Y0305564D01*
X0274381Y0305509D01*
X0274228Y0305458D01*
X0274074Y0305411D01*
X0273919Y0305368D01*
X0273763Y0305329D01*
X0273607Y0305293D01*
X0273449Y0305262D01*
X0273291Y0305234D01*
X0273132Y0305210D01*
X0272972Y0305190D01*
X0272812Y0305174D01*
X0272652Y0305162D01*
X0272491Y0305154D01*
X0272330Y0305150D01*
X0272170Y0305150D01*
X0272009Y0305154D01*
X0271848Y0305162D01*
X0271688Y0305174D01*
X0271528Y0305190D01*
X0271368Y0305210D01*
X0271209Y0305234D01*
X0271051Y0305262D01*
X0270893Y0305293D01*
X0270737Y0305329D01*
X0270581Y0305368D01*
X0270426Y0305411D01*
X0270272Y0305458D01*
X0270119Y0305509D01*
X0269968Y0305564D01*
X0269818Y0305622D01*
X0269670Y0305684D01*
X0269523Y0305750D01*
X0269378Y0305819D01*
X0269235Y0305892D01*
X0269093Y0305968D01*
X0268954Y0306048D01*
X0268816Y0306131D01*
X0268681Y0306218D01*
X0268547Y0306308D01*
X0268416Y0306401D01*
X0268288Y0306497D01*
X0268162Y0306597D01*
X0268038Y0306700D01*
X0267917Y0306805D01*
X0267798Y0306914D01*
X0267682Y0307025D01*
X0267569Y0307140D01*
X0267459Y0307257D01*
X0267352Y0307377D01*
X0267248Y0307499D01*
X0267147Y0307624D01*
X0267049Y0307752D01*
X0266954Y0307882D01*
X0266862Y0308014D01*
X0266774Y0308148D01*
X0266689Y0308285D01*
X0266607Y0308423D01*
X0266529Y0308564D01*
X0266455Y0308706D01*
X0266384Y0308850D01*
X0266316Y0308996D01*
X0266253Y0309144D01*
X0266192Y0309293D01*
X0266136Y0309444D01*
X0266083Y0309596D01*
X0266034Y0309749D01*
X0265989Y0309903D01*
X0265948Y0310058D01*
X0265910Y0310215D01*
X0265877Y0310372D01*
X0265847Y0310530D01*
X0265821Y0310689D01*
X0265800Y0310848D01*
X0265782Y0311008D01*
X0265768Y0311168D01*
X0265758Y0311329D01*
X0265752Y0311489D01*
X0265750Y0311650D01*
X0265750Y0016650D02*
X0265752Y0016811D01*
X0265758Y0016971D01*
X0265768Y0017132D01*
X0265782Y0017292D01*
X0265800Y0017452D01*
X0265821Y0017611D01*
X0265847Y0017770D01*
X0265877Y0017928D01*
X0265910Y0018085D01*
X0265948Y0018242D01*
X0265989Y0018397D01*
X0266034Y0018551D01*
X0266083Y0018704D01*
X0266136Y0018856D01*
X0266192Y0019007D01*
X0266253Y0019156D01*
X0266316Y0019304D01*
X0266384Y0019450D01*
X0266455Y0019594D01*
X0266529Y0019736D01*
X0266607Y0019877D01*
X0266689Y0020015D01*
X0266774Y0020152D01*
X0266862Y0020286D01*
X0266954Y0020418D01*
X0267049Y0020548D01*
X0267147Y0020676D01*
X0267248Y0020801D01*
X0267352Y0020923D01*
X0267459Y0021043D01*
X0267569Y0021160D01*
X0267682Y0021275D01*
X0267798Y0021386D01*
X0267917Y0021495D01*
X0268038Y0021600D01*
X0268162Y0021703D01*
X0268288Y0021803D01*
X0268416Y0021899D01*
X0268547Y0021992D01*
X0268681Y0022082D01*
X0268816Y0022169D01*
X0268954Y0022252D01*
X0269093Y0022332D01*
X0269235Y0022408D01*
X0269378Y0022481D01*
X0269523Y0022550D01*
X0269670Y0022616D01*
X0269818Y0022678D01*
X0269968Y0022736D01*
X0270119Y0022791D01*
X0270272Y0022842D01*
X0270426Y0022889D01*
X0270581Y0022932D01*
X0270737Y0022971D01*
X0270893Y0023007D01*
X0271051Y0023038D01*
X0271209Y0023066D01*
X0271368Y0023090D01*
X0271528Y0023110D01*
X0271688Y0023126D01*
X0271848Y0023138D01*
X0272009Y0023146D01*
X0272170Y0023150D01*
X0272330Y0023150D01*
X0272491Y0023146D01*
X0272652Y0023138D01*
X0272812Y0023126D01*
X0272972Y0023110D01*
X0273132Y0023090D01*
X0273291Y0023066D01*
X0273449Y0023038D01*
X0273607Y0023007D01*
X0273763Y0022971D01*
X0273919Y0022932D01*
X0274074Y0022889D01*
X0274228Y0022842D01*
X0274381Y0022791D01*
X0274532Y0022736D01*
X0274682Y0022678D01*
X0274830Y0022616D01*
X0274977Y0022550D01*
X0275122Y0022481D01*
X0275265Y0022408D01*
X0275407Y0022332D01*
X0275546Y0022252D01*
X0275684Y0022169D01*
X0275819Y0022082D01*
X0275953Y0021992D01*
X0276084Y0021899D01*
X0276212Y0021803D01*
X0276338Y0021703D01*
X0276462Y0021600D01*
X0276583Y0021495D01*
X0276702Y0021386D01*
X0276818Y0021275D01*
X0276931Y0021160D01*
X0277041Y0021043D01*
X0277148Y0020923D01*
X0277252Y0020801D01*
X0277353Y0020676D01*
X0277451Y0020548D01*
X0277546Y0020418D01*
X0277638Y0020286D01*
X0277726Y0020152D01*
X0277811Y0020015D01*
X0277893Y0019877D01*
X0277971Y0019736D01*
X0278045Y0019594D01*
X0278116Y0019450D01*
X0278184Y0019304D01*
X0278247Y0019156D01*
X0278308Y0019007D01*
X0278364Y0018856D01*
X0278417Y0018704D01*
X0278466Y0018551D01*
X0278511Y0018397D01*
X0278552Y0018242D01*
X0278590Y0018085D01*
X0278623Y0017928D01*
X0278653Y0017770D01*
X0278679Y0017611D01*
X0278700Y0017452D01*
X0278718Y0017292D01*
X0278732Y0017132D01*
X0278742Y0016971D01*
X0278748Y0016811D01*
X0278750Y0016650D01*
X0278748Y0016489D01*
X0278742Y0016329D01*
X0278732Y0016168D01*
X0278718Y0016008D01*
X0278700Y0015848D01*
X0278679Y0015689D01*
X0278653Y0015530D01*
X0278623Y0015372D01*
X0278590Y0015215D01*
X0278552Y0015058D01*
X0278511Y0014903D01*
X0278466Y0014749D01*
X0278417Y0014596D01*
X0278364Y0014444D01*
X0278308Y0014293D01*
X0278247Y0014144D01*
X0278184Y0013996D01*
X0278116Y0013850D01*
X0278045Y0013706D01*
X0277971Y0013564D01*
X0277893Y0013423D01*
X0277811Y0013285D01*
X0277726Y0013148D01*
X0277638Y0013014D01*
X0277546Y0012882D01*
X0277451Y0012752D01*
X0277353Y0012624D01*
X0277252Y0012499D01*
X0277148Y0012377D01*
X0277041Y0012257D01*
X0276931Y0012140D01*
X0276818Y0012025D01*
X0276702Y0011914D01*
X0276583Y0011805D01*
X0276462Y0011700D01*
X0276338Y0011597D01*
X0276212Y0011497D01*
X0276084Y0011401D01*
X0275953Y0011308D01*
X0275819Y0011218D01*
X0275684Y0011131D01*
X0275546Y0011048D01*
X0275407Y0010968D01*
X0275265Y0010892D01*
X0275122Y0010819D01*
X0274977Y0010750D01*
X0274830Y0010684D01*
X0274682Y0010622D01*
X0274532Y0010564D01*
X0274381Y0010509D01*
X0274228Y0010458D01*
X0274074Y0010411D01*
X0273919Y0010368D01*
X0273763Y0010329D01*
X0273607Y0010293D01*
X0273449Y0010262D01*
X0273291Y0010234D01*
X0273132Y0010210D01*
X0272972Y0010190D01*
X0272812Y0010174D01*
X0272652Y0010162D01*
X0272491Y0010154D01*
X0272330Y0010150D01*
X0272170Y0010150D01*
X0272009Y0010154D01*
X0271848Y0010162D01*
X0271688Y0010174D01*
X0271528Y0010190D01*
X0271368Y0010210D01*
X0271209Y0010234D01*
X0271051Y0010262D01*
X0270893Y0010293D01*
X0270737Y0010329D01*
X0270581Y0010368D01*
X0270426Y0010411D01*
X0270272Y0010458D01*
X0270119Y0010509D01*
X0269968Y0010564D01*
X0269818Y0010622D01*
X0269670Y0010684D01*
X0269523Y0010750D01*
X0269378Y0010819D01*
X0269235Y0010892D01*
X0269093Y0010968D01*
X0268954Y0011048D01*
X0268816Y0011131D01*
X0268681Y0011218D01*
X0268547Y0011308D01*
X0268416Y0011401D01*
X0268288Y0011497D01*
X0268162Y0011597D01*
X0268038Y0011700D01*
X0267917Y0011805D01*
X0267798Y0011914D01*
X0267682Y0012025D01*
X0267569Y0012140D01*
X0267459Y0012257D01*
X0267352Y0012377D01*
X0267248Y0012499D01*
X0267147Y0012624D01*
X0267049Y0012752D01*
X0266954Y0012882D01*
X0266862Y0013014D01*
X0266774Y0013148D01*
X0266689Y0013285D01*
X0266607Y0013423D01*
X0266529Y0013564D01*
X0266455Y0013706D01*
X0266384Y0013850D01*
X0266316Y0013996D01*
X0266253Y0014144D01*
X0266192Y0014293D01*
X0266136Y0014444D01*
X0266083Y0014596D01*
X0266034Y0014749D01*
X0265989Y0014903D01*
X0265948Y0015058D01*
X0265910Y0015215D01*
X0265877Y0015372D01*
X0265847Y0015530D01*
X0265821Y0015689D01*
X0265800Y0015848D01*
X0265782Y0016008D01*
X0265768Y0016168D01*
X0265758Y0016329D01*
X0265752Y0016489D01*
X0265750Y0016650D01*
M02*
