%
M48
M72
T01C0.0138
T02C0.0150
T03C0.0591
T04C0.0669
T05C0.1300
T06C0.1575
%
T01
X8225Y7165
T02
X13725Y14665
T03
X11225Y12665
X8725Y11665
X4725Y12665
X2225Y11665
X4725Y6165
X2225Y5165
X8725Y5165
X11225Y6165
X8725Y18165
X11225Y19165
X8725Y24665
X11225Y25665
X4725Y25665
X2225Y24665
X4725Y19165
X2225Y18165
T04
X1725Y17165
X5725Y17165
X8225Y17165
X12225Y17165
X12225Y10665
X8225Y10665
X5725Y10665
X1725Y10665
X1725Y4165
X5725Y4165
X8225Y4165
X12225Y4165
X12225Y23665
X8225Y23665
X5725Y23665
X1725Y23665
T05
X1225Y1665
X6975Y7415
X6975Y20415
X1225Y26165
X25225Y26165
X25225Y1665
T06
X10225Y4165
X10225Y10665
X10225Y17165
X10225Y23665
X3725Y23665
X3725Y17165
X3725Y10665
X3725Y4165
M30
