G75*
%MOIN*%
%OFA0B0*%
%FSLAX25Y25*%
%IPPOS*%
%LPD*%
%AMOC8*
5,1,8,0,0,1.08239X$1,22.5*
%
%ADD10C,0.16548*%
%ADD11C,0.07493*%
%ADD12C,0.09658*%
%ADD13C,0.13800*%
%ADD14R,0.06800X0.06800*%
%ADD15C,0.06800*%
%ADD16R,0.08800X0.06800*%
%ADD17C,0.05576*%
%ADD18C,0.05800*%
%ADD19C,0.08800*%
%ADD20R,0.10800X0.08800*%
D10*
X0037250Y0041650D03*
X0037250Y0106650D03*
X0037250Y0171650D03*
X0037250Y0236650D03*
X0102250Y0236650D03*
X0102250Y0171650D03*
X0102250Y0106650D03*
X0102250Y0041650D03*
D11*
X0082250Y0041650D03*
X0057250Y0041650D03*
X0017250Y0041650D03*
X0017250Y0106650D03*
X0057250Y0106650D03*
X0082250Y0106650D03*
X0122250Y0106650D03*
X0122250Y0041650D03*
X0122250Y0171650D03*
X0082250Y0171650D03*
X0057250Y0171650D03*
X0017250Y0171650D03*
X0017250Y0236650D03*
X0057250Y0236650D03*
X0082250Y0236650D03*
X0122250Y0236650D03*
D12*
X0112250Y0256650D03*
X0087250Y0246650D03*
X0047250Y0256650D03*
X0022250Y0246650D03*
X0047250Y0191650D03*
X0022250Y0181650D03*
X0047250Y0126650D03*
X0022250Y0116650D03*
X0047250Y0061650D03*
X0022250Y0051650D03*
X0087250Y0051650D03*
X0112250Y0061650D03*
X0087250Y0116650D03*
X0112250Y0126650D03*
X0087250Y0181650D03*
X0112250Y0191650D03*
D13*
X0012250Y0016650D03*
X0069750Y0074150D03*
X0069750Y0204150D03*
X0012250Y0261650D03*
X0252250Y0261650D03*
X0252250Y0016650D03*
D14*
X0217250Y0071650D03*
X0217250Y0081650D03*
D15*
X0217250Y0061650D03*
X0217250Y0051650D03*
D16*
X0217250Y0091650D03*
X0217250Y0101650D03*
D17*
X0215638Y0112262D02*
X0218862Y0112262D01*
X0218862Y0111038D01*
X0215638Y0111038D01*
X0215638Y0112262D01*
X0215638Y0122262D02*
X0218862Y0122262D01*
X0218862Y0121038D01*
X0215638Y0121038D01*
X0215638Y0122262D01*
X0215638Y0132262D02*
X0218862Y0132262D01*
X0218862Y0131038D01*
X0215638Y0131038D01*
X0215638Y0132262D01*
D18*
X0147750Y0131650D02*
X0146750Y0131650D01*
X0146750Y0121650D02*
X0147750Y0121650D01*
X0147750Y0111650D02*
X0146750Y0111650D01*
X0146750Y0101650D02*
X0147750Y0101650D01*
X0149750Y0051650D02*
X0144750Y0051650D01*
X0144750Y0041650D02*
X0149750Y0041650D01*
X0148750Y0031650D02*
X0145750Y0031650D01*
X0145750Y0021650D02*
X0148750Y0021650D01*
X0216750Y0021650D02*
X0217750Y0021650D01*
X0217750Y0031650D02*
X0216750Y0031650D01*
X0216750Y0041650D02*
X0217750Y0041650D01*
D19*
X0148250Y0061650D02*
X0146250Y0061650D01*
X0146250Y0071650D02*
X0148250Y0071650D01*
D20*
X0147250Y0081650D03*
X0147250Y0091650D03*
M02*
