G75*
%MOIN*%
%OFA0B0*%
%FSLAX25Y25*%
%IPPOS*%
%LPD*%
%AMOC8*
5,1,8,0,0,1.08239X$1,22.5*
%
%ADD10R,0.06000X0.06000*%
%ADD11C,0.06000*%
%ADD12R,0.08000X0.06000*%
%ADD13C,0.04800*%
%ADD14C,0.05000*%
%ADD15C,0.08000*%
%ADD16R,0.10000X0.08000*%
D10*
X0217250Y0071650D03*
X0217250Y0081650D03*
D11*
X0217250Y0061650D03*
X0217250Y0051650D03*
D12*
X0217250Y0091650D03*
X0217250Y0101650D03*
D13*
X0215650Y0112250D02*
X0218850Y0112250D01*
X0218850Y0111050D01*
X0215650Y0111050D01*
X0215650Y0112250D01*
X0215650Y0122250D02*
X0218850Y0122250D01*
X0218850Y0121050D01*
X0215650Y0121050D01*
X0215650Y0122250D01*
X0215650Y0132250D02*
X0218850Y0132250D01*
X0218850Y0131050D01*
X0215650Y0131050D01*
X0215650Y0132250D01*
D14*
X0148750Y0021650D02*
X0145750Y0021650D01*
X0145750Y0031650D02*
X0148750Y0031650D01*
X0149750Y0041650D02*
X0144750Y0041650D01*
X0144750Y0051650D02*
X0149750Y0051650D01*
X0147750Y0101650D02*
X0146750Y0101650D01*
X0146750Y0111650D02*
X0147750Y0111650D01*
X0147750Y0121650D02*
X0146750Y0121650D01*
X0146750Y0131650D02*
X0147750Y0131650D01*
X0216750Y0041650D02*
X0217750Y0041650D01*
X0217750Y0031650D02*
X0216750Y0031650D01*
X0216750Y0021650D02*
X0217750Y0021650D01*
D15*
X0148250Y0061650D02*
X0146250Y0061650D01*
X0146250Y0071650D02*
X0148250Y0071650D01*
D16*
X0147250Y0081650D03*
X0147250Y0091650D03*
M02*
