G75*
%MOIN*%
%OFA0B0*%
%FSLAX25Y25*%
%IPPOS*%
%LPD*%
%AMOC8*
5,1,8,0,0,1.08239X$1,22.5*
%
%ADD10C,0.16548*%
%ADD11C,0.07493*%
%ADD12C,0.09658*%
%ADD13R,0.04068X0.03280*%
%ADD14C,0.13800*%
D10*
X0037250Y0041650D03*
X0037250Y0106650D03*
X0037250Y0171650D03*
X0037250Y0236650D03*
X0102250Y0236650D03*
X0102250Y0171650D03*
X0102250Y0106650D03*
X0102250Y0041650D03*
D11*
X0082250Y0041650D03*
X0057250Y0041650D03*
X0017250Y0041650D03*
X0017250Y0106650D03*
X0057250Y0106650D03*
X0082250Y0106650D03*
X0122250Y0106650D03*
X0122250Y0041650D03*
X0122250Y0171650D03*
X0082250Y0171650D03*
X0057250Y0171650D03*
X0017250Y0171650D03*
X0017250Y0236650D03*
X0057250Y0236650D03*
X0082250Y0236650D03*
X0122250Y0236650D03*
D12*
X0112250Y0256650D03*
X0087250Y0246650D03*
X0047250Y0256650D03*
X0022250Y0246650D03*
X0047250Y0191650D03*
X0022250Y0181650D03*
X0047250Y0126650D03*
X0022250Y0116650D03*
X0047250Y0061650D03*
X0022250Y0051650D03*
X0087250Y0051650D03*
X0112250Y0061650D03*
X0087250Y0116650D03*
X0112250Y0126650D03*
X0087250Y0181650D03*
X0112250Y0191650D03*
D13*
X0127250Y0191178D03*
X0127250Y0182122D03*
X0127250Y0126178D03*
X0127250Y0117122D03*
X0127250Y0061178D03*
X0127250Y0052122D03*
X0062250Y0052122D03*
X0062250Y0061178D03*
X0062250Y0117122D03*
X0062250Y0126178D03*
X0062250Y0182122D03*
X0062250Y0191178D03*
X0063250Y0247122D03*
X0063250Y0256178D03*
X0127250Y0256178D03*
X0127250Y0247122D03*
D14*
X0012250Y0016650D03*
X0069750Y0074150D03*
X0069750Y0204150D03*
X0012250Y0261650D03*
X0252250Y0261650D03*
X0252250Y0016650D03*
M02*
