G75*
%MOIN*%
%OFA0B0*%
%FSLAX25Y25*%
%IPPOS*%
%LPD*%
%AMOC8*
5,1,8,0,0,1.08239X$1,22.5*
%
%ADD10C,0.00800*%
D10*
X0069789Y0059681D02*
X0074711Y0059681D01*
X0074711Y0063107D02*
X0074711Y0070193D01*
X0069789Y0070193D02*
X0069789Y0063107D01*
X0069789Y0134681D02*
X0074711Y0134681D01*
X0074711Y0138107D02*
X0074711Y0145193D01*
X0069789Y0145193D02*
X0069789Y0138107D01*
X0069789Y0209681D02*
X0074711Y0209681D01*
X0074711Y0213107D02*
X0074711Y0220193D01*
X0069789Y0220193D02*
X0069789Y0213107D01*
X0070789Y0284681D02*
X0075711Y0284681D01*
X0075711Y0288107D02*
X0075711Y0295193D01*
X0070789Y0295193D02*
X0070789Y0288107D01*
X0144789Y0288107D02*
X0144789Y0295193D01*
X0149711Y0295193D02*
X0149711Y0288107D01*
X0149711Y0284681D02*
X0144789Y0284681D01*
X0144789Y0220193D02*
X0144789Y0213107D01*
X0144789Y0209681D02*
X0149711Y0209681D01*
X0149711Y0213107D02*
X0149711Y0220193D01*
X0149711Y0145193D02*
X0149711Y0138107D01*
X0149711Y0134681D02*
X0144789Y0134681D01*
X0144789Y0138107D02*
X0144789Y0145193D01*
X0144789Y0070193D02*
X0144789Y0063107D01*
X0144789Y0059681D02*
X0149711Y0059681D01*
X0149711Y0063107D02*
X0149711Y0070193D01*
M02*
