G75*
%MOIN*%
%OFA0B0*%
%FSLAX25Y25*%
%IPPOS*%
%LPD*%
%AMOC8*
5,1,8,0,0,1.08239X$1,22.5*
%
%ADD10C,0.08858*%
%ADD11R,0.03268X0.02480*%
%ADD12C,0.00600*%
%ADD13C,0.02578*%
%ADD14C,0.02700*%
%ADD15C,0.01000*%
D10*
X0022250Y0051650D03*
X0047250Y0061650D03*
X0087250Y0051650D03*
X0112250Y0061650D03*
X0087250Y0116650D03*
X0112250Y0126650D03*
X0087250Y0181650D03*
X0112250Y0191650D03*
X0087250Y0246650D03*
X0112250Y0256650D03*
X0047250Y0256650D03*
X0022250Y0246650D03*
X0047250Y0191650D03*
X0022250Y0181650D03*
X0047250Y0126650D03*
X0022250Y0116650D03*
D11*
X0062250Y0117122D03*
X0062250Y0126178D03*
X0062250Y0182122D03*
X0062250Y0191178D03*
X0063250Y0247122D03*
X0063250Y0256178D03*
X0127250Y0256178D03*
X0127250Y0247122D03*
X0127250Y0191178D03*
X0127250Y0182122D03*
X0127250Y0126178D03*
X0127250Y0117122D03*
X0127250Y0061178D03*
X0127250Y0052122D03*
X0062250Y0052122D03*
X0062250Y0061178D03*
D12*
X0061778Y0061650D01*
X0047250Y0061650D01*
X0062250Y0052122D02*
X0062722Y0051650D01*
X0067250Y0051650D01*
X0082250Y0066650D01*
X0082250Y0071650D01*
X0082250Y0091650D01*
X0067250Y0106650D01*
X0067250Y0116650D01*
X0067250Y0181650D01*
X0062722Y0181650D01*
X0062250Y0182122D01*
X0067250Y0181650D02*
X0082250Y0196650D01*
X0082250Y0211650D01*
X0072250Y0221650D01*
X0072250Y0241650D01*
X0066778Y0247122D01*
X0063250Y0247122D01*
X0063250Y0256178D02*
X0062778Y0256650D01*
X0047250Y0256650D01*
X0047250Y0191650D02*
X0061778Y0191650D01*
X0062250Y0191178D01*
X0112250Y0191650D02*
X0126778Y0191650D01*
X0127250Y0191178D01*
X0127250Y0182122D02*
X0136778Y0182122D01*
X0137250Y0181650D01*
X0137250Y0146650D01*
X0137250Y0116650D01*
X0136778Y0117122D01*
X0127250Y0117122D01*
X0137250Y0116650D02*
X0137250Y0056650D01*
X0132250Y0051650D01*
X0127722Y0051650D01*
X0127250Y0052122D01*
X0127250Y0061178D02*
X0126778Y0061650D01*
X0112250Y0061650D01*
X0067250Y0116650D02*
X0062722Y0116650D01*
X0062250Y0117122D01*
X0062250Y0126178D02*
X0061778Y0126650D01*
X0047250Y0126650D01*
X0112250Y0126650D02*
X0126778Y0126650D01*
X0127250Y0126178D01*
X0137250Y0181650D02*
X0137250Y0241650D01*
X0131778Y0247122D01*
X0127250Y0247122D01*
X0127250Y0256178D02*
X0126778Y0256650D01*
X0112250Y0256650D01*
D13*
X0082250Y0071650D03*
D14*
X0137250Y0146650D03*
D15*
X0007570Y0008350D02*
X0003950Y0008350D01*
X0003950Y0012226D01*
X0004938Y0010515D01*
X0004938Y0010515D01*
X0007477Y0008384D01*
X0007477Y0008384D01*
X0007570Y0008350D01*
X0007164Y0008647D02*
X0003950Y0008647D01*
X0003950Y0009646D02*
X0005974Y0009646D01*
X0004863Y0010644D02*
X0003950Y0010644D01*
X0003950Y0011643D02*
X0004287Y0011643D01*
X0003950Y0021074D02*
X0003950Y0257226D01*
X0004938Y0255515D01*
X0004938Y0255515D01*
X0007477Y0253384D01*
X0010593Y0252250D01*
X0013907Y0252250D01*
X0017022Y0253384D01*
X0017023Y0253384D01*
X0019562Y0255515D01*
X0021219Y0258385D01*
X0021219Y0258385D01*
X0021795Y0261650D01*
X0021219Y0264915D01*
X0019562Y0267785D01*
X0019562Y0267785D01*
X0017339Y0269651D01*
X0247161Y0269651D01*
X0244938Y0267785D01*
X0243281Y0264915D01*
X0242705Y0261650D01*
X0242705Y0261650D01*
X0243281Y0258385D01*
X0244938Y0255515D01*
X0244938Y0255515D01*
X0247477Y0253384D01*
X0247477Y0253384D01*
X0250593Y0252250D01*
X0253907Y0252250D01*
X0257022Y0253384D01*
X0257023Y0253384D01*
X0259562Y0255515D01*
X0260471Y0257090D01*
X0260471Y0021210D01*
X0259562Y0022785D01*
X0259562Y0022785D01*
X0257023Y0024916D01*
X0257022Y0024916D01*
X0253907Y0026050D01*
X0250593Y0026050D01*
X0247477Y0024916D01*
X0244938Y0022785D01*
X0243281Y0019915D01*
X0242705Y0016650D01*
X0242705Y0016650D01*
X0243281Y0013385D01*
X0244938Y0010515D01*
X0244938Y0010515D01*
X0247477Y0008384D01*
X0247477Y0008384D01*
X0247570Y0008350D01*
X0016930Y0008350D01*
X0017022Y0008384D01*
X0017023Y0008384D01*
X0019562Y0010515D01*
X0021219Y0013385D01*
X0021219Y0013385D01*
X0021795Y0016650D01*
X0021219Y0019915D01*
X0019562Y0022785D01*
X0019562Y0022785D01*
X0017023Y0024916D01*
X0017022Y0024916D01*
X0013907Y0026050D01*
X0010593Y0026050D01*
X0007477Y0024916D01*
X0004938Y0022785D01*
X0003950Y0021074D01*
X0003950Y0021628D02*
X0004270Y0021628D01*
X0003950Y0022626D02*
X0004846Y0022626D01*
X0004938Y0022785D02*
X0004938Y0022785D01*
X0004938Y0022785D01*
X0003950Y0023625D02*
X0005938Y0023625D01*
X0007128Y0024623D02*
X0003950Y0024623D01*
X0003950Y0025622D02*
X0009416Y0025622D01*
X0007477Y0024916D02*
X0007477Y0024916D01*
X0003950Y0026620D02*
X0260471Y0026620D01*
X0260471Y0025622D02*
X0255084Y0025622D01*
X0257372Y0024623D02*
X0260471Y0024623D01*
X0260471Y0023625D02*
X0258562Y0023625D01*
X0259654Y0022626D02*
X0260471Y0022626D01*
X0260471Y0021628D02*
X0260230Y0021628D01*
X0260471Y0027619D02*
X0003950Y0027619D01*
X0003950Y0028617D02*
X0260471Y0028617D01*
X0260471Y0029616D02*
X0003950Y0029616D01*
X0003950Y0030614D02*
X0260471Y0030614D01*
X0260471Y0031613D02*
X0003950Y0031613D01*
X0003950Y0032611D02*
X0034053Y0032611D01*
X0035346Y0032076D02*
X0031827Y0033534D01*
X0029134Y0036227D01*
X0027676Y0039746D01*
X0027676Y0043554D01*
X0029134Y0047073D01*
X0031827Y0049766D01*
X0035346Y0051224D01*
X0039154Y0051224D01*
X0042673Y0049766D01*
X0045366Y0047073D01*
X0046824Y0043554D01*
X0046824Y0039746D01*
X0045366Y0036227D01*
X0042673Y0033534D01*
X0039154Y0032076D01*
X0035346Y0032076D01*
X0031750Y0033610D02*
X0003950Y0033610D01*
X0003950Y0034608D02*
X0030752Y0034608D01*
X0029753Y0035607D02*
X0003950Y0035607D01*
X0003950Y0036605D02*
X0016242Y0036605D01*
X0016246Y0036604D02*
X0018254Y0036604D01*
X0020109Y0037372D01*
X0021528Y0038791D01*
X0022296Y0040646D01*
X0022296Y0042654D01*
X0021528Y0044509D01*
X0020152Y0045885D01*
X0021031Y0045521D01*
X0023469Y0045521D01*
X0025722Y0046454D01*
X0027446Y0048178D01*
X0028379Y0050431D01*
X0028379Y0052869D01*
X0027446Y0055122D01*
X0025722Y0056846D01*
X0023469Y0057779D01*
X0021031Y0057779D01*
X0018778Y0056846D01*
X0017054Y0055122D01*
X0016121Y0052869D01*
X0016121Y0050431D01*
X0017054Y0048178D01*
X0018735Y0046497D01*
X0018254Y0046696D01*
X0016246Y0046696D01*
X0014391Y0045928D01*
X0012972Y0044509D01*
X0012204Y0042654D01*
X0012204Y0040646D01*
X0012972Y0038791D01*
X0014391Y0037372D01*
X0016246Y0036604D01*
X0018258Y0036605D02*
X0028977Y0036605D01*
X0028563Y0037604D02*
X0020341Y0037604D01*
X0021339Y0038602D02*
X0028150Y0038602D01*
X0027736Y0039601D02*
X0021863Y0039601D01*
X0022277Y0040599D02*
X0027676Y0040599D01*
X0027676Y0041598D02*
X0022296Y0041598D01*
X0022296Y0042596D02*
X0027676Y0042596D01*
X0027693Y0043595D02*
X0021907Y0043595D01*
X0021443Y0044593D02*
X0028106Y0044593D01*
X0028520Y0045592D02*
X0023641Y0045592D01*
X0025858Y0046590D02*
X0028934Y0046590D01*
X0029649Y0047589D02*
X0026857Y0047589D01*
X0027616Y0048587D02*
X0030648Y0048587D01*
X0031646Y0049586D02*
X0028029Y0049586D01*
X0028379Y0050584D02*
X0033802Y0050584D01*
X0028379Y0051583D02*
X0058916Y0051583D01*
X0058916Y0050584D02*
X0040698Y0050584D01*
X0042854Y0049586D02*
X0059508Y0049586D01*
X0059912Y0049182D02*
X0058916Y0050178D01*
X0058916Y0054067D01*
X0059912Y0055063D01*
X0064588Y0055063D01*
X0065584Y0054067D01*
X0065584Y0053650D01*
X0066422Y0053650D01*
X0080250Y0067478D01*
X0080250Y0069423D01*
X0079716Y0069957D01*
X0079261Y0071055D01*
X0079261Y0072245D01*
X0079716Y0073343D01*
X0080250Y0073877D01*
X0080250Y0090822D01*
X0066422Y0104650D01*
X0065250Y0105822D01*
X0065250Y0114650D01*
X0065056Y0114650D01*
X0064588Y0114182D01*
X0059912Y0114182D01*
X0058916Y0115178D01*
X0058916Y0119067D01*
X0059912Y0120063D01*
X0064588Y0120063D01*
X0065250Y0119401D01*
X0065250Y0123899D01*
X0064588Y0123237D01*
X0059912Y0123237D01*
X0058916Y0124233D01*
X0058916Y0124650D01*
X0053056Y0124650D01*
X0052446Y0123178D01*
X0050722Y0121454D01*
X0048469Y0120521D01*
X0046031Y0120521D01*
X0043778Y0121454D01*
X0042054Y0123178D01*
X0041121Y0125431D01*
X0041121Y0127869D01*
X0042054Y0130122D01*
X0043778Y0131846D01*
X0046031Y0132779D01*
X0048469Y0132779D01*
X0050722Y0131846D01*
X0052446Y0130122D01*
X0053056Y0128650D01*
X0059444Y0128650D01*
X0059912Y0129118D01*
X0064588Y0129118D01*
X0065250Y0128456D01*
X0065250Y0179650D01*
X0065056Y0179650D01*
X0064588Y0179182D01*
X0059912Y0179182D01*
X0058916Y0180178D01*
X0058916Y0184067D01*
X0059912Y0185063D01*
X0064588Y0185063D01*
X0065584Y0184067D01*
X0065584Y0183650D01*
X0066422Y0183650D01*
X0080250Y0197478D01*
X0080250Y0210822D01*
X0071422Y0219650D01*
X0070250Y0220822D01*
X0070250Y0240822D01*
X0066239Y0244833D01*
X0065588Y0244182D01*
X0060912Y0244182D01*
X0059916Y0245178D01*
X0059916Y0249067D01*
X0060912Y0250063D01*
X0065588Y0250063D01*
X0066528Y0249122D01*
X0067606Y0249122D01*
X0073078Y0243650D01*
X0074250Y0242478D01*
X0074250Y0222478D01*
X0083078Y0213650D01*
X0084250Y0212478D01*
X0084250Y0195822D01*
X0069250Y0180822D01*
X0069250Y0107478D01*
X0084250Y0092478D01*
X0084250Y0073877D01*
X0084784Y0073343D01*
X0085239Y0072245D01*
X0085239Y0071055D01*
X0084784Y0069957D01*
X0084250Y0069423D01*
X0084250Y0065822D01*
X0069250Y0050822D01*
X0068078Y0049650D01*
X0065056Y0049650D01*
X0064588Y0049182D01*
X0059912Y0049182D01*
X0058510Y0046590D02*
X0080990Y0046590D01*
X0081246Y0046696D02*
X0079391Y0045928D01*
X0077972Y0044509D01*
X0077204Y0042654D01*
X0077204Y0040646D01*
X0077972Y0038791D01*
X0079391Y0037372D01*
X0081246Y0036604D01*
X0083254Y0036604D01*
X0085109Y0037372D01*
X0086528Y0038791D01*
X0087296Y0040646D01*
X0087296Y0042654D01*
X0086528Y0044509D01*
X0085152Y0045885D01*
X0086031Y0045521D01*
X0088469Y0045521D01*
X0090722Y0046454D01*
X0092446Y0048178D01*
X0093379Y0050431D01*
X0093379Y0052869D01*
X0092446Y0055122D01*
X0090722Y0056846D01*
X0088469Y0057779D01*
X0086031Y0057779D01*
X0083778Y0056846D01*
X0082054Y0055122D01*
X0081121Y0052869D01*
X0081121Y0050431D01*
X0082054Y0048178D01*
X0083735Y0046497D01*
X0083254Y0046696D01*
X0081246Y0046696D01*
X0082643Y0047589D02*
X0044851Y0047589D01*
X0045566Y0046590D02*
X0055990Y0046590D01*
X0056246Y0046696D02*
X0054391Y0045928D01*
X0052972Y0044509D01*
X0052204Y0042654D01*
X0052204Y0040646D01*
X0052972Y0038791D01*
X0054391Y0037372D01*
X0056246Y0036604D01*
X0058254Y0036604D01*
X0060109Y0037372D01*
X0061528Y0038791D01*
X0062296Y0040646D01*
X0062296Y0042654D01*
X0061528Y0044509D01*
X0060109Y0045928D01*
X0058254Y0046696D01*
X0056246Y0046696D01*
X0054055Y0045592D02*
X0045980Y0045592D01*
X0046394Y0044593D02*
X0053057Y0044593D01*
X0052593Y0043595D02*
X0046807Y0043595D01*
X0046824Y0042596D02*
X0052204Y0042596D01*
X0052204Y0041598D02*
X0046824Y0041598D01*
X0046824Y0040599D02*
X0052223Y0040599D01*
X0052637Y0039601D02*
X0046764Y0039601D01*
X0046350Y0038602D02*
X0053161Y0038602D01*
X0054159Y0037604D02*
X0045937Y0037604D01*
X0045523Y0036605D02*
X0056242Y0036605D01*
X0058258Y0036605D02*
X0081242Y0036605D01*
X0083258Y0036605D02*
X0093977Y0036605D01*
X0094134Y0036227D02*
X0096827Y0033534D01*
X0100346Y0032076D01*
X0104154Y0032076D01*
X0107673Y0033534D01*
X0110366Y0036227D01*
X0111824Y0039746D01*
X0111824Y0043554D01*
X0110366Y0047073D01*
X0107673Y0049766D01*
X0104154Y0051224D01*
X0100346Y0051224D01*
X0096827Y0049766D01*
X0094134Y0047073D01*
X0092676Y0043554D01*
X0092676Y0039746D01*
X0094134Y0036227D01*
X0094753Y0035607D02*
X0044747Y0035607D01*
X0043748Y0034608D02*
X0095752Y0034608D01*
X0096750Y0033610D02*
X0042750Y0033610D01*
X0040447Y0032611D02*
X0099053Y0032611D01*
X0105447Y0032611D02*
X0260471Y0032611D01*
X0260471Y0033610D02*
X0107750Y0033610D01*
X0108748Y0034608D02*
X0260471Y0034608D01*
X0260471Y0035607D02*
X0109747Y0035607D01*
X0110523Y0036605D02*
X0121242Y0036605D01*
X0121246Y0036604D02*
X0123254Y0036604D01*
X0125109Y0037372D01*
X0126528Y0038791D01*
X0127296Y0040646D01*
X0127296Y0042654D01*
X0126528Y0044509D01*
X0125109Y0045928D01*
X0123254Y0046696D01*
X0121246Y0046696D01*
X0119391Y0045928D01*
X0117972Y0044509D01*
X0117204Y0042654D01*
X0117204Y0040646D01*
X0117972Y0038791D01*
X0119391Y0037372D01*
X0121246Y0036604D01*
X0123258Y0036605D02*
X0260471Y0036605D01*
X0260471Y0037604D02*
X0125341Y0037604D01*
X0126339Y0038602D02*
X0260471Y0038602D01*
X0260471Y0039601D02*
X0126863Y0039601D01*
X0127277Y0040599D02*
X0260471Y0040599D01*
X0260471Y0041598D02*
X0127296Y0041598D01*
X0127296Y0042596D02*
X0260471Y0042596D01*
X0260471Y0043595D02*
X0126907Y0043595D01*
X0126443Y0044593D02*
X0260471Y0044593D01*
X0260471Y0045592D02*
X0125445Y0045592D01*
X0123510Y0046590D02*
X0260471Y0046590D01*
X0260471Y0047589D02*
X0109851Y0047589D01*
X0110566Y0046590D02*
X0120990Y0046590D01*
X0119055Y0045592D02*
X0110980Y0045592D01*
X0111394Y0044593D02*
X0118057Y0044593D01*
X0117593Y0043595D02*
X0111807Y0043595D01*
X0111824Y0042596D02*
X0117204Y0042596D01*
X0117204Y0041598D02*
X0111824Y0041598D01*
X0111824Y0040599D02*
X0117223Y0040599D01*
X0117637Y0039601D02*
X0111764Y0039601D01*
X0111350Y0038602D02*
X0118161Y0038602D01*
X0119159Y0037604D02*
X0110937Y0037604D01*
X0108852Y0048587D02*
X0260471Y0048587D01*
X0260471Y0049586D02*
X0129992Y0049586D01*
X0130056Y0049650D02*
X0133078Y0049650D01*
X0134250Y0050822D01*
X0139250Y0055822D01*
X0139250Y0144337D01*
X0139836Y0144922D01*
X0140300Y0146043D01*
X0140300Y0147257D01*
X0139836Y0148378D01*
X0139250Y0148963D01*
X0139250Y0242478D01*
X0138078Y0243650D01*
X0132606Y0249122D01*
X0130528Y0249122D01*
X0129588Y0250063D01*
X0124912Y0250063D01*
X0123916Y0249067D01*
X0123916Y0245178D01*
X0124912Y0244182D01*
X0129588Y0244182D01*
X0130528Y0245122D01*
X0130949Y0245122D01*
X0135250Y0240822D01*
X0135250Y0184122D01*
X0130528Y0184122D01*
X0129588Y0185063D01*
X0124912Y0185063D01*
X0123916Y0184067D01*
X0123916Y0180178D01*
X0124912Y0179182D01*
X0129588Y0179182D01*
X0130528Y0180122D01*
X0135250Y0180122D01*
X0135250Y0148963D01*
X0134664Y0148378D01*
X0134200Y0147257D01*
X0134200Y0146043D01*
X0134664Y0144922D01*
X0135250Y0144337D01*
X0135250Y0119122D01*
X0130528Y0119122D01*
X0129588Y0120063D01*
X0124912Y0120063D01*
X0123916Y0119067D01*
X0123916Y0115178D01*
X0124912Y0114182D01*
X0129588Y0114182D01*
X0130528Y0115122D01*
X0135250Y0115122D01*
X0135250Y0057478D01*
X0131422Y0053650D01*
X0130584Y0053650D01*
X0130584Y0054067D01*
X0129588Y0055063D01*
X0124912Y0055063D01*
X0123916Y0054067D01*
X0123916Y0050178D01*
X0124912Y0049182D01*
X0129588Y0049182D01*
X0130056Y0049650D01*
X0134013Y0050584D02*
X0260471Y0050584D01*
X0260471Y0051583D02*
X0135011Y0051583D01*
X0136010Y0052582D02*
X0260471Y0052582D01*
X0260471Y0053580D02*
X0137008Y0053580D01*
X0138007Y0054579D02*
X0260471Y0054579D01*
X0260471Y0055577D02*
X0139005Y0055577D01*
X0139250Y0056576D02*
X0260471Y0056576D01*
X0260471Y0057574D02*
X0139250Y0057574D01*
X0139250Y0058573D02*
X0260471Y0058573D01*
X0260471Y0059571D02*
X0139250Y0059571D01*
X0139250Y0060570D02*
X0260471Y0060570D01*
X0260471Y0061568D02*
X0139250Y0061568D01*
X0139250Y0062567D02*
X0260471Y0062567D01*
X0260471Y0063565D02*
X0139250Y0063565D01*
X0139250Y0064564D02*
X0260471Y0064564D01*
X0260471Y0065562D02*
X0139250Y0065562D01*
X0139250Y0066561D02*
X0260471Y0066561D01*
X0260471Y0067559D02*
X0139250Y0067559D01*
X0139250Y0068558D02*
X0260471Y0068558D01*
X0260471Y0069556D02*
X0139250Y0069556D01*
X0139250Y0070555D02*
X0260471Y0070555D01*
X0260471Y0071553D02*
X0139250Y0071553D01*
X0139250Y0072552D02*
X0260471Y0072552D01*
X0260471Y0073550D02*
X0139250Y0073550D01*
X0139250Y0074549D02*
X0260471Y0074549D01*
X0260471Y0075547D02*
X0139250Y0075547D01*
X0139250Y0076546D02*
X0260471Y0076546D01*
X0260471Y0077544D02*
X0139250Y0077544D01*
X0139250Y0078543D02*
X0260471Y0078543D01*
X0260471Y0079541D02*
X0139250Y0079541D01*
X0139250Y0080540D02*
X0260471Y0080540D01*
X0260471Y0081538D02*
X0139250Y0081538D01*
X0139250Y0082537D02*
X0260471Y0082537D01*
X0260471Y0083535D02*
X0139250Y0083535D01*
X0139250Y0084534D02*
X0260471Y0084534D01*
X0260471Y0085532D02*
X0139250Y0085532D01*
X0139250Y0086531D02*
X0260471Y0086531D01*
X0260471Y0087529D02*
X0139250Y0087529D01*
X0139250Y0088528D02*
X0260471Y0088528D01*
X0260471Y0089526D02*
X0139250Y0089526D01*
X0139250Y0090525D02*
X0260471Y0090525D01*
X0260471Y0091523D02*
X0139250Y0091523D01*
X0139250Y0092522D02*
X0260471Y0092522D01*
X0260471Y0093520D02*
X0139250Y0093520D01*
X0139250Y0094519D02*
X0260471Y0094519D01*
X0260471Y0095518D02*
X0139250Y0095518D01*
X0139250Y0096516D02*
X0260471Y0096516D01*
X0260471Y0097515D02*
X0139250Y0097515D01*
X0139250Y0098513D02*
X0260471Y0098513D01*
X0260471Y0099512D02*
X0139250Y0099512D01*
X0139250Y0100510D02*
X0260471Y0100510D01*
X0260471Y0101509D02*
X0139250Y0101509D01*
X0139250Y0102507D02*
X0260471Y0102507D01*
X0260471Y0103506D02*
X0139250Y0103506D01*
X0139250Y0104504D02*
X0260471Y0104504D01*
X0260471Y0105503D02*
X0139250Y0105503D01*
X0139250Y0106501D02*
X0260471Y0106501D01*
X0260471Y0107500D02*
X0139250Y0107500D01*
X0139250Y0108498D02*
X0260471Y0108498D01*
X0260471Y0109497D02*
X0139250Y0109497D01*
X0139250Y0110495D02*
X0260471Y0110495D01*
X0260471Y0111494D02*
X0139250Y0111494D01*
X0139250Y0112492D02*
X0260471Y0112492D01*
X0260471Y0113491D02*
X0139250Y0113491D01*
X0139250Y0114489D02*
X0260471Y0114489D01*
X0260471Y0115488D02*
X0139250Y0115488D01*
X0139250Y0116486D02*
X0260471Y0116486D01*
X0260471Y0117485D02*
X0139250Y0117485D01*
X0139250Y0118483D02*
X0260471Y0118483D01*
X0260471Y0119482D02*
X0139250Y0119482D01*
X0139250Y0120480D02*
X0260471Y0120480D01*
X0260471Y0121479D02*
X0139250Y0121479D01*
X0139250Y0122477D02*
X0260471Y0122477D01*
X0260471Y0123476D02*
X0139250Y0123476D01*
X0139250Y0124474D02*
X0260471Y0124474D01*
X0260471Y0125473D02*
X0139250Y0125473D01*
X0139250Y0126471D02*
X0260471Y0126471D01*
X0260471Y0127470D02*
X0139250Y0127470D01*
X0139250Y0128468D02*
X0260471Y0128468D01*
X0260471Y0129467D02*
X0139250Y0129467D01*
X0139250Y0130465D02*
X0260471Y0130465D01*
X0260471Y0131464D02*
X0139250Y0131464D01*
X0139250Y0132462D02*
X0260471Y0132462D01*
X0260471Y0133461D02*
X0139250Y0133461D01*
X0139250Y0134459D02*
X0260471Y0134459D01*
X0260471Y0135458D02*
X0139250Y0135458D01*
X0139250Y0136456D02*
X0260471Y0136456D01*
X0260471Y0137455D02*
X0139250Y0137455D01*
X0139250Y0138453D02*
X0260471Y0138453D01*
X0260471Y0139452D02*
X0139250Y0139452D01*
X0139250Y0140451D02*
X0260471Y0140451D01*
X0260471Y0141449D02*
X0139250Y0141449D01*
X0139250Y0142448D02*
X0260471Y0142448D01*
X0260471Y0143446D02*
X0139250Y0143446D01*
X0139358Y0144445D02*
X0260471Y0144445D01*
X0260471Y0145443D02*
X0140051Y0145443D01*
X0140300Y0146442D02*
X0260471Y0146442D01*
X0260471Y0147440D02*
X0140224Y0147440D01*
X0139775Y0148439D02*
X0260471Y0148439D01*
X0260471Y0149437D02*
X0139250Y0149437D01*
X0139250Y0150436D02*
X0260471Y0150436D01*
X0260471Y0151434D02*
X0139250Y0151434D01*
X0139250Y0152433D02*
X0260471Y0152433D01*
X0260471Y0153431D02*
X0139250Y0153431D01*
X0139250Y0154430D02*
X0260471Y0154430D01*
X0260471Y0155428D02*
X0139250Y0155428D01*
X0139250Y0156427D02*
X0260471Y0156427D01*
X0260471Y0157425D02*
X0139250Y0157425D01*
X0139250Y0158424D02*
X0260471Y0158424D01*
X0260471Y0159422D02*
X0139250Y0159422D01*
X0139250Y0160421D02*
X0260471Y0160421D01*
X0260471Y0161419D02*
X0139250Y0161419D01*
X0139250Y0162418D02*
X0260471Y0162418D01*
X0260471Y0163416D02*
X0139250Y0163416D01*
X0139250Y0164415D02*
X0260471Y0164415D01*
X0260471Y0165413D02*
X0139250Y0165413D01*
X0139250Y0166412D02*
X0260471Y0166412D01*
X0260471Y0167410D02*
X0139250Y0167410D01*
X0139250Y0168409D02*
X0260471Y0168409D01*
X0260471Y0169407D02*
X0139250Y0169407D01*
X0139250Y0170406D02*
X0260471Y0170406D01*
X0260471Y0171404D02*
X0139250Y0171404D01*
X0139250Y0172403D02*
X0260471Y0172403D01*
X0260471Y0173401D02*
X0139250Y0173401D01*
X0139250Y0174400D02*
X0260471Y0174400D01*
X0260471Y0175398D02*
X0139250Y0175398D01*
X0139250Y0176397D02*
X0260471Y0176397D01*
X0260471Y0177395D02*
X0139250Y0177395D01*
X0139250Y0178394D02*
X0260471Y0178394D01*
X0260471Y0179392D02*
X0139250Y0179392D01*
X0139250Y0180391D02*
X0260471Y0180391D01*
X0260471Y0181389D02*
X0139250Y0181389D01*
X0139250Y0182388D02*
X0260471Y0182388D01*
X0260471Y0183387D02*
X0139250Y0183387D01*
X0139250Y0184385D02*
X0260471Y0184385D01*
X0260471Y0185384D02*
X0139250Y0185384D01*
X0139250Y0186382D02*
X0260471Y0186382D01*
X0260471Y0187381D02*
X0139250Y0187381D01*
X0139250Y0188379D02*
X0260471Y0188379D01*
X0260471Y0189378D02*
X0139250Y0189378D01*
X0139250Y0190376D02*
X0260471Y0190376D01*
X0260471Y0191375D02*
X0139250Y0191375D01*
X0139250Y0192373D02*
X0260471Y0192373D01*
X0260471Y0193372D02*
X0139250Y0193372D01*
X0139250Y0194370D02*
X0260471Y0194370D01*
X0260471Y0195369D02*
X0139250Y0195369D01*
X0139250Y0196367D02*
X0260471Y0196367D01*
X0260471Y0197366D02*
X0139250Y0197366D01*
X0139250Y0198364D02*
X0260471Y0198364D01*
X0260471Y0199363D02*
X0139250Y0199363D01*
X0139250Y0200361D02*
X0260471Y0200361D01*
X0260471Y0201360D02*
X0139250Y0201360D01*
X0139250Y0202358D02*
X0260471Y0202358D01*
X0260471Y0203357D02*
X0139250Y0203357D01*
X0139250Y0204355D02*
X0260471Y0204355D01*
X0260471Y0205354D02*
X0139250Y0205354D01*
X0139250Y0206352D02*
X0260471Y0206352D01*
X0260471Y0207351D02*
X0139250Y0207351D01*
X0139250Y0208349D02*
X0260471Y0208349D01*
X0260471Y0209348D02*
X0139250Y0209348D01*
X0139250Y0210346D02*
X0260471Y0210346D01*
X0260471Y0211345D02*
X0139250Y0211345D01*
X0139250Y0212343D02*
X0260471Y0212343D01*
X0260471Y0213342D02*
X0139250Y0213342D01*
X0139250Y0214340D02*
X0260471Y0214340D01*
X0260471Y0215339D02*
X0139250Y0215339D01*
X0139250Y0216337D02*
X0260471Y0216337D01*
X0260471Y0217336D02*
X0139250Y0217336D01*
X0139250Y0218334D02*
X0260471Y0218334D01*
X0260471Y0219333D02*
X0139250Y0219333D01*
X0139250Y0220331D02*
X0260471Y0220331D01*
X0260471Y0221330D02*
X0139250Y0221330D01*
X0139250Y0222328D02*
X0260471Y0222328D01*
X0260471Y0223327D02*
X0139250Y0223327D01*
X0139250Y0224325D02*
X0260471Y0224325D01*
X0260471Y0225324D02*
X0139250Y0225324D01*
X0139250Y0226322D02*
X0260471Y0226322D01*
X0260471Y0227321D02*
X0139250Y0227321D01*
X0139250Y0228320D02*
X0260471Y0228320D01*
X0260471Y0229318D02*
X0139250Y0229318D01*
X0139250Y0230317D02*
X0260471Y0230317D01*
X0260471Y0231315D02*
X0139250Y0231315D01*
X0139250Y0232314D02*
X0260471Y0232314D01*
X0260471Y0233312D02*
X0139250Y0233312D01*
X0139250Y0234311D02*
X0260471Y0234311D01*
X0260471Y0235309D02*
X0139250Y0235309D01*
X0139250Y0236308D02*
X0260471Y0236308D01*
X0260471Y0237306D02*
X0139250Y0237306D01*
X0139250Y0238305D02*
X0260471Y0238305D01*
X0260471Y0239303D02*
X0139250Y0239303D01*
X0139250Y0240302D02*
X0260471Y0240302D01*
X0260471Y0241300D02*
X0139250Y0241300D01*
X0139250Y0242299D02*
X0260471Y0242299D01*
X0260471Y0243297D02*
X0138431Y0243297D01*
X0137433Y0244296D02*
X0260471Y0244296D01*
X0260471Y0245294D02*
X0136434Y0245294D01*
X0135436Y0246293D02*
X0260471Y0246293D01*
X0260471Y0247291D02*
X0134437Y0247291D01*
X0133439Y0248290D02*
X0260471Y0248290D01*
X0260471Y0249288D02*
X0130362Y0249288D01*
X0129701Y0244296D02*
X0131776Y0244296D01*
X0132774Y0243297D02*
X0109143Y0243297D01*
X0110141Y0242299D02*
X0133773Y0242299D01*
X0134771Y0241300D02*
X0124211Y0241300D01*
X0125109Y0240928D02*
X0123254Y0241696D01*
X0121246Y0241696D01*
X0119391Y0240928D01*
X0117972Y0239509D01*
X0117204Y0237654D01*
X0117204Y0235646D01*
X0117972Y0233791D01*
X0119391Y0232372D01*
X0121246Y0231604D01*
X0123254Y0231604D01*
X0125109Y0232372D01*
X0126528Y0233791D01*
X0127296Y0235646D01*
X0127296Y0237654D01*
X0126528Y0239509D01*
X0125109Y0240928D01*
X0125735Y0240302D02*
X0135250Y0240302D01*
X0135250Y0239303D02*
X0126613Y0239303D01*
X0127027Y0238305D02*
X0135250Y0238305D01*
X0135250Y0237306D02*
X0127296Y0237306D01*
X0127296Y0236308D02*
X0135250Y0236308D01*
X0135250Y0235309D02*
X0127157Y0235309D01*
X0126743Y0234311D02*
X0135250Y0234311D01*
X0135250Y0233312D02*
X0126049Y0233312D01*
X0124968Y0232314D02*
X0135250Y0232314D01*
X0135250Y0231315D02*
X0110403Y0231315D01*
X0110366Y0231227D02*
X0111824Y0234746D01*
X0111824Y0238554D01*
X0110366Y0242073D01*
X0107673Y0244766D01*
X0104154Y0246224D01*
X0100346Y0246224D01*
X0096827Y0244766D01*
X0094134Y0242073D01*
X0092676Y0238554D01*
X0092676Y0234746D01*
X0094134Y0231227D01*
X0096827Y0228534D01*
X0100346Y0227076D01*
X0104154Y0227076D01*
X0107673Y0228534D01*
X0110366Y0231227D01*
X0110817Y0232314D02*
X0119532Y0232314D01*
X0118451Y0233312D02*
X0111230Y0233312D01*
X0111644Y0234311D02*
X0117757Y0234311D01*
X0117343Y0235309D02*
X0111824Y0235309D01*
X0111824Y0236308D02*
X0117204Y0236308D01*
X0117204Y0237306D02*
X0111824Y0237306D01*
X0111824Y0238305D02*
X0117473Y0238305D01*
X0117887Y0239303D02*
X0111514Y0239303D01*
X0111100Y0240302D02*
X0118765Y0240302D01*
X0120289Y0241300D02*
X0110687Y0241300D01*
X0108144Y0244296D02*
X0124799Y0244296D01*
X0123916Y0245294D02*
X0106399Y0245294D01*
X0108778Y0251454D02*
X0111031Y0250521D01*
X0113469Y0250521D01*
X0115722Y0251454D01*
X0117446Y0253178D01*
X0118056Y0254650D01*
X0123916Y0254650D01*
X0123916Y0254233D01*
X0124912Y0253237D01*
X0129588Y0253237D01*
X0130584Y0254233D01*
X0130584Y0258122D01*
X0129588Y0259118D01*
X0124912Y0259118D01*
X0124444Y0258650D01*
X0118056Y0258650D01*
X0117446Y0260122D01*
X0115722Y0261846D01*
X0113469Y0262779D01*
X0111031Y0262779D01*
X0108778Y0261846D01*
X0107054Y0260122D01*
X0106121Y0257869D01*
X0106121Y0255431D01*
X0107054Y0253178D01*
X0108778Y0251454D01*
X0109185Y0251285D02*
X0091283Y0251285D01*
X0090722Y0251846D02*
X0088469Y0252779D01*
X0086031Y0252779D01*
X0083778Y0251846D01*
X0082054Y0250122D01*
X0081121Y0247869D01*
X0081121Y0245431D01*
X0082054Y0243178D01*
X0083735Y0241497D01*
X0083254Y0241696D01*
X0081246Y0241696D01*
X0079391Y0240928D01*
X0077972Y0239509D01*
X0077204Y0237654D01*
X0077204Y0235646D01*
X0077972Y0233791D01*
X0079391Y0232372D01*
X0081246Y0231604D01*
X0083254Y0231604D01*
X0085109Y0232372D01*
X0086528Y0233791D01*
X0087296Y0235646D01*
X0087296Y0237654D01*
X0086528Y0239509D01*
X0085152Y0240885D01*
X0086031Y0240521D01*
X0088469Y0240521D01*
X0090722Y0241454D01*
X0092446Y0243178D01*
X0093379Y0245431D01*
X0093379Y0247869D01*
X0092446Y0250122D01*
X0090722Y0251846D01*
X0089665Y0252284D02*
X0107948Y0252284D01*
X0107011Y0253282D02*
X0065633Y0253282D01*
X0065588Y0253237D02*
X0066584Y0254233D01*
X0066584Y0258122D01*
X0065588Y0259118D01*
X0060912Y0259118D01*
X0060444Y0258650D01*
X0053056Y0258650D01*
X0052446Y0260122D01*
X0050722Y0261846D01*
X0048469Y0262779D01*
X0046031Y0262779D01*
X0043778Y0261846D01*
X0042054Y0260122D01*
X0041121Y0257869D01*
X0041121Y0255431D01*
X0042054Y0253178D01*
X0043778Y0251454D01*
X0046031Y0250521D01*
X0048469Y0250521D01*
X0050722Y0251454D01*
X0052446Y0253178D01*
X0053056Y0254650D01*
X0059916Y0254650D01*
X0059916Y0254233D01*
X0060912Y0253237D01*
X0065588Y0253237D01*
X0066584Y0254281D02*
X0106597Y0254281D01*
X0106184Y0255279D02*
X0066584Y0255279D01*
X0066584Y0256278D02*
X0106121Y0256278D01*
X0106121Y0257276D02*
X0066584Y0257276D01*
X0066431Y0258275D02*
X0106289Y0258275D01*
X0106703Y0259273D02*
X0052797Y0259273D01*
X0052296Y0260272D02*
X0107204Y0260272D01*
X0108202Y0261270D02*
X0051297Y0261270D01*
X0049701Y0262269D02*
X0109799Y0262269D01*
X0114701Y0262269D02*
X0242814Y0262269D01*
X0242772Y0261270D02*
X0116297Y0261270D01*
X0117296Y0260272D02*
X0242948Y0260272D01*
X0243124Y0259273D02*
X0117797Y0259273D01*
X0117903Y0254281D02*
X0123916Y0254281D01*
X0124867Y0253282D02*
X0117489Y0253282D01*
X0116552Y0252284D02*
X0250500Y0252284D01*
X0247756Y0253282D02*
X0129633Y0253282D01*
X0130584Y0254281D02*
X0246408Y0254281D01*
X0245218Y0255279D02*
X0130584Y0255279D01*
X0130584Y0256278D02*
X0244497Y0256278D01*
X0243921Y0257276D02*
X0130584Y0257276D01*
X0130431Y0258275D02*
X0243344Y0258275D01*
X0243281Y0258385D02*
X0243281Y0258385D01*
X0242990Y0263267D02*
X0021510Y0263267D01*
X0021686Y0262269D02*
X0044799Y0262269D01*
X0043202Y0261270D02*
X0021728Y0261270D01*
X0021795Y0261650D02*
X0021795Y0261650D01*
X0021552Y0260272D02*
X0042204Y0260272D01*
X0041703Y0259273D02*
X0021376Y0259273D01*
X0021156Y0258275D02*
X0041289Y0258275D01*
X0041121Y0257276D02*
X0020579Y0257276D01*
X0020003Y0256278D02*
X0041121Y0256278D01*
X0041184Y0255279D02*
X0019282Y0255279D01*
X0019562Y0255515D02*
X0019562Y0255515D01*
X0019562Y0255515D01*
X0018092Y0254281D02*
X0041597Y0254281D01*
X0042011Y0253282D02*
X0016744Y0253282D01*
X0018217Y0251285D02*
X0003950Y0251285D01*
X0003950Y0250287D02*
X0017219Y0250287D01*
X0017054Y0250122D02*
X0016121Y0247869D01*
X0016121Y0245431D01*
X0017054Y0243178D01*
X0018735Y0241497D01*
X0018254Y0241696D01*
X0016246Y0241696D01*
X0014391Y0240928D01*
X0012972Y0239509D01*
X0012204Y0237654D01*
X0012204Y0235646D01*
X0012972Y0233791D01*
X0014391Y0232372D01*
X0016246Y0231604D01*
X0018254Y0231604D01*
X0020109Y0232372D01*
X0021528Y0233791D01*
X0022296Y0235646D01*
X0022296Y0237654D01*
X0021528Y0239509D01*
X0020152Y0240885D01*
X0021031Y0240521D01*
X0023469Y0240521D01*
X0025722Y0241454D01*
X0027446Y0243178D01*
X0028379Y0245431D01*
X0028379Y0247869D01*
X0027446Y0250122D01*
X0025722Y0251846D01*
X0023469Y0252779D01*
X0021031Y0252779D01*
X0018778Y0251846D01*
X0017054Y0250122D01*
X0016709Y0249288D02*
X0003950Y0249288D01*
X0003950Y0248290D02*
X0016295Y0248290D01*
X0016121Y0247291D02*
X0003950Y0247291D01*
X0003950Y0246293D02*
X0016121Y0246293D01*
X0016177Y0245294D02*
X0003950Y0245294D01*
X0003950Y0244296D02*
X0016591Y0244296D01*
X0017005Y0243297D02*
X0003950Y0243297D01*
X0003950Y0242299D02*
X0017933Y0242299D01*
X0015289Y0241300D02*
X0003950Y0241300D01*
X0003950Y0240302D02*
X0013765Y0240302D01*
X0012887Y0239303D02*
X0003950Y0239303D01*
X0003950Y0238305D02*
X0012473Y0238305D01*
X0012204Y0237306D02*
X0003950Y0237306D01*
X0003950Y0236308D02*
X0012204Y0236308D01*
X0012343Y0235309D02*
X0003950Y0235309D01*
X0003950Y0234311D02*
X0012757Y0234311D01*
X0013451Y0233312D02*
X0003950Y0233312D01*
X0003950Y0232314D02*
X0014532Y0232314D01*
X0019968Y0232314D02*
X0028683Y0232314D01*
X0028270Y0233312D02*
X0021049Y0233312D01*
X0021743Y0234311D02*
X0027856Y0234311D01*
X0027676Y0234746D02*
X0029134Y0231227D01*
X0031827Y0228534D01*
X0035346Y0227076D01*
X0039154Y0227076D01*
X0042673Y0228534D01*
X0045366Y0231227D01*
X0046824Y0234746D01*
X0046824Y0238554D01*
X0045366Y0242073D01*
X0042673Y0244766D01*
X0039154Y0246224D01*
X0035346Y0246224D01*
X0031827Y0244766D01*
X0029134Y0242073D01*
X0027676Y0238554D01*
X0027676Y0234746D01*
X0027676Y0235309D02*
X0022157Y0235309D01*
X0022296Y0236308D02*
X0027676Y0236308D01*
X0027676Y0237306D02*
X0022296Y0237306D01*
X0022027Y0238305D02*
X0027676Y0238305D01*
X0027986Y0239303D02*
X0021613Y0239303D01*
X0020735Y0240302D02*
X0028400Y0240302D01*
X0028813Y0241300D02*
X0025351Y0241300D01*
X0026567Y0242299D02*
X0029359Y0242299D01*
X0030357Y0243297D02*
X0027495Y0243297D01*
X0027909Y0244296D02*
X0031356Y0244296D01*
X0033101Y0245294D02*
X0028323Y0245294D01*
X0028379Y0246293D02*
X0059916Y0246293D01*
X0059916Y0247291D02*
X0028379Y0247291D01*
X0028205Y0248290D02*
X0059916Y0248290D01*
X0060138Y0249288D02*
X0027791Y0249288D01*
X0027281Y0250287D02*
X0082219Y0250287D01*
X0081709Y0249288D02*
X0066362Y0249288D01*
X0068439Y0248290D02*
X0081295Y0248290D01*
X0081121Y0247291D02*
X0069437Y0247291D01*
X0070436Y0246293D02*
X0081121Y0246293D01*
X0081177Y0245294D02*
X0071434Y0245294D01*
X0072433Y0244296D02*
X0081591Y0244296D01*
X0082005Y0243297D02*
X0073431Y0243297D01*
X0074250Y0242299D02*
X0082933Y0242299D01*
X0080289Y0241300D02*
X0074250Y0241300D01*
X0074250Y0240302D02*
X0078765Y0240302D01*
X0077887Y0239303D02*
X0074250Y0239303D01*
X0074250Y0238305D02*
X0077473Y0238305D01*
X0077204Y0237306D02*
X0074250Y0237306D01*
X0074250Y0236308D02*
X0077204Y0236308D01*
X0077343Y0235309D02*
X0074250Y0235309D01*
X0074250Y0234311D02*
X0077757Y0234311D01*
X0078451Y0233312D02*
X0074250Y0233312D01*
X0074250Y0232314D02*
X0079532Y0232314D01*
X0074250Y0231315D02*
X0094097Y0231315D01*
X0093683Y0232314D02*
X0084968Y0232314D01*
X0086049Y0233312D02*
X0093270Y0233312D01*
X0092856Y0234311D02*
X0086743Y0234311D01*
X0087157Y0235309D02*
X0092676Y0235309D01*
X0092676Y0236308D02*
X0087296Y0236308D01*
X0087296Y0237306D02*
X0092676Y0237306D01*
X0092676Y0238305D02*
X0087027Y0238305D01*
X0086613Y0239303D02*
X0092986Y0239303D01*
X0093400Y0240302D02*
X0085735Y0240302D01*
X0090351Y0241300D02*
X0093813Y0241300D01*
X0094359Y0242299D02*
X0091567Y0242299D01*
X0092495Y0243297D02*
X0095357Y0243297D01*
X0096356Y0244296D02*
X0092909Y0244296D01*
X0093323Y0245294D02*
X0098101Y0245294D01*
X0093379Y0246293D02*
X0123916Y0246293D01*
X0123916Y0247291D02*
X0093379Y0247291D01*
X0093205Y0248290D02*
X0123916Y0248290D01*
X0124138Y0249288D02*
X0092791Y0249288D01*
X0092281Y0250287D02*
X0260471Y0250287D01*
X0260471Y0251285D02*
X0115315Y0251285D01*
X0109456Y0230317D02*
X0135250Y0230317D01*
X0135250Y0229318D02*
X0108458Y0229318D01*
X0107157Y0228320D02*
X0135250Y0228320D01*
X0135250Y0227321D02*
X0104746Y0227321D01*
X0099754Y0227321D02*
X0074250Y0227321D01*
X0074250Y0226322D02*
X0135250Y0226322D01*
X0135250Y0225324D02*
X0074250Y0225324D01*
X0074250Y0224325D02*
X0135250Y0224325D01*
X0135250Y0223327D02*
X0074250Y0223327D01*
X0074400Y0222328D02*
X0135250Y0222328D01*
X0135250Y0221330D02*
X0075398Y0221330D01*
X0076397Y0220331D02*
X0135250Y0220331D01*
X0135250Y0219333D02*
X0077395Y0219333D01*
X0078394Y0218334D02*
X0135250Y0218334D01*
X0135250Y0217336D02*
X0079393Y0217336D01*
X0080391Y0216337D02*
X0135250Y0216337D01*
X0135250Y0215339D02*
X0081390Y0215339D01*
X0082388Y0214340D02*
X0135250Y0214340D01*
X0135250Y0213342D02*
X0083387Y0213342D01*
X0084250Y0212343D02*
X0135250Y0212343D01*
X0135250Y0211345D02*
X0084250Y0211345D01*
X0084250Y0210346D02*
X0135250Y0210346D01*
X0135250Y0209348D02*
X0084250Y0209348D01*
X0084250Y0208349D02*
X0135250Y0208349D01*
X0135250Y0207351D02*
X0084250Y0207351D01*
X0084250Y0206352D02*
X0135250Y0206352D01*
X0135250Y0205354D02*
X0084250Y0205354D01*
X0084250Y0204355D02*
X0135250Y0204355D01*
X0135250Y0203357D02*
X0084250Y0203357D01*
X0084250Y0202358D02*
X0135250Y0202358D01*
X0135250Y0201360D02*
X0084250Y0201360D01*
X0084250Y0200361D02*
X0135250Y0200361D01*
X0135250Y0199363D02*
X0084250Y0199363D01*
X0084250Y0198364D02*
X0135250Y0198364D01*
X0135250Y0197366D02*
X0114467Y0197366D01*
X0113469Y0197779D02*
X0115722Y0196846D01*
X0117446Y0195122D01*
X0118056Y0193650D01*
X0124444Y0193650D01*
X0124912Y0194118D01*
X0129588Y0194118D01*
X0130584Y0193122D01*
X0130584Y0189233D01*
X0129588Y0188237D01*
X0124912Y0188237D01*
X0123916Y0189233D01*
X0123916Y0189650D01*
X0118056Y0189650D01*
X0117446Y0188178D01*
X0115722Y0186454D01*
X0113469Y0185521D01*
X0111031Y0185521D01*
X0108778Y0186454D01*
X0107054Y0188178D01*
X0106121Y0190431D01*
X0106121Y0192869D01*
X0107054Y0195122D01*
X0108778Y0196846D01*
X0111031Y0197779D01*
X0113469Y0197779D01*
X0116201Y0196367D02*
X0135250Y0196367D01*
X0135250Y0195369D02*
X0117199Y0195369D01*
X0117757Y0194370D02*
X0135250Y0194370D01*
X0135250Y0193372D02*
X0130334Y0193372D01*
X0130584Y0192373D02*
X0135250Y0192373D01*
X0135250Y0191375D02*
X0130584Y0191375D01*
X0130584Y0190376D02*
X0135250Y0190376D01*
X0135250Y0189378D02*
X0130584Y0189378D01*
X0129730Y0188379D02*
X0135250Y0188379D01*
X0135250Y0187381D02*
X0116648Y0187381D01*
X0117529Y0188379D02*
X0124770Y0188379D01*
X0123916Y0189378D02*
X0117943Y0189378D01*
X0115548Y0186382D02*
X0135250Y0186382D01*
X0135250Y0185384D02*
X0092184Y0185384D01*
X0092446Y0185122D02*
X0090722Y0186846D01*
X0088469Y0187779D01*
X0086031Y0187779D01*
X0083778Y0186846D01*
X0082054Y0185122D01*
X0081121Y0182869D01*
X0081121Y0180431D01*
X0082054Y0178178D01*
X0083735Y0176497D01*
X0083254Y0176696D01*
X0081246Y0176696D01*
X0079391Y0175928D01*
X0077972Y0174509D01*
X0077204Y0172654D01*
X0077204Y0170646D01*
X0077972Y0168791D01*
X0079391Y0167372D01*
X0081246Y0166604D01*
X0083254Y0166604D01*
X0085109Y0167372D01*
X0086528Y0168791D01*
X0087296Y0170646D01*
X0087296Y0172654D01*
X0086528Y0174509D01*
X0085152Y0175885D01*
X0086031Y0175521D01*
X0088469Y0175521D01*
X0090722Y0176454D01*
X0092446Y0178178D01*
X0093379Y0180431D01*
X0093379Y0182869D01*
X0092446Y0185122D01*
X0092751Y0184385D02*
X0124234Y0184385D01*
X0123916Y0183387D02*
X0093165Y0183387D01*
X0093379Y0182388D02*
X0123916Y0182388D01*
X0123916Y0181389D02*
X0093379Y0181389D01*
X0093363Y0180391D02*
X0098334Y0180391D01*
X0096827Y0179766D02*
X0100346Y0181224D01*
X0104154Y0181224D01*
X0107673Y0179766D01*
X0110366Y0177073D01*
X0111824Y0173554D01*
X0111824Y0169746D01*
X0110366Y0166227D01*
X0107673Y0163534D01*
X0104154Y0162076D01*
X0100346Y0162076D01*
X0096827Y0163534D01*
X0094134Y0166227D01*
X0092676Y0169746D01*
X0092676Y0173554D01*
X0094134Y0177073D01*
X0096827Y0179766D01*
X0096453Y0179392D02*
X0092949Y0179392D01*
X0092535Y0178394D02*
X0095454Y0178394D01*
X0094456Y0177395D02*
X0091663Y0177395D01*
X0090584Y0176397D02*
X0093853Y0176397D01*
X0093440Y0175398D02*
X0085638Y0175398D01*
X0086573Y0174400D02*
X0093026Y0174400D01*
X0092676Y0173401D02*
X0086987Y0173401D01*
X0087296Y0172403D02*
X0092676Y0172403D01*
X0092676Y0171404D02*
X0087296Y0171404D01*
X0087197Y0170406D02*
X0092676Y0170406D01*
X0092816Y0169407D02*
X0086783Y0169407D01*
X0086146Y0168409D02*
X0093230Y0168409D01*
X0093643Y0167410D02*
X0085147Y0167410D01*
X0079353Y0167410D02*
X0069250Y0167410D01*
X0069250Y0166412D02*
X0094057Y0166412D01*
X0094947Y0165413D02*
X0069250Y0165413D01*
X0069250Y0164415D02*
X0095945Y0164415D01*
X0097110Y0163416D02*
X0069250Y0163416D01*
X0069250Y0162418D02*
X0099520Y0162418D01*
X0104980Y0162418D02*
X0135250Y0162418D01*
X0135250Y0163416D02*
X0107390Y0163416D01*
X0108554Y0164415D02*
X0135250Y0164415D01*
X0135250Y0165413D02*
X0109553Y0165413D01*
X0110443Y0166412D02*
X0135250Y0166412D01*
X0135250Y0167410D02*
X0125147Y0167410D01*
X0125109Y0167372D02*
X0126528Y0168791D01*
X0127296Y0170646D01*
X0127296Y0172654D01*
X0126528Y0174509D01*
X0125109Y0175928D01*
X0123254Y0176696D01*
X0121246Y0176696D01*
X0119391Y0175928D01*
X0117972Y0174509D01*
X0117204Y0172654D01*
X0117204Y0170646D01*
X0117972Y0168791D01*
X0119391Y0167372D01*
X0121246Y0166604D01*
X0123254Y0166604D01*
X0125109Y0167372D01*
X0126146Y0168409D02*
X0135250Y0168409D01*
X0135250Y0169407D02*
X0126783Y0169407D01*
X0127197Y0170406D02*
X0135250Y0170406D01*
X0135250Y0171404D02*
X0127296Y0171404D01*
X0127296Y0172403D02*
X0135250Y0172403D01*
X0135250Y0173401D02*
X0126987Y0173401D01*
X0126573Y0174400D02*
X0135250Y0174400D01*
X0135250Y0175398D02*
X0125638Y0175398D01*
X0123977Y0176397D02*
X0135250Y0176397D01*
X0135250Y0177395D02*
X0110044Y0177395D01*
X0110647Y0176397D02*
X0120523Y0176397D01*
X0118862Y0175398D02*
X0111060Y0175398D01*
X0111474Y0174400D02*
X0117927Y0174400D01*
X0117513Y0173401D02*
X0111824Y0173401D01*
X0111824Y0172403D02*
X0117204Y0172403D01*
X0117204Y0171404D02*
X0111824Y0171404D01*
X0111824Y0170406D02*
X0117303Y0170406D01*
X0117717Y0169407D02*
X0111684Y0169407D01*
X0111270Y0168409D02*
X0118354Y0168409D01*
X0119353Y0167410D02*
X0110857Y0167410D01*
X0109046Y0178394D02*
X0135250Y0178394D01*
X0135250Y0179392D02*
X0129798Y0179392D01*
X0130266Y0184385D02*
X0135250Y0184385D01*
X0124702Y0179392D02*
X0108047Y0179392D01*
X0106166Y0180391D02*
X0123916Y0180391D01*
X0108952Y0186382D02*
X0091186Y0186382D01*
X0089431Y0187381D02*
X0107852Y0187381D01*
X0106971Y0188379D02*
X0076807Y0188379D01*
X0075809Y0187381D02*
X0085069Y0187381D01*
X0083314Y0186382D02*
X0074810Y0186382D01*
X0073812Y0185384D02*
X0082316Y0185384D01*
X0081749Y0184385D02*
X0072813Y0184385D01*
X0071815Y0183387D02*
X0081335Y0183387D01*
X0081121Y0182388D02*
X0070816Y0182388D01*
X0069818Y0181389D02*
X0081121Y0181389D01*
X0081137Y0180391D02*
X0069250Y0180391D01*
X0069250Y0179392D02*
X0081551Y0179392D01*
X0081965Y0178394D02*
X0069250Y0178394D01*
X0069250Y0177395D02*
X0082837Y0177395D01*
X0080523Y0176397D02*
X0069250Y0176397D01*
X0069250Y0175398D02*
X0078862Y0175398D01*
X0077927Y0174400D02*
X0069250Y0174400D01*
X0069250Y0173401D02*
X0077513Y0173401D01*
X0077204Y0172403D02*
X0069250Y0172403D01*
X0069250Y0171404D02*
X0077204Y0171404D01*
X0077303Y0170406D02*
X0069250Y0170406D01*
X0069250Y0169407D02*
X0077717Y0169407D01*
X0078354Y0168409D02*
X0069250Y0168409D01*
X0065250Y0168409D02*
X0061146Y0168409D01*
X0061528Y0168791D02*
X0062296Y0170646D01*
X0062296Y0172654D01*
X0061528Y0174509D01*
X0060109Y0175928D01*
X0058254Y0176696D01*
X0056246Y0176696D01*
X0054391Y0175928D01*
X0052972Y0174509D01*
X0052204Y0172654D01*
X0052204Y0170646D01*
X0052972Y0168791D01*
X0054391Y0167372D01*
X0056246Y0166604D01*
X0058254Y0166604D01*
X0060109Y0167372D01*
X0061528Y0168791D01*
X0061783Y0169407D02*
X0065250Y0169407D01*
X0065250Y0170406D02*
X0062197Y0170406D01*
X0062296Y0171404D02*
X0065250Y0171404D01*
X0065250Y0172403D02*
X0062296Y0172403D01*
X0061987Y0173401D02*
X0065250Y0173401D01*
X0065250Y0174400D02*
X0061573Y0174400D01*
X0060638Y0175398D02*
X0065250Y0175398D01*
X0065250Y0176397D02*
X0058977Y0176397D01*
X0059702Y0179392D02*
X0043047Y0179392D01*
X0042673Y0179766D02*
X0039154Y0181224D01*
X0035346Y0181224D01*
X0031827Y0179766D01*
X0029134Y0177073D01*
X0027676Y0173554D01*
X0027676Y0169746D01*
X0029134Y0166227D01*
X0031827Y0163534D01*
X0035346Y0162076D01*
X0039154Y0162076D01*
X0042673Y0163534D01*
X0045366Y0166227D01*
X0046824Y0169746D01*
X0046824Y0173554D01*
X0045366Y0177073D01*
X0042673Y0179766D01*
X0041166Y0180391D02*
X0058916Y0180391D01*
X0058916Y0181389D02*
X0028379Y0181389D01*
X0028379Y0180431D02*
X0028379Y0182869D01*
X0027446Y0185122D01*
X0025722Y0186846D01*
X0023469Y0187779D01*
X0021031Y0187779D01*
X0018778Y0186846D01*
X0017054Y0185122D01*
X0016121Y0182869D01*
X0016121Y0180431D01*
X0017054Y0178178D01*
X0018735Y0176497D01*
X0018254Y0176696D01*
X0016246Y0176696D01*
X0014391Y0175928D01*
X0012972Y0174509D01*
X0012204Y0172654D01*
X0012204Y0170646D01*
X0012972Y0168791D01*
X0014391Y0167372D01*
X0016246Y0166604D01*
X0018254Y0166604D01*
X0020109Y0167372D01*
X0021528Y0168791D01*
X0022296Y0170646D01*
X0022296Y0172654D01*
X0021528Y0174509D01*
X0020152Y0175885D01*
X0021031Y0175521D01*
X0023469Y0175521D01*
X0025722Y0176454D01*
X0027446Y0178178D01*
X0028379Y0180431D01*
X0028363Y0180391D02*
X0033334Y0180391D01*
X0031453Y0179392D02*
X0027949Y0179392D01*
X0027535Y0178394D02*
X0030454Y0178394D01*
X0029456Y0177395D02*
X0026663Y0177395D01*
X0025584Y0176397D02*
X0028853Y0176397D01*
X0028440Y0175398D02*
X0020638Y0175398D01*
X0021573Y0174400D02*
X0028026Y0174400D01*
X0027676Y0173401D02*
X0021987Y0173401D01*
X0022296Y0172403D02*
X0027676Y0172403D01*
X0027676Y0171404D02*
X0022296Y0171404D01*
X0022197Y0170406D02*
X0027676Y0170406D01*
X0027816Y0169407D02*
X0021783Y0169407D01*
X0021146Y0168409D02*
X0028230Y0168409D01*
X0028643Y0167410D02*
X0020147Y0167410D01*
X0014353Y0167410D02*
X0003950Y0167410D01*
X0003950Y0166412D02*
X0029057Y0166412D01*
X0029947Y0165413D02*
X0003950Y0165413D01*
X0003950Y0164415D02*
X0030945Y0164415D01*
X0032110Y0163416D02*
X0003950Y0163416D01*
X0003950Y0162418D02*
X0034520Y0162418D01*
X0039980Y0162418D02*
X0065250Y0162418D01*
X0065250Y0163416D02*
X0042390Y0163416D01*
X0043554Y0164415D02*
X0065250Y0164415D01*
X0065250Y0165413D02*
X0044553Y0165413D01*
X0045443Y0166412D02*
X0065250Y0166412D01*
X0065250Y0167410D02*
X0060147Y0167410D01*
X0054353Y0167410D02*
X0045857Y0167410D01*
X0046270Y0168409D02*
X0053354Y0168409D01*
X0052717Y0169407D02*
X0046684Y0169407D01*
X0046824Y0170406D02*
X0052303Y0170406D01*
X0052204Y0171404D02*
X0046824Y0171404D01*
X0046824Y0172403D02*
X0052204Y0172403D01*
X0052513Y0173401D02*
X0046824Y0173401D01*
X0046474Y0174400D02*
X0052927Y0174400D01*
X0053862Y0175398D02*
X0046060Y0175398D01*
X0045647Y0176397D02*
X0055523Y0176397D01*
X0058916Y0182388D02*
X0028379Y0182388D01*
X0028165Y0183387D02*
X0058916Y0183387D01*
X0059234Y0184385D02*
X0027751Y0184385D01*
X0027184Y0185384D02*
X0068155Y0185384D01*
X0069154Y0186382D02*
X0050548Y0186382D01*
X0050722Y0186454D02*
X0052446Y0188178D01*
X0053056Y0189650D01*
X0058916Y0189650D01*
X0058916Y0189233D01*
X0059912Y0188237D01*
X0064588Y0188237D01*
X0065584Y0189233D01*
X0065584Y0193122D01*
X0064588Y0194118D01*
X0059912Y0194118D01*
X0059444Y0193650D01*
X0053056Y0193650D01*
X0052446Y0195122D01*
X0050722Y0196846D01*
X0048469Y0197779D01*
X0046031Y0197779D01*
X0043778Y0196846D01*
X0042054Y0195122D01*
X0041121Y0192869D01*
X0041121Y0190431D01*
X0042054Y0188178D01*
X0043778Y0186454D01*
X0046031Y0185521D01*
X0048469Y0185521D01*
X0050722Y0186454D01*
X0051648Y0187381D02*
X0070152Y0187381D01*
X0071151Y0188379D02*
X0064730Y0188379D01*
X0065584Y0189378D02*
X0072149Y0189378D01*
X0073148Y0190376D02*
X0065584Y0190376D01*
X0065584Y0191375D02*
X0074146Y0191375D01*
X0075145Y0192373D02*
X0065584Y0192373D01*
X0065334Y0193372D02*
X0076143Y0193372D01*
X0077142Y0194370D02*
X0052757Y0194370D01*
X0052199Y0195369D02*
X0066393Y0195369D01*
X0064977Y0195884D02*
X0068093Y0194750D01*
X0068880Y0194750D01*
X0071407Y0194750D01*
X0074522Y0195884D01*
X0074523Y0195884D01*
X0077062Y0198015D01*
X0078719Y0200885D01*
X0078719Y0200885D01*
X0079295Y0204150D01*
X0078719Y0207415D01*
X0077062Y0210285D01*
X0077062Y0210285D01*
X0074523Y0212416D01*
X0074522Y0212416D01*
X0071407Y0213550D01*
X0068093Y0213550D01*
X0064977Y0212416D01*
X0062438Y0210285D01*
X0060781Y0207415D01*
X0060205Y0204150D01*
X0060205Y0204150D01*
X0060781Y0200885D01*
X0062438Y0198015D01*
X0062438Y0198015D01*
X0064977Y0195884D01*
X0064977Y0195884D01*
X0064401Y0196367D02*
X0051201Y0196367D01*
X0049467Y0197366D02*
X0063211Y0197366D01*
X0062236Y0198364D02*
X0003950Y0198364D01*
X0003950Y0197366D02*
X0045033Y0197366D01*
X0043299Y0196367D02*
X0003950Y0196367D01*
X0003950Y0195369D02*
X0042301Y0195369D01*
X0041743Y0194370D02*
X0003950Y0194370D01*
X0003950Y0193372D02*
X0041329Y0193372D01*
X0041121Y0192373D02*
X0003950Y0192373D01*
X0003950Y0191375D02*
X0041121Y0191375D01*
X0041144Y0190376D02*
X0003950Y0190376D01*
X0003950Y0189378D02*
X0041557Y0189378D01*
X0041971Y0188379D02*
X0003950Y0188379D01*
X0003950Y0187381D02*
X0020069Y0187381D01*
X0018314Y0186382D02*
X0003950Y0186382D01*
X0003950Y0185384D02*
X0017316Y0185384D01*
X0016749Y0184385D02*
X0003950Y0184385D01*
X0003950Y0183387D02*
X0016335Y0183387D01*
X0016121Y0182388D02*
X0003950Y0182388D01*
X0003950Y0181389D02*
X0016121Y0181389D01*
X0016137Y0180391D02*
X0003950Y0180391D01*
X0003950Y0179392D02*
X0016551Y0179392D01*
X0016965Y0178394D02*
X0003950Y0178394D01*
X0003950Y0177395D02*
X0017837Y0177395D01*
X0015523Y0176397D02*
X0003950Y0176397D01*
X0003950Y0175398D02*
X0013862Y0175398D01*
X0012927Y0174400D02*
X0003950Y0174400D01*
X0003950Y0173401D02*
X0012513Y0173401D01*
X0012204Y0172403D02*
X0003950Y0172403D01*
X0003950Y0171404D02*
X0012204Y0171404D01*
X0012303Y0170406D02*
X0003950Y0170406D01*
X0003950Y0169407D02*
X0012717Y0169407D01*
X0013354Y0168409D02*
X0003950Y0168409D01*
X0003950Y0161419D02*
X0065250Y0161419D01*
X0065250Y0160421D02*
X0003950Y0160421D01*
X0003950Y0159422D02*
X0065250Y0159422D01*
X0065250Y0158424D02*
X0003950Y0158424D01*
X0003950Y0157425D02*
X0065250Y0157425D01*
X0065250Y0156427D02*
X0003950Y0156427D01*
X0003950Y0155428D02*
X0065250Y0155428D01*
X0065250Y0154430D02*
X0003950Y0154430D01*
X0003950Y0153431D02*
X0065250Y0153431D01*
X0065250Y0152433D02*
X0003950Y0152433D01*
X0003950Y0151434D02*
X0065250Y0151434D01*
X0065250Y0150436D02*
X0003950Y0150436D01*
X0003950Y0149437D02*
X0065250Y0149437D01*
X0065250Y0148439D02*
X0003950Y0148439D01*
X0003950Y0147440D02*
X0065250Y0147440D01*
X0065250Y0146442D02*
X0003950Y0146442D01*
X0003950Y0145443D02*
X0065250Y0145443D01*
X0065250Y0144445D02*
X0003950Y0144445D01*
X0003950Y0143446D02*
X0065250Y0143446D01*
X0065250Y0142448D02*
X0003950Y0142448D01*
X0003950Y0141449D02*
X0065250Y0141449D01*
X0065250Y0140451D02*
X0003950Y0140451D01*
X0003950Y0139452D02*
X0065250Y0139452D01*
X0065250Y0138453D02*
X0003950Y0138453D01*
X0003950Y0137455D02*
X0065250Y0137455D01*
X0065250Y0136456D02*
X0003950Y0136456D01*
X0003950Y0135458D02*
X0065250Y0135458D01*
X0065250Y0134459D02*
X0003950Y0134459D01*
X0003950Y0133461D02*
X0065250Y0133461D01*
X0065250Y0132462D02*
X0049234Y0132462D01*
X0051104Y0131464D02*
X0065250Y0131464D01*
X0065250Y0130465D02*
X0052102Y0130465D01*
X0052717Y0129467D02*
X0065250Y0129467D01*
X0065237Y0128468D02*
X0065250Y0128468D01*
X0065250Y0123476D02*
X0064826Y0123476D01*
X0065250Y0122477D02*
X0051745Y0122477D01*
X0052569Y0123476D02*
X0059674Y0123476D01*
X0058916Y0124474D02*
X0052983Y0124474D01*
X0050747Y0121479D02*
X0065250Y0121479D01*
X0065250Y0120480D02*
X0027088Y0120480D01*
X0027446Y0120122D02*
X0025722Y0121846D01*
X0023469Y0122779D01*
X0021031Y0122779D01*
X0018778Y0121846D01*
X0017054Y0120122D01*
X0016121Y0117869D01*
X0016121Y0115431D01*
X0017054Y0113178D01*
X0018735Y0111497D01*
X0018254Y0111696D01*
X0016246Y0111696D01*
X0014391Y0110928D01*
X0012972Y0109509D01*
X0012204Y0107654D01*
X0012204Y0105646D01*
X0012972Y0103791D01*
X0014391Y0102372D01*
X0016246Y0101604D01*
X0018254Y0101604D01*
X0020109Y0102372D01*
X0021528Y0103791D01*
X0022296Y0105646D01*
X0022296Y0107654D01*
X0021528Y0109509D01*
X0020152Y0110885D01*
X0021031Y0110521D01*
X0023469Y0110521D01*
X0025722Y0111454D01*
X0027446Y0113178D01*
X0028379Y0115431D01*
X0028379Y0117869D01*
X0027446Y0120122D01*
X0027711Y0119482D02*
X0059331Y0119482D01*
X0058916Y0118483D02*
X0028125Y0118483D01*
X0028379Y0117485D02*
X0058916Y0117485D01*
X0058916Y0116486D02*
X0028379Y0116486D01*
X0028379Y0115488D02*
X0033568Y0115488D01*
X0031827Y0114766D02*
X0029134Y0112073D01*
X0027676Y0108554D01*
X0027676Y0104746D01*
X0029134Y0101227D01*
X0031827Y0098534D01*
X0035346Y0097076D01*
X0039154Y0097076D01*
X0042673Y0098534D01*
X0045366Y0101227D01*
X0046824Y0104746D01*
X0046824Y0108554D01*
X0045366Y0112073D01*
X0042673Y0114766D01*
X0039154Y0116224D01*
X0035346Y0116224D01*
X0031827Y0114766D01*
X0031550Y0114489D02*
X0027989Y0114489D01*
X0027575Y0113491D02*
X0030551Y0113491D01*
X0029552Y0112492D02*
X0026760Y0112492D01*
X0025762Y0111494D02*
X0028893Y0111494D01*
X0028480Y0110495D02*
X0020542Y0110495D01*
X0021533Y0109497D02*
X0028066Y0109497D01*
X0027676Y0108498D02*
X0021947Y0108498D01*
X0022296Y0107500D02*
X0027676Y0107500D01*
X0027676Y0106501D02*
X0022296Y0106501D01*
X0022237Y0105503D02*
X0027676Y0105503D01*
X0027776Y0104504D02*
X0021823Y0104504D01*
X0021242Y0103506D02*
X0028190Y0103506D01*
X0028603Y0102507D02*
X0020244Y0102507D01*
X0014256Y0102507D02*
X0003950Y0102507D01*
X0003950Y0101509D02*
X0029017Y0101509D01*
X0029850Y0100510D02*
X0003950Y0100510D01*
X0003950Y0099512D02*
X0030849Y0099512D01*
X0031876Y0098513D02*
X0003950Y0098513D01*
X0003950Y0097515D02*
X0034287Y0097515D01*
X0040213Y0097515D02*
X0073557Y0097515D01*
X0072559Y0098513D02*
X0042624Y0098513D01*
X0043651Y0099512D02*
X0071560Y0099512D01*
X0070562Y0100510D02*
X0044650Y0100510D01*
X0045483Y0101509D02*
X0069563Y0101509D01*
X0068564Y0102507D02*
X0060244Y0102507D01*
X0060109Y0102372D02*
X0061528Y0103791D01*
X0062296Y0105646D01*
X0062296Y0107654D01*
X0061528Y0109509D01*
X0060109Y0110928D01*
X0058254Y0111696D01*
X0056246Y0111696D01*
X0054391Y0110928D01*
X0052972Y0109509D01*
X0052204Y0107654D01*
X0052204Y0105646D01*
X0052972Y0103791D01*
X0054391Y0102372D01*
X0056246Y0101604D01*
X0058254Y0101604D01*
X0060109Y0102372D01*
X0061242Y0103506D02*
X0067566Y0103506D01*
X0066567Y0104504D02*
X0061823Y0104504D01*
X0062237Y0105503D02*
X0065569Y0105503D01*
X0065250Y0106501D02*
X0062296Y0106501D01*
X0062296Y0107500D02*
X0065250Y0107500D01*
X0065250Y0108498D02*
X0061947Y0108498D01*
X0061533Y0109497D02*
X0065250Y0109497D01*
X0065250Y0110495D02*
X0060542Y0110495D01*
X0058743Y0111494D02*
X0065250Y0111494D01*
X0065250Y0112492D02*
X0044947Y0112492D01*
X0045607Y0111494D02*
X0055757Y0111494D01*
X0053958Y0110495D02*
X0046020Y0110495D01*
X0046434Y0109497D02*
X0052967Y0109497D01*
X0052553Y0108498D02*
X0046824Y0108498D01*
X0046824Y0107500D02*
X0052204Y0107500D01*
X0052204Y0106501D02*
X0046824Y0106501D01*
X0046824Y0105503D02*
X0052263Y0105503D01*
X0052677Y0104504D02*
X0046724Y0104504D01*
X0046310Y0103506D02*
X0053258Y0103506D01*
X0054256Y0102507D02*
X0045897Y0102507D01*
X0043949Y0113491D02*
X0065250Y0113491D01*
X0065250Y0114489D02*
X0064895Y0114489D01*
X0069250Y0114489D02*
X0081511Y0114489D01*
X0081121Y0115431D02*
X0082054Y0113178D01*
X0083735Y0111497D01*
X0083254Y0111696D01*
X0081246Y0111696D01*
X0079391Y0110928D01*
X0077972Y0109509D01*
X0077204Y0107654D01*
X0077204Y0105646D01*
X0077972Y0103791D01*
X0079391Y0102372D01*
X0081246Y0101604D01*
X0083254Y0101604D01*
X0085109Y0102372D01*
X0086528Y0103791D01*
X0087296Y0105646D01*
X0087296Y0107654D01*
X0086528Y0109509D01*
X0085152Y0110885D01*
X0086031Y0110521D01*
X0088469Y0110521D01*
X0090722Y0111454D01*
X0092446Y0113178D01*
X0093379Y0115431D01*
X0093379Y0117869D01*
X0092446Y0120122D01*
X0090722Y0121846D01*
X0088469Y0122779D01*
X0086031Y0122779D01*
X0083778Y0121846D01*
X0082054Y0120122D01*
X0081121Y0117869D01*
X0081121Y0115431D01*
X0081121Y0115488D02*
X0069250Y0115488D01*
X0069250Y0116486D02*
X0081121Y0116486D01*
X0081121Y0117485D02*
X0069250Y0117485D01*
X0069250Y0118483D02*
X0081375Y0118483D01*
X0081789Y0119482D02*
X0069250Y0119482D01*
X0069250Y0120480D02*
X0082412Y0120480D01*
X0083411Y0121479D02*
X0069250Y0121479D01*
X0069250Y0122477D02*
X0085302Y0122477D01*
X0089198Y0122477D02*
X0107755Y0122477D01*
X0107054Y0123178D02*
X0108778Y0121454D01*
X0111031Y0120521D01*
X0113469Y0120521D01*
X0115722Y0121454D01*
X0117446Y0123178D01*
X0118056Y0124650D01*
X0123916Y0124650D01*
X0123916Y0124233D01*
X0124912Y0123237D01*
X0129588Y0123237D01*
X0130584Y0124233D01*
X0130584Y0128122D01*
X0129588Y0129118D01*
X0124912Y0129118D01*
X0124444Y0128650D01*
X0118056Y0128650D01*
X0117446Y0130122D01*
X0115722Y0131846D01*
X0113469Y0132779D01*
X0111031Y0132779D01*
X0108778Y0131846D01*
X0107054Y0130122D01*
X0106121Y0127869D01*
X0106121Y0125431D01*
X0107054Y0123178D01*
X0106931Y0123476D02*
X0069250Y0123476D01*
X0069250Y0124474D02*
X0106517Y0124474D01*
X0106121Y0125473D02*
X0069250Y0125473D01*
X0069250Y0126471D02*
X0106121Y0126471D01*
X0106121Y0127470D02*
X0069250Y0127470D01*
X0069250Y0128468D02*
X0106369Y0128468D01*
X0106783Y0129467D02*
X0069250Y0129467D01*
X0069250Y0130465D02*
X0107398Y0130465D01*
X0108396Y0131464D02*
X0069250Y0131464D01*
X0069250Y0132462D02*
X0110266Y0132462D01*
X0114234Y0132462D02*
X0135250Y0132462D01*
X0135250Y0131464D02*
X0116104Y0131464D01*
X0117102Y0130465D02*
X0135250Y0130465D01*
X0135250Y0129467D02*
X0117717Y0129467D01*
X0117983Y0124474D02*
X0123916Y0124474D01*
X0124674Y0123476D02*
X0117569Y0123476D01*
X0116745Y0122477D02*
X0135250Y0122477D01*
X0135250Y0121479D02*
X0115747Y0121479D01*
X0108753Y0121479D02*
X0091089Y0121479D01*
X0092088Y0120480D02*
X0135250Y0120480D01*
X0135250Y0119482D02*
X0130169Y0119482D01*
X0129826Y0123476D02*
X0135250Y0123476D01*
X0135250Y0124474D02*
X0130584Y0124474D01*
X0130584Y0125473D02*
X0135250Y0125473D01*
X0135250Y0126471D02*
X0130584Y0126471D01*
X0130584Y0127470D02*
X0135250Y0127470D01*
X0135250Y0128468D02*
X0130237Y0128468D01*
X0135250Y0133461D02*
X0069250Y0133461D01*
X0069250Y0134459D02*
X0135250Y0134459D01*
X0135250Y0135458D02*
X0069250Y0135458D01*
X0069250Y0136456D02*
X0135250Y0136456D01*
X0135250Y0137455D02*
X0069250Y0137455D01*
X0069250Y0138453D02*
X0135250Y0138453D01*
X0135250Y0139452D02*
X0069250Y0139452D01*
X0069250Y0140451D02*
X0135250Y0140451D01*
X0135250Y0141449D02*
X0069250Y0141449D01*
X0069250Y0142448D02*
X0135250Y0142448D01*
X0135250Y0143446D02*
X0069250Y0143446D01*
X0069250Y0144445D02*
X0135142Y0144445D01*
X0134449Y0145443D02*
X0069250Y0145443D01*
X0069250Y0146442D02*
X0134200Y0146442D01*
X0134276Y0147440D02*
X0069250Y0147440D01*
X0069250Y0148439D02*
X0134725Y0148439D01*
X0135250Y0149437D02*
X0069250Y0149437D01*
X0069250Y0150436D02*
X0135250Y0150436D01*
X0135250Y0151434D02*
X0069250Y0151434D01*
X0069250Y0152433D02*
X0135250Y0152433D01*
X0135250Y0153431D02*
X0069250Y0153431D01*
X0069250Y0154430D02*
X0135250Y0154430D01*
X0135250Y0155428D02*
X0069250Y0155428D01*
X0069250Y0156427D02*
X0135250Y0156427D01*
X0135250Y0157425D02*
X0069250Y0157425D01*
X0069250Y0158424D02*
X0135250Y0158424D01*
X0135250Y0159422D02*
X0069250Y0159422D01*
X0069250Y0160421D02*
X0135250Y0160421D01*
X0135250Y0161419D02*
X0069250Y0161419D01*
X0065250Y0177395D02*
X0045044Y0177395D01*
X0044046Y0178394D02*
X0065250Y0178394D01*
X0065250Y0179392D02*
X0064798Y0179392D01*
X0065266Y0184385D02*
X0067157Y0184385D01*
X0059770Y0188379D02*
X0052529Y0188379D01*
X0052943Y0189378D02*
X0058916Y0189378D01*
X0061660Y0199363D02*
X0003950Y0199363D01*
X0003950Y0200361D02*
X0061083Y0200361D01*
X0060781Y0200885D02*
X0060781Y0200885D01*
X0060697Y0201360D02*
X0003950Y0201360D01*
X0003950Y0202358D02*
X0060521Y0202358D01*
X0060345Y0203357D02*
X0003950Y0203357D01*
X0003950Y0204355D02*
X0060241Y0204355D01*
X0060417Y0205354D02*
X0003950Y0205354D01*
X0003950Y0206352D02*
X0060593Y0206352D01*
X0060769Y0207351D02*
X0003950Y0207351D01*
X0003950Y0208349D02*
X0061320Y0208349D01*
X0060781Y0207415D02*
X0060781Y0207415D01*
X0061897Y0209348D02*
X0003950Y0209348D01*
X0003950Y0210346D02*
X0062511Y0210346D01*
X0062438Y0210285D02*
X0062438Y0210285D01*
X0062438Y0210285D01*
X0063701Y0211345D02*
X0003950Y0211345D01*
X0003950Y0212343D02*
X0064891Y0212343D01*
X0067521Y0213342D02*
X0003950Y0213342D01*
X0003950Y0214340D02*
X0076731Y0214340D01*
X0077730Y0213342D02*
X0071979Y0213342D01*
X0074609Y0212343D02*
X0078728Y0212343D01*
X0079727Y0211345D02*
X0075799Y0211345D01*
X0076989Y0210346D02*
X0080250Y0210346D01*
X0080250Y0209348D02*
X0077603Y0209348D01*
X0078180Y0208349D02*
X0080250Y0208349D01*
X0080250Y0207351D02*
X0078731Y0207351D01*
X0078719Y0207415D02*
X0078719Y0207415D01*
X0078907Y0206352D02*
X0080250Y0206352D01*
X0080250Y0205354D02*
X0079083Y0205354D01*
X0079259Y0204355D02*
X0080250Y0204355D01*
X0079295Y0204150D02*
X0079295Y0204150D01*
X0079155Y0203357D02*
X0080250Y0203357D01*
X0080250Y0202358D02*
X0078979Y0202358D01*
X0078803Y0201360D02*
X0080250Y0201360D01*
X0080250Y0200361D02*
X0078417Y0200361D01*
X0077840Y0199363D02*
X0080250Y0199363D01*
X0080250Y0198364D02*
X0077264Y0198364D01*
X0077062Y0198015D02*
X0077062Y0198015D01*
X0077062Y0198015D01*
X0076289Y0197366D02*
X0080137Y0197366D01*
X0079139Y0196367D02*
X0075099Y0196367D01*
X0073107Y0195369D02*
X0078140Y0195369D01*
X0080802Y0192373D02*
X0106121Y0192373D01*
X0106121Y0191375D02*
X0079803Y0191375D01*
X0078805Y0190376D02*
X0106144Y0190376D01*
X0106557Y0189378D02*
X0077806Y0189378D01*
X0081800Y0193372D02*
X0106329Y0193372D01*
X0106743Y0194370D02*
X0082799Y0194370D01*
X0083797Y0195369D02*
X0107301Y0195369D01*
X0108299Y0196367D02*
X0084250Y0196367D01*
X0084250Y0197366D02*
X0110033Y0197366D01*
X0097343Y0228320D02*
X0074250Y0228320D01*
X0074250Y0229318D02*
X0096042Y0229318D01*
X0095044Y0230317D02*
X0074250Y0230317D01*
X0070250Y0230317D02*
X0044456Y0230317D01*
X0045403Y0231315D02*
X0070250Y0231315D01*
X0070250Y0232314D02*
X0059968Y0232314D01*
X0060109Y0232372D02*
X0061528Y0233791D01*
X0062296Y0235646D01*
X0062296Y0237654D01*
X0061528Y0239509D01*
X0060109Y0240928D01*
X0058254Y0241696D01*
X0056246Y0241696D01*
X0054391Y0240928D01*
X0052972Y0239509D01*
X0052204Y0237654D01*
X0052204Y0235646D01*
X0052972Y0233791D01*
X0054391Y0232372D01*
X0056246Y0231604D01*
X0058254Y0231604D01*
X0060109Y0232372D01*
X0061049Y0233312D02*
X0070250Y0233312D01*
X0070250Y0234311D02*
X0061743Y0234311D01*
X0062157Y0235309D02*
X0070250Y0235309D01*
X0070250Y0236308D02*
X0062296Y0236308D01*
X0062296Y0237306D02*
X0070250Y0237306D01*
X0070250Y0238305D02*
X0062027Y0238305D01*
X0061613Y0239303D02*
X0070250Y0239303D01*
X0070250Y0240302D02*
X0060735Y0240302D01*
X0059211Y0241300D02*
X0069771Y0241300D01*
X0068773Y0242299D02*
X0045141Y0242299D01*
X0045687Y0241300D02*
X0055289Y0241300D01*
X0053765Y0240302D02*
X0046100Y0240302D01*
X0046514Y0239303D02*
X0052887Y0239303D01*
X0052473Y0238305D02*
X0046824Y0238305D01*
X0046824Y0237306D02*
X0052204Y0237306D01*
X0052204Y0236308D02*
X0046824Y0236308D01*
X0046824Y0235309D02*
X0052343Y0235309D01*
X0052757Y0234311D02*
X0046644Y0234311D01*
X0046230Y0233312D02*
X0053451Y0233312D01*
X0054532Y0232314D02*
X0045817Y0232314D01*
X0043458Y0229318D02*
X0070250Y0229318D01*
X0070250Y0228320D02*
X0042157Y0228320D01*
X0039746Y0227321D02*
X0070250Y0227321D01*
X0070250Y0226322D02*
X0003950Y0226322D01*
X0003950Y0225324D02*
X0070250Y0225324D01*
X0070250Y0224325D02*
X0003950Y0224325D01*
X0003950Y0223327D02*
X0070250Y0223327D01*
X0070250Y0222328D02*
X0003950Y0222328D01*
X0003950Y0221330D02*
X0070250Y0221330D01*
X0070740Y0220331D02*
X0003950Y0220331D01*
X0003950Y0219333D02*
X0071739Y0219333D01*
X0072737Y0218334D02*
X0003950Y0218334D01*
X0003950Y0217336D02*
X0073736Y0217336D01*
X0074734Y0216337D02*
X0003950Y0216337D01*
X0003950Y0215339D02*
X0075733Y0215339D01*
X0067774Y0243297D02*
X0044143Y0243297D01*
X0043144Y0244296D02*
X0060799Y0244296D01*
X0059916Y0245294D02*
X0041399Y0245294D01*
X0044185Y0251285D02*
X0026283Y0251285D01*
X0024665Y0252284D02*
X0042948Y0252284D01*
X0050315Y0251285D02*
X0083217Y0251285D01*
X0084835Y0252284D02*
X0051552Y0252284D01*
X0052489Y0253282D02*
X0060867Y0253282D01*
X0059916Y0254281D02*
X0052903Y0254281D01*
X0065701Y0244296D02*
X0066776Y0244296D01*
X0034754Y0227321D02*
X0003950Y0227321D01*
X0003950Y0228320D02*
X0032343Y0228320D01*
X0031042Y0229318D02*
X0003950Y0229318D01*
X0003950Y0230317D02*
X0030044Y0230317D01*
X0029097Y0231315D02*
X0003950Y0231315D01*
X0003950Y0252284D02*
X0010500Y0252284D01*
X0007756Y0253282D02*
X0003950Y0253282D01*
X0003950Y0254281D02*
X0006408Y0254281D01*
X0005218Y0255279D02*
X0003950Y0255279D01*
X0003950Y0256278D02*
X0004497Y0256278D01*
X0003950Y0266074D02*
X0003950Y0269651D01*
X0007161Y0269651D01*
X0004938Y0267785D01*
X0003950Y0266074D01*
X0003950Y0266263D02*
X0004059Y0266263D01*
X0003950Y0267261D02*
X0004636Y0267261D01*
X0004938Y0267785D02*
X0004938Y0267785D01*
X0004938Y0267785D01*
X0005504Y0268260D02*
X0003950Y0268260D01*
X0003950Y0269258D02*
X0006694Y0269258D01*
X0017806Y0269258D02*
X0246694Y0269258D01*
X0245504Y0268260D02*
X0018996Y0268260D01*
X0019864Y0267261D02*
X0244636Y0267261D01*
X0244938Y0267785D02*
X0244938Y0267785D01*
X0244938Y0267785D01*
X0244059Y0266263D02*
X0020441Y0266263D01*
X0021017Y0265264D02*
X0243483Y0265264D01*
X0243281Y0264915D02*
X0243281Y0264915D01*
X0243166Y0264266D02*
X0021334Y0264266D01*
X0021219Y0264915D02*
X0021219Y0264915D01*
X0019835Y0252284D02*
X0014000Y0252284D01*
X0024431Y0187381D02*
X0042852Y0187381D01*
X0043952Y0186382D02*
X0026186Y0186382D01*
X0045266Y0132462D02*
X0003950Y0132462D01*
X0003950Y0131464D02*
X0043396Y0131464D01*
X0042398Y0130465D02*
X0003950Y0130465D01*
X0003950Y0129467D02*
X0041783Y0129467D01*
X0041369Y0128468D02*
X0003950Y0128468D01*
X0003950Y0127470D02*
X0041121Y0127470D01*
X0041121Y0126471D02*
X0003950Y0126471D01*
X0003950Y0125473D02*
X0041121Y0125473D01*
X0041517Y0124474D02*
X0003950Y0124474D01*
X0003950Y0123476D02*
X0041931Y0123476D01*
X0042755Y0122477D02*
X0024198Y0122477D01*
X0026089Y0121479D02*
X0043753Y0121479D01*
X0040932Y0115488D02*
X0058916Y0115488D01*
X0059605Y0114489D02*
X0042950Y0114489D01*
X0065169Y0119482D02*
X0065250Y0119482D01*
X0069250Y0113491D02*
X0081924Y0113491D01*
X0082740Y0112492D02*
X0069250Y0112492D01*
X0069250Y0111494D02*
X0080757Y0111494D01*
X0078958Y0110495D02*
X0069250Y0110495D01*
X0069250Y0109497D02*
X0077967Y0109497D01*
X0077553Y0108498D02*
X0069250Y0108498D01*
X0069250Y0107500D02*
X0077204Y0107500D01*
X0077204Y0106501D02*
X0070227Y0106501D01*
X0071226Y0105503D02*
X0077263Y0105503D01*
X0077677Y0104504D02*
X0072224Y0104504D01*
X0073223Y0103506D02*
X0078258Y0103506D01*
X0079256Y0102507D02*
X0074221Y0102507D01*
X0075220Y0101509D02*
X0094017Y0101509D01*
X0094134Y0101227D02*
X0096827Y0098534D01*
X0100346Y0097076D01*
X0104154Y0097076D01*
X0107673Y0098534D01*
X0110366Y0101227D01*
X0111824Y0104746D01*
X0111824Y0108554D01*
X0110366Y0112073D01*
X0107673Y0114766D01*
X0104154Y0116224D01*
X0100346Y0116224D01*
X0096827Y0114766D01*
X0094134Y0112073D01*
X0092676Y0108554D01*
X0092676Y0104746D01*
X0094134Y0101227D01*
X0094850Y0100510D02*
X0076218Y0100510D01*
X0077217Y0099512D02*
X0095849Y0099512D01*
X0096876Y0098513D02*
X0078215Y0098513D01*
X0079214Y0097515D02*
X0099287Y0097515D01*
X0105213Y0097515D02*
X0135250Y0097515D01*
X0135250Y0098513D02*
X0107624Y0098513D01*
X0108651Y0099512D02*
X0135250Y0099512D01*
X0135250Y0100510D02*
X0109650Y0100510D01*
X0110483Y0101509D02*
X0135250Y0101509D01*
X0135250Y0102507D02*
X0125244Y0102507D01*
X0125109Y0102372D02*
X0126528Y0103791D01*
X0127296Y0105646D01*
X0127296Y0107654D01*
X0126528Y0109509D01*
X0125109Y0110928D01*
X0123254Y0111696D01*
X0121246Y0111696D01*
X0119391Y0110928D01*
X0117972Y0109509D01*
X0117204Y0107654D01*
X0117204Y0105646D01*
X0117972Y0103791D01*
X0119391Y0102372D01*
X0121246Y0101604D01*
X0123254Y0101604D01*
X0125109Y0102372D01*
X0126242Y0103506D02*
X0135250Y0103506D01*
X0135250Y0104504D02*
X0126823Y0104504D01*
X0127237Y0105503D02*
X0135250Y0105503D01*
X0135250Y0106501D02*
X0127296Y0106501D01*
X0127296Y0107500D02*
X0135250Y0107500D01*
X0135250Y0108498D02*
X0126947Y0108498D01*
X0126533Y0109497D02*
X0135250Y0109497D01*
X0135250Y0110495D02*
X0125542Y0110495D01*
X0123743Y0111494D02*
X0135250Y0111494D01*
X0135250Y0112492D02*
X0109947Y0112492D01*
X0110607Y0111494D02*
X0120757Y0111494D01*
X0118958Y0110495D02*
X0111020Y0110495D01*
X0111434Y0109497D02*
X0117967Y0109497D01*
X0117553Y0108498D02*
X0111824Y0108498D01*
X0111824Y0107500D02*
X0117204Y0107500D01*
X0117204Y0106501D02*
X0111824Y0106501D01*
X0111824Y0105503D02*
X0117263Y0105503D01*
X0117677Y0104504D02*
X0111724Y0104504D01*
X0111310Y0103506D02*
X0118258Y0103506D01*
X0119256Y0102507D02*
X0110897Y0102507D01*
X0108949Y0113491D02*
X0135250Y0113491D01*
X0135250Y0114489D02*
X0129895Y0114489D01*
X0124605Y0114489D02*
X0107950Y0114489D01*
X0105932Y0115488D02*
X0123916Y0115488D01*
X0123916Y0116486D02*
X0093379Y0116486D01*
X0093379Y0115488D02*
X0098568Y0115488D01*
X0096550Y0114489D02*
X0092989Y0114489D01*
X0092575Y0113491D02*
X0095551Y0113491D01*
X0094552Y0112492D02*
X0091760Y0112492D01*
X0090762Y0111494D02*
X0093893Y0111494D01*
X0093480Y0110495D02*
X0085542Y0110495D01*
X0086533Y0109497D02*
X0093066Y0109497D01*
X0092676Y0108498D02*
X0086947Y0108498D01*
X0087296Y0107500D02*
X0092676Y0107500D01*
X0092676Y0106501D02*
X0087296Y0106501D01*
X0087237Y0105503D02*
X0092676Y0105503D01*
X0092776Y0104504D02*
X0086823Y0104504D01*
X0086242Y0103506D02*
X0093190Y0103506D01*
X0093603Y0102507D02*
X0085244Y0102507D01*
X0080212Y0096516D02*
X0135250Y0096516D01*
X0135250Y0095518D02*
X0081211Y0095518D01*
X0082209Y0094519D02*
X0135250Y0094519D01*
X0135250Y0093520D02*
X0083208Y0093520D01*
X0084206Y0092522D02*
X0135250Y0092522D01*
X0135250Y0091523D02*
X0084250Y0091523D01*
X0084250Y0090525D02*
X0135250Y0090525D01*
X0135250Y0089526D02*
X0084250Y0089526D01*
X0084250Y0088528D02*
X0135250Y0088528D01*
X0135250Y0087529D02*
X0084250Y0087529D01*
X0084250Y0086531D02*
X0135250Y0086531D01*
X0135250Y0085532D02*
X0084250Y0085532D01*
X0084250Y0084534D02*
X0135250Y0084534D01*
X0135250Y0083535D02*
X0084250Y0083535D01*
X0084250Y0082537D02*
X0135250Y0082537D01*
X0135250Y0081538D02*
X0084250Y0081538D01*
X0084250Y0080540D02*
X0135250Y0080540D01*
X0135250Y0079541D02*
X0084250Y0079541D01*
X0084250Y0078543D02*
X0135250Y0078543D01*
X0135250Y0077544D02*
X0084250Y0077544D01*
X0084250Y0076546D02*
X0135250Y0076546D01*
X0135250Y0075547D02*
X0084250Y0075547D01*
X0084250Y0074549D02*
X0135250Y0074549D01*
X0135250Y0073550D02*
X0084577Y0073550D01*
X0085112Y0072552D02*
X0135250Y0072552D01*
X0135250Y0071553D02*
X0085239Y0071553D01*
X0085032Y0070555D02*
X0135250Y0070555D01*
X0135250Y0069556D02*
X0084383Y0069556D01*
X0084250Y0068558D02*
X0135250Y0068558D01*
X0135250Y0067559D02*
X0114000Y0067559D01*
X0113469Y0067779D02*
X0115722Y0066846D01*
X0117446Y0065122D01*
X0118056Y0063650D01*
X0124444Y0063650D01*
X0124912Y0064118D01*
X0129588Y0064118D01*
X0130584Y0063122D01*
X0130584Y0059233D01*
X0129588Y0058237D01*
X0124912Y0058237D01*
X0123916Y0059233D01*
X0123916Y0059650D01*
X0118056Y0059650D01*
X0117446Y0058178D01*
X0115722Y0056454D01*
X0113469Y0055521D01*
X0111031Y0055521D01*
X0108778Y0056454D01*
X0107054Y0058178D01*
X0106121Y0060431D01*
X0106121Y0062869D01*
X0107054Y0065122D01*
X0108778Y0066846D01*
X0111031Y0067779D01*
X0113469Y0067779D01*
X0116007Y0066561D02*
X0135250Y0066561D01*
X0135250Y0065562D02*
X0117006Y0065562D01*
X0117677Y0064564D02*
X0135250Y0064564D01*
X0135250Y0063565D02*
X0130141Y0063565D01*
X0130584Y0062567D02*
X0135250Y0062567D01*
X0135250Y0061568D02*
X0130584Y0061568D01*
X0130584Y0060570D02*
X0135250Y0060570D01*
X0135250Y0059571D02*
X0130584Y0059571D01*
X0129923Y0058573D02*
X0135250Y0058573D01*
X0135250Y0057574D02*
X0116842Y0057574D01*
X0117609Y0058573D02*
X0124577Y0058573D01*
X0123916Y0059571D02*
X0118023Y0059571D01*
X0115843Y0056576D02*
X0134347Y0056576D01*
X0133349Y0055577D02*
X0113605Y0055577D01*
X0110895Y0055577D02*
X0091991Y0055577D01*
X0092671Y0054579D02*
X0124428Y0054579D01*
X0123916Y0053580D02*
X0093085Y0053580D01*
X0093379Y0052582D02*
X0123916Y0052582D01*
X0123916Y0051583D02*
X0093379Y0051583D01*
X0093379Y0050584D02*
X0098802Y0050584D01*
X0096646Y0049586D02*
X0093029Y0049586D01*
X0092616Y0048587D02*
X0095648Y0048587D01*
X0094649Y0047589D02*
X0091857Y0047589D01*
X0090858Y0046590D02*
X0093934Y0046590D01*
X0093520Y0045592D02*
X0088641Y0045592D01*
X0086443Y0044593D02*
X0093106Y0044593D01*
X0092693Y0043595D02*
X0086907Y0043595D01*
X0087296Y0042596D02*
X0092676Y0042596D01*
X0092676Y0041598D02*
X0087296Y0041598D01*
X0087277Y0040599D02*
X0092676Y0040599D01*
X0092736Y0039601D02*
X0086863Y0039601D01*
X0086339Y0038602D02*
X0093150Y0038602D01*
X0093563Y0037604D02*
X0085341Y0037604D01*
X0079159Y0037604D02*
X0060341Y0037604D01*
X0061339Y0038602D02*
X0078161Y0038602D01*
X0077637Y0039601D02*
X0061863Y0039601D01*
X0062277Y0040599D02*
X0077223Y0040599D01*
X0077204Y0041598D02*
X0062296Y0041598D01*
X0062296Y0042596D02*
X0077204Y0042596D01*
X0077593Y0043595D02*
X0061907Y0043595D01*
X0061443Y0044593D02*
X0078057Y0044593D01*
X0079055Y0045592D02*
X0060445Y0045592D01*
X0064992Y0049586D02*
X0081471Y0049586D01*
X0081121Y0050584D02*
X0069013Y0050584D01*
X0070011Y0051583D02*
X0081121Y0051583D01*
X0081121Y0052582D02*
X0071010Y0052582D01*
X0072008Y0053580D02*
X0081415Y0053580D01*
X0081829Y0054579D02*
X0073007Y0054579D01*
X0074005Y0055577D02*
X0082509Y0055577D01*
X0083508Y0056576D02*
X0075004Y0056576D01*
X0076002Y0057574D02*
X0085536Y0057574D01*
X0088964Y0057574D02*
X0107658Y0057574D01*
X0106891Y0058573D02*
X0077001Y0058573D01*
X0078000Y0059571D02*
X0106477Y0059571D01*
X0106121Y0060570D02*
X0078998Y0060570D01*
X0079997Y0061568D02*
X0106121Y0061568D01*
X0106121Y0062567D02*
X0080995Y0062567D01*
X0081994Y0063565D02*
X0106409Y0063565D01*
X0106823Y0064564D02*
X0082992Y0064564D01*
X0083991Y0065562D02*
X0107494Y0065562D01*
X0108493Y0066561D02*
X0084250Y0066561D01*
X0084250Y0067559D02*
X0110500Y0067559D01*
X0108657Y0056576D02*
X0090992Y0056576D01*
X0081884Y0048587D02*
X0043852Y0048587D01*
X0046031Y0055521D02*
X0043778Y0056454D01*
X0042054Y0058178D01*
X0041121Y0060431D01*
X0041121Y0062869D01*
X0042054Y0065122D01*
X0043778Y0066846D01*
X0046031Y0067779D01*
X0048469Y0067779D01*
X0050722Y0066846D01*
X0052446Y0065122D01*
X0053056Y0063650D01*
X0059444Y0063650D01*
X0059912Y0064118D01*
X0064588Y0064118D01*
X0065584Y0063122D01*
X0065584Y0059233D01*
X0064588Y0058237D01*
X0059912Y0058237D01*
X0058916Y0059233D01*
X0058916Y0059650D01*
X0053056Y0059650D01*
X0052446Y0058178D01*
X0050722Y0056454D01*
X0048469Y0055521D01*
X0046031Y0055521D01*
X0045895Y0055577D02*
X0026991Y0055577D01*
X0027671Y0054579D02*
X0059428Y0054579D01*
X0058916Y0053580D02*
X0028085Y0053580D01*
X0028379Y0052582D02*
X0058916Y0052582D01*
X0059577Y0058573D02*
X0052609Y0058573D01*
X0053023Y0059571D02*
X0058916Y0059571D01*
X0064923Y0058573D02*
X0071344Y0058573D01*
X0072343Y0059571D02*
X0065584Y0059571D01*
X0065584Y0060570D02*
X0073341Y0060570D01*
X0074340Y0061568D02*
X0065584Y0061568D01*
X0065584Y0062567D02*
X0075338Y0062567D01*
X0076337Y0063565D02*
X0065141Y0063565D01*
X0065861Y0065562D02*
X0052006Y0065562D01*
X0052677Y0064564D02*
X0077335Y0064564D01*
X0078334Y0065562D02*
X0073639Y0065562D01*
X0074522Y0065884D02*
X0074523Y0065884D01*
X0077062Y0068015D01*
X0078719Y0070885D01*
X0078719Y0070885D01*
X0079295Y0074150D01*
X0078719Y0077415D01*
X0077062Y0080285D01*
X0077062Y0080285D01*
X0074523Y0082416D01*
X0074522Y0082416D01*
X0071407Y0083550D01*
X0068093Y0083550D01*
X0064977Y0082416D01*
X0062438Y0080285D01*
X0060781Y0077415D01*
X0060205Y0074150D01*
X0060205Y0074150D01*
X0060781Y0070885D01*
X0062438Y0068015D01*
X0062438Y0068015D01*
X0064977Y0065884D01*
X0064977Y0065884D01*
X0068093Y0064750D01*
X0070620Y0064750D01*
X0071407Y0064750D01*
X0071407Y0064750D01*
X0074522Y0065884D01*
X0075329Y0066561D02*
X0079332Y0066561D01*
X0080250Y0067559D02*
X0076519Y0067559D01*
X0077062Y0068015D02*
X0077062Y0068015D01*
X0077062Y0068015D01*
X0077375Y0068558D02*
X0080250Y0068558D01*
X0080117Y0069556D02*
X0077952Y0069556D01*
X0078528Y0070555D02*
X0079468Y0070555D01*
X0079261Y0071553D02*
X0078837Y0071553D01*
X0079013Y0072552D02*
X0079388Y0072552D01*
X0079189Y0073550D02*
X0079923Y0073550D01*
X0079295Y0074150D02*
X0079295Y0074150D01*
X0079225Y0074549D02*
X0080250Y0074549D01*
X0080250Y0075547D02*
X0079049Y0075547D01*
X0078873Y0076546D02*
X0080250Y0076546D01*
X0080250Y0077544D02*
X0078644Y0077544D01*
X0078719Y0077415D02*
X0078719Y0077415D01*
X0078068Y0078543D02*
X0080250Y0078543D01*
X0080250Y0079541D02*
X0077491Y0079541D01*
X0076759Y0080540D02*
X0080250Y0080540D01*
X0080250Y0081538D02*
X0075569Y0081538D01*
X0074191Y0082537D02*
X0080250Y0082537D01*
X0080250Y0083535D02*
X0071448Y0083535D01*
X0068052Y0083535D02*
X0003950Y0083535D01*
X0003950Y0082537D02*
X0065309Y0082537D01*
X0064977Y0082416D02*
X0064977Y0082416D01*
X0063931Y0081538D02*
X0003950Y0081538D01*
X0003950Y0080540D02*
X0062741Y0080540D01*
X0062438Y0080285D02*
X0062438Y0080285D01*
X0062438Y0080285D01*
X0062009Y0079541D02*
X0003950Y0079541D01*
X0003950Y0078543D02*
X0061432Y0078543D01*
X0060856Y0077544D02*
X0003950Y0077544D01*
X0003950Y0076546D02*
X0060627Y0076546D01*
X0060781Y0077415D02*
X0060781Y0077415D01*
X0060451Y0075547D02*
X0003950Y0075547D01*
X0003950Y0074549D02*
X0060275Y0074549D01*
X0060311Y0073550D02*
X0003950Y0073550D01*
X0003950Y0072552D02*
X0060487Y0072552D01*
X0060663Y0071553D02*
X0003950Y0071553D01*
X0003950Y0070555D02*
X0060972Y0070555D01*
X0060781Y0070885D02*
X0060781Y0070885D01*
X0061548Y0069556D02*
X0003950Y0069556D01*
X0003950Y0068558D02*
X0062125Y0068558D01*
X0062981Y0067559D02*
X0049000Y0067559D01*
X0051007Y0066561D02*
X0064171Y0066561D01*
X0070346Y0057574D02*
X0051842Y0057574D01*
X0050843Y0056576D02*
X0069347Y0056576D01*
X0068349Y0055577D02*
X0048605Y0055577D01*
X0043657Y0056576D02*
X0025992Y0056576D01*
X0023964Y0057574D02*
X0042658Y0057574D01*
X0041891Y0058573D02*
X0003950Y0058573D01*
X0003950Y0059571D02*
X0041477Y0059571D01*
X0041121Y0060570D02*
X0003950Y0060570D01*
X0003950Y0061568D02*
X0041121Y0061568D01*
X0041121Y0062567D02*
X0003950Y0062567D01*
X0003950Y0063565D02*
X0041409Y0063565D01*
X0041823Y0064564D02*
X0003950Y0064564D01*
X0003950Y0065562D02*
X0042494Y0065562D01*
X0043493Y0066561D02*
X0003950Y0066561D01*
X0003950Y0067559D02*
X0045500Y0067559D01*
X0065072Y0054579D02*
X0067350Y0054579D01*
X0083510Y0046590D02*
X0083642Y0046590D01*
X0085445Y0045592D02*
X0085859Y0045592D01*
X0105698Y0050584D02*
X0123916Y0050584D01*
X0124508Y0049586D02*
X0107854Y0049586D01*
X0130072Y0054579D02*
X0132350Y0054579D01*
X0080250Y0084534D02*
X0003950Y0084534D01*
X0003950Y0085532D02*
X0080250Y0085532D01*
X0080250Y0086531D02*
X0003950Y0086531D01*
X0003950Y0087529D02*
X0080250Y0087529D01*
X0080250Y0088528D02*
X0003950Y0088528D01*
X0003950Y0089526D02*
X0080250Y0089526D01*
X0080250Y0090525D02*
X0003950Y0090525D01*
X0003950Y0091523D02*
X0079548Y0091523D01*
X0078550Y0092522D02*
X0003950Y0092522D01*
X0003950Y0093520D02*
X0077551Y0093520D01*
X0076553Y0094519D02*
X0003950Y0094519D01*
X0003950Y0095518D02*
X0075554Y0095518D01*
X0074556Y0096516D02*
X0003950Y0096516D01*
X0003950Y0103506D02*
X0013258Y0103506D01*
X0012677Y0104504D02*
X0003950Y0104504D01*
X0003950Y0105503D02*
X0012263Y0105503D01*
X0012204Y0106501D02*
X0003950Y0106501D01*
X0003950Y0107500D02*
X0012204Y0107500D01*
X0012553Y0108498D02*
X0003950Y0108498D01*
X0003950Y0109497D02*
X0012967Y0109497D01*
X0013958Y0110495D02*
X0003950Y0110495D01*
X0003950Y0111494D02*
X0015757Y0111494D01*
X0017740Y0112492D02*
X0003950Y0112492D01*
X0003950Y0113491D02*
X0016924Y0113491D01*
X0016511Y0114489D02*
X0003950Y0114489D01*
X0003950Y0115488D02*
X0016121Y0115488D01*
X0016121Y0116486D02*
X0003950Y0116486D01*
X0003950Y0117485D02*
X0016121Y0117485D01*
X0016375Y0118483D02*
X0003950Y0118483D01*
X0003950Y0119482D02*
X0016789Y0119482D01*
X0017412Y0120480D02*
X0003950Y0120480D01*
X0003950Y0121479D02*
X0018411Y0121479D01*
X0020302Y0122477D02*
X0003950Y0122477D01*
X0003950Y0057574D02*
X0020536Y0057574D01*
X0018508Y0056576D02*
X0003950Y0056576D01*
X0003950Y0055577D02*
X0017509Y0055577D01*
X0016829Y0054579D02*
X0003950Y0054579D01*
X0003950Y0053580D02*
X0016415Y0053580D01*
X0016121Y0052582D02*
X0003950Y0052582D01*
X0003950Y0051583D02*
X0016121Y0051583D01*
X0016121Y0050584D02*
X0003950Y0050584D01*
X0003950Y0049586D02*
X0016471Y0049586D01*
X0016884Y0048587D02*
X0003950Y0048587D01*
X0003950Y0047589D02*
X0017643Y0047589D01*
X0018510Y0046590D02*
X0018642Y0046590D01*
X0020445Y0045592D02*
X0020859Y0045592D01*
X0015990Y0046590D02*
X0003950Y0046590D01*
X0003950Y0045592D02*
X0014055Y0045592D01*
X0013057Y0044593D02*
X0003950Y0044593D01*
X0003950Y0043595D02*
X0012593Y0043595D01*
X0012204Y0042596D02*
X0003950Y0042596D01*
X0003950Y0041598D02*
X0012204Y0041598D01*
X0012223Y0040599D02*
X0003950Y0040599D01*
X0003950Y0039601D02*
X0012637Y0039601D01*
X0013161Y0038602D02*
X0003950Y0038602D01*
X0003950Y0037604D02*
X0014159Y0037604D01*
X0015084Y0025622D02*
X0249416Y0025622D01*
X0247477Y0024916D02*
X0247477Y0024916D01*
X0247128Y0024623D02*
X0017372Y0024623D01*
X0018562Y0023625D02*
X0245938Y0023625D01*
X0244938Y0022785D02*
X0244938Y0022785D01*
X0244938Y0022785D01*
X0244846Y0022626D02*
X0019654Y0022626D01*
X0020230Y0021628D02*
X0244270Y0021628D01*
X0243693Y0020629D02*
X0020807Y0020629D01*
X0021219Y0019915D02*
X0021219Y0019915D01*
X0021269Y0019631D02*
X0243231Y0019631D01*
X0243281Y0019915D02*
X0243281Y0019915D01*
X0243055Y0018632D02*
X0021445Y0018632D01*
X0021622Y0017634D02*
X0242878Y0017634D01*
X0242708Y0016635D02*
X0021792Y0016635D01*
X0021795Y0016650D02*
X0021795Y0016650D01*
X0021616Y0015637D02*
X0242884Y0015637D01*
X0243060Y0014638D02*
X0021440Y0014638D01*
X0021264Y0013640D02*
X0243236Y0013640D01*
X0243281Y0013385D02*
X0243281Y0013385D01*
X0243710Y0012641D02*
X0020790Y0012641D01*
X0020213Y0011643D02*
X0244287Y0011643D01*
X0244863Y0010644D02*
X0019637Y0010644D01*
X0019562Y0010515D02*
X0019562Y0010515D01*
X0019562Y0010515D01*
X0018526Y0009646D02*
X0245974Y0009646D01*
X0247164Y0008647D02*
X0017336Y0008647D01*
X0093379Y0117485D02*
X0123916Y0117485D01*
X0123916Y0118483D02*
X0093125Y0118483D01*
X0092711Y0119482D02*
X0124331Y0119482D01*
X0254000Y0252284D02*
X0260471Y0252284D01*
X0260471Y0253282D02*
X0256744Y0253282D01*
X0258092Y0254281D02*
X0260471Y0254281D01*
X0260471Y0255279D02*
X0259282Y0255279D01*
X0259562Y0255515D02*
X0259562Y0255515D01*
X0259562Y0255515D01*
X0260003Y0256278D02*
X0260471Y0256278D01*
X0260471Y0266210D02*
X0259562Y0267785D01*
X0259562Y0267785D01*
X0257339Y0269651D01*
X0260471Y0269651D01*
X0260471Y0266210D01*
X0260471Y0266263D02*
X0260441Y0266263D01*
X0260471Y0267261D02*
X0259864Y0267261D01*
X0260471Y0268260D02*
X0258996Y0268260D01*
X0257806Y0269258D02*
X0260471Y0269258D01*
X0260471Y0012090D02*
X0260471Y0008350D01*
X0256930Y0008350D01*
X0257022Y0008384D01*
X0257023Y0008384D01*
X0259562Y0010515D01*
X0260471Y0012090D01*
X0260471Y0011643D02*
X0260213Y0011643D01*
X0260471Y0010644D02*
X0259637Y0010644D01*
X0259562Y0010515D02*
X0259562Y0010515D01*
X0259562Y0010515D01*
X0260471Y0009646D02*
X0258526Y0009646D01*
X0257336Y0008647D02*
X0260471Y0008647D01*
M02*
