G75*
%MOIN*%
%OFA0B0*%
%FSLAX25Y25*%
%IPPOS*%
%LPD*%
%AMOC8*
5,1,8,0,0,1.08239X$1,22.5*
%
%ADD10C,0.00000*%
D10*
X0002250Y0006650D02*
X0002250Y0271351D01*
X0262171Y0271351D01*
X0262171Y0006650D01*
X0002250Y0006650D01*
X0005750Y0016650D02*
X0005752Y0016811D01*
X0005758Y0016971D01*
X0005768Y0017132D01*
X0005782Y0017292D01*
X0005800Y0017452D01*
X0005821Y0017611D01*
X0005847Y0017770D01*
X0005877Y0017928D01*
X0005910Y0018085D01*
X0005948Y0018242D01*
X0005989Y0018397D01*
X0006034Y0018551D01*
X0006083Y0018704D01*
X0006136Y0018856D01*
X0006192Y0019007D01*
X0006253Y0019156D01*
X0006316Y0019304D01*
X0006384Y0019450D01*
X0006455Y0019594D01*
X0006529Y0019736D01*
X0006607Y0019877D01*
X0006689Y0020015D01*
X0006774Y0020152D01*
X0006862Y0020286D01*
X0006954Y0020418D01*
X0007049Y0020548D01*
X0007147Y0020676D01*
X0007248Y0020801D01*
X0007352Y0020923D01*
X0007459Y0021043D01*
X0007569Y0021160D01*
X0007682Y0021275D01*
X0007798Y0021386D01*
X0007917Y0021495D01*
X0008038Y0021600D01*
X0008162Y0021703D01*
X0008288Y0021803D01*
X0008416Y0021899D01*
X0008547Y0021992D01*
X0008681Y0022082D01*
X0008816Y0022169D01*
X0008954Y0022252D01*
X0009093Y0022332D01*
X0009235Y0022408D01*
X0009378Y0022481D01*
X0009523Y0022550D01*
X0009670Y0022616D01*
X0009818Y0022678D01*
X0009968Y0022736D01*
X0010119Y0022791D01*
X0010272Y0022842D01*
X0010426Y0022889D01*
X0010581Y0022932D01*
X0010737Y0022971D01*
X0010893Y0023007D01*
X0011051Y0023038D01*
X0011209Y0023066D01*
X0011368Y0023090D01*
X0011528Y0023110D01*
X0011688Y0023126D01*
X0011848Y0023138D01*
X0012009Y0023146D01*
X0012170Y0023150D01*
X0012330Y0023150D01*
X0012491Y0023146D01*
X0012652Y0023138D01*
X0012812Y0023126D01*
X0012972Y0023110D01*
X0013132Y0023090D01*
X0013291Y0023066D01*
X0013449Y0023038D01*
X0013607Y0023007D01*
X0013763Y0022971D01*
X0013919Y0022932D01*
X0014074Y0022889D01*
X0014228Y0022842D01*
X0014381Y0022791D01*
X0014532Y0022736D01*
X0014682Y0022678D01*
X0014830Y0022616D01*
X0014977Y0022550D01*
X0015122Y0022481D01*
X0015265Y0022408D01*
X0015407Y0022332D01*
X0015546Y0022252D01*
X0015684Y0022169D01*
X0015819Y0022082D01*
X0015953Y0021992D01*
X0016084Y0021899D01*
X0016212Y0021803D01*
X0016338Y0021703D01*
X0016462Y0021600D01*
X0016583Y0021495D01*
X0016702Y0021386D01*
X0016818Y0021275D01*
X0016931Y0021160D01*
X0017041Y0021043D01*
X0017148Y0020923D01*
X0017252Y0020801D01*
X0017353Y0020676D01*
X0017451Y0020548D01*
X0017546Y0020418D01*
X0017638Y0020286D01*
X0017726Y0020152D01*
X0017811Y0020015D01*
X0017893Y0019877D01*
X0017971Y0019736D01*
X0018045Y0019594D01*
X0018116Y0019450D01*
X0018184Y0019304D01*
X0018247Y0019156D01*
X0018308Y0019007D01*
X0018364Y0018856D01*
X0018417Y0018704D01*
X0018466Y0018551D01*
X0018511Y0018397D01*
X0018552Y0018242D01*
X0018590Y0018085D01*
X0018623Y0017928D01*
X0018653Y0017770D01*
X0018679Y0017611D01*
X0018700Y0017452D01*
X0018718Y0017292D01*
X0018732Y0017132D01*
X0018742Y0016971D01*
X0018748Y0016811D01*
X0018750Y0016650D01*
X0018748Y0016489D01*
X0018742Y0016329D01*
X0018732Y0016168D01*
X0018718Y0016008D01*
X0018700Y0015848D01*
X0018679Y0015689D01*
X0018653Y0015530D01*
X0018623Y0015372D01*
X0018590Y0015215D01*
X0018552Y0015058D01*
X0018511Y0014903D01*
X0018466Y0014749D01*
X0018417Y0014596D01*
X0018364Y0014444D01*
X0018308Y0014293D01*
X0018247Y0014144D01*
X0018184Y0013996D01*
X0018116Y0013850D01*
X0018045Y0013706D01*
X0017971Y0013564D01*
X0017893Y0013423D01*
X0017811Y0013285D01*
X0017726Y0013148D01*
X0017638Y0013014D01*
X0017546Y0012882D01*
X0017451Y0012752D01*
X0017353Y0012624D01*
X0017252Y0012499D01*
X0017148Y0012377D01*
X0017041Y0012257D01*
X0016931Y0012140D01*
X0016818Y0012025D01*
X0016702Y0011914D01*
X0016583Y0011805D01*
X0016462Y0011700D01*
X0016338Y0011597D01*
X0016212Y0011497D01*
X0016084Y0011401D01*
X0015953Y0011308D01*
X0015819Y0011218D01*
X0015684Y0011131D01*
X0015546Y0011048D01*
X0015407Y0010968D01*
X0015265Y0010892D01*
X0015122Y0010819D01*
X0014977Y0010750D01*
X0014830Y0010684D01*
X0014682Y0010622D01*
X0014532Y0010564D01*
X0014381Y0010509D01*
X0014228Y0010458D01*
X0014074Y0010411D01*
X0013919Y0010368D01*
X0013763Y0010329D01*
X0013607Y0010293D01*
X0013449Y0010262D01*
X0013291Y0010234D01*
X0013132Y0010210D01*
X0012972Y0010190D01*
X0012812Y0010174D01*
X0012652Y0010162D01*
X0012491Y0010154D01*
X0012330Y0010150D01*
X0012170Y0010150D01*
X0012009Y0010154D01*
X0011848Y0010162D01*
X0011688Y0010174D01*
X0011528Y0010190D01*
X0011368Y0010210D01*
X0011209Y0010234D01*
X0011051Y0010262D01*
X0010893Y0010293D01*
X0010737Y0010329D01*
X0010581Y0010368D01*
X0010426Y0010411D01*
X0010272Y0010458D01*
X0010119Y0010509D01*
X0009968Y0010564D01*
X0009818Y0010622D01*
X0009670Y0010684D01*
X0009523Y0010750D01*
X0009378Y0010819D01*
X0009235Y0010892D01*
X0009093Y0010968D01*
X0008954Y0011048D01*
X0008816Y0011131D01*
X0008681Y0011218D01*
X0008547Y0011308D01*
X0008416Y0011401D01*
X0008288Y0011497D01*
X0008162Y0011597D01*
X0008038Y0011700D01*
X0007917Y0011805D01*
X0007798Y0011914D01*
X0007682Y0012025D01*
X0007569Y0012140D01*
X0007459Y0012257D01*
X0007352Y0012377D01*
X0007248Y0012499D01*
X0007147Y0012624D01*
X0007049Y0012752D01*
X0006954Y0012882D01*
X0006862Y0013014D01*
X0006774Y0013148D01*
X0006689Y0013285D01*
X0006607Y0013423D01*
X0006529Y0013564D01*
X0006455Y0013706D01*
X0006384Y0013850D01*
X0006316Y0013996D01*
X0006253Y0014144D01*
X0006192Y0014293D01*
X0006136Y0014444D01*
X0006083Y0014596D01*
X0006034Y0014749D01*
X0005989Y0014903D01*
X0005948Y0015058D01*
X0005910Y0015215D01*
X0005877Y0015372D01*
X0005847Y0015530D01*
X0005821Y0015689D01*
X0005800Y0015848D01*
X0005782Y0016008D01*
X0005768Y0016168D01*
X0005758Y0016329D01*
X0005752Y0016489D01*
X0005750Y0016650D01*
X0013904Y0041650D02*
X0013906Y0041765D01*
X0013912Y0041881D01*
X0013922Y0041996D01*
X0013936Y0042111D01*
X0013954Y0042225D01*
X0013976Y0042338D01*
X0014001Y0042451D01*
X0014031Y0042562D01*
X0014064Y0042673D01*
X0014101Y0042782D01*
X0014142Y0042890D01*
X0014187Y0042997D01*
X0014235Y0043102D01*
X0014287Y0043205D01*
X0014343Y0043306D01*
X0014402Y0043406D01*
X0014464Y0043503D01*
X0014530Y0043598D01*
X0014598Y0043691D01*
X0014670Y0043781D01*
X0014745Y0043869D01*
X0014824Y0043954D01*
X0014905Y0044036D01*
X0014988Y0044116D01*
X0015075Y0044192D01*
X0015164Y0044266D01*
X0015255Y0044336D01*
X0015349Y0044404D01*
X0015445Y0044468D01*
X0015544Y0044528D01*
X0015644Y0044585D01*
X0015746Y0044639D01*
X0015850Y0044689D01*
X0015956Y0044736D01*
X0016063Y0044779D01*
X0016172Y0044818D01*
X0016282Y0044853D01*
X0016393Y0044884D01*
X0016505Y0044912D01*
X0016618Y0044936D01*
X0016732Y0044956D01*
X0016847Y0044972D01*
X0016962Y0044984D01*
X0017077Y0044992D01*
X0017192Y0044996D01*
X0017308Y0044996D01*
X0017423Y0044992D01*
X0017538Y0044984D01*
X0017653Y0044972D01*
X0017768Y0044956D01*
X0017882Y0044936D01*
X0017995Y0044912D01*
X0018107Y0044884D01*
X0018218Y0044853D01*
X0018328Y0044818D01*
X0018437Y0044779D01*
X0018544Y0044736D01*
X0018650Y0044689D01*
X0018754Y0044639D01*
X0018856Y0044585D01*
X0018956Y0044528D01*
X0019055Y0044468D01*
X0019151Y0044404D01*
X0019245Y0044336D01*
X0019336Y0044266D01*
X0019425Y0044192D01*
X0019512Y0044116D01*
X0019595Y0044036D01*
X0019676Y0043954D01*
X0019755Y0043869D01*
X0019830Y0043781D01*
X0019902Y0043691D01*
X0019970Y0043598D01*
X0020036Y0043503D01*
X0020098Y0043406D01*
X0020157Y0043306D01*
X0020213Y0043205D01*
X0020265Y0043102D01*
X0020313Y0042997D01*
X0020358Y0042890D01*
X0020399Y0042782D01*
X0020436Y0042673D01*
X0020469Y0042562D01*
X0020499Y0042451D01*
X0020524Y0042338D01*
X0020546Y0042225D01*
X0020564Y0042111D01*
X0020578Y0041996D01*
X0020588Y0041881D01*
X0020594Y0041765D01*
X0020596Y0041650D01*
X0020594Y0041535D01*
X0020588Y0041419D01*
X0020578Y0041304D01*
X0020564Y0041189D01*
X0020546Y0041075D01*
X0020524Y0040962D01*
X0020499Y0040849D01*
X0020469Y0040738D01*
X0020436Y0040627D01*
X0020399Y0040518D01*
X0020358Y0040410D01*
X0020313Y0040303D01*
X0020265Y0040198D01*
X0020213Y0040095D01*
X0020157Y0039994D01*
X0020098Y0039894D01*
X0020036Y0039797D01*
X0019970Y0039702D01*
X0019902Y0039609D01*
X0019830Y0039519D01*
X0019755Y0039431D01*
X0019676Y0039346D01*
X0019595Y0039264D01*
X0019512Y0039184D01*
X0019425Y0039108D01*
X0019336Y0039034D01*
X0019245Y0038964D01*
X0019151Y0038896D01*
X0019055Y0038832D01*
X0018956Y0038772D01*
X0018856Y0038715D01*
X0018754Y0038661D01*
X0018650Y0038611D01*
X0018544Y0038564D01*
X0018437Y0038521D01*
X0018328Y0038482D01*
X0018218Y0038447D01*
X0018107Y0038416D01*
X0017995Y0038388D01*
X0017882Y0038364D01*
X0017768Y0038344D01*
X0017653Y0038328D01*
X0017538Y0038316D01*
X0017423Y0038308D01*
X0017308Y0038304D01*
X0017192Y0038304D01*
X0017077Y0038308D01*
X0016962Y0038316D01*
X0016847Y0038328D01*
X0016732Y0038344D01*
X0016618Y0038364D01*
X0016505Y0038388D01*
X0016393Y0038416D01*
X0016282Y0038447D01*
X0016172Y0038482D01*
X0016063Y0038521D01*
X0015956Y0038564D01*
X0015850Y0038611D01*
X0015746Y0038661D01*
X0015644Y0038715D01*
X0015544Y0038772D01*
X0015445Y0038832D01*
X0015349Y0038896D01*
X0015255Y0038964D01*
X0015164Y0039034D01*
X0015075Y0039108D01*
X0014988Y0039184D01*
X0014905Y0039264D01*
X0014824Y0039346D01*
X0014745Y0039431D01*
X0014670Y0039519D01*
X0014598Y0039609D01*
X0014530Y0039702D01*
X0014464Y0039797D01*
X0014402Y0039894D01*
X0014343Y0039994D01*
X0014287Y0040095D01*
X0014235Y0040198D01*
X0014187Y0040303D01*
X0014142Y0040410D01*
X0014101Y0040518D01*
X0014064Y0040627D01*
X0014031Y0040738D01*
X0014001Y0040849D01*
X0013976Y0040962D01*
X0013954Y0041075D01*
X0013936Y0041189D01*
X0013922Y0041304D01*
X0013912Y0041419D01*
X0013906Y0041535D01*
X0013904Y0041650D01*
X0029376Y0041650D02*
X0029378Y0041843D01*
X0029385Y0042036D01*
X0029397Y0042229D01*
X0029414Y0042422D01*
X0029435Y0042614D01*
X0029461Y0042805D01*
X0029492Y0042996D01*
X0029527Y0043186D01*
X0029567Y0043375D01*
X0029612Y0043563D01*
X0029661Y0043750D01*
X0029715Y0043936D01*
X0029773Y0044120D01*
X0029836Y0044303D01*
X0029904Y0044484D01*
X0029975Y0044663D01*
X0030052Y0044841D01*
X0030132Y0045017D01*
X0030217Y0045190D01*
X0030306Y0045362D01*
X0030399Y0045531D01*
X0030496Y0045698D01*
X0030598Y0045863D01*
X0030703Y0046025D01*
X0030812Y0046184D01*
X0030926Y0046341D01*
X0031043Y0046494D01*
X0031163Y0046645D01*
X0031288Y0046793D01*
X0031416Y0046938D01*
X0031547Y0047079D01*
X0031682Y0047218D01*
X0031821Y0047353D01*
X0031962Y0047484D01*
X0032107Y0047612D01*
X0032255Y0047737D01*
X0032406Y0047857D01*
X0032559Y0047974D01*
X0032716Y0048088D01*
X0032875Y0048197D01*
X0033037Y0048302D01*
X0033202Y0048404D01*
X0033369Y0048501D01*
X0033538Y0048594D01*
X0033710Y0048683D01*
X0033883Y0048768D01*
X0034059Y0048848D01*
X0034237Y0048925D01*
X0034416Y0048996D01*
X0034597Y0049064D01*
X0034780Y0049127D01*
X0034964Y0049185D01*
X0035150Y0049239D01*
X0035337Y0049288D01*
X0035525Y0049333D01*
X0035714Y0049373D01*
X0035904Y0049408D01*
X0036095Y0049439D01*
X0036286Y0049465D01*
X0036478Y0049486D01*
X0036671Y0049503D01*
X0036864Y0049515D01*
X0037057Y0049522D01*
X0037250Y0049524D01*
X0037443Y0049522D01*
X0037636Y0049515D01*
X0037829Y0049503D01*
X0038022Y0049486D01*
X0038214Y0049465D01*
X0038405Y0049439D01*
X0038596Y0049408D01*
X0038786Y0049373D01*
X0038975Y0049333D01*
X0039163Y0049288D01*
X0039350Y0049239D01*
X0039536Y0049185D01*
X0039720Y0049127D01*
X0039903Y0049064D01*
X0040084Y0048996D01*
X0040263Y0048925D01*
X0040441Y0048848D01*
X0040617Y0048768D01*
X0040790Y0048683D01*
X0040962Y0048594D01*
X0041131Y0048501D01*
X0041298Y0048404D01*
X0041463Y0048302D01*
X0041625Y0048197D01*
X0041784Y0048088D01*
X0041941Y0047974D01*
X0042094Y0047857D01*
X0042245Y0047737D01*
X0042393Y0047612D01*
X0042538Y0047484D01*
X0042679Y0047353D01*
X0042818Y0047218D01*
X0042953Y0047079D01*
X0043084Y0046938D01*
X0043212Y0046793D01*
X0043337Y0046645D01*
X0043457Y0046494D01*
X0043574Y0046341D01*
X0043688Y0046184D01*
X0043797Y0046025D01*
X0043902Y0045863D01*
X0044004Y0045698D01*
X0044101Y0045531D01*
X0044194Y0045362D01*
X0044283Y0045190D01*
X0044368Y0045017D01*
X0044448Y0044841D01*
X0044525Y0044663D01*
X0044596Y0044484D01*
X0044664Y0044303D01*
X0044727Y0044120D01*
X0044785Y0043936D01*
X0044839Y0043750D01*
X0044888Y0043563D01*
X0044933Y0043375D01*
X0044973Y0043186D01*
X0045008Y0042996D01*
X0045039Y0042805D01*
X0045065Y0042614D01*
X0045086Y0042422D01*
X0045103Y0042229D01*
X0045115Y0042036D01*
X0045122Y0041843D01*
X0045124Y0041650D01*
X0045122Y0041457D01*
X0045115Y0041264D01*
X0045103Y0041071D01*
X0045086Y0040878D01*
X0045065Y0040686D01*
X0045039Y0040495D01*
X0045008Y0040304D01*
X0044973Y0040114D01*
X0044933Y0039925D01*
X0044888Y0039737D01*
X0044839Y0039550D01*
X0044785Y0039364D01*
X0044727Y0039180D01*
X0044664Y0038997D01*
X0044596Y0038816D01*
X0044525Y0038637D01*
X0044448Y0038459D01*
X0044368Y0038283D01*
X0044283Y0038110D01*
X0044194Y0037938D01*
X0044101Y0037769D01*
X0044004Y0037602D01*
X0043902Y0037437D01*
X0043797Y0037275D01*
X0043688Y0037116D01*
X0043574Y0036959D01*
X0043457Y0036806D01*
X0043337Y0036655D01*
X0043212Y0036507D01*
X0043084Y0036362D01*
X0042953Y0036221D01*
X0042818Y0036082D01*
X0042679Y0035947D01*
X0042538Y0035816D01*
X0042393Y0035688D01*
X0042245Y0035563D01*
X0042094Y0035443D01*
X0041941Y0035326D01*
X0041784Y0035212D01*
X0041625Y0035103D01*
X0041463Y0034998D01*
X0041298Y0034896D01*
X0041131Y0034799D01*
X0040962Y0034706D01*
X0040790Y0034617D01*
X0040617Y0034532D01*
X0040441Y0034452D01*
X0040263Y0034375D01*
X0040084Y0034304D01*
X0039903Y0034236D01*
X0039720Y0034173D01*
X0039536Y0034115D01*
X0039350Y0034061D01*
X0039163Y0034012D01*
X0038975Y0033967D01*
X0038786Y0033927D01*
X0038596Y0033892D01*
X0038405Y0033861D01*
X0038214Y0033835D01*
X0038022Y0033814D01*
X0037829Y0033797D01*
X0037636Y0033785D01*
X0037443Y0033778D01*
X0037250Y0033776D01*
X0037057Y0033778D01*
X0036864Y0033785D01*
X0036671Y0033797D01*
X0036478Y0033814D01*
X0036286Y0033835D01*
X0036095Y0033861D01*
X0035904Y0033892D01*
X0035714Y0033927D01*
X0035525Y0033967D01*
X0035337Y0034012D01*
X0035150Y0034061D01*
X0034964Y0034115D01*
X0034780Y0034173D01*
X0034597Y0034236D01*
X0034416Y0034304D01*
X0034237Y0034375D01*
X0034059Y0034452D01*
X0033883Y0034532D01*
X0033710Y0034617D01*
X0033538Y0034706D01*
X0033369Y0034799D01*
X0033202Y0034896D01*
X0033037Y0034998D01*
X0032875Y0035103D01*
X0032716Y0035212D01*
X0032559Y0035326D01*
X0032406Y0035443D01*
X0032255Y0035563D01*
X0032107Y0035688D01*
X0031962Y0035816D01*
X0031821Y0035947D01*
X0031682Y0036082D01*
X0031547Y0036221D01*
X0031416Y0036362D01*
X0031288Y0036507D01*
X0031163Y0036655D01*
X0031043Y0036806D01*
X0030926Y0036959D01*
X0030812Y0037116D01*
X0030703Y0037275D01*
X0030598Y0037437D01*
X0030496Y0037602D01*
X0030399Y0037769D01*
X0030306Y0037938D01*
X0030217Y0038110D01*
X0030132Y0038283D01*
X0030052Y0038459D01*
X0029975Y0038637D01*
X0029904Y0038816D01*
X0029836Y0038997D01*
X0029773Y0039180D01*
X0029715Y0039364D01*
X0029661Y0039550D01*
X0029612Y0039737D01*
X0029567Y0039925D01*
X0029527Y0040114D01*
X0029492Y0040304D01*
X0029461Y0040495D01*
X0029435Y0040686D01*
X0029414Y0040878D01*
X0029397Y0041071D01*
X0029385Y0041264D01*
X0029378Y0041457D01*
X0029376Y0041650D01*
X0053904Y0041650D02*
X0053906Y0041765D01*
X0053912Y0041881D01*
X0053922Y0041996D01*
X0053936Y0042111D01*
X0053954Y0042225D01*
X0053976Y0042338D01*
X0054001Y0042451D01*
X0054031Y0042562D01*
X0054064Y0042673D01*
X0054101Y0042782D01*
X0054142Y0042890D01*
X0054187Y0042997D01*
X0054235Y0043102D01*
X0054287Y0043205D01*
X0054343Y0043306D01*
X0054402Y0043406D01*
X0054464Y0043503D01*
X0054530Y0043598D01*
X0054598Y0043691D01*
X0054670Y0043781D01*
X0054745Y0043869D01*
X0054824Y0043954D01*
X0054905Y0044036D01*
X0054988Y0044116D01*
X0055075Y0044192D01*
X0055164Y0044266D01*
X0055255Y0044336D01*
X0055349Y0044404D01*
X0055445Y0044468D01*
X0055544Y0044528D01*
X0055644Y0044585D01*
X0055746Y0044639D01*
X0055850Y0044689D01*
X0055956Y0044736D01*
X0056063Y0044779D01*
X0056172Y0044818D01*
X0056282Y0044853D01*
X0056393Y0044884D01*
X0056505Y0044912D01*
X0056618Y0044936D01*
X0056732Y0044956D01*
X0056847Y0044972D01*
X0056962Y0044984D01*
X0057077Y0044992D01*
X0057192Y0044996D01*
X0057308Y0044996D01*
X0057423Y0044992D01*
X0057538Y0044984D01*
X0057653Y0044972D01*
X0057768Y0044956D01*
X0057882Y0044936D01*
X0057995Y0044912D01*
X0058107Y0044884D01*
X0058218Y0044853D01*
X0058328Y0044818D01*
X0058437Y0044779D01*
X0058544Y0044736D01*
X0058650Y0044689D01*
X0058754Y0044639D01*
X0058856Y0044585D01*
X0058956Y0044528D01*
X0059055Y0044468D01*
X0059151Y0044404D01*
X0059245Y0044336D01*
X0059336Y0044266D01*
X0059425Y0044192D01*
X0059512Y0044116D01*
X0059595Y0044036D01*
X0059676Y0043954D01*
X0059755Y0043869D01*
X0059830Y0043781D01*
X0059902Y0043691D01*
X0059970Y0043598D01*
X0060036Y0043503D01*
X0060098Y0043406D01*
X0060157Y0043306D01*
X0060213Y0043205D01*
X0060265Y0043102D01*
X0060313Y0042997D01*
X0060358Y0042890D01*
X0060399Y0042782D01*
X0060436Y0042673D01*
X0060469Y0042562D01*
X0060499Y0042451D01*
X0060524Y0042338D01*
X0060546Y0042225D01*
X0060564Y0042111D01*
X0060578Y0041996D01*
X0060588Y0041881D01*
X0060594Y0041765D01*
X0060596Y0041650D01*
X0060594Y0041535D01*
X0060588Y0041419D01*
X0060578Y0041304D01*
X0060564Y0041189D01*
X0060546Y0041075D01*
X0060524Y0040962D01*
X0060499Y0040849D01*
X0060469Y0040738D01*
X0060436Y0040627D01*
X0060399Y0040518D01*
X0060358Y0040410D01*
X0060313Y0040303D01*
X0060265Y0040198D01*
X0060213Y0040095D01*
X0060157Y0039994D01*
X0060098Y0039894D01*
X0060036Y0039797D01*
X0059970Y0039702D01*
X0059902Y0039609D01*
X0059830Y0039519D01*
X0059755Y0039431D01*
X0059676Y0039346D01*
X0059595Y0039264D01*
X0059512Y0039184D01*
X0059425Y0039108D01*
X0059336Y0039034D01*
X0059245Y0038964D01*
X0059151Y0038896D01*
X0059055Y0038832D01*
X0058956Y0038772D01*
X0058856Y0038715D01*
X0058754Y0038661D01*
X0058650Y0038611D01*
X0058544Y0038564D01*
X0058437Y0038521D01*
X0058328Y0038482D01*
X0058218Y0038447D01*
X0058107Y0038416D01*
X0057995Y0038388D01*
X0057882Y0038364D01*
X0057768Y0038344D01*
X0057653Y0038328D01*
X0057538Y0038316D01*
X0057423Y0038308D01*
X0057308Y0038304D01*
X0057192Y0038304D01*
X0057077Y0038308D01*
X0056962Y0038316D01*
X0056847Y0038328D01*
X0056732Y0038344D01*
X0056618Y0038364D01*
X0056505Y0038388D01*
X0056393Y0038416D01*
X0056282Y0038447D01*
X0056172Y0038482D01*
X0056063Y0038521D01*
X0055956Y0038564D01*
X0055850Y0038611D01*
X0055746Y0038661D01*
X0055644Y0038715D01*
X0055544Y0038772D01*
X0055445Y0038832D01*
X0055349Y0038896D01*
X0055255Y0038964D01*
X0055164Y0039034D01*
X0055075Y0039108D01*
X0054988Y0039184D01*
X0054905Y0039264D01*
X0054824Y0039346D01*
X0054745Y0039431D01*
X0054670Y0039519D01*
X0054598Y0039609D01*
X0054530Y0039702D01*
X0054464Y0039797D01*
X0054402Y0039894D01*
X0054343Y0039994D01*
X0054287Y0040095D01*
X0054235Y0040198D01*
X0054187Y0040303D01*
X0054142Y0040410D01*
X0054101Y0040518D01*
X0054064Y0040627D01*
X0054031Y0040738D01*
X0054001Y0040849D01*
X0053976Y0040962D01*
X0053954Y0041075D01*
X0053936Y0041189D01*
X0053922Y0041304D01*
X0053912Y0041419D01*
X0053906Y0041535D01*
X0053904Y0041650D01*
X0078904Y0041650D02*
X0078906Y0041765D01*
X0078912Y0041881D01*
X0078922Y0041996D01*
X0078936Y0042111D01*
X0078954Y0042225D01*
X0078976Y0042338D01*
X0079001Y0042451D01*
X0079031Y0042562D01*
X0079064Y0042673D01*
X0079101Y0042782D01*
X0079142Y0042890D01*
X0079187Y0042997D01*
X0079235Y0043102D01*
X0079287Y0043205D01*
X0079343Y0043306D01*
X0079402Y0043406D01*
X0079464Y0043503D01*
X0079530Y0043598D01*
X0079598Y0043691D01*
X0079670Y0043781D01*
X0079745Y0043869D01*
X0079824Y0043954D01*
X0079905Y0044036D01*
X0079988Y0044116D01*
X0080075Y0044192D01*
X0080164Y0044266D01*
X0080255Y0044336D01*
X0080349Y0044404D01*
X0080445Y0044468D01*
X0080544Y0044528D01*
X0080644Y0044585D01*
X0080746Y0044639D01*
X0080850Y0044689D01*
X0080956Y0044736D01*
X0081063Y0044779D01*
X0081172Y0044818D01*
X0081282Y0044853D01*
X0081393Y0044884D01*
X0081505Y0044912D01*
X0081618Y0044936D01*
X0081732Y0044956D01*
X0081847Y0044972D01*
X0081962Y0044984D01*
X0082077Y0044992D01*
X0082192Y0044996D01*
X0082308Y0044996D01*
X0082423Y0044992D01*
X0082538Y0044984D01*
X0082653Y0044972D01*
X0082768Y0044956D01*
X0082882Y0044936D01*
X0082995Y0044912D01*
X0083107Y0044884D01*
X0083218Y0044853D01*
X0083328Y0044818D01*
X0083437Y0044779D01*
X0083544Y0044736D01*
X0083650Y0044689D01*
X0083754Y0044639D01*
X0083856Y0044585D01*
X0083956Y0044528D01*
X0084055Y0044468D01*
X0084151Y0044404D01*
X0084245Y0044336D01*
X0084336Y0044266D01*
X0084425Y0044192D01*
X0084512Y0044116D01*
X0084595Y0044036D01*
X0084676Y0043954D01*
X0084755Y0043869D01*
X0084830Y0043781D01*
X0084902Y0043691D01*
X0084970Y0043598D01*
X0085036Y0043503D01*
X0085098Y0043406D01*
X0085157Y0043306D01*
X0085213Y0043205D01*
X0085265Y0043102D01*
X0085313Y0042997D01*
X0085358Y0042890D01*
X0085399Y0042782D01*
X0085436Y0042673D01*
X0085469Y0042562D01*
X0085499Y0042451D01*
X0085524Y0042338D01*
X0085546Y0042225D01*
X0085564Y0042111D01*
X0085578Y0041996D01*
X0085588Y0041881D01*
X0085594Y0041765D01*
X0085596Y0041650D01*
X0085594Y0041535D01*
X0085588Y0041419D01*
X0085578Y0041304D01*
X0085564Y0041189D01*
X0085546Y0041075D01*
X0085524Y0040962D01*
X0085499Y0040849D01*
X0085469Y0040738D01*
X0085436Y0040627D01*
X0085399Y0040518D01*
X0085358Y0040410D01*
X0085313Y0040303D01*
X0085265Y0040198D01*
X0085213Y0040095D01*
X0085157Y0039994D01*
X0085098Y0039894D01*
X0085036Y0039797D01*
X0084970Y0039702D01*
X0084902Y0039609D01*
X0084830Y0039519D01*
X0084755Y0039431D01*
X0084676Y0039346D01*
X0084595Y0039264D01*
X0084512Y0039184D01*
X0084425Y0039108D01*
X0084336Y0039034D01*
X0084245Y0038964D01*
X0084151Y0038896D01*
X0084055Y0038832D01*
X0083956Y0038772D01*
X0083856Y0038715D01*
X0083754Y0038661D01*
X0083650Y0038611D01*
X0083544Y0038564D01*
X0083437Y0038521D01*
X0083328Y0038482D01*
X0083218Y0038447D01*
X0083107Y0038416D01*
X0082995Y0038388D01*
X0082882Y0038364D01*
X0082768Y0038344D01*
X0082653Y0038328D01*
X0082538Y0038316D01*
X0082423Y0038308D01*
X0082308Y0038304D01*
X0082192Y0038304D01*
X0082077Y0038308D01*
X0081962Y0038316D01*
X0081847Y0038328D01*
X0081732Y0038344D01*
X0081618Y0038364D01*
X0081505Y0038388D01*
X0081393Y0038416D01*
X0081282Y0038447D01*
X0081172Y0038482D01*
X0081063Y0038521D01*
X0080956Y0038564D01*
X0080850Y0038611D01*
X0080746Y0038661D01*
X0080644Y0038715D01*
X0080544Y0038772D01*
X0080445Y0038832D01*
X0080349Y0038896D01*
X0080255Y0038964D01*
X0080164Y0039034D01*
X0080075Y0039108D01*
X0079988Y0039184D01*
X0079905Y0039264D01*
X0079824Y0039346D01*
X0079745Y0039431D01*
X0079670Y0039519D01*
X0079598Y0039609D01*
X0079530Y0039702D01*
X0079464Y0039797D01*
X0079402Y0039894D01*
X0079343Y0039994D01*
X0079287Y0040095D01*
X0079235Y0040198D01*
X0079187Y0040303D01*
X0079142Y0040410D01*
X0079101Y0040518D01*
X0079064Y0040627D01*
X0079031Y0040738D01*
X0079001Y0040849D01*
X0078976Y0040962D01*
X0078954Y0041075D01*
X0078936Y0041189D01*
X0078922Y0041304D01*
X0078912Y0041419D01*
X0078906Y0041535D01*
X0078904Y0041650D01*
X0094376Y0041650D02*
X0094378Y0041843D01*
X0094385Y0042036D01*
X0094397Y0042229D01*
X0094414Y0042422D01*
X0094435Y0042614D01*
X0094461Y0042805D01*
X0094492Y0042996D01*
X0094527Y0043186D01*
X0094567Y0043375D01*
X0094612Y0043563D01*
X0094661Y0043750D01*
X0094715Y0043936D01*
X0094773Y0044120D01*
X0094836Y0044303D01*
X0094904Y0044484D01*
X0094975Y0044663D01*
X0095052Y0044841D01*
X0095132Y0045017D01*
X0095217Y0045190D01*
X0095306Y0045362D01*
X0095399Y0045531D01*
X0095496Y0045698D01*
X0095598Y0045863D01*
X0095703Y0046025D01*
X0095812Y0046184D01*
X0095926Y0046341D01*
X0096043Y0046494D01*
X0096163Y0046645D01*
X0096288Y0046793D01*
X0096416Y0046938D01*
X0096547Y0047079D01*
X0096682Y0047218D01*
X0096821Y0047353D01*
X0096962Y0047484D01*
X0097107Y0047612D01*
X0097255Y0047737D01*
X0097406Y0047857D01*
X0097559Y0047974D01*
X0097716Y0048088D01*
X0097875Y0048197D01*
X0098037Y0048302D01*
X0098202Y0048404D01*
X0098369Y0048501D01*
X0098538Y0048594D01*
X0098710Y0048683D01*
X0098883Y0048768D01*
X0099059Y0048848D01*
X0099237Y0048925D01*
X0099416Y0048996D01*
X0099597Y0049064D01*
X0099780Y0049127D01*
X0099964Y0049185D01*
X0100150Y0049239D01*
X0100337Y0049288D01*
X0100525Y0049333D01*
X0100714Y0049373D01*
X0100904Y0049408D01*
X0101095Y0049439D01*
X0101286Y0049465D01*
X0101478Y0049486D01*
X0101671Y0049503D01*
X0101864Y0049515D01*
X0102057Y0049522D01*
X0102250Y0049524D01*
X0102443Y0049522D01*
X0102636Y0049515D01*
X0102829Y0049503D01*
X0103022Y0049486D01*
X0103214Y0049465D01*
X0103405Y0049439D01*
X0103596Y0049408D01*
X0103786Y0049373D01*
X0103975Y0049333D01*
X0104163Y0049288D01*
X0104350Y0049239D01*
X0104536Y0049185D01*
X0104720Y0049127D01*
X0104903Y0049064D01*
X0105084Y0048996D01*
X0105263Y0048925D01*
X0105441Y0048848D01*
X0105617Y0048768D01*
X0105790Y0048683D01*
X0105962Y0048594D01*
X0106131Y0048501D01*
X0106298Y0048404D01*
X0106463Y0048302D01*
X0106625Y0048197D01*
X0106784Y0048088D01*
X0106941Y0047974D01*
X0107094Y0047857D01*
X0107245Y0047737D01*
X0107393Y0047612D01*
X0107538Y0047484D01*
X0107679Y0047353D01*
X0107818Y0047218D01*
X0107953Y0047079D01*
X0108084Y0046938D01*
X0108212Y0046793D01*
X0108337Y0046645D01*
X0108457Y0046494D01*
X0108574Y0046341D01*
X0108688Y0046184D01*
X0108797Y0046025D01*
X0108902Y0045863D01*
X0109004Y0045698D01*
X0109101Y0045531D01*
X0109194Y0045362D01*
X0109283Y0045190D01*
X0109368Y0045017D01*
X0109448Y0044841D01*
X0109525Y0044663D01*
X0109596Y0044484D01*
X0109664Y0044303D01*
X0109727Y0044120D01*
X0109785Y0043936D01*
X0109839Y0043750D01*
X0109888Y0043563D01*
X0109933Y0043375D01*
X0109973Y0043186D01*
X0110008Y0042996D01*
X0110039Y0042805D01*
X0110065Y0042614D01*
X0110086Y0042422D01*
X0110103Y0042229D01*
X0110115Y0042036D01*
X0110122Y0041843D01*
X0110124Y0041650D01*
X0110122Y0041457D01*
X0110115Y0041264D01*
X0110103Y0041071D01*
X0110086Y0040878D01*
X0110065Y0040686D01*
X0110039Y0040495D01*
X0110008Y0040304D01*
X0109973Y0040114D01*
X0109933Y0039925D01*
X0109888Y0039737D01*
X0109839Y0039550D01*
X0109785Y0039364D01*
X0109727Y0039180D01*
X0109664Y0038997D01*
X0109596Y0038816D01*
X0109525Y0038637D01*
X0109448Y0038459D01*
X0109368Y0038283D01*
X0109283Y0038110D01*
X0109194Y0037938D01*
X0109101Y0037769D01*
X0109004Y0037602D01*
X0108902Y0037437D01*
X0108797Y0037275D01*
X0108688Y0037116D01*
X0108574Y0036959D01*
X0108457Y0036806D01*
X0108337Y0036655D01*
X0108212Y0036507D01*
X0108084Y0036362D01*
X0107953Y0036221D01*
X0107818Y0036082D01*
X0107679Y0035947D01*
X0107538Y0035816D01*
X0107393Y0035688D01*
X0107245Y0035563D01*
X0107094Y0035443D01*
X0106941Y0035326D01*
X0106784Y0035212D01*
X0106625Y0035103D01*
X0106463Y0034998D01*
X0106298Y0034896D01*
X0106131Y0034799D01*
X0105962Y0034706D01*
X0105790Y0034617D01*
X0105617Y0034532D01*
X0105441Y0034452D01*
X0105263Y0034375D01*
X0105084Y0034304D01*
X0104903Y0034236D01*
X0104720Y0034173D01*
X0104536Y0034115D01*
X0104350Y0034061D01*
X0104163Y0034012D01*
X0103975Y0033967D01*
X0103786Y0033927D01*
X0103596Y0033892D01*
X0103405Y0033861D01*
X0103214Y0033835D01*
X0103022Y0033814D01*
X0102829Y0033797D01*
X0102636Y0033785D01*
X0102443Y0033778D01*
X0102250Y0033776D01*
X0102057Y0033778D01*
X0101864Y0033785D01*
X0101671Y0033797D01*
X0101478Y0033814D01*
X0101286Y0033835D01*
X0101095Y0033861D01*
X0100904Y0033892D01*
X0100714Y0033927D01*
X0100525Y0033967D01*
X0100337Y0034012D01*
X0100150Y0034061D01*
X0099964Y0034115D01*
X0099780Y0034173D01*
X0099597Y0034236D01*
X0099416Y0034304D01*
X0099237Y0034375D01*
X0099059Y0034452D01*
X0098883Y0034532D01*
X0098710Y0034617D01*
X0098538Y0034706D01*
X0098369Y0034799D01*
X0098202Y0034896D01*
X0098037Y0034998D01*
X0097875Y0035103D01*
X0097716Y0035212D01*
X0097559Y0035326D01*
X0097406Y0035443D01*
X0097255Y0035563D01*
X0097107Y0035688D01*
X0096962Y0035816D01*
X0096821Y0035947D01*
X0096682Y0036082D01*
X0096547Y0036221D01*
X0096416Y0036362D01*
X0096288Y0036507D01*
X0096163Y0036655D01*
X0096043Y0036806D01*
X0095926Y0036959D01*
X0095812Y0037116D01*
X0095703Y0037275D01*
X0095598Y0037437D01*
X0095496Y0037602D01*
X0095399Y0037769D01*
X0095306Y0037938D01*
X0095217Y0038110D01*
X0095132Y0038283D01*
X0095052Y0038459D01*
X0094975Y0038637D01*
X0094904Y0038816D01*
X0094836Y0038997D01*
X0094773Y0039180D01*
X0094715Y0039364D01*
X0094661Y0039550D01*
X0094612Y0039737D01*
X0094567Y0039925D01*
X0094527Y0040114D01*
X0094492Y0040304D01*
X0094461Y0040495D01*
X0094435Y0040686D01*
X0094414Y0040878D01*
X0094397Y0041071D01*
X0094385Y0041264D01*
X0094378Y0041457D01*
X0094376Y0041650D01*
X0118904Y0041650D02*
X0118906Y0041765D01*
X0118912Y0041881D01*
X0118922Y0041996D01*
X0118936Y0042111D01*
X0118954Y0042225D01*
X0118976Y0042338D01*
X0119001Y0042451D01*
X0119031Y0042562D01*
X0119064Y0042673D01*
X0119101Y0042782D01*
X0119142Y0042890D01*
X0119187Y0042997D01*
X0119235Y0043102D01*
X0119287Y0043205D01*
X0119343Y0043306D01*
X0119402Y0043406D01*
X0119464Y0043503D01*
X0119530Y0043598D01*
X0119598Y0043691D01*
X0119670Y0043781D01*
X0119745Y0043869D01*
X0119824Y0043954D01*
X0119905Y0044036D01*
X0119988Y0044116D01*
X0120075Y0044192D01*
X0120164Y0044266D01*
X0120255Y0044336D01*
X0120349Y0044404D01*
X0120445Y0044468D01*
X0120544Y0044528D01*
X0120644Y0044585D01*
X0120746Y0044639D01*
X0120850Y0044689D01*
X0120956Y0044736D01*
X0121063Y0044779D01*
X0121172Y0044818D01*
X0121282Y0044853D01*
X0121393Y0044884D01*
X0121505Y0044912D01*
X0121618Y0044936D01*
X0121732Y0044956D01*
X0121847Y0044972D01*
X0121962Y0044984D01*
X0122077Y0044992D01*
X0122192Y0044996D01*
X0122308Y0044996D01*
X0122423Y0044992D01*
X0122538Y0044984D01*
X0122653Y0044972D01*
X0122768Y0044956D01*
X0122882Y0044936D01*
X0122995Y0044912D01*
X0123107Y0044884D01*
X0123218Y0044853D01*
X0123328Y0044818D01*
X0123437Y0044779D01*
X0123544Y0044736D01*
X0123650Y0044689D01*
X0123754Y0044639D01*
X0123856Y0044585D01*
X0123956Y0044528D01*
X0124055Y0044468D01*
X0124151Y0044404D01*
X0124245Y0044336D01*
X0124336Y0044266D01*
X0124425Y0044192D01*
X0124512Y0044116D01*
X0124595Y0044036D01*
X0124676Y0043954D01*
X0124755Y0043869D01*
X0124830Y0043781D01*
X0124902Y0043691D01*
X0124970Y0043598D01*
X0125036Y0043503D01*
X0125098Y0043406D01*
X0125157Y0043306D01*
X0125213Y0043205D01*
X0125265Y0043102D01*
X0125313Y0042997D01*
X0125358Y0042890D01*
X0125399Y0042782D01*
X0125436Y0042673D01*
X0125469Y0042562D01*
X0125499Y0042451D01*
X0125524Y0042338D01*
X0125546Y0042225D01*
X0125564Y0042111D01*
X0125578Y0041996D01*
X0125588Y0041881D01*
X0125594Y0041765D01*
X0125596Y0041650D01*
X0125594Y0041535D01*
X0125588Y0041419D01*
X0125578Y0041304D01*
X0125564Y0041189D01*
X0125546Y0041075D01*
X0125524Y0040962D01*
X0125499Y0040849D01*
X0125469Y0040738D01*
X0125436Y0040627D01*
X0125399Y0040518D01*
X0125358Y0040410D01*
X0125313Y0040303D01*
X0125265Y0040198D01*
X0125213Y0040095D01*
X0125157Y0039994D01*
X0125098Y0039894D01*
X0125036Y0039797D01*
X0124970Y0039702D01*
X0124902Y0039609D01*
X0124830Y0039519D01*
X0124755Y0039431D01*
X0124676Y0039346D01*
X0124595Y0039264D01*
X0124512Y0039184D01*
X0124425Y0039108D01*
X0124336Y0039034D01*
X0124245Y0038964D01*
X0124151Y0038896D01*
X0124055Y0038832D01*
X0123956Y0038772D01*
X0123856Y0038715D01*
X0123754Y0038661D01*
X0123650Y0038611D01*
X0123544Y0038564D01*
X0123437Y0038521D01*
X0123328Y0038482D01*
X0123218Y0038447D01*
X0123107Y0038416D01*
X0122995Y0038388D01*
X0122882Y0038364D01*
X0122768Y0038344D01*
X0122653Y0038328D01*
X0122538Y0038316D01*
X0122423Y0038308D01*
X0122308Y0038304D01*
X0122192Y0038304D01*
X0122077Y0038308D01*
X0121962Y0038316D01*
X0121847Y0038328D01*
X0121732Y0038344D01*
X0121618Y0038364D01*
X0121505Y0038388D01*
X0121393Y0038416D01*
X0121282Y0038447D01*
X0121172Y0038482D01*
X0121063Y0038521D01*
X0120956Y0038564D01*
X0120850Y0038611D01*
X0120746Y0038661D01*
X0120644Y0038715D01*
X0120544Y0038772D01*
X0120445Y0038832D01*
X0120349Y0038896D01*
X0120255Y0038964D01*
X0120164Y0039034D01*
X0120075Y0039108D01*
X0119988Y0039184D01*
X0119905Y0039264D01*
X0119824Y0039346D01*
X0119745Y0039431D01*
X0119670Y0039519D01*
X0119598Y0039609D01*
X0119530Y0039702D01*
X0119464Y0039797D01*
X0119402Y0039894D01*
X0119343Y0039994D01*
X0119287Y0040095D01*
X0119235Y0040198D01*
X0119187Y0040303D01*
X0119142Y0040410D01*
X0119101Y0040518D01*
X0119064Y0040627D01*
X0119031Y0040738D01*
X0119001Y0040849D01*
X0118976Y0040962D01*
X0118954Y0041075D01*
X0118936Y0041189D01*
X0118922Y0041304D01*
X0118912Y0041419D01*
X0118906Y0041535D01*
X0118904Y0041650D01*
X0063250Y0074150D02*
X0063252Y0074311D01*
X0063258Y0074471D01*
X0063268Y0074632D01*
X0063282Y0074792D01*
X0063300Y0074952D01*
X0063321Y0075111D01*
X0063347Y0075270D01*
X0063377Y0075428D01*
X0063410Y0075585D01*
X0063448Y0075742D01*
X0063489Y0075897D01*
X0063534Y0076051D01*
X0063583Y0076204D01*
X0063636Y0076356D01*
X0063692Y0076507D01*
X0063753Y0076656D01*
X0063816Y0076804D01*
X0063884Y0076950D01*
X0063955Y0077094D01*
X0064029Y0077236D01*
X0064107Y0077377D01*
X0064189Y0077515D01*
X0064274Y0077652D01*
X0064362Y0077786D01*
X0064454Y0077918D01*
X0064549Y0078048D01*
X0064647Y0078176D01*
X0064748Y0078301D01*
X0064852Y0078423D01*
X0064959Y0078543D01*
X0065069Y0078660D01*
X0065182Y0078775D01*
X0065298Y0078886D01*
X0065417Y0078995D01*
X0065538Y0079100D01*
X0065662Y0079203D01*
X0065788Y0079303D01*
X0065916Y0079399D01*
X0066047Y0079492D01*
X0066181Y0079582D01*
X0066316Y0079669D01*
X0066454Y0079752D01*
X0066593Y0079832D01*
X0066735Y0079908D01*
X0066878Y0079981D01*
X0067023Y0080050D01*
X0067170Y0080116D01*
X0067318Y0080178D01*
X0067468Y0080236D01*
X0067619Y0080291D01*
X0067772Y0080342D01*
X0067926Y0080389D01*
X0068081Y0080432D01*
X0068237Y0080471D01*
X0068393Y0080507D01*
X0068551Y0080538D01*
X0068709Y0080566D01*
X0068868Y0080590D01*
X0069028Y0080610D01*
X0069188Y0080626D01*
X0069348Y0080638D01*
X0069509Y0080646D01*
X0069670Y0080650D01*
X0069830Y0080650D01*
X0069991Y0080646D01*
X0070152Y0080638D01*
X0070312Y0080626D01*
X0070472Y0080610D01*
X0070632Y0080590D01*
X0070791Y0080566D01*
X0070949Y0080538D01*
X0071107Y0080507D01*
X0071263Y0080471D01*
X0071419Y0080432D01*
X0071574Y0080389D01*
X0071728Y0080342D01*
X0071881Y0080291D01*
X0072032Y0080236D01*
X0072182Y0080178D01*
X0072330Y0080116D01*
X0072477Y0080050D01*
X0072622Y0079981D01*
X0072765Y0079908D01*
X0072907Y0079832D01*
X0073046Y0079752D01*
X0073184Y0079669D01*
X0073319Y0079582D01*
X0073453Y0079492D01*
X0073584Y0079399D01*
X0073712Y0079303D01*
X0073838Y0079203D01*
X0073962Y0079100D01*
X0074083Y0078995D01*
X0074202Y0078886D01*
X0074318Y0078775D01*
X0074431Y0078660D01*
X0074541Y0078543D01*
X0074648Y0078423D01*
X0074752Y0078301D01*
X0074853Y0078176D01*
X0074951Y0078048D01*
X0075046Y0077918D01*
X0075138Y0077786D01*
X0075226Y0077652D01*
X0075311Y0077515D01*
X0075393Y0077377D01*
X0075471Y0077236D01*
X0075545Y0077094D01*
X0075616Y0076950D01*
X0075684Y0076804D01*
X0075747Y0076656D01*
X0075808Y0076507D01*
X0075864Y0076356D01*
X0075917Y0076204D01*
X0075966Y0076051D01*
X0076011Y0075897D01*
X0076052Y0075742D01*
X0076090Y0075585D01*
X0076123Y0075428D01*
X0076153Y0075270D01*
X0076179Y0075111D01*
X0076200Y0074952D01*
X0076218Y0074792D01*
X0076232Y0074632D01*
X0076242Y0074471D01*
X0076248Y0074311D01*
X0076250Y0074150D01*
X0076248Y0073989D01*
X0076242Y0073829D01*
X0076232Y0073668D01*
X0076218Y0073508D01*
X0076200Y0073348D01*
X0076179Y0073189D01*
X0076153Y0073030D01*
X0076123Y0072872D01*
X0076090Y0072715D01*
X0076052Y0072558D01*
X0076011Y0072403D01*
X0075966Y0072249D01*
X0075917Y0072096D01*
X0075864Y0071944D01*
X0075808Y0071793D01*
X0075747Y0071644D01*
X0075684Y0071496D01*
X0075616Y0071350D01*
X0075545Y0071206D01*
X0075471Y0071064D01*
X0075393Y0070923D01*
X0075311Y0070785D01*
X0075226Y0070648D01*
X0075138Y0070514D01*
X0075046Y0070382D01*
X0074951Y0070252D01*
X0074853Y0070124D01*
X0074752Y0069999D01*
X0074648Y0069877D01*
X0074541Y0069757D01*
X0074431Y0069640D01*
X0074318Y0069525D01*
X0074202Y0069414D01*
X0074083Y0069305D01*
X0073962Y0069200D01*
X0073838Y0069097D01*
X0073712Y0068997D01*
X0073584Y0068901D01*
X0073453Y0068808D01*
X0073319Y0068718D01*
X0073184Y0068631D01*
X0073046Y0068548D01*
X0072907Y0068468D01*
X0072765Y0068392D01*
X0072622Y0068319D01*
X0072477Y0068250D01*
X0072330Y0068184D01*
X0072182Y0068122D01*
X0072032Y0068064D01*
X0071881Y0068009D01*
X0071728Y0067958D01*
X0071574Y0067911D01*
X0071419Y0067868D01*
X0071263Y0067829D01*
X0071107Y0067793D01*
X0070949Y0067762D01*
X0070791Y0067734D01*
X0070632Y0067710D01*
X0070472Y0067690D01*
X0070312Y0067674D01*
X0070152Y0067662D01*
X0069991Y0067654D01*
X0069830Y0067650D01*
X0069670Y0067650D01*
X0069509Y0067654D01*
X0069348Y0067662D01*
X0069188Y0067674D01*
X0069028Y0067690D01*
X0068868Y0067710D01*
X0068709Y0067734D01*
X0068551Y0067762D01*
X0068393Y0067793D01*
X0068237Y0067829D01*
X0068081Y0067868D01*
X0067926Y0067911D01*
X0067772Y0067958D01*
X0067619Y0068009D01*
X0067468Y0068064D01*
X0067318Y0068122D01*
X0067170Y0068184D01*
X0067023Y0068250D01*
X0066878Y0068319D01*
X0066735Y0068392D01*
X0066593Y0068468D01*
X0066454Y0068548D01*
X0066316Y0068631D01*
X0066181Y0068718D01*
X0066047Y0068808D01*
X0065916Y0068901D01*
X0065788Y0068997D01*
X0065662Y0069097D01*
X0065538Y0069200D01*
X0065417Y0069305D01*
X0065298Y0069414D01*
X0065182Y0069525D01*
X0065069Y0069640D01*
X0064959Y0069757D01*
X0064852Y0069877D01*
X0064748Y0069999D01*
X0064647Y0070124D01*
X0064549Y0070252D01*
X0064454Y0070382D01*
X0064362Y0070514D01*
X0064274Y0070648D01*
X0064189Y0070785D01*
X0064107Y0070923D01*
X0064029Y0071064D01*
X0063955Y0071206D01*
X0063884Y0071350D01*
X0063816Y0071496D01*
X0063753Y0071644D01*
X0063692Y0071793D01*
X0063636Y0071944D01*
X0063583Y0072096D01*
X0063534Y0072249D01*
X0063489Y0072403D01*
X0063448Y0072558D01*
X0063410Y0072715D01*
X0063377Y0072872D01*
X0063347Y0073030D01*
X0063321Y0073189D01*
X0063300Y0073348D01*
X0063282Y0073508D01*
X0063268Y0073668D01*
X0063258Y0073829D01*
X0063252Y0073989D01*
X0063250Y0074150D01*
X0053904Y0106650D02*
X0053906Y0106765D01*
X0053912Y0106881D01*
X0053922Y0106996D01*
X0053936Y0107111D01*
X0053954Y0107225D01*
X0053976Y0107338D01*
X0054001Y0107451D01*
X0054031Y0107562D01*
X0054064Y0107673D01*
X0054101Y0107782D01*
X0054142Y0107890D01*
X0054187Y0107997D01*
X0054235Y0108102D01*
X0054287Y0108205D01*
X0054343Y0108306D01*
X0054402Y0108406D01*
X0054464Y0108503D01*
X0054530Y0108598D01*
X0054598Y0108691D01*
X0054670Y0108781D01*
X0054745Y0108869D01*
X0054824Y0108954D01*
X0054905Y0109036D01*
X0054988Y0109116D01*
X0055075Y0109192D01*
X0055164Y0109266D01*
X0055255Y0109336D01*
X0055349Y0109404D01*
X0055445Y0109468D01*
X0055544Y0109528D01*
X0055644Y0109585D01*
X0055746Y0109639D01*
X0055850Y0109689D01*
X0055956Y0109736D01*
X0056063Y0109779D01*
X0056172Y0109818D01*
X0056282Y0109853D01*
X0056393Y0109884D01*
X0056505Y0109912D01*
X0056618Y0109936D01*
X0056732Y0109956D01*
X0056847Y0109972D01*
X0056962Y0109984D01*
X0057077Y0109992D01*
X0057192Y0109996D01*
X0057308Y0109996D01*
X0057423Y0109992D01*
X0057538Y0109984D01*
X0057653Y0109972D01*
X0057768Y0109956D01*
X0057882Y0109936D01*
X0057995Y0109912D01*
X0058107Y0109884D01*
X0058218Y0109853D01*
X0058328Y0109818D01*
X0058437Y0109779D01*
X0058544Y0109736D01*
X0058650Y0109689D01*
X0058754Y0109639D01*
X0058856Y0109585D01*
X0058956Y0109528D01*
X0059055Y0109468D01*
X0059151Y0109404D01*
X0059245Y0109336D01*
X0059336Y0109266D01*
X0059425Y0109192D01*
X0059512Y0109116D01*
X0059595Y0109036D01*
X0059676Y0108954D01*
X0059755Y0108869D01*
X0059830Y0108781D01*
X0059902Y0108691D01*
X0059970Y0108598D01*
X0060036Y0108503D01*
X0060098Y0108406D01*
X0060157Y0108306D01*
X0060213Y0108205D01*
X0060265Y0108102D01*
X0060313Y0107997D01*
X0060358Y0107890D01*
X0060399Y0107782D01*
X0060436Y0107673D01*
X0060469Y0107562D01*
X0060499Y0107451D01*
X0060524Y0107338D01*
X0060546Y0107225D01*
X0060564Y0107111D01*
X0060578Y0106996D01*
X0060588Y0106881D01*
X0060594Y0106765D01*
X0060596Y0106650D01*
X0060594Y0106535D01*
X0060588Y0106419D01*
X0060578Y0106304D01*
X0060564Y0106189D01*
X0060546Y0106075D01*
X0060524Y0105962D01*
X0060499Y0105849D01*
X0060469Y0105738D01*
X0060436Y0105627D01*
X0060399Y0105518D01*
X0060358Y0105410D01*
X0060313Y0105303D01*
X0060265Y0105198D01*
X0060213Y0105095D01*
X0060157Y0104994D01*
X0060098Y0104894D01*
X0060036Y0104797D01*
X0059970Y0104702D01*
X0059902Y0104609D01*
X0059830Y0104519D01*
X0059755Y0104431D01*
X0059676Y0104346D01*
X0059595Y0104264D01*
X0059512Y0104184D01*
X0059425Y0104108D01*
X0059336Y0104034D01*
X0059245Y0103964D01*
X0059151Y0103896D01*
X0059055Y0103832D01*
X0058956Y0103772D01*
X0058856Y0103715D01*
X0058754Y0103661D01*
X0058650Y0103611D01*
X0058544Y0103564D01*
X0058437Y0103521D01*
X0058328Y0103482D01*
X0058218Y0103447D01*
X0058107Y0103416D01*
X0057995Y0103388D01*
X0057882Y0103364D01*
X0057768Y0103344D01*
X0057653Y0103328D01*
X0057538Y0103316D01*
X0057423Y0103308D01*
X0057308Y0103304D01*
X0057192Y0103304D01*
X0057077Y0103308D01*
X0056962Y0103316D01*
X0056847Y0103328D01*
X0056732Y0103344D01*
X0056618Y0103364D01*
X0056505Y0103388D01*
X0056393Y0103416D01*
X0056282Y0103447D01*
X0056172Y0103482D01*
X0056063Y0103521D01*
X0055956Y0103564D01*
X0055850Y0103611D01*
X0055746Y0103661D01*
X0055644Y0103715D01*
X0055544Y0103772D01*
X0055445Y0103832D01*
X0055349Y0103896D01*
X0055255Y0103964D01*
X0055164Y0104034D01*
X0055075Y0104108D01*
X0054988Y0104184D01*
X0054905Y0104264D01*
X0054824Y0104346D01*
X0054745Y0104431D01*
X0054670Y0104519D01*
X0054598Y0104609D01*
X0054530Y0104702D01*
X0054464Y0104797D01*
X0054402Y0104894D01*
X0054343Y0104994D01*
X0054287Y0105095D01*
X0054235Y0105198D01*
X0054187Y0105303D01*
X0054142Y0105410D01*
X0054101Y0105518D01*
X0054064Y0105627D01*
X0054031Y0105738D01*
X0054001Y0105849D01*
X0053976Y0105962D01*
X0053954Y0106075D01*
X0053936Y0106189D01*
X0053922Y0106304D01*
X0053912Y0106419D01*
X0053906Y0106535D01*
X0053904Y0106650D01*
X0029376Y0106650D02*
X0029378Y0106843D01*
X0029385Y0107036D01*
X0029397Y0107229D01*
X0029414Y0107422D01*
X0029435Y0107614D01*
X0029461Y0107805D01*
X0029492Y0107996D01*
X0029527Y0108186D01*
X0029567Y0108375D01*
X0029612Y0108563D01*
X0029661Y0108750D01*
X0029715Y0108936D01*
X0029773Y0109120D01*
X0029836Y0109303D01*
X0029904Y0109484D01*
X0029975Y0109663D01*
X0030052Y0109841D01*
X0030132Y0110017D01*
X0030217Y0110190D01*
X0030306Y0110362D01*
X0030399Y0110531D01*
X0030496Y0110698D01*
X0030598Y0110863D01*
X0030703Y0111025D01*
X0030812Y0111184D01*
X0030926Y0111341D01*
X0031043Y0111494D01*
X0031163Y0111645D01*
X0031288Y0111793D01*
X0031416Y0111938D01*
X0031547Y0112079D01*
X0031682Y0112218D01*
X0031821Y0112353D01*
X0031962Y0112484D01*
X0032107Y0112612D01*
X0032255Y0112737D01*
X0032406Y0112857D01*
X0032559Y0112974D01*
X0032716Y0113088D01*
X0032875Y0113197D01*
X0033037Y0113302D01*
X0033202Y0113404D01*
X0033369Y0113501D01*
X0033538Y0113594D01*
X0033710Y0113683D01*
X0033883Y0113768D01*
X0034059Y0113848D01*
X0034237Y0113925D01*
X0034416Y0113996D01*
X0034597Y0114064D01*
X0034780Y0114127D01*
X0034964Y0114185D01*
X0035150Y0114239D01*
X0035337Y0114288D01*
X0035525Y0114333D01*
X0035714Y0114373D01*
X0035904Y0114408D01*
X0036095Y0114439D01*
X0036286Y0114465D01*
X0036478Y0114486D01*
X0036671Y0114503D01*
X0036864Y0114515D01*
X0037057Y0114522D01*
X0037250Y0114524D01*
X0037443Y0114522D01*
X0037636Y0114515D01*
X0037829Y0114503D01*
X0038022Y0114486D01*
X0038214Y0114465D01*
X0038405Y0114439D01*
X0038596Y0114408D01*
X0038786Y0114373D01*
X0038975Y0114333D01*
X0039163Y0114288D01*
X0039350Y0114239D01*
X0039536Y0114185D01*
X0039720Y0114127D01*
X0039903Y0114064D01*
X0040084Y0113996D01*
X0040263Y0113925D01*
X0040441Y0113848D01*
X0040617Y0113768D01*
X0040790Y0113683D01*
X0040962Y0113594D01*
X0041131Y0113501D01*
X0041298Y0113404D01*
X0041463Y0113302D01*
X0041625Y0113197D01*
X0041784Y0113088D01*
X0041941Y0112974D01*
X0042094Y0112857D01*
X0042245Y0112737D01*
X0042393Y0112612D01*
X0042538Y0112484D01*
X0042679Y0112353D01*
X0042818Y0112218D01*
X0042953Y0112079D01*
X0043084Y0111938D01*
X0043212Y0111793D01*
X0043337Y0111645D01*
X0043457Y0111494D01*
X0043574Y0111341D01*
X0043688Y0111184D01*
X0043797Y0111025D01*
X0043902Y0110863D01*
X0044004Y0110698D01*
X0044101Y0110531D01*
X0044194Y0110362D01*
X0044283Y0110190D01*
X0044368Y0110017D01*
X0044448Y0109841D01*
X0044525Y0109663D01*
X0044596Y0109484D01*
X0044664Y0109303D01*
X0044727Y0109120D01*
X0044785Y0108936D01*
X0044839Y0108750D01*
X0044888Y0108563D01*
X0044933Y0108375D01*
X0044973Y0108186D01*
X0045008Y0107996D01*
X0045039Y0107805D01*
X0045065Y0107614D01*
X0045086Y0107422D01*
X0045103Y0107229D01*
X0045115Y0107036D01*
X0045122Y0106843D01*
X0045124Y0106650D01*
X0045122Y0106457D01*
X0045115Y0106264D01*
X0045103Y0106071D01*
X0045086Y0105878D01*
X0045065Y0105686D01*
X0045039Y0105495D01*
X0045008Y0105304D01*
X0044973Y0105114D01*
X0044933Y0104925D01*
X0044888Y0104737D01*
X0044839Y0104550D01*
X0044785Y0104364D01*
X0044727Y0104180D01*
X0044664Y0103997D01*
X0044596Y0103816D01*
X0044525Y0103637D01*
X0044448Y0103459D01*
X0044368Y0103283D01*
X0044283Y0103110D01*
X0044194Y0102938D01*
X0044101Y0102769D01*
X0044004Y0102602D01*
X0043902Y0102437D01*
X0043797Y0102275D01*
X0043688Y0102116D01*
X0043574Y0101959D01*
X0043457Y0101806D01*
X0043337Y0101655D01*
X0043212Y0101507D01*
X0043084Y0101362D01*
X0042953Y0101221D01*
X0042818Y0101082D01*
X0042679Y0100947D01*
X0042538Y0100816D01*
X0042393Y0100688D01*
X0042245Y0100563D01*
X0042094Y0100443D01*
X0041941Y0100326D01*
X0041784Y0100212D01*
X0041625Y0100103D01*
X0041463Y0099998D01*
X0041298Y0099896D01*
X0041131Y0099799D01*
X0040962Y0099706D01*
X0040790Y0099617D01*
X0040617Y0099532D01*
X0040441Y0099452D01*
X0040263Y0099375D01*
X0040084Y0099304D01*
X0039903Y0099236D01*
X0039720Y0099173D01*
X0039536Y0099115D01*
X0039350Y0099061D01*
X0039163Y0099012D01*
X0038975Y0098967D01*
X0038786Y0098927D01*
X0038596Y0098892D01*
X0038405Y0098861D01*
X0038214Y0098835D01*
X0038022Y0098814D01*
X0037829Y0098797D01*
X0037636Y0098785D01*
X0037443Y0098778D01*
X0037250Y0098776D01*
X0037057Y0098778D01*
X0036864Y0098785D01*
X0036671Y0098797D01*
X0036478Y0098814D01*
X0036286Y0098835D01*
X0036095Y0098861D01*
X0035904Y0098892D01*
X0035714Y0098927D01*
X0035525Y0098967D01*
X0035337Y0099012D01*
X0035150Y0099061D01*
X0034964Y0099115D01*
X0034780Y0099173D01*
X0034597Y0099236D01*
X0034416Y0099304D01*
X0034237Y0099375D01*
X0034059Y0099452D01*
X0033883Y0099532D01*
X0033710Y0099617D01*
X0033538Y0099706D01*
X0033369Y0099799D01*
X0033202Y0099896D01*
X0033037Y0099998D01*
X0032875Y0100103D01*
X0032716Y0100212D01*
X0032559Y0100326D01*
X0032406Y0100443D01*
X0032255Y0100563D01*
X0032107Y0100688D01*
X0031962Y0100816D01*
X0031821Y0100947D01*
X0031682Y0101082D01*
X0031547Y0101221D01*
X0031416Y0101362D01*
X0031288Y0101507D01*
X0031163Y0101655D01*
X0031043Y0101806D01*
X0030926Y0101959D01*
X0030812Y0102116D01*
X0030703Y0102275D01*
X0030598Y0102437D01*
X0030496Y0102602D01*
X0030399Y0102769D01*
X0030306Y0102938D01*
X0030217Y0103110D01*
X0030132Y0103283D01*
X0030052Y0103459D01*
X0029975Y0103637D01*
X0029904Y0103816D01*
X0029836Y0103997D01*
X0029773Y0104180D01*
X0029715Y0104364D01*
X0029661Y0104550D01*
X0029612Y0104737D01*
X0029567Y0104925D01*
X0029527Y0105114D01*
X0029492Y0105304D01*
X0029461Y0105495D01*
X0029435Y0105686D01*
X0029414Y0105878D01*
X0029397Y0106071D01*
X0029385Y0106264D01*
X0029378Y0106457D01*
X0029376Y0106650D01*
X0013904Y0106650D02*
X0013906Y0106765D01*
X0013912Y0106881D01*
X0013922Y0106996D01*
X0013936Y0107111D01*
X0013954Y0107225D01*
X0013976Y0107338D01*
X0014001Y0107451D01*
X0014031Y0107562D01*
X0014064Y0107673D01*
X0014101Y0107782D01*
X0014142Y0107890D01*
X0014187Y0107997D01*
X0014235Y0108102D01*
X0014287Y0108205D01*
X0014343Y0108306D01*
X0014402Y0108406D01*
X0014464Y0108503D01*
X0014530Y0108598D01*
X0014598Y0108691D01*
X0014670Y0108781D01*
X0014745Y0108869D01*
X0014824Y0108954D01*
X0014905Y0109036D01*
X0014988Y0109116D01*
X0015075Y0109192D01*
X0015164Y0109266D01*
X0015255Y0109336D01*
X0015349Y0109404D01*
X0015445Y0109468D01*
X0015544Y0109528D01*
X0015644Y0109585D01*
X0015746Y0109639D01*
X0015850Y0109689D01*
X0015956Y0109736D01*
X0016063Y0109779D01*
X0016172Y0109818D01*
X0016282Y0109853D01*
X0016393Y0109884D01*
X0016505Y0109912D01*
X0016618Y0109936D01*
X0016732Y0109956D01*
X0016847Y0109972D01*
X0016962Y0109984D01*
X0017077Y0109992D01*
X0017192Y0109996D01*
X0017308Y0109996D01*
X0017423Y0109992D01*
X0017538Y0109984D01*
X0017653Y0109972D01*
X0017768Y0109956D01*
X0017882Y0109936D01*
X0017995Y0109912D01*
X0018107Y0109884D01*
X0018218Y0109853D01*
X0018328Y0109818D01*
X0018437Y0109779D01*
X0018544Y0109736D01*
X0018650Y0109689D01*
X0018754Y0109639D01*
X0018856Y0109585D01*
X0018956Y0109528D01*
X0019055Y0109468D01*
X0019151Y0109404D01*
X0019245Y0109336D01*
X0019336Y0109266D01*
X0019425Y0109192D01*
X0019512Y0109116D01*
X0019595Y0109036D01*
X0019676Y0108954D01*
X0019755Y0108869D01*
X0019830Y0108781D01*
X0019902Y0108691D01*
X0019970Y0108598D01*
X0020036Y0108503D01*
X0020098Y0108406D01*
X0020157Y0108306D01*
X0020213Y0108205D01*
X0020265Y0108102D01*
X0020313Y0107997D01*
X0020358Y0107890D01*
X0020399Y0107782D01*
X0020436Y0107673D01*
X0020469Y0107562D01*
X0020499Y0107451D01*
X0020524Y0107338D01*
X0020546Y0107225D01*
X0020564Y0107111D01*
X0020578Y0106996D01*
X0020588Y0106881D01*
X0020594Y0106765D01*
X0020596Y0106650D01*
X0020594Y0106535D01*
X0020588Y0106419D01*
X0020578Y0106304D01*
X0020564Y0106189D01*
X0020546Y0106075D01*
X0020524Y0105962D01*
X0020499Y0105849D01*
X0020469Y0105738D01*
X0020436Y0105627D01*
X0020399Y0105518D01*
X0020358Y0105410D01*
X0020313Y0105303D01*
X0020265Y0105198D01*
X0020213Y0105095D01*
X0020157Y0104994D01*
X0020098Y0104894D01*
X0020036Y0104797D01*
X0019970Y0104702D01*
X0019902Y0104609D01*
X0019830Y0104519D01*
X0019755Y0104431D01*
X0019676Y0104346D01*
X0019595Y0104264D01*
X0019512Y0104184D01*
X0019425Y0104108D01*
X0019336Y0104034D01*
X0019245Y0103964D01*
X0019151Y0103896D01*
X0019055Y0103832D01*
X0018956Y0103772D01*
X0018856Y0103715D01*
X0018754Y0103661D01*
X0018650Y0103611D01*
X0018544Y0103564D01*
X0018437Y0103521D01*
X0018328Y0103482D01*
X0018218Y0103447D01*
X0018107Y0103416D01*
X0017995Y0103388D01*
X0017882Y0103364D01*
X0017768Y0103344D01*
X0017653Y0103328D01*
X0017538Y0103316D01*
X0017423Y0103308D01*
X0017308Y0103304D01*
X0017192Y0103304D01*
X0017077Y0103308D01*
X0016962Y0103316D01*
X0016847Y0103328D01*
X0016732Y0103344D01*
X0016618Y0103364D01*
X0016505Y0103388D01*
X0016393Y0103416D01*
X0016282Y0103447D01*
X0016172Y0103482D01*
X0016063Y0103521D01*
X0015956Y0103564D01*
X0015850Y0103611D01*
X0015746Y0103661D01*
X0015644Y0103715D01*
X0015544Y0103772D01*
X0015445Y0103832D01*
X0015349Y0103896D01*
X0015255Y0103964D01*
X0015164Y0104034D01*
X0015075Y0104108D01*
X0014988Y0104184D01*
X0014905Y0104264D01*
X0014824Y0104346D01*
X0014745Y0104431D01*
X0014670Y0104519D01*
X0014598Y0104609D01*
X0014530Y0104702D01*
X0014464Y0104797D01*
X0014402Y0104894D01*
X0014343Y0104994D01*
X0014287Y0105095D01*
X0014235Y0105198D01*
X0014187Y0105303D01*
X0014142Y0105410D01*
X0014101Y0105518D01*
X0014064Y0105627D01*
X0014031Y0105738D01*
X0014001Y0105849D01*
X0013976Y0105962D01*
X0013954Y0106075D01*
X0013936Y0106189D01*
X0013922Y0106304D01*
X0013912Y0106419D01*
X0013906Y0106535D01*
X0013904Y0106650D01*
X0013904Y0171650D02*
X0013906Y0171765D01*
X0013912Y0171881D01*
X0013922Y0171996D01*
X0013936Y0172111D01*
X0013954Y0172225D01*
X0013976Y0172338D01*
X0014001Y0172451D01*
X0014031Y0172562D01*
X0014064Y0172673D01*
X0014101Y0172782D01*
X0014142Y0172890D01*
X0014187Y0172997D01*
X0014235Y0173102D01*
X0014287Y0173205D01*
X0014343Y0173306D01*
X0014402Y0173406D01*
X0014464Y0173503D01*
X0014530Y0173598D01*
X0014598Y0173691D01*
X0014670Y0173781D01*
X0014745Y0173869D01*
X0014824Y0173954D01*
X0014905Y0174036D01*
X0014988Y0174116D01*
X0015075Y0174192D01*
X0015164Y0174266D01*
X0015255Y0174336D01*
X0015349Y0174404D01*
X0015445Y0174468D01*
X0015544Y0174528D01*
X0015644Y0174585D01*
X0015746Y0174639D01*
X0015850Y0174689D01*
X0015956Y0174736D01*
X0016063Y0174779D01*
X0016172Y0174818D01*
X0016282Y0174853D01*
X0016393Y0174884D01*
X0016505Y0174912D01*
X0016618Y0174936D01*
X0016732Y0174956D01*
X0016847Y0174972D01*
X0016962Y0174984D01*
X0017077Y0174992D01*
X0017192Y0174996D01*
X0017308Y0174996D01*
X0017423Y0174992D01*
X0017538Y0174984D01*
X0017653Y0174972D01*
X0017768Y0174956D01*
X0017882Y0174936D01*
X0017995Y0174912D01*
X0018107Y0174884D01*
X0018218Y0174853D01*
X0018328Y0174818D01*
X0018437Y0174779D01*
X0018544Y0174736D01*
X0018650Y0174689D01*
X0018754Y0174639D01*
X0018856Y0174585D01*
X0018956Y0174528D01*
X0019055Y0174468D01*
X0019151Y0174404D01*
X0019245Y0174336D01*
X0019336Y0174266D01*
X0019425Y0174192D01*
X0019512Y0174116D01*
X0019595Y0174036D01*
X0019676Y0173954D01*
X0019755Y0173869D01*
X0019830Y0173781D01*
X0019902Y0173691D01*
X0019970Y0173598D01*
X0020036Y0173503D01*
X0020098Y0173406D01*
X0020157Y0173306D01*
X0020213Y0173205D01*
X0020265Y0173102D01*
X0020313Y0172997D01*
X0020358Y0172890D01*
X0020399Y0172782D01*
X0020436Y0172673D01*
X0020469Y0172562D01*
X0020499Y0172451D01*
X0020524Y0172338D01*
X0020546Y0172225D01*
X0020564Y0172111D01*
X0020578Y0171996D01*
X0020588Y0171881D01*
X0020594Y0171765D01*
X0020596Y0171650D01*
X0020594Y0171535D01*
X0020588Y0171419D01*
X0020578Y0171304D01*
X0020564Y0171189D01*
X0020546Y0171075D01*
X0020524Y0170962D01*
X0020499Y0170849D01*
X0020469Y0170738D01*
X0020436Y0170627D01*
X0020399Y0170518D01*
X0020358Y0170410D01*
X0020313Y0170303D01*
X0020265Y0170198D01*
X0020213Y0170095D01*
X0020157Y0169994D01*
X0020098Y0169894D01*
X0020036Y0169797D01*
X0019970Y0169702D01*
X0019902Y0169609D01*
X0019830Y0169519D01*
X0019755Y0169431D01*
X0019676Y0169346D01*
X0019595Y0169264D01*
X0019512Y0169184D01*
X0019425Y0169108D01*
X0019336Y0169034D01*
X0019245Y0168964D01*
X0019151Y0168896D01*
X0019055Y0168832D01*
X0018956Y0168772D01*
X0018856Y0168715D01*
X0018754Y0168661D01*
X0018650Y0168611D01*
X0018544Y0168564D01*
X0018437Y0168521D01*
X0018328Y0168482D01*
X0018218Y0168447D01*
X0018107Y0168416D01*
X0017995Y0168388D01*
X0017882Y0168364D01*
X0017768Y0168344D01*
X0017653Y0168328D01*
X0017538Y0168316D01*
X0017423Y0168308D01*
X0017308Y0168304D01*
X0017192Y0168304D01*
X0017077Y0168308D01*
X0016962Y0168316D01*
X0016847Y0168328D01*
X0016732Y0168344D01*
X0016618Y0168364D01*
X0016505Y0168388D01*
X0016393Y0168416D01*
X0016282Y0168447D01*
X0016172Y0168482D01*
X0016063Y0168521D01*
X0015956Y0168564D01*
X0015850Y0168611D01*
X0015746Y0168661D01*
X0015644Y0168715D01*
X0015544Y0168772D01*
X0015445Y0168832D01*
X0015349Y0168896D01*
X0015255Y0168964D01*
X0015164Y0169034D01*
X0015075Y0169108D01*
X0014988Y0169184D01*
X0014905Y0169264D01*
X0014824Y0169346D01*
X0014745Y0169431D01*
X0014670Y0169519D01*
X0014598Y0169609D01*
X0014530Y0169702D01*
X0014464Y0169797D01*
X0014402Y0169894D01*
X0014343Y0169994D01*
X0014287Y0170095D01*
X0014235Y0170198D01*
X0014187Y0170303D01*
X0014142Y0170410D01*
X0014101Y0170518D01*
X0014064Y0170627D01*
X0014031Y0170738D01*
X0014001Y0170849D01*
X0013976Y0170962D01*
X0013954Y0171075D01*
X0013936Y0171189D01*
X0013922Y0171304D01*
X0013912Y0171419D01*
X0013906Y0171535D01*
X0013904Y0171650D01*
X0029376Y0171650D02*
X0029378Y0171843D01*
X0029385Y0172036D01*
X0029397Y0172229D01*
X0029414Y0172422D01*
X0029435Y0172614D01*
X0029461Y0172805D01*
X0029492Y0172996D01*
X0029527Y0173186D01*
X0029567Y0173375D01*
X0029612Y0173563D01*
X0029661Y0173750D01*
X0029715Y0173936D01*
X0029773Y0174120D01*
X0029836Y0174303D01*
X0029904Y0174484D01*
X0029975Y0174663D01*
X0030052Y0174841D01*
X0030132Y0175017D01*
X0030217Y0175190D01*
X0030306Y0175362D01*
X0030399Y0175531D01*
X0030496Y0175698D01*
X0030598Y0175863D01*
X0030703Y0176025D01*
X0030812Y0176184D01*
X0030926Y0176341D01*
X0031043Y0176494D01*
X0031163Y0176645D01*
X0031288Y0176793D01*
X0031416Y0176938D01*
X0031547Y0177079D01*
X0031682Y0177218D01*
X0031821Y0177353D01*
X0031962Y0177484D01*
X0032107Y0177612D01*
X0032255Y0177737D01*
X0032406Y0177857D01*
X0032559Y0177974D01*
X0032716Y0178088D01*
X0032875Y0178197D01*
X0033037Y0178302D01*
X0033202Y0178404D01*
X0033369Y0178501D01*
X0033538Y0178594D01*
X0033710Y0178683D01*
X0033883Y0178768D01*
X0034059Y0178848D01*
X0034237Y0178925D01*
X0034416Y0178996D01*
X0034597Y0179064D01*
X0034780Y0179127D01*
X0034964Y0179185D01*
X0035150Y0179239D01*
X0035337Y0179288D01*
X0035525Y0179333D01*
X0035714Y0179373D01*
X0035904Y0179408D01*
X0036095Y0179439D01*
X0036286Y0179465D01*
X0036478Y0179486D01*
X0036671Y0179503D01*
X0036864Y0179515D01*
X0037057Y0179522D01*
X0037250Y0179524D01*
X0037443Y0179522D01*
X0037636Y0179515D01*
X0037829Y0179503D01*
X0038022Y0179486D01*
X0038214Y0179465D01*
X0038405Y0179439D01*
X0038596Y0179408D01*
X0038786Y0179373D01*
X0038975Y0179333D01*
X0039163Y0179288D01*
X0039350Y0179239D01*
X0039536Y0179185D01*
X0039720Y0179127D01*
X0039903Y0179064D01*
X0040084Y0178996D01*
X0040263Y0178925D01*
X0040441Y0178848D01*
X0040617Y0178768D01*
X0040790Y0178683D01*
X0040962Y0178594D01*
X0041131Y0178501D01*
X0041298Y0178404D01*
X0041463Y0178302D01*
X0041625Y0178197D01*
X0041784Y0178088D01*
X0041941Y0177974D01*
X0042094Y0177857D01*
X0042245Y0177737D01*
X0042393Y0177612D01*
X0042538Y0177484D01*
X0042679Y0177353D01*
X0042818Y0177218D01*
X0042953Y0177079D01*
X0043084Y0176938D01*
X0043212Y0176793D01*
X0043337Y0176645D01*
X0043457Y0176494D01*
X0043574Y0176341D01*
X0043688Y0176184D01*
X0043797Y0176025D01*
X0043902Y0175863D01*
X0044004Y0175698D01*
X0044101Y0175531D01*
X0044194Y0175362D01*
X0044283Y0175190D01*
X0044368Y0175017D01*
X0044448Y0174841D01*
X0044525Y0174663D01*
X0044596Y0174484D01*
X0044664Y0174303D01*
X0044727Y0174120D01*
X0044785Y0173936D01*
X0044839Y0173750D01*
X0044888Y0173563D01*
X0044933Y0173375D01*
X0044973Y0173186D01*
X0045008Y0172996D01*
X0045039Y0172805D01*
X0045065Y0172614D01*
X0045086Y0172422D01*
X0045103Y0172229D01*
X0045115Y0172036D01*
X0045122Y0171843D01*
X0045124Y0171650D01*
X0045122Y0171457D01*
X0045115Y0171264D01*
X0045103Y0171071D01*
X0045086Y0170878D01*
X0045065Y0170686D01*
X0045039Y0170495D01*
X0045008Y0170304D01*
X0044973Y0170114D01*
X0044933Y0169925D01*
X0044888Y0169737D01*
X0044839Y0169550D01*
X0044785Y0169364D01*
X0044727Y0169180D01*
X0044664Y0168997D01*
X0044596Y0168816D01*
X0044525Y0168637D01*
X0044448Y0168459D01*
X0044368Y0168283D01*
X0044283Y0168110D01*
X0044194Y0167938D01*
X0044101Y0167769D01*
X0044004Y0167602D01*
X0043902Y0167437D01*
X0043797Y0167275D01*
X0043688Y0167116D01*
X0043574Y0166959D01*
X0043457Y0166806D01*
X0043337Y0166655D01*
X0043212Y0166507D01*
X0043084Y0166362D01*
X0042953Y0166221D01*
X0042818Y0166082D01*
X0042679Y0165947D01*
X0042538Y0165816D01*
X0042393Y0165688D01*
X0042245Y0165563D01*
X0042094Y0165443D01*
X0041941Y0165326D01*
X0041784Y0165212D01*
X0041625Y0165103D01*
X0041463Y0164998D01*
X0041298Y0164896D01*
X0041131Y0164799D01*
X0040962Y0164706D01*
X0040790Y0164617D01*
X0040617Y0164532D01*
X0040441Y0164452D01*
X0040263Y0164375D01*
X0040084Y0164304D01*
X0039903Y0164236D01*
X0039720Y0164173D01*
X0039536Y0164115D01*
X0039350Y0164061D01*
X0039163Y0164012D01*
X0038975Y0163967D01*
X0038786Y0163927D01*
X0038596Y0163892D01*
X0038405Y0163861D01*
X0038214Y0163835D01*
X0038022Y0163814D01*
X0037829Y0163797D01*
X0037636Y0163785D01*
X0037443Y0163778D01*
X0037250Y0163776D01*
X0037057Y0163778D01*
X0036864Y0163785D01*
X0036671Y0163797D01*
X0036478Y0163814D01*
X0036286Y0163835D01*
X0036095Y0163861D01*
X0035904Y0163892D01*
X0035714Y0163927D01*
X0035525Y0163967D01*
X0035337Y0164012D01*
X0035150Y0164061D01*
X0034964Y0164115D01*
X0034780Y0164173D01*
X0034597Y0164236D01*
X0034416Y0164304D01*
X0034237Y0164375D01*
X0034059Y0164452D01*
X0033883Y0164532D01*
X0033710Y0164617D01*
X0033538Y0164706D01*
X0033369Y0164799D01*
X0033202Y0164896D01*
X0033037Y0164998D01*
X0032875Y0165103D01*
X0032716Y0165212D01*
X0032559Y0165326D01*
X0032406Y0165443D01*
X0032255Y0165563D01*
X0032107Y0165688D01*
X0031962Y0165816D01*
X0031821Y0165947D01*
X0031682Y0166082D01*
X0031547Y0166221D01*
X0031416Y0166362D01*
X0031288Y0166507D01*
X0031163Y0166655D01*
X0031043Y0166806D01*
X0030926Y0166959D01*
X0030812Y0167116D01*
X0030703Y0167275D01*
X0030598Y0167437D01*
X0030496Y0167602D01*
X0030399Y0167769D01*
X0030306Y0167938D01*
X0030217Y0168110D01*
X0030132Y0168283D01*
X0030052Y0168459D01*
X0029975Y0168637D01*
X0029904Y0168816D01*
X0029836Y0168997D01*
X0029773Y0169180D01*
X0029715Y0169364D01*
X0029661Y0169550D01*
X0029612Y0169737D01*
X0029567Y0169925D01*
X0029527Y0170114D01*
X0029492Y0170304D01*
X0029461Y0170495D01*
X0029435Y0170686D01*
X0029414Y0170878D01*
X0029397Y0171071D01*
X0029385Y0171264D01*
X0029378Y0171457D01*
X0029376Y0171650D01*
X0053904Y0171650D02*
X0053906Y0171765D01*
X0053912Y0171881D01*
X0053922Y0171996D01*
X0053936Y0172111D01*
X0053954Y0172225D01*
X0053976Y0172338D01*
X0054001Y0172451D01*
X0054031Y0172562D01*
X0054064Y0172673D01*
X0054101Y0172782D01*
X0054142Y0172890D01*
X0054187Y0172997D01*
X0054235Y0173102D01*
X0054287Y0173205D01*
X0054343Y0173306D01*
X0054402Y0173406D01*
X0054464Y0173503D01*
X0054530Y0173598D01*
X0054598Y0173691D01*
X0054670Y0173781D01*
X0054745Y0173869D01*
X0054824Y0173954D01*
X0054905Y0174036D01*
X0054988Y0174116D01*
X0055075Y0174192D01*
X0055164Y0174266D01*
X0055255Y0174336D01*
X0055349Y0174404D01*
X0055445Y0174468D01*
X0055544Y0174528D01*
X0055644Y0174585D01*
X0055746Y0174639D01*
X0055850Y0174689D01*
X0055956Y0174736D01*
X0056063Y0174779D01*
X0056172Y0174818D01*
X0056282Y0174853D01*
X0056393Y0174884D01*
X0056505Y0174912D01*
X0056618Y0174936D01*
X0056732Y0174956D01*
X0056847Y0174972D01*
X0056962Y0174984D01*
X0057077Y0174992D01*
X0057192Y0174996D01*
X0057308Y0174996D01*
X0057423Y0174992D01*
X0057538Y0174984D01*
X0057653Y0174972D01*
X0057768Y0174956D01*
X0057882Y0174936D01*
X0057995Y0174912D01*
X0058107Y0174884D01*
X0058218Y0174853D01*
X0058328Y0174818D01*
X0058437Y0174779D01*
X0058544Y0174736D01*
X0058650Y0174689D01*
X0058754Y0174639D01*
X0058856Y0174585D01*
X0058956Y0174528D01*
X0059055Y0174468D01*
X0059151Y0174404D01*
X0059245Y0174336D01*
X0059336Y0174266D01*
X0059425Y0174192D01*
X0059512Y0174116D01*
X0059595Y0174036D01*
X0059676Y0173954D01*
X0059755Y0173869D01*
X0059830Y0173781D01*
X0059902Y0173691D01*
X0059970Y0173598D01*
X0060036Y0173503D01*
X0060098Y0173406D01*
X0060157Y0173306D01*
X0060213Y0173205D01*
X0060265Y0173102D01*
X0060313Y0172997D01*
X0060358Y0172890D01*
X0060399Y0172782D01*
X0060436Y0172673D01*
X0060469Y0172562D01*
X0060499Y0172451D01*
X0060524Y0172338D01*
X0060546Y0172225D01*
X0060564Y0172111D01*
X0060578Y0171996D01*
X0060588Y0171881D01*
X0060594Y0171765D01*
X0060596Y0171650D01*
X0060594Y0171535D01*
X0060588Y0171419D01*
X0060578Y0171304D01*
X0060564Y0171189D01*
X0060546Y0171075D01*
X0060524Y0170962D01*
X0060499Y0170849D01*
X0060469Y0170738D01*
X0060436Y0170627D01*
X0060399Y0170518D01*
X0060358Y0170410D01*
X0060313Y0170303D01*
X0060265Y0170198D01*
X0060213Y0170095D01*
X0060157Y0169994D01*
X0060098Y0169894D01*
X0060036Y0169797D01*
X0059970Y0169702D01*
X0059902Y0169609D01*
X0059830Y0169519D01*
X0059755Y0169431D01*
X0059676Y0169346D01*
X0059595Y0169264D01*
X0059512Y0169184D01*
X0059425Y0169108D01*
X0059336Y0169034D01*
X0059245Y0168964D01*
X0059151Y0168896D01*
X0059055Y0168832D01*
X0058956Y0168772D01*
X0058856Y0168715D01*
X0058754Y0168661D01*
X0058650Y0168611D01*
X0058544Y0168564D01*
X0058437Y0168521D01*
X0058328Y0168482D01*
X0058218Y0168447D01*
X0058107Y0168416D01*
X0057995Y0168388D01*
X0057882Y0168364D01*
X0057768Y0168344D01*
X0057653Y0168328D01*
X0057538Y0168316D01*
X0057423Y0168308D01*
X0057308Y0168304D01*
X0057192Y0168304D01*
X0057077Y0168308D01*
X0056962Y0168316D01*
X0056847Y0168328D01*
X0056732Y0168344D01*
X0056618Y0168364D01*
X0056505Y0168388D01*
X0056393Y0168416D01*
X0056282Y0168447D01*
X0056172Y0168482D01*
X0056063Y0168521D01*
X0055956Y0168564D01*
X0055850Y0168611D01*
X0055746Y0168661D01*
X0055644Y0168715D01*
X0055544Y0168772D01*
X0055445Y0168832D01*
X0055349Y0168896D01*
X0055255Y0168964D01*
X0055164Y0169034D01*
X0055075Y0169108D01*
X0054988Y0169184D01*
X0054905Y0169264D01*
X0054824Y0169346D01*
X0054745Y0169431D01*
X0054670Y0169519D01*
X0054598Y0169609D01*
X0054530Y0169702D01*
X0054464Y0169797D01*
X0054402Y0169894D01*
X0054343Y0169994D01*
X0054287Y0170095D01*
X0054235Y0170198D01*
X0054187Y0170303D01*
X0054142Y0170410D01*
X0054101Y0170518D01*
X0054064Y0170627D01*
X0054031Y0170738D01*
X0054001Y0170849D01*
X0053976Y0170962D01*
X0053954Y0171075D01*
X0053936Y0171189D01*
X0053922Y0171304D01*
X0053912Y0171419D01*
X0053906Y0171535D01*
X0053904Y0171650D01*
X0078904Y0171650D02*
X0078906Y0171765D01*
X0078912Y0171881D01*
X0078922Y0171996D01*
X0078936Y0172111D01*
X0078954Y0172225D01*
X0078976Y0172338D01*
X0079001Y0172451D01*
X0079031Y0172562D01*
X0079064Y0172673D01*
X0079101Y0172782D01*
X0079142Y0172890D01*
X0079187Y0172997D01*
X0079235Y0173102D01*
X0079287Y0173205D01*
X0079343Y0173306D01*
X0079402Y0173406D01*
X0079464Y0173503D01*
X0079530Y0173598D01*
X0079598Y0173691D01*
X0079670Y0173781D01*
X0079745Y0173869D01*
X0079824Y0173954D01*
X0079905Y0174036D01*
X0079988Y0174116D01*
X0080075Y0174192D01*
X0080164Y0174266D01*
X0080255Y0174336D01*
X0080349Y0174404D01*
X0080445Y0174468D01*
X0080544Y0174528D01*
X0080644Y0174585D01*
X0080746Y0174639D01*
X0080850Y0174689D01*
X0080956Y0174736D01*
X0081063Y0174779D01*
X0081172Y0174818D01*
X0081282Y0174853D01*
X0081393Y0174884D01*
X0081505Y0174912D01*
X0081618Y0174936D01*
X0081732Y0174956D01*
X0081847Y0174972D01*
X0081962Y0174984D01*
X0082077Y0174992D01*
X0082192Y0174996D01*
X0082308Y0174996D01*
X0082423Y0174992D01*
X0082538Y0174984D01*
X0082653Y0174972D01*
X0082768Y0174956D01*
X0082882Y0174936D01*
X0082995Y0174912D01*
X0083107Y0174884D01*
X0083218Y0174853D01*
X0083328Y0174818D01*
X0083437Y0174779D01*
X0083544Y0174736D01*
X0083650Y0174689D01*
X0083754Y0174639D01*
X0083856Y0174585D01*
X0083956Y0174528D01*
X0084055Y0174468D01*
X0084151Y0174404D01*
X0084245Y0174336D01*
X0084336Y0174266D01*
X0084425Y0174192D01*
X0084512Y0174116D01*
X0084595Y0174036D01*
X0084676Y0173954D01*
X0084755Y0173869D01*
X0084830Y0173781D01*
X0084902Y0173691D01*
X0084970Y0173598D01*
X0085036Y0173503D01*
X0085098Y0173406D01*
X0085157Y0173306D01*
X0085213Y0173205D01*
X0085265Y0173102D01*
X0085313Y0172997D01*
X0085358Y0172890D01*
X0085399Y0172782D01*
X0085436Y0172673D01*
X0085469Y0172562D01*
X0085499Y0172451D01*
X0085524Y0172338D01*
X0085546Y0172225D01*
X0085564Y0172111D01*
X0085578Y0171996D01*
X0085588Y0171881D01*
X0085594Y0171765D01*
X0085596Y0171650D01*
X0085594Y0171535D01*
X0085588Y0171419D01*
X0085578Y0171304D01*
X0085564Y0171189D01*
X0085546Y0171075D01*
X0085524Y0170962D01*
X0085499Y0170849D01*
X0085469Y0170738D01*
X0085436Y0170627D01*
X0085399Y0170518D01*
X0085358Y0170410D01*
X0085313Y0170303D01*
X0085265Y0170198D01*
X0085213Y0170095D01*
X0085157Y0169994D01*
X0085098Y0169894D01*
X0085036Y0169797D01*
X0084970Y0169702D01*
X0084902Y0169609D01*
X0084830Y0169519D01*
X0084755Y0169431D01*
X0084676Y0169346D01*
X0084595Y0169264D01*
X0084512Y0169184D01*
X0084425Y0169108D01*
X0084336Y0169034D01*
X0084245Y0168964D01*
X0084151Y0168896D01*
X0084055Y0168832D01*
X0083956Y0168772D01*
X0083856Y0168715D01*
X0083754Y0168661D01*
X0083650Y0168611D01*
X0083544Y0168564D01*
X0083437Y0168521D01*
X0083328Y0168482D01*
X0083218Y0168447D01*
X0083107Y0168416D01*
X0082995Y0168388D01*
X0082882Y0168364D01*
X0082768Y0168344D01*
X0082653Y0168328D01*
X0082538Y0168316D01*
X0082423Y0168308D01*
X0082308Y0168304D01*
X0082192Y0168304D01*
X0082077Y0168308D01*
X0081962Y0168316D01*
X0081847Y0168328D01*
X0081732Y0168344D01*
X0081618Y0168364D01*
X0081505Y0168388D01*
X0081393Y0168416D01*
X0081282Y0168447D01*
X0081172Y0168482D01*
X0081063Y0168521D01*
X0080956Y0168564D01*
X0080850Y0168611D01*
X0080746Y0168661D01*
X0080644Y0168715D01*
X0080544Y0168772D01*
X0080445Y0168832D01*
X0080349Y0168896D01*
X0080255Y0168964D01*
X0080164Y0169034D01*
X0080075Y0169108D01*
X0079988Y0169184D01*
X0079905Y0169264D01*
X0079824Y0169346D01*
X0079745Y0169431D01*
X0079670Y0169519D01*
X0079598Y0169609D01*
X0079530Y0169702D01*
X0079464Y0169797D01*
X0079402Y0169894D01*
X0079343Y0169994D01*
X0079287Y0170095D01*
X0079235Y0170198D01*
X0079187Y0170303D01*
X0079142Y0170410D01*
X0079101Y0170518D01*
X0079064Y0170627D01*
X0079031Y0170738D01*
X0079001Y0170849D01*
X0078976Y0170962D01*
X0078954Y0171075D01*
X0078936Y0171189D01*
X0078922Y0171304D01*
X0078912Y0171419D01*
X0078906Y0171535D01*
X0078904Y0171650D01*
X0094376Y0171650D02*
X0094378Y0171843D01*
X0094385Y0172036D01*
X0094397Y0172229D01*
X0094414Y0172422D01*
X0094435Y0172614D01*
X0094461Y0172805D01*
X0094492Y0172996D01*
X0094527Y0173186D01*
X0094567Y0173375D01*
X0094612Y0173563D01*
X0094661Y0173750D01*
X0094715Y0173936D01*
X0094773Y0174120D01*
X0094836Y0174303D01*
X0094904Y0174484D01*
X0094975Y0174663D01*
X0095052Y0174841D01*
X0095132Y0175017D01*
X0095217Y0175190D01*
X0095306Y0175362D01*
X0095399Y0175531D01*
X0095496Y0175698D01*
X0095598Y0175863D01*
X0095703Y0176025D01*
X0095812Y0176184D01*
X0095926Y0176341D01*
X0096043Y0176494D01*
X0096163Y0176645D01*
X0096288Y0176793D01*
X0096416Y0176938D01*
X0096547Y0177079D01*
X0096682Y0177218D01*
X0096821Y0177353D01*
X0096962Y0177484D01*
X0097107Y0177612D01*
X0097255Y0177737D01*
X0097406Y0177857D01*
X0097559Y0177974D01*
X0097716Y0178088D01*
X0097875Y0178197D01*
X0098037Y0178302D01*
X0098202Y0178404D01*
X0098369Y0178501D01*
X0098538Y0178594D01*
X0098710Y0178683D01*
X0098883Y0178768D01*
X0099059Y0178848D01*
X0099237Y0178925D01*
X0099416Y0178996D01*
X0099597Y0179064D01*
X0099780Y0179127D01*
X0099964Y0179185D01*
X0100150Y0179239D01*
X0100337Y0179288D01*
X0100525Y0179333D01*
X0100714Y0179373D01*
X0100904Y0179408D01*
X0101095Y0179439D01*
X0101286Y0179465D01*
X0101478Y0179486D01*
X0101671Y0179503D01*
X0101864Y0179515D01*
X0102057Y0179522D01*
X0102250Y0179524D01*
X0102443Y0179522D01*
X0102636Y0179515D01*
X0102829Y0179503D01*
X0103022Y0179486D01*
X0103214Y0179465D01*
X0103405Y0179439D01*
X0103596Y0179408D01*
X0103786Y0179373D01*
X0103975Y0179333D01*
X0104163Y0179288D01*
X0104350Y0179239D01*
X0104536Y0179185D01*
X0104720Y0179127D01*
X0104903Y0179064D01*
X0105084Y0178996D01*
X0105263Y0178925D01*
X0105441Y0178848D01*
X0105617Y0178768D01*
X0105790Y0178683D01*
X0105962Y0178594D01*
X0106131Y0178501D01*
X0106298Y0178404D01*
X0106463Y0178302D01*
X0106625Y0178197D01*
X0106784Y0178088D01*
X0106941Y0177974D01*
X0107094Y0177857D01*
X0107245Y0177737D01*
X0107393Y0177612D01*
X0107538Y0177484D01*
X0107679Y0177353D01*
X0107818Y0177218D01*
X0107953Y0177079D01*
X0108084Y0176938D01*
X0108212Y0176793D01*
X0108337Y0176645D01*
X0108457Y0176494D01*
X0108574Y0176341D01*
X0108688Y0176184D01*
X0108797Y0176025D01*
X0108902Y0175863D01*
X0109004Y0175698D01*
X0109101Y0175531D01*
X0109194Y0175362D01*
X0109283Y0175190D01*
X0109368Y0175017D01*
X0109448Y0174841D01*
X0109525Y0174663D01*
X0109596Y0174484D01*
X0109664Y0174303D01*
X0109727Y0174120D01*
X0109785Y0173936D01*
X0109839Y0173750D01*
X0109888Y0173563D01*
X0109933Y0173375D01*
X0109973Y0173186D01*
X0110008Y0172996D01*
X0110039Y0172805D01*
X0110065Y0172614D01*
X0110086Y0172422D01*
X0110103Y0172229D01*
X0110115Y0172036D01*
X0110122Y0171843D01*
X0110124Y0171650D01*
X0110122Y0171457D01*
X0110115Y0171264D01*
X0110103Y0171071D01*
X0110086Y0170878D01*
X0110065Y0170686D01*
X0110039Y0170495D01*
X0110008Y0170304D01*
X0109973Y0170114D01*
X0109933Y0169925D01*
X0109888Y0169737D01*
X0109839Y0169550D01*
X0109785Y0169364D01*
X0109727Y0169180D01*
X0109664Y0168997D01*
X0109596Y0168816D01*
X0109525Y0168637D01*
X0109448Y0168459D01*
X0109368Y0168283D01*
X0109283Y0168110D01*
X0109194Y0167938D01*
X0109101Y0167769D01*
X0109004Y0167602D01*
X0108902Y0167437D01*
X0108797Y0167275D01*
X0108688Y0167116D01*
X0108574Y0166959D01*
X0108457Y0166806D01*
X0108337Y0166655D01*
X0108212Y0166507D01*
X0108084Y0166362D01*
X0107953Y0166221D01*
X0107818Y0166082D01*
X0107679Y0165947D01*
X0107538Y0165816D01*
X0107393Y0165688D01*
X0107245Y0165563D01*
X0107094Y0165443D01*
X0106941Y0165326D01*
X0106784Y0165212D01*
X0106625Y0165103D01*
X0106463Y0164998D01*
X0106298Y0164896D01*
X0106131Y0164799D01*
X0105962Y0164706D01*
X0105790Y0164617D01*
X0105617Y0164532D01*
X0105441Y0164452D01*
X0105263Y0164375D01*
X0105084Y0164304D01*
X0104903Y0164236D01*
X0104720Y0164173D01*
X0104536Y0164115D01*
X0104350Y0164061D01*
X0104163Y0164012D01*
X0103975Y0163967D01*
X0103786Y0163927D01*
X0103596Y0163892D01*
X0103405Y0163861D01*
X0103214Y0163835D01*
X0103022Y0163814D01*
X0102829Y0163797D01*
X0102636Y0163785D01*
X0102443Y0163778D01*
X0102250Y0163776D01*
X0102057Y0163778D01*
X0101864Y0163785D01*
X0101671Y0163797D01*
X0101478Y0163814D01*
X0101286Y0163835D01*
X0101095Y0163861D01*
X0100904Y0163892D01*
X0100714Y0163927D01*
X0100525Y0163967D01*
X0100337Y0164012D01*
X0100150Y0164061D01*
X0099964Y0164115D01*
X0099780Y0164173D01*
X0099597Y0164236D01*
X0099416Y0164304D01*
X0099237Y0164375D01*
X0099059Y0164452D01*
X0098883Y0164532D01*
X0098710Y0164617D01*
X0098538Y0164706D01*
X0098369Y0164799D01*
X0098202Y0164896D01*
X0098037Y0164998D01*
X0097875Y0165103D01*
X0097716Y0165212D01*
X0097559Y0165326D01*
X0097406Y0165443D01*
X0097255Y0165563D01*
X0097107Y0165688D01*
X0096962Y0165816D01*
X0096821Y0165947D01*
X0096682Y0166082D01*
X0096547Y0166221D01*
X0096416Y0166362D01*
X0096288Y0166507D01*
X0096163Y0166655D01*
X0096043Y0166806D01*
X0095926Y0166959D01*
X0095812Y0167116D01*
X0095703Y0167275D01*
X0095598Y0167437D01*
X0095496Y0167602D01*
X0095399Y0167769D01*
X0095306Y0167938D01*
X0095217Y0168110D01*
X0095132Y0168283D01*
X0095052Y0168459D01*
X0094975Y0168637D01*
X0094904Y0168816D01*
X0094836Y0168997D01*
X0094773Y0169180D01*
X0094715Y0169364D01*
X0094661Y0169550D01*
X0094612Y0169737D01*
X0094567Y0169925D01*
X0094527Y0170114D01*
X0094492Y0170304D01*
X0094461Y0170495D01*
X0094435Y0170686D01*
X0094414Y0170878D01*
X0094397Y0171071D01*
X0094385Y0171264D01*
X0094378Y0171457D01*
X0094376Y0171650D01*
X0118904Y0171650D02*
X0118906Y0171765D01*
X0118912Y0171881D01*
X0118922Y0171996D01*
X0118936Y0172111D01*
X0118954Y0172225D01*
X0118976Y0172338D01*
X0119001Y0172451D01*
X0119031Y0172562D01*
X0119064Y0172673D01*
X0119101Y0172782D01*
X0119142Y0172890D01*
X0119187Y0172997D01*
X0119235Y0173102D01*
X0119287Y0173205D01*
X0119343Y0173306D01*
X0119402Y0173406D01*
X0119464Y0173503D01*
X0119530Y0173598D01*
X0119598Y0173691D01*
X0119670Y0173781D01*
X0119745Y0173869D01*
X0119824Y0173954D01*
X0119905Y0174036D01*
X0119988Y0174116D01*
X0120075Y0174192D01*
X0120164Y0174266D01*
X0120255Y0174336D01*
X0120349Y0174404D01*
X0120445Y0174468D01*
X0120544Y0174528D01*
X0120644Y0174585D01*
X0120746Y0174639D01*
X0120850Y0174689D01*
X0120956Y0174736D01*
X0121063Y0174779D01*
X0121172Y0174818D01*
X0121282Y0174853D01*
X0121393Y0174884D01*
X0121505Y0174912D01*
X0121618Y0174936D01*
X0121732Y0174956D01*
X0121847Y0174972D01*
X0121962Y0174984D01*
X0122077Y0174992D01*
X0122192Y0174996D01*
X0122308Y0174996D01*
X0122423Y0174992D01*
X0122538Y0174984D01*
X0122653Y0174972D01*
X0122768Y0174956D01*
X0122882Y0174936D01*
X0122995Y0174912D01*
X0123107Y0174884D01*
X0123218Y0174853D01*
X0123328Y0174818D01*
X0123437Y0174779D01*
X0123544Y0174736D01*
X0123650Y0174689D01*
X0123754Y0174639D01*
X0123856Y0174585D01*
X0123956Y0174528D01*
X0124055Y0174468D01*
X0124151Y0174404D01*
X0124245Y0174336D01*
X0124336Y0174266D01*
X0124425Y0174192D01*
X0124512Y0174116D01*
X0124595Y0174036D01*
X0124676Y0173954D01*
X0124755Y0173869D01*
X0124830Y0173781D01*
X0124902Y0173691D01*
X0124970Y0173598D01*
X0125036Y0173503D01*
X0125098Y0173406D01*
X0125157Y0173306D01*
X0125213Y0173205D01*
X0125265Y0173102D01*
X0125313Y0172997D01*
X0125358Y0172890D01*
X0125399Y0172782D01*
X0125436Y0172673D01*
X0125469Y0172562D01*
X0125499Y0172451D01*
X0125524Y0172338D01*
X0125546Y0172225D01*
X0125564Y0172111D01*
X0125578Y0171996D01*
X0125588Y0171881D01*
X0125594Y0171765D01*
X0125596Y0171650D01*
X0125594Y0171535D01*
X0125588Y0171419D01*
X0125578Y0171304D01*
X0125564Y0171189D01*
X0125546Y0171075D01*
X0125524Y0170962D01*
X0125499Y0170849D01*
X0125469Y0170738D01*
X0125436Y0170627D01*
X0125399Y0170518D01*
X0125358Y0170410D01*
X0125313Y0170303D01*
X0125265Y0170198D01*
X0125213Y0170095D01*
X0125157Y0169994D01*
X0125098Y0169894D01*
X0125036Y0169797D01*
X0124970Y0169702D01*
X0124902Y0169609D01*
X0124830Y0169519D01*
X0124755Y0169431D01*
X0124676Y0169346D01*
X0124595Y0169264D01*
X0124512Y0169184D01*
X0124425Y0169108D01*
X0124336Y0169034D01*
X0124245Y0168964D01*
X0124151Y0168896D01*
X0124055Y0168832D01*
X0123956Y0168772D01*
X0123856Y0168715D01*
X0123754Y0168661D01*
X0123650Y0168611D01*
X0123544Y0168564D01*
X0123437Y0168521D01*
X0123328Y0168482D01*
X0123218Y0168447D01*
X0123107Y0168416D01*
X0122995Y0168388D01*
X0122882Y0168364D01*
X0122768Y0168344D01*
X0122653Y0168328D01*
X0122538Y0168316D01*
X0122423Y0168308D01*
X0122308Y0168304D01*
X0122192Y0168304D01*
X0122077Y0168308D01*
X0121962Y0168316D01*
X0121847Y0168328D01*
X0121732Y0168344D01*
X0121618Y0168364D01*
X0121505Y0168388D01*
X0121393Y0168416D01*
X0121282Y0168447D01*
X0121172Y0168482D01*
X0121063Y0168521D01*
X0120956Y0168564D01*
X0120850Y0168611D01*
X0120746Y0168661D01*
X0120644Y0168715D01*
X0120544Y0168772D01*
X0120445Y0168832D01*
X0120349Y0168896D01*
X0120255Y0168964D01*
X0120164Y0169034D01*
X0120075Y0169108D01*
X0119988Y0169184D01*
X0119905Y0169264D01*
X0119824Y0169346D01*
X0119745Y0169431D01*
X0119670Y0169519D01*
X0119598Y0169609D01*
X0119530Y0169702D01*
X0119464Y0169797D01*
X0119402Y0169894D01*
X0119343Y0169994D01*
X0119287Y0170095D01*
X0119235Y0170198D01*
X0119187Y0170303D01*
X0119142Y0170410D01*
X0119101Y0170518D01*
X0119064Y0170627D01*
X0119031Y0170738D01*
X0119001Y0170849D01*
X0118976Y0170962D01*
X0118954Y0171075D01*
X0118936Y0171189D01*
X0118922Y0171304D01*
X0118912Y0171419D01*
X0118906Y0171535D01*
X0118904Y0171650D01*
X0063250Y0204150D02*
X0063252Y0204311D01*
X0063258Y0204471D01*
X0063268Y0204632D01*
X0063282Y0204792D01*
X0063300Y0204952D01*
X0063321Y0205111D01*
X0063347Y0205270D01*
X0063377Y0205428D01*
X0063410Y0205585D01*
X0063448Y0205742D01*
X0063489Y0205897D01*
X0063534Y0206051D01*
X0063583Y0206204D01*
X0063636Y0206356D01*
X0063692Y0206507D01*
X0063753Y0206656D01*
X0063816Y0206804D01*
X0063884Y0206950D01*
X0063955Y0207094D01*
X0064029Y0207236D01*
X0064107Y0207377D01*
X0064189Y0207515D01*
X0064274Y0207652D01*
X0064362Y0207786D01*
X0064454Y0207918D01*
X0064549Y0208048D01*
X0064647Y0208176D01*
X0064748Y0208301D01*
X0064852Y0208423D01*
X0064959Y0208543D01*
X0065069Y0208660D01*
X0065182Y0208775D01*
X0065298Y0208886D01*
X0065417Y0208995D01*
X0065538Y0209100D01*
X0065662Y0209203D01*
X0065788Y0209303D01*
X0065916Y0209399D01*
X0066047Y0209492D01*
X0066181Y0209582D01*
X0066316Y0209669D01*
X0066454Y0209752D01*
X0066593Y0209832D01*
X0066735Y0209908D01*
X0066878Y0209981D01*
X0067023Y0210050D01*
X0067170Y0210116D01*
X0067318Y0210178D01*
X0067468Y0210236D01*
X0067619Y0210291D01*
X0067772Y0210342D01*
X0067926Y0210389D01*
X0068081Y0210432D01*
X0068237Y0210471D01*
X0068393Y0210507D01*
X0068551Y0210538D01*
X0068709Y0210566D01*
X0068868Y0210590D01*
X0069028Y0210610D01*
X0069188Y0210626D01*
X0069348Y0210638D01*
X0069509Y0210646D01*
X0069670Y0210650D01*
X0069830Y0210650D01*
X0069991Y0210646D01*
X0070152Y0210638D01*
X0070312Y0210626D01*
X0070472Y0210610D01*
X0070632Y0210590D01*
X0070791Y0210566D01*
X0070949Y0210538D01*
X0071107Y0210507D01*
X0071263Y0210471D01*
X0071419Y0210432D01*
X0071574Y0210389D01*
X0071728Y0210342D01*
X0071881Y0210291D01*
X0072032Y0210236D01*
X0072182Y0210178D01*
X0072330Y0210116D01*
X0072477Y0210050D01*
X0072622Y0209981D01*
X0072765Y0209908D01*
X0072907Y0209832D01*
X0073046Y0209752D01*
X0073184Y0209669D01*
X0073319Y0209582D01*
X0073453Y0209492D01*
X0073584Y0209399D01*
X0073712Y0209303D01*
X0073838Y0209203D01*
X0073962Y0209100D01*
X0074083Y0208995D01*
X0074202Y0208886D01*
X0074318Y0208775D01*
X0074431Y0208660D01*
X0074541Y0208543D01*
X0074648Y0208423D01*
X0074752Y0208301D01*
X0074853Y0208176D01*
X0074951Y0208048D01*
X0075046Y0207918D01*
X0075138Y0207786D01*
X0075226Y0207652D01*
X0075311Y0207515D01*
X0075393Y0207377D01*
X0075471Y0207236D01*
X0075545Y0207094D01*
X0075616Y0206950D01*
X0075684Y0206804D01*
X0075747Y0206656D01*
X0075808Y0206507D01*
X0075864Y0206356D01*
X0075917Y0206204D01*
X0075966Y0206051D01*
X0076011Y0205897D01*
X0076052Y0205742D01*
X0076090Y0205585D01*
X0076123Y0205428D01*
X0076153Y0205270D01*
X0076179Y0205111D01*
X0076200Y0204952D01*
X0076218Y0204792D01*
X0076232Y0204632D01*
X0076242Y0204471D01*
X0076248Y0204311D01*
X0076250Y0204150D01*
X0076248Y0203989D01*
X0076242Y0203829D01*
X0076232Y0203668D01*
X0076218Y0203508D01*
X0076200Y0203348D01*
X0076179Y0203189D01*
X0076153Y0203030D01*
X0076123Y0202872D01*
X0076090Y0202715D01*
X0076052Y0202558D01*
X0076011Y0202403D01*
X0075966Y0202249D01*
X0075917Y0202096D01*
X0075864Y0201944D01*
X0075808Y0201793D01*
X0075747Y0201644D01*
X0075684Y0201496D01*
X0075616Y0201350D01*
X0075545Y0201206D01*
X0075471Y0201064D01*
X0075393Y0200923D01*
X0075311Y0200785D01*
X0075226Y0200648D01*
X0075138Y0200514D01*
X0075046Y0200382D01*
X0074951Y0200252D01*
X0074853Y0200124D01*
X0074752Y0199999D01*
X0074648Y0199877D01*
X0074541Y0199757D01*
X0074431Y0199640D01*
X0074318Y0199525D01*
X0074202Y0199414D01*
X0074083Y0199305D01*
X0073962Y0199200D01*
X0073838Y0199097D01*
X0073712Y0198997D01*
X0073584Y0198901D01*
X0073453Y0198808D01*
X0073319Y0198718D01*
X0073184Y0198631D01*
X0073046Y0198548D01*
X0072907Y0198468D01*
X0072765Y0198392D01*
X0072622Y0198319D01*
X0072477Y0198250D01*
X0072330Y0198184D01*
X0072182Y0198122D01*
X0072032Y0198064D01*
X0071881Y0198009D01*
X0071728Y0197958D01*
X0071574Y0197911D01*
X0071419Y0197868D01*
X0071263Y0197829D01*
X0071107Y0197793D01*
X0070949Y0197762D01*
X0070791Y0197734D01*
X0070632Y0197710D01*
X0070472Y0197690D01*
X0070312Y0197674D01*
X0070152Y0197662D01*
X0069991Y0197654D01*
X0069830Y0197650D01*
X0069670Y0197650D01*
X0069509Y0197654D01*
X0069348Y0197662D01*
X0069188Y0197674D01*
X0069028Y0197690D01*
X0068868Y0197710D01*
X0068709Y0197734D01*
X0068551Y0197762D01*
X0068393Y0197793D01*
X0068237Y0197829D01*
X0068081Y0197868D01*
X0067926Y0197911D01*
X0067772Y0197958D01*
X0067619Y0198009D01*
X0067468Y0198064D01*
X0067318Y0198122D01*
X0067170Y0198184D01*
X0067023Y0198250D01*
X0066878Y0198319D01*
X0066735Y0198392D01*
X0066593Y0198468D01*
X0066454Y0198548D01*
X0066316Y0198631D01*
X0066181Y0198718D01*
X0066047Y0198808D01*
X0065916Y0198901D01*
X0065788Y0198997D01*
X0065662Y0199097D01*
X0065538Y0199200D01*
X0065417Y0199305D01*
X0065298Y0199414D01*
X0065182Y0199525D01*
X0065069Y0199640D01*
X0064959Y0199757D01*
X0064852Y0199877D01*
X0064748Y0199999D01*
X0064647Y0200124D01*
X0064549Y0200252D01*
X0064454Y0200382D01*
X0064362Y0200514D01*
X0064274Y0200648D01*
X0064189Y0200785D01*
X0064107Y0200923D01*
X0064029Y0201064D01*
X0063955Y0201206D01*
X0063884Y0201350D01*
X0063816Y0201496D01*
X0063753Y0201644D01*
X0063692Y0201793D01*
X0063636Y0201944D01*
X0063583Y0202096D01*
X0063534Y0202249D01*
X0063489Y0202403D01*
X0063448Y0202558D01*
X0063410Y0202715D01*
X0063377Y0202872D01*
X0063347Y0203030D01*
X0063321Y0203189D01*
X0063300Y0203348D01*
X0063282Y0203508D01*
X0063268Y0203668D01*
X0063258Y0203829D01*
X0063252Y0203989D01*
X0063250Y0204150D01*
X0053904Y0236650D02*
X0053906Y0236765D01*
X0053912Y0236881D01*
X0053922Y0236996D01*
X0053936Y0237111D01*
X0053954Y0237225D01*
X0053976Y0237338D01*
X0054001Y0237451D01*
X0054031Y0237562D01*
X0054064Y0237673D01*
X0054101Y0237782D01*
X0054142Y0237890D01*
X0054187Y0237997D01*
X0054235Y0238102D01*
X0054287Y0238205D01*
X0054343Y0238306D01*
X0054402Y0238406D01*
X0054464Y0238503D01*
X0054530Y0238598D01*
X0054598Y0238691D01*
X0054670Y0238781D01*
X0054745Y0238869D01*
X0054824Y0238954D01*
X0054905Y0239036D01*
X0054988Y0239116D01*
X0055075Y0239192D01*
X0055164Y0239266D01*
X0055255Y0239336D01*
X0055349Y0239404D01*
X0055445Y0239468D01*
X0055544Y0239528D01*
X0055644Y0239585D01*
X0055746Y0239639D01*
X0055850Y0239689D01*
X0055956Y0239736D01*
X0056063Y0239779D01*
X0056172Y0239818D01*
X0056282Y0239853D01*
X0056393Y0239884D01*
X0056505Y0239912D01*
X0056618Y0239936D01*
X0056732Y0239956D01*
X0056847Y0239972D01*
X0056962Y0239984D01*
X0057077Y0239992D01*
X0057192Y0239996D01*
X0057308Y0239996D01*
X0057423Y0239992D01*
X0057538Y0239984D01*
X0057653Y0239972D01*
X0057768Y0239956D01*
X0057882Y0239936D01*
X0057995Y0239912D01*
X0058107Y0239884D01*
X0058218Y0239853D01*
X0058328Y0239818D01*
X0058437Y0239779D01*
X0058544Y0239736D01*
X0058650Y0239689D01*
X0058754Y0239639D01*
X0058856Y0239585D01*
X0058956Y0239528D01*
X0059055Y0239468D01*
X0059151Y0239404D01*
X0059245Y0239336D01*
X0059336Y0239266D01*
X0059425Y0239192D01*
X0059512Y0239116D01*
X0059595Y0239036D01*
X0059676Y0238954D01*
X0059755Y0238869D01*
X0059830Y0238781D01*
X0059902Y0238691D01*
X0059970Y0238598D01*
X0060036Y0238503D01*
X0060098Y0238406D01*
X0060157Y0238306D01*
X0060213Y0238205D01*
X0060265Y0238102D01*
X0060313Y0237997D01*
X0060358Y0237890D01*
X0060399Y0237782D01*
X0060436Y0237673D01*
X0060469Y0237562D01*
X0060499Y0237451D01*
X0060524Y0237338D01*
X0060546Y0237225D01*
X0060564Y0237111D01*
X0060578Y0236996D01*
X0060588Y0236881D01*
X0060594Y0236765D01*
X0060596Y0236650D01*
X0060594Y0236535D01*
X0060588Y0236419D01*
X0060578Y0236304D01*
X0060564Y0236189D01*
X0060546Y0236075D01*
X0060524Y0235962D01*
X0060499Y0235849D01*
X0060469Y0235738D01*
X0060436Y0235627D01*
X0060399Y0235518D01*
X0060358Y0235410D01*
X0060313Y0235303D01*
X0060265Y0235198D01*
X0060213Y0235095D01*
X0060157Y0234994D01*
X0060098Y0234894D01*
X0060036Y0234797D01*
X0059970Y0234702D01*
X0059902Y0234609D01*
X0059830Y0234519D01*
X0059755Y0234431D01*
X0059676Y0234346D01*
X0059595Y0234264D01*
X0059512Y0234184D01*
X0059425Y0234108D01*
X0059336Y0234034D01*
X0059245Y0233964D01*
X0059151Y0233896D01*
X0059055Y0233832D01*
X0058956Y0233772D01*
X0058856Y0233715D01*
X0058754Y0233661D01*
X0058650Y0233611D01*
X0058544Y0233564D01*
X0058437Y0233521D01*
X0058328Y0233482D01*
X0058218Y0233447D01*
X0058107Y0233416D01*
X0057995Y0233388D01*
X0057882Y0233364D01*
X0057768Y0233344D01*
X0057653Y0233328D01*
X0057538Y0233316D01*
X0057423Y0233308D01*
X0057308Y0233304D01*
X0057192Y0233304D01*
X0057077Y0233308D01*
X0056962Y0233316D01*
X0056847Y0233328D01*
X0056732Y0233344D01*
X0056618Y0233364D01*
X0056505Y0233388D01*
X0056393Y0233416D01*
X0056282Y0233447D01*
X0056172Y0233482D01*
X0056063Y0233521D01*
X0055956Y0233564D01*
X0055850Y0233611D01*
X0055746Y0233661D01*
X0055644Y0233715D01*
X0055544Y0233772D01*
X0055445Y0233832D01*
X0055349Y0233896D01*
X0055255Y0233964D01*
X0055164Y0234034D01*
X0055075Y0234108D01*
X0054988Y0234184D01*
X0054905Y0234264D01*
X0054824Y0234346D01*
X0054745Y0234431D01*
X0054670Y0234519D01*
X0054598Y0234609D01*
X0054530Y0234702D01*
X0054464Y0234797D01*
X0054402Y0234894D01*
X0054343Y0234994D01*
X0054287Y0235095D01*
X0054235Y0235198D01*
X0054187Y0235303D01*
X0054142Y0235410D01*
X0054101Y0235518D01*
X0054064Y0235627D01*
X0054031Y0235738D01*
X0054001Y0235849D01*
X0053976Y0235962D01*
X0053954Y0236075D01*
X0053936Y0236189D01*
X0053922Y0236304D01*
X0053912Y0236419D01*
X0053906Y0236535D01*
X0053904Y0236650D01*
X0029376Y0236650D02*
X0029378Y0236843D01*
X0029385Y0237036D01*
X0029397Y0237229D01*
X0029414Y0237422D01*
X0029435Y0237614D01*
X0029461Y0237805D01*
X0029492Y0237996D01*
X0029527Y0238186D01*
X0029567Y0238375D01*
X0029612Y0238563D01*
X0029661Y0238750D01*
X0029715Y0238936D01*
X0029773Y0239120D01*
X0029836Y0239303D01*
X0029904Y0239484D01*
X0029975Y0239663D01*
X0030052Y0239841D01*
X0030132Y0240017D01*
X0030217Y0240190D01*
X0030306Y0240362D01*
X0030399Y0240531D01*
X0030496Y0240698D01*
X0030598Y0240863D01*
X0030703Y0241025D01*
X0030812Y0241184D01*
X0030926Y0241341D01*
X0031043Y0241494D01*
X0031163Y0241645D01*
X0031288Y0241793D01*
X0031416Y0241938D01*
X0031547Y0242079D01*
X0031682Y0242218D01*
X0031821Y0242353D01*
X0031962Y0242484D01*
X0032107Y0242612D01*
X0032255Y0242737D01*
X0032406Y0242857D01*
X0032559Y0242974D01*
X0032716Y0243088D01*
X0032875Y0243197D01*
X0033037Y0243302D01*
X0033202Y0243404D01*
X0033369Y0243501D01*
X0033538Y0243594D01*
X0033710Y0243683D01*
X0033883Y0243768D01*
X0034059Y0243848D01*
X0034237Y0243925D01*
X0034416Y0243996D01*
X0034597Y0244064D01*
X0034780Y0244127D01*
X0034964Y0244185D01*
X0035150Y0244239D01*
X0035337Y0244288D01*
X0035525Y0244333D01*
X0035714Y0244373D01*
X0035904Y0244408D01*
X0036095Y0244439D01*
X0036286Y0244465D01*
X0036478Y0244486D01*
X0036671Y0244503D01*
X0036864Y0244515D01*
X0037057Y0244522D01*
X0037250Y0244524D01*
X0037443Y0244522D01*
X0037636Y0244515D01*
X0037829Y0244503D01*
X0038022Y0244486D01*
X0038214Y0244465D01*
X0038405Y0244439D01*
X0038596Y0244408D01*
X0038786Y0244373D01*
X0038975Y0244333D01*
X0039163Y0244288D01*
X0039350Y0244239D01*
X0039536Y0244185D01*
X0039720Y0244127D01*
X0039903Y0244064D01*
X0040084Y0243996D01*
X0040263Y0243925D01*
X0040441Y0243848D01*
X0040617Y0243768D01*
X0040790Y0243683D01*
X0040962Y0243594D01*
X0041131Y0243501D01*
X0041298Y0243404D01*
X0041463Y0243302D01*
X0041625Y0243197D01*
X0041784Y0243088D01*
X0041941Y0242974D01*
X0042094Y0242857D01*
X0042245Y0242737D01*
X0042393Y0242612D01*
X0042538Y0242484D01*
X0042679Y0242353D01*
X0042818Y0242218D01*
X0042953Y0242079D01*
X0043084Y0241938D01*
X0043212Y0241793D01*
X0043337Y0241645D01*
X0043457Y0241494D01*
X0043574Y0241341D01*
X0043688Y0241184D01*
X0043797Y0241025D01*
X0043902Y0240863D01*
X0044004Y0240698D01*
X0044101Y0240531D01*
X0044194Y0240362D01*
X0044283Y0240190D01*
X0044368Y0240017D01*
X0044448Y0239841D01*
X0044525Y0239663D01*
X0044596Y0239484D01*
X0044664Y0239303D01*
X0044727Y0239120D01*
X0044785Y0238936D01*
X0044839Y0238750D01*
X0044888Y0238563D01*
X0044933Y0238375D01*
X0044973Y0238186D01*
X0045008Y0237996D01*
X0045039Y0237805D01*
X0045065Y0237614D01*
X0045086Y0237422D01*
X0045103Y0237229D01*
X0045115Y0237036D01*
X0045122Y0236843D01*
X0045124Y0236650D01*
X0045122Y0236457D01*
X0045115Y0236264D01*
X0045103Y0236071D01*
X0045086Y0235878D01*
X0045065Y0235686D01*
X0045039Y0235495D01*
X0045008Y0235304D01*
X0044973Y0235114D01*
X0044933Y0234925D01*
X0044888Y0234737D01*
X0044839Y0234550D01*
X0044785Y0234364D01*
X0044727Y0234180D01*
X0044664Y0233997D01*
X0044596Y0233816D01*
X0044525Y0233637D01*
X0044448Y0233459D01*
X0044368Y0233283D01*
X0044283Y0233110D01*
X0044194Y0232938D01*
X0044101Y0232769D01*
X0044004Y0232602D01*
X0043902Y0232437D01*
X0043797Y0232275D01*
X0043688Y0232116D01*
X0043574Y0231959D01*
X0043457Y0231806D01*
X0043337Y0231655D01*
X0043212Y0231507D01*
X0043084Y0231362D01*
X0042953Y0231221D01*
X0042818Y0231082D01*
X0042679Y0230947D01*
X0042538Y0230816D01*
X0042393Y0230688D01*
X0042245Y0230563D01*
X0042094Y0230443D01*
X0041941Y0230326D01*
X0041784Y0230212D01*
X0041625Y0230103D01*
X0041463Y0229998D01*
X0041298Y0229896D01*
X0041131Y0229799D01*
X0040962Y0229706D01*
X0040790Y0229617D01*
X0040617Y0229532D01*
X0040441Y0229452D01*
X0040263Y0229375D01*
X0040084Y0229304D01*
X0039903Y0229236D01*
X0039720Y0229173D01*
X0039536Y0229115D01*
X0039350Y0229061D01*
X0039163Y0229012D01*
X0038975Y0228967D01*
X0038786Y0228927D01*
X0038596Y0228892D01*
X0038405Y0228861D01*
X0038214Y0228835D01*
X0038022Y0228814D01*
X0037829Y0228797D01*
X0037636Y0228785D01*
X0037443Y0228778D01*
X0037250Y0228776D01*
X0037057Y0228778D01*
X0036864Y0228785D01*
X0036671Y0228797D01*
X0036478Y0228814D01*
X0036286Y0228835D01*
X0036095Y0228861D01*
X0035904Y0228892D01*
X0035714Y0228927D01*
X0035525Y0228967D01*
X0035337Y0229012D01*
X0035150Y0229061D01*
X0034964Y0229115D01*
X0034780Y0229173D01*
X0034597Y0229236D01*
X0034416Y0229304D01*
X0034237Y0229375D01*
X0034059Y0229452D01*
X0033883Y0229532D01*
X0033710Y0229617D01*
X0033538Y0229706D01*
X0033369Y0229799D01*
X0033202Y0229896D01*
X0033037Y0229998D01*
X0032875Y0230103D01*
X0032716Y0230212D01*
X0032559Y0230326D01*
X0032406Y0230443D01*
X0032255Y0230563D01*
X0032107Y0230688D01*
X0031962Y0230816D01*
X0031821Y0230947D01*
X0031682Y0231082D01*
X0031547Y0231221D01*
X0031416Y0231362D01*
X0031288Y0231507D01*
X0031163Y0231655D01*
X0031043Y0231806D01*
X0030926Y0231959D01*
X0030812Y0232116D01*
X0030703Y0232275D01*
X0030598Y0232437D01*
X0030496Y0232602D01*
X0030399Y0232769D01*
X0030306Y0232938D01*
X0030217Y0233110D01*
X0030132Y0233283D01*
X0030052Y0233459D01*
X0029975Y0233637D01*
X0029904Y0233816D01*
X0029836Y0233997D01*
X0029773Y0234180D01*
X0029715Y0234364D01*
X0029661Y0234550D01*
X0029612Y0234737D01*
X0029567Y0234925D01*
X0029527Y0235114D01*
X0029492Y0235304D01*
X0029461Y0235495D01*
X0029435Y0235686D01*
X0029414Y0235878D01*
X0029397Y0236071D01*
X0029385Y0236264D01*
X0029378Y0236457D01*
X0029376Y0236650D01*
X0013904Y0236650D02*
X0013906Y0236765D01*
X0013912Y0236881D01*
X0013922Y0236996D01*
X0013936Y0237111D01*
X0013954Y0237225D01*
X0013976Y0237338D01*
X0014001Y0237451D01*
X0014031Y0237562D01*
X0014064Y0237673D01*
X0014101Y0237782D01*
X0014142Y0237890D01*
X0014187Y0237997D01*
X0014235Y0238102D01*
X0014287Y0238205D01*
X0014343Y0238306D01*
X0014402Y0238406D01*
X0014464Y0238503D01*
X0014530Y0238598D01*
X0014598Y0238691D01*
X0014670Y0238781D01*
X0014745Y0238869D01*
X0014824Y0238954D01*
X0014905Y0239036D01*
X0014988Y0239116D01*
X0015075Y0239192D01*
X0015164Y0239266D01*
X0015255Y0239336D01*
X0015349Y0239404D01*
X0015445Y0239468D01*
X0015544Y0239528D01*
X0015644Y0239585D01*
X0015746Y0239639D01*
X0015850Y0239689D01*
X0015956Y0239736D01*
X0016063Y0239779D01*
X0016172Y0239818D01*
X0016282Y0239853D01*
X0016393Y0239884D01*
X0016505Y0239912D01*
X0016618Y0239936D01*
X0016732Y0239956D01*
X0016847Y0239972D01*
X0016962Y0239984D01*
X0017077Y0239992D01*
X0017192Y0239996D01*
X0017308Y0239996D01*
X0017423Y0239992D01*
X0017538Y0239984D01*
X0017653Y0239972D01*
X0017768Y0239956D01*
X0017882Y0239936D01*
X0017995Y0239912D01*
X0018107Y0239884D01*
X0018218Y0239853D01*
X0018328Y0239818D01*
X0018437Y0239779D01*
X0018544Y0239736D01*
X0018650Y0239689D01*
X0018754Y0239639D01*
X0018856Y0239585D01*
X0018956Y0239528D01*
X0019055Y0239468D01*
X0019151Y0239404D01*
X0019245Y0239336D01*
X0019336Y0239266D01*
X0019425Y0239192D01*
X0019512Y0239116D01*
X0019595Y0239036D01*
X0019676Y0238954D01*
X0019755Y0238869D01*
X0019830Y0238781D01*
X0019902Y0238691D01*
X0019970Y0238598D01*
X0020036Y0238503D01*
X0020098Y0238406D01*
X0020157Y0238306D01*
X0020213Y0238205D01*
X0020265Y0238102D01*
X0020313Y0237997D01*
X0020358Y0237890D01*
X0020399Y0237782D01*
X0020436Y0237673D01*
X0020469Y0237562D01*
X0020499Y0237451D01*
X0020524Y0237338D01*
X0020546Y0237225D01*
X0020564Y0237111D01*
X0020578Y0236996D01*
X0020588Y0236881D01*
X0020594Y0236765D01*
X0020596Y0236650D01*
X0020594Y0236535D01*
X0020588Y0236419D01*
X0020578Y0236304D01*
X0020564Y0236189D01*
X0020546Y0236075D01*
X0020524Y0235962D01*
X0020499Y0235849D01*
X0020469Y0235738D01*
X0020436Y0235627D01*
X0020399Y0235518D01*
X0020358Y0235410D01*
X0020313Y0235303D01*
X0020265Y0235198D01*
X0020213Y0235095D01*
X0020157Y0234994D01*
X0020098Y0234894D01*
X0020036Y0234797D01*
X0019970Y0234702D01*
X0019902Y0234609D01*
X0019830Y0234519D01*
X0019755Y0234431D01*
X0019676Y0234346D01*
X0019595Y0234264D01*
X0019512Y0234184D01*
X0019425Y0234108D01*
X0019336Y0234034D01*
X0019245Y0233964D01*
X0019151Y0233896D01*
X0019055Y0233832D01*
X0018956Y0233772D01*
X0018856Y0233715D01*
X0018754Y0233661D01*
X0018650Y0233611D01*
X0018544Y0233564D01*
X0018437Y0233521D01*
X0018328Y0233482D01*
X0018218Y0233447D01*
X0018107Y0233416D01*
X0017995Y0233388D01*
X0017882Y0233364D01*
X0017768Y0233344D01*
X0017653Y0233328D01*
X0017538Y0233316D01*
X0017423Y0233308D01*
X0017308Y0233304D01*
X0017192Y0233304D01*
X0017077Y0233308D01*
X0016962Y0233316D01*
X0016847Y0233328D01*
X0016732Y0233344D01*
X0016618Y0233364D01*
X0016505Y0233388D01*
X0016393Y0233416D01*
X0016282Y0233447D01*
X0016172Y0233482D01*
X0016063Y0233521D01*
X0015956Y0233564D01*
X0015850Y0233611D01*
X0015746Y0233661D01*
X0015644Y0233715D01*
X0015544Y0233772D01*
X0015445Y0233832D01*
X0015349Y0233896D01*
X0015255Y0233964D01*
X0015164Y0234034D01*
X0015075Y0234108D01*
X0014988Y0234184D01*
X0014905Y0234264D01*
X0014824Y0234346D01*
X0014745Y0234431D01*
X0014670Y0234519D01*
X0014598Y0234609D01*
X0014530Y0234702D01*
X0014464Y0234797D01*
X0014402Y0234894D01*
X0014343Y0234994D01*
X0014287Y0235095D01*
X0014235Y0235198D01*
X0014187Y0235303D01*
X0014142Y0235410D01*
X0014101Y0235518D01*
X0014064Y0235627D01*
X0014031Y0235738D01*
X0014001Y0235849D01*
X0013976Y0235962D01*
X0013954Y0236075D01*
X0013936Y0236189D01*
X0013922Y0236304D01*
X0013912Y0236419D01*
X0013906Y0236535D01*
X0013904Y0236650D01*
X0005750Y0261650D02*
X0005752Y0261811D01*
X0005758Y0261971D01*
X0005768Y0262132D01*
X0005782Y0262292D01*
X0005800Y0262452D01*
X0005821Y0262611D01*
X0005847Y0262770D01*
X0005877Y0262928D01*
X0005910Y0263085D01*
X0005948Y0263242D01*
X0005989Y0263397D01*
X0006034Y0263551D01*
X0006083Y0263704D01*
X0006136Y0263856D01*
X0006192Y0264007D01*
X0006253Y0264156D01*
X0006316Y0264304D01*
X0006384Y0264450D01*
X0006455Y0264594D01*
X0006529Y0264736D01*
X0006607Y0264877D01*
X0006689Y0265015D01*
X0006774Y0265152D01*
X0006862Y0265286D01*
X0006954Y0265418D01*
X0007049Y0265548D01*
X0007147Y0265676D01*
X0007248Y0265801D01*
X0007352Y0265923D01*
X0007459Y0266043D01*
X0007569Y0266160D01*
X0007682Y0266275D01*
X0007798Y0266386D01*
X0007917Y0266495D01*
X0008038Y0266600D01*
X0008162Y0266703D01*
X0008288Y0266803D01*
X0008416Y0266899D01*
X0008547Y0266992D01*
X0008681Y0267082D01*
X0008816Y0267169D01*
X0008954Y0267252D01*
X0009093Y0267332D01*
X0009235Y0267408D01*
X0009378Y0267481D01*
X0009523Y0267550D01*
X0009670Y0267616D01*
X0009818Y0267678D01*
X0009968Y0267736D01*
X0010119Y0267791D01*
X0010272Y0267842D01*
X0010426Y0267889D01*
X0010581Y0267932D01*
X0010737Y0267971D01*
X0010893Y0268007D01*
X0011051Y0268038D01*
X0011209Y0268066D01*
X0011368Y0268090D01*
X0011528Y0268110D01*
X0011688Y0268126D01*
X0011848Y0268138D01*
X0012009Y0268146D01*
X0012170Y0268150D01*
X0012330Y0268150D01*
X0012491Y0268146D01*
X0012652Y0268138D01*
X0012812Y0268126D01*
X0012972Y0268110D01*
X0013132Y0268090D01*
X0013291Y0268066D01*
X0013449Y0268038D01*
X0013607Y0268007D01*
X0013763Y0267971D01*
X0013919Y0267932D01*
X0014074Y0267889D01*
X0014228Y0267842D01*
X0014381Y0267791D01*
X0014532Y0267736D01*
X0014682Y0267678D01*
X0014830Y0267616D01*
X0014977Y0267550D01*
X0015122Y0267481D01*
X0015265Y0267408D01*
X0015407Y0267332D01*
X0015546Y0267252D01*
X0015684Y0267169D01*
X0015819Y0267082D01*
X0015953Y0266992D01*
X0016084Y0266899D01*
X0016212Y0266803D01*
X0016338Y0266703D01*
X0016462Y0266600D01*
X0016583Y0266495D01*
X0016702Y0266386D01*
X0016818Y0266275D01*
X0016931Y0266160D01*
X0017041Y0266043D01*
X0017148Y0265923D01*
X0017252Y0265801D01*
X0017353Y0265676D01*
X0017451Y0265548D01*
X0017546Y0265418D01*
X0017638Y0265286D01*
X0017726Y0265152D01*
X0017811Y0265015D01*
X0017893Y0264877D01*
X0017971Y0264736D01*
X0018045Y0264594D01*
X0018116Y0264450D01*
X0018184Y0264304D01*
X0018247Y0264156D01*
X0018308Y0264007D01*
X0018364Y0263856D01*
X0018417Y0263704D01*
X0018466Y0263551D01*
X0018511Y0263397D01*
X0018552Y0263242D01*
X0018590Y0263085D01*
X0018623Y0262928D01*
X0018653Y0262770D01*
X0018679Y0262611D01*
X0018700Y0262452D01*
X0018718Y0262292D01*
X0018732Y0262132D01*
X0018742Y0261971D01*
X0018748Y0261811D01*
X0018750Y0261650D01*
X0018748Y0261489D01*
X0018742Y0261329D01*
X0018732Y0261168D01*
X0018718Y0261008D01*
X0018700Y0260848D01*
X0018679Y0260689D01*
X0018653Y0260530D01*
X0018623Y0260372D01*
X0018590Y0260215D01*
X0018552Y0260058D01*
X0018511Y0259903D01*
X0018466Y0259749D01*
X0018417Y0259596D01*
X0018364Y0259444D01*
X0018308Y0259293D01*
X0018247Y0259144D01*
X0018184Y0258996D01*
X0018116Y0258850D01*
X0018045Y0258706D01*
X0017971Y0258564D01*
X0017893Y0258423D01*
X0017811Y0258285D01*
X0017726Y0258148D01*
X0017638Y0258014D01*
X0017546Y0257882D01*
X0017451Y0257752D01*
X0017353Y0257624D01*
X0017252Y0257499D01*
X0017148Y0257377D01*
X0017041Y0257257D01*
X0016931Y0257140D01*
X0016818Y0257025D01*
X0016702Y0256914D01*
X0016583Y0256805D01*
X0016462Y0256700D01*
X0016338Y0256597D01*
X0016212Y0256497D01*
X0016084Y0256401D01*
X0015953Y0256308D01*
X0015819Y0256218D01*
X0015684Y0256131D01*
X0015546Y0256048D01*
X0015407Y0255968D01*
X0015265Y0255892D01*
X0015122Y0255819D01*
X0014977Y0255750D01*
X0014830Y0255684D01*
X0014682Y0255622D01*
X0014532Y0255564D01*
X0014381Y0255509D01*
X0014228Y0255458D01*
X0014074Y0255411D01*
X0013919Y0255368D01*
X0013763Y0255329D01*
X0013607Y0255293D01*
X0013449Y0255262D01*
X0013291Y0255234D01*
X0013132Y0255210D01*
X0012972Y0255190D01*
X0012812Y0255174D01*
X0012652Y0255162D01*
X0012491Y0255154D01*
X0012330Y0255150D01*
X0012170Y0255150D01*
X0012009Y0255154D01*
X0011848Y0255162D01*
X0011688Y0255174D01*
X0011528Y0255190D01*
X0011368Y0255210D01*
X0011209Y0255234D01*
X0011051Y0255262D01*
X0010893Y0255293D01*
X0010737Y0255329D01*
X0010581Y0255368D01*
X0010426Y0255411D01*
X0010272Y0255458D01*
X0010119Y0255509D01*
X0009968Y0255564D01*
X0009818Y0255622D01*
X0009670Y0255684D01*
X0009523Y0255750D01*
X0009378Y0255819D01*
X0009235Y0255892D01*
X0009093Y0255968D01*
X0008954Y0256048D01*
X0008816Y0256131D01*
X0008681Y0256218D01*
X0008547Y0256308D01*
X0008416Y0256401D01*
X0008288Y0256497D01*
X0008162Y0256597D01*
X0008038Y0256700D01*
X0007917Y0256805D01*
X0007798Y0256914D01*
X0007682Y0257025D01*
X0007569Y0257140D01*
X0007459Y0257257D01*
X0007352Y0257377D01*
X0007248Y0257499D01*
X0007147Y0257624D01*
X0007049Y0257752D01*
X0006954Y0257882D01*
X0006862Y0258014D01*
X0006774Y0258148D01*
X0006689Y0258285D01*
X0006607Y0258423D01*
X0006529Y0258564D01*
X0006455Y0258706D01*
X0006384Y0258850D01*
X0006316Y0258996D01*
X0006253Y0259144D01*
X0006192Y0259293D01*
X0006136Y0259444D01*
X0006083Y0259596D01*
X0006034Y0259749D01*
X0005989Y0259903D01*
X0005948Y0260058D01*
X0005910Y0260215D01*
X0005877Y0260372D01*
X0005847Y0260530D01*
X0005821Y0260689D01*
X0005800Y0260848D01*
X0005782Y0261008D01*
X0005768Y0261168D01*
X0005758Y0261329D01*
X0005752Y0261489D01*
X0005750Y0261650D01*
X0078904Y0236650D02*
X0078906Y0236765D01*
X0078912Y0236881D01*
X0078922Y0236996D01*
X0078936Y0237111D01*
X0078954Y0237225D01*
X0078976Y0237338D01*
X0079001Y0237451D01*
X0079031Y0237562D01*
X0079064Y0237673D01*
X0079101Y0237782D01*
X0079142Y0237890D01*
X0079187Y0237997D01*
X0079235Y0238102D01*
X0079287Y0238205D01*
X0079343Y0238306D01*
X0079402Y0238406D01*
X0079464Y0238503D01*
X0079530Y0238598D01*
X0079598Y0238691D01*
X0079670Y0238781D01*
X0079745Y0238869D01*
X0079824Y0238954D01*
X0079905Y0239036D01*
X0079988Y0239116D01*
X0080075Y0239192D01*
X0080164Y0239266D01*
X0080255Y0239336D01*
X0080349Y0239404D01*
X0080445Y0239468D01*
X0080544Y0239528D01*
X0080644Y0239585D01*
X0080746Y0239639D01*
X0080850Y0239689D01*
X0080956Y0239736D01*
X0081063Y0239779D01*
X0081172Y0239818D01*
X0081282Y0239853D01*
X0081393Y0239884D01*
X0081505Y0239912D01*
X0081618Y0239936D01*
X0081732Y0239956D01*
X0081847Y0239972D01*
X0081962Y0239984D01*
X0082077Y0239992D01*
X0082192Y0239996D01*
X0082308Y0239996D01*
X0082423Y0239992D01*
X0082538Y0239984D01*
X0082653Y0239972D01*
X0082768Y0239956D01*
X0082882Y0239936D01*
X0082995Y0239912D01*
X0083107Y0239884D01*
X0083218Y0239853D01*
X0083328Y0239818D01*
X0083437Y0239779D01*
X0083544Y0239736D01*
X0083650Y0239689D01*
X0083754Y0239639D01*
X0083856Y0239585D01*
X0083956Y0239528D01*
X0084055Y0239468D01*
X0084151Y0239404D01*
X0084245Y0239336D01*
X0084336Y0239266D01*
X0084425Y0239192D01*
X0084512Y0239116D01*
X0084595Y0239036D01*
X0084676Y0238954D01*
X0084755Y0238869D01*
X0084830Y0238781D01*
X0084902Y0238691D01*
X0084970Y0238598D01*
X0085036Y0238503D01*
X0085098Y0238406D01*
X0085157Y0238306D01*
X0085213Y0238205D01*
X0085265Y0238102D01*
X0085313Y0237997D01*
X0085358Y0237890D01*
X0085399Y0237782D01*
X0085436Y0237673D01*
X0085469Y0237562D01*
X0085499Y0237451D01*
X0085524Y0237338D01*
X0085546Y0237225D01*
X0085564Y0237111D01*
X0085578Y0236996D01*
X0085588Y0236881D01*
X0085594Y0236765D01*
X0085596Y0236650D01*
X0085594Y0236535D01*
X0085588Y0236419D01*
X0085578Y0236304D01*
X0085564Y0236189D01*
X0085546Y0236075D01*
X0085524Y0235962D01*
X0085499Y0235849D01*
X0085469Y0235738D01*
X0085436Y0235627D01*
X0085399Y0235518D01*
X0085358Y0235410D01*
X0085313Y0235303D01*
X0085265Y0235198D01*
X0085213Y0235095D01*
X0085157Y0234994D01*
X0085098Y0234894D01*
X0085036Y0234797D01*
X0084970Y0234702D01*
X0084902Y0234609D01*
X0084830Y0234519D01*
X0084755Y0234431D01*
X0084676Y0234346D01*
X0084595Y0234264D01*
X0084512Y0234184D01*
X0084425Y0234108D01*
X0084336Y0234034D01*
X0084245Y0233964D01*
X0084151Y0233896D01*
X0084055Y0233832D01*
X0083956Y0233772D01*
X0083856Y0233715D01*
X0083754Y0233661D01*
X0083650Y0233611D01*
X0083544Y0233564D01*
X0083437Y0233521D01*
X0083328Y0233482D01*
X0083218Y0233447D01*
X0083107Y0233416D01*
X0082995Y0233388D01*
X0082882Y0233364D01*
X0082768Y0233344D01*
X0082653Y0233328D01*
X0082538Y0233316D01*
X0082423Y0233308D01*
X0082308Y0233304D01*
X0082192Y0233304D01*
X0082077Y0233308D01*
X0081962Y0233316D01*
X0081847Y0233328D01*
X0081732Y0233344D01*
X0081618Y0233364D01*
X0081505Y0233388D01*
X0081393Y0233416D01*
X0081282Y0233447D01*
X0081172Y0233482D01*
X0081063Y0233521D01*
X0080956Y0233564D01*
X0080850Y0233611D01*
X0080746Y0233661D01*
X0080644Y0233715D01*
X0080544Y0233772D01*
X0080445Y0233832D01*
X0080349Y0233896D01*
X0080255Y0233964D01*
X0080164Y0234034D01*
X0080075Y0234108D01*
X0079988Y0234184D01*
X0079905Y0234264D01*
X0079824Y0234346D01*
X0079745Y0234431D01*
X0079670Y0234519D01*
X0079598Y0234609D01*
X0079530Y0234702D01*
X0079464Y0234797D01*
X0079402Y0234894D01*
X0079343Y0234994D01*
X0079287Y0235095D01*
X0079235Y0235198D01*
X0079187Y0235303D01*
X0079142Y0235410D01*
X0079101Y0235518D01*
X0079064Y0235627D01*
X0079031Y0235738D01*
X0079001Y0235849D01*
X0078976Y0235962D01*
X0078954Y0236075D01*
X0078936Y0236189D01*
X0078922Y0236304D01*
X0078912Y0236419D01*
X0078906Y0236535D01*
X0078904Y0236650D01*
X0094376Y0236650D02*
X0094378Y0236843D01*
X0094385Y0237036D01*
X0094397Y0237229D01*
X0094414Y0237422D01*
X0094435Y0237614D01*
X0094461Y0237805D01*
X0094492Y0237996D01*
X0094527Y0238186D01*
X0094567Y0238375D01*
X0094612Y0238563D01*
X0094661Y0238750D01*
X0094715Y0238936D01*
X0094773Y0239120D01*
X0094836Y0239303D01*
X0094904Y0239484D01*
X0094975Y0239663D01*
X0095052Y0239841D01*
X0095132Y0240017D01*
X0095217Y0240190D01*
X0095306Y0240362D01*
X0095399Y0240531D01*
X0095496Y0240698D01*
X0095598Y0240863D01*
X0095703Y0241025D01*
X0095812Y0241184D01*
X0095926Y0241341D01*
X0096043Y0241494D01*
X0096163Y0241645D01*
X0096288Y0241793D01*
X0096416Y0241938D01*
X0096547Y0242079D01*
X0096682Y0242218D01*
X0096821Y0242353D01*
X0096962Y0242484D01*
X0097107Y0242612D01*
X0097255Y0242737D01*
X0097406Y0242857D01*
X0097559Y0242974D01*
X0097716Y0243088D01*
X0097875Y0243197D01*
X0098037Y0243302D01*
X0098202Y0243404D01*
X0098369Y0243501D01*
X0098538Y0243594D01*
X0098710Y0243683D01*
X0098883Y0243768D01*
X0099059Y0243848D01*
X0099237Y0243925D01*
X0099416Y0243996D01*
X0099597Y0244064D01*
X0099780Y0244127D01*
X0099964Y0244185D01*
X0100150Y0244239D01*
X0100337Y0244288D01*
X0100525Y0244333D01*
X0100714Y0244373D01*
X0100904Y0244408D01*
X0101095Y0244439D01*
X0101286Y0244465D01*
X0101478Y0244486D01*
X0101671Y0244503D01*
X0101864Y0244515D01*
X0102057Y0244522D01*
X0102250Y0244524D01*
X0102443Y0244522D01*
X0102636Y0244515D01*
X0102829Y0244503D01*
X0103022Y0244486D01*
X0103214Y0244465D01*
X0103405Y0244439D01*
X0103596Y0244408D01*
X0103786Y0244373D01*
X0103975Y0244333D01*
X0104163Y0244288D01*
X0104350Y0244239D01*
X0104536Y0244185D01*
X0104720Y0244127D01*
X0104903Y0244064D01*
X0105084Y0243996D01*
X0105263Y0243925D01*
X0105441Y0243848D01*
X0105617Y0243768D01*
X0105790Y0243683D01*
X0105962Y0243594D01*
X0106131Y0243501D01*
X0106298Y0243404D01*
X0106463Y0243302D01*
X0106625Y0243197D01*
X0106784Y0243088D01*
X0106941Y0242974D01*
X0107094Y0242857D01*
X0107245Y0242737D01*
X0107393Y0242612D01*
X0107538Y0242484D01*
X0107679Y0242353D01*
X0107818Y0242218D01*
X0107953Y0242079D01*
X0108084Y0241938D01*
X0108212Y0241793D01*
X0108337Y0241645D01*
X0108457Y0241494D01*
X0108574Y0241341D01*
X0108688Y0241184D01*
X0108797Y0241025D01*
X0108902Y0240863D01*
X0109004Y0240698D01*
X0109101Y0240531D01*
X0109194Y0240362D01*
X0109283Y0240190D01*
X0109368Y0240017D01*
X0109448Y0239841D01*
X0109525Y0239663D01*
X0109596Y0239484D01*
X0109664Y0239303D01*
X0109727Y0239120D01*
X0109785Y0238936D01*
X0109839Y0238750D01*
X0109888Y0238563D01*
X0109933Y0238375D01*
X0109973Y0238186D01*
X0110008Y0237996D01*
X0110039Y0237805D01*
X0110065Y0237614D01*
X0110086Y0237422D01*
X0110103Y0237229D01*
X0110115Y0237036D01*
X0110122Y0236843D01*
X0110124Y0236650D01*
X0110122Y0236457D01*
X0110115Y0236264D01*
X0110103Y0236071D01*
X0110086Y0235878D01*
X0110065Y0235686D01*
X0110039Y0235495D01*
X0110008Y0235304D01*
X0109973Y0235114D01*
X0109933Y0234925D01*
X0109888Y0234737D01*
X0109839Y0234550D01*
X0109785Y0234364D01*
X0109727Y0234180D01*
X0109664Y0233997D01*
X0109596Y0233816D01*
X0109525Y0233637D01*
X0109448Y0233459D01*
X0109368Y0233283D01*
X0109283Y0233110D01*
X0109194Y0232938D01*
X0109101Y0232769D01*
X0109004Y0232602D01*
X0108902Y0232437D01*
X0108797Y0232275D01*
X0108688Y0232116D01*
X0108574Y0231959D01*
X0108457Y0231806D01*
X0108337Y0231655D01*
X0108212Y0231507D01*
X0108084Y0231362D01*
X0107953Y0231221D01*
X0107818Y0231082D01*
X0107679Y0230947D01*
X0107538Y0230816D01*
X0107393Y0230688D01*
X0107245Y0230563D01*
X0107094Y0230443D01*
X0106941Y0230326D01*
X0106784Y0230212D01*
X0106625Y0230103D01*
X0106463Y0229998D01*
X0106298Y0229896D01*
X0106131Y0229799D01*
X0105962Y0229706D01*
X0105790Y0229617D01*
X0105617Y0229532D01*
X0105441Y0229452D01*
X0105263Y0229375D01*
X0105084Y0229304D01*
X0104903Y0229236D01*
X0104720Y0229173D01*
X0104536Y0229115D01*
X0104350Y0229061D01*
X0104163Y0229012D01*
X0103975Y0228967D01*
X0103786Y0228927D01*
X0103596Y0228892D01*
X0103405Y0228861D01*
X0103214Y0228835D01*
X0103022Y0228814D01*
X0102829Y0228797D01*
X0102636Y0228785D01*
X0102443Y0228778D01*
X0102250Y0228776D01*
X0102057Y0228778D01*
X0101864Y0228785D01*
X0101671Y0228797D01*
X0101478Y0228814D01*
X0101286Y0228835D01*
X0101095Y0228861D01*
X0100904Y0228892D01*
X0100714Y0228927D01*
X0100525Y0228967D01*
X0100337Y0229012D01*
X0100150Y0229061D01*
X0099964Y0229115D01*
X0099780Y0229173D01*
X0099597Y0229236D01*
X0099416Y0229304D01*
X0099237Y0229375D01*
X0099059Y0229452D01*
X0098883Y0229532D01*
X0098710Y0229617D01*
X0098538Y0229706D01*
X0098369Y0229799D01*
X0098202Y0229896D01*
X0098037Y0229998D01*
X0097875Y0230103D01*
X0097716Y0230212D01*
X0097559Y0230326D01*
X0097406Y0230443D01*
X0097255Y0230563D01*
X0097107Y0230688D01*
X0096962Y0230816D01*
X0096821Y0230947D01*
X0096682Y0231082D01*
X0096547Y0231221D01*
X0096416Y0231362D01*
X0096288Y0231507D01*
X0096163Y0231655D01*
X0096043Y0231806D01*
X0095926Y0231959D01*
X0095812Y0232116D01*
X0095703Y0232275D01*
X0095598Y0232437D01*
X0095496Y0232602D01*
X0095399Y0232769D01*
X0095306Y0232938D01*
X0095217Y0233110D01*
X0095132Y0233283D01*
X0095052Y0233459D01*
X0094975Y0233637D01*
X0094904Y0233816D01*
X0094836Y0233997D01*
X0094773Y0234180D01*
X0094715Y0234364D01*
X0094661Y0234550D01*
X0094612Y0234737D01*
X0094567Y0234925D01*
X0094527Y0235114D01*
X0094492Y0235304D01*
X0094461Y0235495D01*
X0094435Y0235686D01*
X0094414Y0235878D01*
X0094397Y0236071D01*
X0094385Y0236264D01*
X0094378Y0236457D01*
X0094376Y0236650D01*
X0118904Y0236650D02*
X0118906Y0236765D01*
X0118912Y0236881D01*
X0118922Y0236996D01*
X0118936Y0237111D01*
X0118954Y0237225D01*
X0118976Y0237338D01*
X0119001Y0237451D01*
X0119031Y0237562D01*
X0119064Y0237673D01*
X0119101Y0237782D01*
X0119142Y0237890D01*
X0119187Y0237997D01*
X0119235Y0238102D01*
X0119287Y0238205D01*
X0119343Y0238306D01*
X0119402Y0238406D01*
X0119464Y0238503D01*
X0119530Y0238598D01*
X0119598Y0238691D01*
X0119670Y0238781D01*
X0119745Y0238869D01*
X0119824Y0238954D01*
X0119905Y0239036D01*
X0119988Y0239116D01*
X0120075Y0239192D01*
X0120164Y0239266D01*
X0120255Y0239336D01*
X0120349Y0239404D01*
X0120445Y0239468D01*
X0120544Y0239528D01*
X0120644Y0239585D01*
X0120746Y0239639D01*
X0120850Y0239689D01*
X0120956Y0239736D01*
X0121063Y0239779D01*
X0121172Y0239818D01*
X0121282Y0239853D01*
X0121393Y0239884D01*
X0121505Y0239912D01*
X0121618Y0239936D01*
X0121732Y0239956D01*
X0121847Y0239972D01*
X0121962Y0239984D01*
X0122077Y0239992D01*
X0122192Y0239996D01*
X0122308Y0239996D01*
X0122423Y0239992D01*
X0122538Y0239984D01*
X0122653Y0239972D01*
X0122768Y0239956D01*
X0122882Y0239936D01*
X0122995Y0239912D01*
X0123107Y0239884D01*
X0123218Y0239853D01*
X0123328Y0239818D01*
X0123437Y0239779D01*
X0123544Y0239736D01*
X0123650Y0239689D01*
X0123754Y0239639D01*
X0123856Y0239585D01*
X0123956Y0239528D01*
X0124055Y0239468D01*
X0124151Y0239404D01*
X0124245Y0239336D01*
X0124336Y0239266D01*
X0124425Y0239192D01*
X0124512Y0239116D01*
X0124595Y0239036D01*
X0124676Y0238954D01*
X0124755Y0238869D01*
X0124830Y0238781D01*
X0124902Y0238691D01*
X0124970Y0238598D01*
X0125036Y0238503D01*
X0125098Y0238406D01*
X0125157Y0238306D01*
X0125213Y0238205D01*
X0125265Y0238102D01*
X0125313Y0237997D01*
X0125358Y0237890D01*
X0125399Y0237782D01*
X0125436Y0237673D01*
X0125469Y0237562D01*
X0125499Y0237451D01*
X0125524Y0237338D01*
X0125546Y0237225D01*
X0125564Y0237111D01*
X0125578Y0236996D01*
X0125588Y0236881D01*
X0125594Y0236765D01*
X0125596Y0236650D01*
X0125594Y0236535D01*
X0125588Y0236419D01*
X0125578Y0236304D01*
X0125564Y0236189D01*
X0125546Y0236075D01*
X0125524Y0235962D01*
X0125499Y0235849D01*
X0125469Y0235738D01*
X0125436Y0235627D01*
X0125399Y0235518D01*
X0125358Y0235410D01*
X0125313Y0235303D01*
X0125265Y0235198D01*
X0125213Y0235095D01*
X0125157Y0234994D01*
X0125098Y0234894D01*
X0125036Y0234797D01*
X0124970Y0234702D01*
X0124902Y0234609D01*
X0124830Y0234519D01*
X0124755Y0234431D01*
X0124676Y0234346D01*
X0124595Y0234264D01*
X0124512Y0234184D01*
X0124425Y0234108D01*
X0124336Y0234034D01*
X0124245Y0233964D01*
X0124151Y0233896D01*
X0124055Y0233832D01*
X0123956Y0233772D01*
X0123856Y0233715D01*
X0123754Y0233661D01*
X0123650Y0233611D01*
X0123544Y0233564D01*
X0123437Y0233521D01*
X0123328Y0233482D01*
X0123218Y0233447D01*
X0123107Y0233416D01*
X0122995Y0233388D01*
X0122882Y0233364D01*
X0122768Y0233344D01*
X0122653Y0233328D01*
X0122538Y0233316D01*
X0122423Y0233308D01*
X0122308Y0233304D01*
X0122192Y0233304D01*
X0122077Y0233308D01*
X0121962Y0233316D01*
X0121847Y0233328D01*
X0121732Y0233344D01*
X0121618Y0233364D01*
X0121505Y0233388D01*
X0121393Y0233416D01*
X0121282Y0233447D01*
X0121172Y0233482D01*
X0121063Y0233521D01*
X0120956Y0233564D01*
X0120850Y0233611D01*
X0120746Y0233661D01*
X0120644Y0233715D01*
X0120544Y0233772D01*
X0120445Y0233832D01*
X0120349Y0233896D01*
X0120255Y0233964D01*
X0120164Y0234034D01*
X0120075Y0234108D01*
X0119988Y0234184D01*
X0119905Y0234264D01*
X0119824Y0234346D01*
X0119745Y0234431D01*
X0119670Y0234519D01*
X0119598Y0234609D01*
X0119530Y0234702D01*
X0119464Y0234797D01*
X0119402Y0234894D01*
X0119343Y0234994D01*
X0119287Y0235095D01*
X0119235Y0235198D01*
X0119187Y0235303D01*
X0119142Y0235410D01*
X0119101Y0235518D01*
X0119064Y0235627D01*
X0119031Y0235738D01*
X0119001Y0235849D01*
X0118976Y0235962D01*
X0118954Y0236075D01*
X0118936Y0236189D01*
X0118922Y0236304D01*
X0118912Y0236419D01*
X0118906Y0236535D01*
X0118904Y0236650D01*
X0118904Y0106650D02*
X0118906Y0106765D01*
X0118912Y0106881D01*
X0118922Y0106996D01*
X0118936Y0107111D01*
X0118954Y0107225D01*
X0118976Y0107338D01*
X0119001Y0107451D01*
X0119031Y0107562D01*
X0119064Y0107673D01*
X0119101Y0107782D01*
X0119142Y0107890D01*
X0119187Y0107997D01*
X0119235Y0108102D01*
X0119287Y0108205D01*
X0119343Y0108306D01*
X0119402Y0108406D01*
X0119464Y0108503D01*
X0119530Y0108598D01*
X0119598Y0108691D01*
X0119670Y0108781D01*
X0119745Y0108869D01*
X0119824Y0108954D01*
X0119905Y0109036D01*
X0119988Y0109116D01*
X0120075Y0109192D01*
X0120164Y0109266D01*
X0120255Y0109336D01*
X0120349Y0109404D01*
X0120445Y0109468D01*
X0120544Y0109528D01*
X0120644Y0109585D01*
X0120746Y0109639D01*
X0120850Y0109689D01*
X0120956Y0109736D01*
X0121063Y0109779D01*
X0121172Y0109818D01*
X0121282Y0109853D01*
X0121393Y0109884D01*
X0121505Y0109912D01*
X0121618Y0109936D01*
X0121732Y0109956D01*
X0121847Y0109972D01*
X0121962Y0109984D01*
X0122077Y0109992D01*
X0122192Y0109996D01*
X0122308Y0109996D01*
X0122423Y0109992D01*
X0122538Y0109984D01*
X0122653Y0109972D01*
X0122768Y0109956D01*
X0122882Y0109936D01*
X0122995Y0109912D01*
X0123107Y0109884D01*
X0123218Y0109853D01*
X0123328Y0109818D01*
X0123437Y0109779D01*
X0123544Y0109736D01*
X0123650Y0109689D01*
X0123754Y0109639D01*
X0123856Y0109585D01*
X0123956Y0109528D01*
X0124055Y0109468D01*
X0124151Y0109404D01*
X0124245Y0109336D01*
X0124336Y0109266D01*
X0124425Y0109192D01*
X0124512Y0109116D01*
X0124595Y0109036D01*
X0124676Y0108954D01*
X0124755Y0108869D01*
X0124830Y0108781D01*
X0124902Y0108691D01*
X0124970Y0108598D01*
X0125036Y0108503D01*
X0125098Y0108406D01*
X0125157Y0108306D01*
X0125213Y0108205D01*
X0125265Y0108102D01*
X0125313Y0107997D01*
X0125358Y0107890D01*
X0125399Y0107782D01*
X0125436Y0107673D01*
X0125469Y0107562D01*
X0125499Y0107451D01*
X0125524Y0107338D01*
X0125546Y0107225D01*
X0125564Y0107111D01*
X0125578Y0106996D01*
X0125588Y0106881D01*
X0125594Y0106765D01*
X0125596Y0106650D01*
X0125594Y0106535D01*
X0125588Y0106419D01*
X0125578Y0106304D01*
X0125564Y0106189D01*
X0125546Y0106075D01*
X0125524Y0105962D01*
X0125499Y0105849D01*
X0125469Y0105738D01*
X0125436Y0105627D01*
X0125399Y0105518D01*
X0125358Y0105410D01*
X0125313Y0105303D01*
X0125265Y0105198D01*
X0125213Y0105095D01*
X0125157Y0104994D01*
X0125098Y0104894D01*
X0125036Y0104797D01*
X0124970Y0104702D01*
X0124902Y0104609D01*
X0124830Y0104519D01*
X0124755Y0104431D01*
X0124676Y0104346D01*
X0124595Y0104264D01*
X0124512Y0104184D01*
X0124425Y0104108D01*
X0124336Y0104034D01*
X0124245Y0103964D01*
X0124151Y0103896D01*
X0124055Y0103832D01*
X0123956Y0103772D01*
X0123856Y0103715D01*
X0123754Y0103661D01*
X0123650Y0103611D01*
X0123544Y0103564D01*
X0123437Y0103521D01*
X0123328Y0103482D01*
X0123218Y0103447D01*
X0123107Y0103416D01*
X0122995Y0103388D01*
X0122882Y0103364D01*
X0122768Y0103344D01*
X0122653Y0103328D01*
X0122538Y0103316D01*
X0122423Y0103308D01*
X0122308Y0103304D01*
X0122192Y0103304D01*
X0122077Y0103308D01*
X0121962Y0103316D01*
X0121847Y0103328D01*
X0121732Y0103344D01*
X0121618Y0103364D01*
X0121505Y0103388D01*
X0121393Y0103416D01*
X0121282Y0103447D01*
X0121172Y0103482D01*
X0121063Y0103521D01*
X0120956Y0103564D01*
X0120850Y0103611D01*
X0120746Y0103661D01*
X0120644Y0103715D01*
X0120544Y0103772D01*
X0120445Y0103832D01*
X0120349Y0103896D01*
X0120255Y0103964D01*
X0120164Y0104034D01*
X0120075Y0104108D01*
X0119988Y0104184D01*
X0119905Y0104264D01*
X0119824Y0104346D01*
X0119745Y0104431D01*
X0119670Y0104519D01*
X0119598Y0104609D01*
X0119530Y0104702D01*
X0119464Y0104797D01*
X0119402Y0104894D01*
X0119343Y0104994D01*
X0119287Y0105095D01*
X0119235Y0105198D01*
X0119187Y0105303D01*
X0119142Y0105410D01*
X0119101Y0105518D01*
X0119064Y0105627D01*
X0119031Y0105738D01*
X0119001Y0105849D01*
X0118976Y0105962D01*
X0118954Y0106075D01*
X0118936Y0106189D01*
X0118922Y0106304D01*
X0118912Y0106419D01*
X0118906Y0106535D01*
X0118904Y0106650D01*
X0094376Y0106650D02*
X0094378Y0106843D01*
X0094385Y0107036D01*
X0094397Y0107229D01*
X0094414Y0107422D01*
X0094435Y0107614D01*
X0094461Y0107805D01*
X0094492Y0107996D01*
X0094527Y0108186D01*
X0094567Y0108375D01*
X0094612Y0108563D01*
X0094661Y0108750D01*
X0094715Y0108936D01*
X0094773Y0109120D01*
X0094836Y0109303D01*
X0094904Y0109484D01*
X0094975Y0109663D01*
X0095052Y0109841D01*
X0095132Y0110017D01*
X0095217Y0110190D01*
X0095306Y0110362D01*
X0095399Y0110531D01*
X0095496Y0110698D01*
X0095598Y0110863D01*
X0095703Y0111025D01*
X0095812Y0111184D01*
X0095926Y0111341D01*
X0096043Y0111494D01*
X0096163Y0111645D01*
X0096288Y0111793D01*
X0096416Y0111938D01*
X0096547Y0112079D01*
X0096682Y0112218D01*
X0096821Y0112353D01*
X0096962Y0112484D01*
X0097107Y0112612D01*
X0097255Y0112737D01*
X0097406Y0112857D01*
X0097559Y0112974D01*
X0097716Y0113088D01*
X0097875Y0113197D01*
X0098037Y0113302D01*
X0098202Y0113404D01*
X0098369Y0113501D01*
X0098538Y0113594D01*
X0098710Y0113683D01*
X0098883Y0113768D01*
X0099059Y0113848D01*
X0099237Y0113925D01*
X0099416Y0113996D01*
X0099597Y0114064D01*
X0099780Y0114127D01*
X0099964Y0114185D01*
X0100150Y0114239D01*
X0100337Y0114288D01*
X0100525Y0114333D01*
X0100714Y0114373D01*
X0100904Y0114408D01*
X0101095Y0114439D01*
X0101286Y0114465D01*
X0101478Y0114486D01*
X0101671Y0114503D01*
X0101864Y0114515D01*
X0102057Y0114522D01*
X0102250Y0114524D01*
X0102443Y0114522D01*
X0102636Y0114515D01*
X0102829Y0114503D01*
X0103022Y0114486D01*
X0103214Y0114465D01*
X0103405Y0114439D01*
X0103596Y0114408D01*
X0103786Y0114373D01*
X0103975Y0114333D01*
X0104163Y0114288D01*
X0104350Y0114239D01*
X0104536Y0114185D01*
X0104720Y0114127D01*
X0104903Y0114064D01*
X0105084Y0113996D01*
X0105263Y0113925D01*
X0105441Y0113848D01*
X0105617Y0113768D01*
X0105790Y0113683D01*
X0105962Y0113594D01*
X0106131Y0113501D01*
X0106298Y0113404D01*
X0106463Y0113302D01*
X0106625Y0113197D01*
X0106784Y0113088D01*
X0106941Y0112974D01*
X0107094Y0112857D01*
X0107245Y0112737D01*
X0107393Y0112612D01*
X0107538Y0112484D01*
X0107679Y0112353D01*
X0107818Y0112218D01*
X0107953Y0112079D01*
X0108084Y0111938D01*
X0108212Y0111793D01*
X0108337Y0111645D01*
X0108457Y0111494D01*
X0108574Y0111341D01*
X0108688Y0111184D01*
X0108797Y0111025D01*
X0108902Y0110863D01*
X0109004Y0110698D01*
X0109101Y0110531D01*
X0109194Y0110362D01*
X0109283Y0110190D01*
X0109368Y0110017D01*
X0109448Y0109841D01*
X0109525Y0109663D01*
X0109596Y0109484D01*
X0109664Y0109303D01*
X0109727Y0109120D01*
X0109785Y0108936D01*
X0109839Y0108750D01*
X0109888Y0108563D01*
X0109933Y0108375D01*
X0109973Y0108186D01*
X0110008Y0107996D01*
X0110039Y0107805D01*
X0110065Y0107614D01*
X0110086Y0107422D01*
X0110103Y0107229D01*
X0110115Y0107036D01*
X0110122Y0106843D01*
X0110124Y0106650D01*
X0110122Y0106457D01*
X0110115Y0106264D01*
X0110103Y0106071D01*
X0110086Y0105878D01*
X0110065Y0105686D01*
X0110039Y0105495D01*
X0110008Y0105304D01*
X0109973Y0105114D01*
X0109933Y0104925D01*
X0109888Y0104737D01*
X0109839Y0104550D01*
X0109785Y0104364D01*
X0109727Y0104180D01*
X0109664Y0103997D01*
X0109596Y0103816D01*
X0109525Y0103637D01*
X0109448Y0103459D01*
X0109368Y0103283D01*
X0109283Y0103110D01*
X0109194Y0102938D01*
X0109101Y0102769D01*
X0109004Y0102602D01*
X0108902Y0102437D01*
X0108797Y0102275D01*
X0108688Y0102116D01*
X0108574Y0101959D01*
X0108457Y0101806D01*
X0108337Y0101655D01*
X0108212Y0101507D01*
X0108084Y0101362D01*
X0107953Y0101221D01*
X0107818Y0101082D01*
X0107679Y0100947D01*
X0107538Y0100816D01*
X0107393Y0100688D01*
X0107245Y0100563D01*
X0107094Y0100443D01*
X0106941Y0100326D01*
X0106784Y0100212D01*
X0106625Y0100103D01*
X0106463Y0099998D01*
X0106298Y0099896D01*
X0106131Y0099799D01*
X0105962Y0099706D01*
X0105790Y0099617D01*
X0105617Y0099532D01*
X0105441Y0099452D01*
X0105263Y0099375D01*
X0105084Y0099304D01*
X0104903Y0099236D01*
X0104720Y0099173D01*
X0104536Y0099115D01*
X0104350Y0099061D01*
X0104163Y0099012D01*
X0103975Y0098967D01*
X0103786Y0098927D01*
X0103596Y0098892D01*
X0103405Y0098861D01*
X0103214Y0098835D01*
X0103022Y0098814D01*
X0102829Y0098797D01*
X0102636Y0098785D01*
X0102443Y0098778D01*
X0102250Y0098776D01*
X0102057Y0098778D01*
X0101864Y0098785D01*
X0101671Y0098797D01*
X0101478Y0098814D01*
X0101286Y0098835D01*
X0101095Y0098861D01*
X0100904Y0098892D01*
X0100714Y0098927D01*
X0100525Y0098967D01*
X0100337Y0099012D01*
X0100150Y0099061D01*
X0099964Y0099115D01*
X0099780Y0099173D01*
X0099597Y0099236D01*
X0099416Y0099304D01*
X0099237Y0099375D01*
X0099059Y0099452D01*
X0098883Y0099532D01*
X0098710Y0099617D01*
X0098538Y0099706D01*
X0098369Y0099799D01*
X0098202Y0099896D01*
X0098037Y0099998D01*
X0097875Y0100103D01*
X0097716Y0100212D01*
X0097559Y0100326D01*
X0097406Y0100443D01*
X0097255Y0100563D01*
X0097107Y0100688D01*
X0096962Y0100816D01*
X0096821Y0100947D01*
X0096682Y0101082D01*
X0096547Y0101221D01*
X0096416Y0101362D01*
X0096288Y0101507D01*
X0096163Y0101655D01*
X0096043Y0101806D01*
X0095926Y0101959D01*
X0095812Y0102116D01*
X0095703Y0102275D01*
X0095598Y0102437D01*
X0095496Y0102602D01*
X0095399Y0102769D01*
X0095306Y0102938D01*
X0095217Y0103110D01*
X0095132Y0103283D01*
X0095052Y0103459D01*
X0094975Y0103637D01*
X0094904Y0103816D01*
X0094836Y0103997D01*
X0094773Y0104180D01*
X0094715Y0104364D01*
X0094661Y0104550D01*
X0094612Y0104737D01*
X0094567Y0104925D01*
X0094527Y0105114D01*
X0094492Y0105304D01*
X0094461Y0105495D01*
X0094435Y0105686D01*
X0094414Y0105878D01*
X0094397Y0106071D01*
X0094385Y0106264D01*
X0094378Y0106457D01*
X0094376Y0106650D01*
X0078904Y0106650D02*
X0078906Y0106765D01*
X0078912Y0106881D01*
X0078922Y0106996D01*
X0078936Y0107111D01*
X0078954Y0107225D01*
X0078976Y0107338D01*
X0079001Y0107451D01*
X0079031Y0107562D01*
X0079064Y0107673D01*
X0079101Y0107782D01*
X0079142Y0107890D01*
X0079187Y0107997D01*
X0079235Y0108102D01*
X0079287Y0108205D01*
X0079343Y0108306D01*
X0079402Y0108406D01*
X0079464Y0108503D01*
X0079530Y0108598D01*
X0079598Y0108691D01*
X0079670Y0108781D01*
X0079745Y0108869D01*
X0079824Y0108954D01*
X0079905Y0109036D01*
X0079988Y0109116D01*
X0080075Y0109192D01*
X0080164Y0109266D01*
X0080255Y0109336D01*
X0080349Y0109404D01*
X0080445Y0109468D01*
X0080544Y0109528D01*
X0080644Y0109585D01*
X0080746Y0109639D01*
X0080850Y0109689D01*
X0080956Y0109736D01*
X0081063Y0109779D01*
X0081172Y0109818D01*
X0081282Y0109853D01*
X0081393Y0109884D01*
X0081505Y0109912D01*
X0081618Y0109936D01*
X0081732Y0109956D01*
X0081847Y0109972D01*
X0081962Y0109984D01*
X0082077Y0109992D01*
X0082192Y0109996D01*
X0082308Y0109996D01*
X0082423Y0109992D01*
X0082538Y0109984D01*
X0082653Y0109972D01*
X0082768Y0109956D01*
X0082882Y0109936D01*
X0082995Y0109912D01*
X0083107Y0109884D01*
X0083218Y0109853D01*
X0083328Y0109818D01*
X0083437Y0109779D01*
X0083544Y0109736D01*
X0083650Y0109689D01*
X0083754Y0109639D01*
X0083856Y0109585D01*
X0083956Y0109528D01*
X0084055Y0109468D01*
X0084151Y0109404D01*
X0084245Y0109336D01*
X0084336Y0109266D01*
X0084425Y0109192D01*
X0084512Y0109116D01*
X0084595Y0109036D01*
X0084676Y0108954D01*
X0084755Y0108869D01*
X0084830Y0108781D01*
X0084902Y0108691D01*
X0084970Y0108598D01*
X0085036Y0108503D01*
X0085098Y0108406D01*
X0085157Y0108306D01*
X0085213Y0108205D01*
X0085265Y0108102D01*
X0085313Y0107997D01*
X0085358Y0107890D01*
X0085399Y0107782D01*
X0085436Y0107673D01*
X0085469Y0107562D01*
X0085499Y0107451D01*
X0085524Y0107338D01*
X0085546Y0107225D01*
X0085564Y0107111D01*
X0085578Y0106996D01*
X0085588Y0106881D01*
X0085594Y0106765D01*
X0085596Y0106650D01*
X0085594Y0106535D01*
X0085588Y0106419D01*
X0085578Y0106304D01*
X0085564Y0106189D01*
X0085546Y0106075D01*
X0085524Y0105962D01*
X0085499Y0105849D01*
X0085469Y0105738D01*
X0085436Y0105627D01*
X0085399Y0105518D01*
X0085358Y0105410D01*
X0085313Y0105303D01*
X0085265Y0105198D01*
X0085213Y0105095D01*
X0085157Y0104994D01*
X0085098Y0104894D01*
X0085036Y0104797D01*
X0084970Y0104702D01*
X0084902Y0104609D01*
X0084830Y0104519D01*
X0084755Y0104431D01*
X0084676Y0104346D01*
X0084595Y0104264D01*
X0084512Y0104184D01*
X0084425Y0104108D01*
X0084336Y0104034D01*
X0084245Y0103964D01*
X0084151Y0103896D01*
X0084055Y0103832D01*
X0083956Y0103772D01*
X0083856Y0103715D01*
X0083754Y0103661D01*
X0083650Y0103611D01*
X0083544Y0103564D01*
X0083437Y0103521D01*
X0083328Y0103482D01*
X0083218Y0103447D01*
X0083107Y0103416D01*
X0082995Y0103388D01*
X0082882Y0103364D01*
X0082768Y0103344D01*
X0082653Y0103328D01*
X0082538Y0103316D01*
X0082423Y0103308D01*
X0082308Y0103304D01*
X0082192Y0103304D01*
X0082077Y0103308D01*
X0081962Y0103316D01*
X0081847Y0103328D01*
X0081732Y0103344D01*
X0081618Y0103364D01*
X0081505Y0103388D01*
X0081393Y0103416D01*
X0081282Y0103447D01*
X0081172Y0103482D01*
X0081063Y0103521D01*
X0080956Y0103564D01*
X0080850Y0103611D01*
X0080746Y0103661D01*
X0080644Y0103715D01*
X0080544Y0103772D01*
X0080445Y0103832D01*
X0080349Y0103896D01*
X0080255Y0103964D01*
X0080164Y0104034D01*
X0080075Y0104108D01*
X0079988Y0104184D01*
X0079905Y0104264D01*
X0079824Y0104346D01*
X0079745Y0104431D01*
X0079670Y0104519D01*
X0079598Y0104609D01*
X0079530Y0104702D01*
X0079464Y0104797D01*
X0079402Y0104894D01*
X0079343Y0104994D01*
X0079287Y0105095D01*
X0079235Y0105198D01*
X0079187Y0105303D01*
X0079142Y0105410D01*
X0079101Y0105518D01*
X0079064Y0105627D01*
X0079031Y0105738D01*
X0079001Y0105849D01*
X0078976Y0105962D01*
X0078954Y0106075D01*
X0078936Y0106189D01*
X0078922Y0106304D01*
X0078912Y0106419D01*
X0078906Y0106535D01*
X0078904Y0106650D01*
X0245750Y0016650D02*
X0245752Y0016811D01*
X0245758Y0016971D01*
X0245768Y0017132D01*
X0245782Y0017292D01*
X0245800Y0017452D01*
X0245821Y0017611D01*
X0245847Y0017770D01*
X0245877Y0017928D01*
X0245910Y0018085D01*
X0245948Y0018242D01*
X0245989Y0018397D01*
X0246034Y0018551D01*
X0246083Y0018704D01*
X0246136Y0018856D01*
X0246192Y0019007D01*
X0246253Y0019156D01*
X0246316Y0019304D01*
X0246384Y0019450D01*
X0246455Y0019594D01*
X0246529Y0019736D01*
X0246607Y0019877D01*
X0246689Y0020015D01*
X0246774Y0020152D01*
X0246862Y0020286D01*
X0246954Y0020418D01*
X0247049Y0020548D01*
X0247147Y0020676D01*
X0247248Y0020801D01*
X0247352Y0020923D01*
X0247459Y0021043D01*
X0247569Y0021160D01*
X0247682Y0021275D01*
X0247798Y0021386D01*
X0247917Y0021495D01*
X0248038Y0021600D01*
X0248162Y0021703D01*
X0248288Y0021803D01*
X0248416Y0021899D01*
X0248547Y0021992D01*
X0248681Y0022082D01*
X0248816Y0022169D01*
X0248954Y0022252D01*
X0249093Y0022332D01*
X0249235Y0022408D01*
X0249378Y0022481D01*
X0249523Y0022550D01*
X0249670Y0022616D01*
X0249818Y0022678D01*
X0249968Y0022736D01*
X0250119Y0022791D01*
X0250272Y0022842D01*
X0250426Y0022889D01*
X0250581Y0022932D01*
X0250737Y0022971D01*
X0250893Y0023007D01*
X0251051Y0023038D01*
X0251209Y0023066D01*
X0251368Y0023090D01*
X0251528Y0023110D01*
X0251688Y0023126D01*
X0251848Y0023138D01*
X0252009Y0023146D01*
X0252170Y0023150D01*
X0252330Y0023150D01*
X0252491Y0023146D01*
X0252652Y0023138D01*
X0252812Y0023126D01*
X0252972Y0023110D01*
X0253132Y0023090D01*
X0253291Y0023066D01*
X0253449Y0023038D01*
X0253607Y0023007D01*
X0253763Y0022971D01*
X0253919Y0022932D01*
X0254074Y0022889D01*
X0254228Y0022842D01*
X0254381Y0022791D01*
X0254532Y0022736D01*
X0254682Y0022678D01*
X0254830Y0022616D01*
X0254977Y0022550D01*
X0255122Y0022481D01*
X0255265Y0022408D01*
X0255407Y0022332D01*
X0255546Y0022252D01*
X0255684Y0022169D01*
X0255819Y0022082D01*
X0255953Y0021992D01*
X0256084Y0021899D01*
X0256212Y0021803D01*
X0256338Y0021703D01*
X0256462Y0021600D01*
X0256583Y0021495D01*
X0256702Y0021386D01*
X0256818Y0021275D01*
X0256931Y0021160D01*
X0257041Y0021043D01*
X0257148Y0020923D01*
X0257252Y0020801D01*
X0257353Y0020676D01*
X0257451Y0020548D01*
X0257546Y0020418D01*
X0257638Y0020286D01*
X0257726Y0020152D01*
X0257811Y0020015D01*
X0257893Y0019877D01*
X0257971Y0019736D01*
X0258045Y0019594D01*
X0258116Y0019450D01*
X0258184Y0019304D01*
X0258247Y0019156D01*
X0258308Y0019007D01*
X0258364Y0018856D01*
X0258417Y0018704D01*
X0258466Y0018551D01*
X0258511Y0018397D01*
X0258552Y0018242D01*
X0258590Y0018085D01*
X0258623Y0017928D01*
X0258653Y0017770D01*
X0258679Y0017611D01*
X0258700Y0017452D01*
X0258718Y0017292D01*
X0258732Y0017132D01*
X0258742Y0016971D01*
X0258748Y0016811D01*
X0258750Y0016650D01*
X0258748Y0016489D01*
X0258742Y0016329D01*
X0258732Y0016168D01*
X0258718Y0016008D01*
X0258700Y0015848D01*
X0258679Y0015689D01*
X0258653Y0015530D01*
X0258623Y0015372D01*
X0258590Y0015215D01*
X0258552Y0015058D01*
X0258511Y0014903D01*
X0258466Y0014749D01*
X0258417Y0014596D01*
X0258364Y0014444D01*
X0258308Y0014293D01*
X0258247Y0014144D01*
X0258184Y0013996D01*
X0258116Y0013850D01*
X0258045Y0013706D01*
X0257971Y0013564D01*
X0257893Y0013423D01*
X0257811Y0013285D01*
X0257726Y0013148D01*
X0257638Y0013014D01*
X0257546Y0012882D01*
X0257451Y0012752D01*
X0257353Y0012624D01*
X0257252Y0012499D01*
X0257148Y0012377D01*
X0257041Y0012257D01*
X0256931Y0012140D01*
X0256818Y0012025D01*
X0256702Y0011914D01*
X0256583Y0011805D01*
X0256462Y0011700D01*
X0256338Y0011597D01*
X0256212Y0011497D01*
X0256084Y0011401D01*
X0255953Y0011308D01*
X0255819Y0011218D01*
X0255684Y0011131D01*
X0255546Y0011048D01*
X0255407Y0010968D01*
X0255265Y0010892D01*
X0255122Y0010819D01*
X0254977Y0010750D01*
X0254830Y0010684D01*
X0254682Y0010622D01*
X0254532Y0010564D01*
X0254381Y0010509D01*
X0254228Y0010458D01*
X0254074Y0010411D01*
X0253919Y0010368D01*
X0253763Y0010329D01*
X0253607Y0010293D01*
X0253449Y0010262D01*
X0253291Y0010234D01*
X0253132Y0010210D01*
X0252972Y0010190D01*
X0252812Y0010174D01*
X0252652Y0010162D01*
X0252491Y0010154D01*
X0252330Y0010150D01*
X0252170Y0010150D01*
X0252009Y0010154D01*
X0251848Y0010162D01*
X0251688Y0010174D01*
X0251528Y0010190D01*
X0251368Y0010210D01*
X0251209Y0010234D01*
X0251051Y0010262D01*
X0250893Y0010293D01*
X0250737Y0010329D01*
X0250581Y0010368D01*
X0250426Y0010411D01*
X0250272Y0010458D01*
X0250119Y0010509D01*
X0249968Y0010564D01*
X0249818Y0010622D01*
X0249670Y0010684D01*
X0249523Y0010750D01*
X0249378Y0010819D01*
X0249235Y0010892D01*
X0249093Y0010968D01*
X0248954Y0011048D01*
X0248816Y0011131D01*
X0248681Y0011218D01*
X0248547Y0011308D01*
X0248416Y0011401D01*
X0248288Y0011497D01*
X0248162Y0011597D01*
X0248038Y0011700D01*
X0247917Y0011805D01*
X0247798Y0011914D01*
X0247682Y0012025D01*
X0247569Y0012140D01*
X0247459Y0012257D01*
X0247352Y0012377D01*
X0247248Y0012499D01*
X0247147Y0012624D01*
X0247049Y0012752D01*
X0246954Y0012882D01*
X0246862Y0013014D01*
X0246774Y0013148D01*
X0246689Y0013285D01*
X0246607Y0013423D01*
X0246529Y0013564D01*
X0246455Y0013706D01*
X0246384Y0013850D01*
X0246316Y0013996D01*
X0246253Y0014144D01*
X0246192Y0014293D01*
X0246136Y0014444D01*
X0246083Y0014596D01*
X0246034Y0014749D01*
X0245989Y0014903D01*
X0245948Y0015058D01*
X0245910Y0015215D01*
X0245877Y0015372D01*
X0245847Y0015530D01*
X0245821Y0015689D01*
X0245800Y0015848D01*
X0245782Y0016008D01*
X0245768Y0016168D01*
X0245758Y0016329D01*
X0245752Y0016489D01*
X0245750Y0016650D01*
X0245750Y0261650D02*
X0245752Y0261811D01*
X0245758Y0261971D01*
X0245768Y0262132D01*
X0245782Y0262292D01*
X0245800Y0262452D01*
X0245821Y0262611D01*
X0245847Y0262770D01*
X0245877Y0262928D01*
X0245910Y0263085D01*
X0245948Y0263242D01*
X0245989Y0263397D01*
X0246034Y0263551D01*
X0246083Y0263704D01*
X0246136Y0263856D01*
X0246192Y0264007D01*
X0246253Y0264156D01*
X0246316Y0264304D01*
X0246384Y0264450D01*
X0246455Y0264594D01*
X0246529Y0264736D01*
X0246607Y0264877D01*
X0246689Y0265015D01*
X0246774Y0265152D01*
X0246862Y0265286D01*
X0246954Y0265418D01*
X0247049Y0265548D01*
X0247147Y0265676D01*
X0247248Y0265801D01*
X0247352Y0265923D01*
X0247459Y0266043D01*
X0247569Y0266160D01*
X0247682Y0266275D01*
X0247798Y0266386D01*
X0247917Y0266495D01*
X0248038Y0266600D01*
X0248162Y0266703D01*
X0248288Y0266803D01*
X0248416Y0266899D01*
X0248547Y0266992D01*
X0248681Y0267082D01*
X0248816Y0267169D01*
X0248954Y0267252D01*
X0249093Y0267332D01*
X0249235Y0267408D01*
X0249378Y0267481D01*
X0249523Y0267550D01*
X0249670Y0267616D01*
X0249818Y0267678D01*
X0249968Y0267736D01*
X0250119Y0267791D01*
X0250272Y0267842D01*
X0250426Y0267889D01*
X0250581Y0267932D01*
X0250737Y0267971D01*
X0250893Y0268007D01*
X0251051Y0268038D01*
X0251209Y0268066D01*
X0251368Y0268090D01*
X0251528Y0268110D01*
X0251688Y0268126D01*
X0251848Y0268138D01*
X0252009Y0268146D01*
X0252170Y0268150D01*
X0252330Y0268150D01*
X0252491Y0268146D01*
X0252652Y0268138D01*
X0252812Y0268126D01*
X0252972Y0268110D01*
X0253132Y0268090D01*
X0253291Y0268066D01*
X0253449Y0268038D01*
X0253607Y0268007D01*
X0253763Y0267971D01*
X0253919Y0267932D01*
X0254074Y0267889D01*
X0254228Y0267842D01*
X0254381Y0267791D01*
X0254532Y0267736D01*
X0254682Y0267678D01*
X0254830Y0267616D01*
X0254977Y0267550D01*
X0255122Y0267481D01*
X0255265Y0267408D01*
X0255407Y0267332D01*
X0255546Y0267252D01*
X0255684Y0267169D01*
X0255819Y0267082D01*
X0255953Y0266992D01*
X0256084Y0266899D01*
X0256212Y0266803D01*
X0256338Y0266703D01*
X0256462Y0266600D01*
X0256583Y0266495D01*
X0256702Y0266386D01*
X0256818Y0266275D01*
X0256931Y0266160D01*
X0257041Y0266043D01*
X0257148Y0265923D01*
X0257252Y0265801D01*
X0257353Y0265676D01*
X0257451Y0265548D01*
X0257546Y0265418D01*
X0257638Y0265286D01*
X0257726Y0265152D01*
X0257811Y0265015D01*
X0257893Y0264877D01*
X0257971Y0264736D01*
X0258045Y0264594D01*
X0258116Y0264450D01*
X0258184Y0264304D01*
X0258247Y0264156D01*
X0258308Y0264007D01*
X0258364Y0263856D01*
X0258417Y0263704D01*
X0258466Y0263551D01*
X0258511Y0263397D01*
X0258552Y0263242D01*
X0258590Y0263085D01*
X0258623Y0262928D01*
X0258653Y0262770D01*
X0258679Y0262611D01*
X0258700Y0262452D01*
X0258718Y0262292D01*
X0258732Y0262132D01*
X0258742Y0261971D01*
X0258748Y0261811D01*
X0258750Y0261650D01*
X0258748Y0261489D01*
X0258742Y0261329D01*
X0258732Y0261168D01*
X0258718Y0261008D01*
X0258700Y0260848D01*
X0258679Y0260689D01*
X0258653Y0260530D01*
X0258623Y0260372D01*
X0258590Y0260215D01*
X0258552Y0260058D01*
X0258511Y0259903D01*
X0258466Y0259749D01*
X0258417Y0259596D01*
X0258364Y0259444D01*
X0258308Y0259293D01*
X0258247Y0259144D01*
X0258184Y0258996D01*
X0258116Y0258850D01*
X0258045Y0258706D01*
X0257971Y0258564D01*
X0257893Y0258423D01*
X0257811Y0258285D01*
X0257726Y0258148D01*
X0257638Y0258014D01*
X0257546Y0257882D01*
X0257451Y0257752D01*
X0257353Y0257624D01*
X0257252Y0257499D01*
X0257148Y0257377D01*
X0257041Y0257257D01*
X0256931Y0257140D01*
X0256818Y0257025D01*
X0256702Y0256914D01*
X0256583Y0256805D01*
X0256462Y0256700D01*
X0256338Y0256597D01*
X0256212Y0256497D01*
X0256084Y0256401D01*
X0255953Y0256308D01*
X0255819Y0256218D01*
X0255684Y0256131D01*
X0255546Y0256048D01*
X0255407Y0255968D01*
X0255265Y0255892D01*
X0255122Y0255819D01*
X0254977Y0255750D01*
X0254830Y0255684D01*
X0254682Y0255622D01*
X0254532Y0255564D01*
X0254381Y0255509D01*
X0254228Y0255458D01*
X0254074Y0255411D01*
X0253919Y0255368D01*
X0253763Y0255329D01*
X0253607Y0255293D01*
X0253449Y0255262D01*
X0253291Y0255234D01*
X0253132Y0255210D01*
X0252972Y0255190D01*
X0252812Y0255174D01*
X0252652Y0255162D01*
X0252491Y0255154D01*
X0252330Y0255150D01*
X0252170Y0255150D01*
X0252009Y0255154D01*
X0251848Y0255162D01*
X0251688Y0255174D01*
X0251528Y0255190D01*
X0251368Y0255210D01*
X0251209Y0255234D01*
X0251051Y0255262D01*
X0250893Y0255293D01*
X0250737Y0255329D01*
X0250581Y0255368D01*
X0250426Y0255411D01*
X0250272Y0255458D01*
X0250119Y0255509D01*
X0249968Y0255564D01*
X0249818Y0255622D01*
X0249670Y0255684D01*
X0249523Y0255750D01*
X0249378Y0255819D01*
X0249235Y0255892D01*
X0249093Y0255968D01*
X0248954Y0256048D01*
X0248816Y0256131D01*
X0248681Y0256218D01*
X0248547Y0256308D01*
X0248416Y0256401D01*
X0248288Y0256497D01*
X0248162Y0256597D01*
X0248038Y0256700D01*
X0247917Y0256805D01*
X0247798Y0256914D01*
X0247682Y0257025D01*
X0247569Y0257140D01*
X0247459Y0257257D01*
X0247352Y0257377D01*
X0247248Y0257499D01*
X0247147Y0257624D01*
X0247049Y0257752D01*
X0246954Y0257882D01*
X0246862Y0258014D01*
X0246774Y0258148D01*
X0246689Y0258285D01*
X0246607Y0258423D01*
X0246529Y0258564D01*
X0246455Y0258706D01*
X0246384Y0258850D01*
X0246316Y0258996D01*
X0246253Y0259144D01*
X0246192Y0259293D01*
X0246136Y0259444D01*
X0246083Y0259596D01*
X0246034Y0259749D01*
X0245989Y0259903D01*
X0245948Y0260058D01*
X0245910Y0260215D01*
X0245877Y0260372D01*
X0245847Y0260530D01*
X0245821Y0260689D01*
X0245800Y0260848D01*
X0245782Y0261008D01*
X0245768Y0261168D01*
X0245758Y0261329D01*
X0245752Y0261489D01*
X0245750Y0261650D01*
M02*
