%
M48
M72
T01C0.0120
T02C0.0150
T03C0.0256
T04C0.0335
T05C0.0669
%
T01
X14089Y5130
X14709Y5150
X14709Y4100
X15709Y4650
X15859Y4950
X16159Y4250
X16559Y4250
X18179Y3900
X18278Y3600
X17603Y6420
X17859Y6600
X16961Y6851
X16609Y6500
X16745Y7636
X16959Y7850
X16209Y7985
X15509Y8335
X15059Y8635
X15092Y7983
X15322Y7787
X15532Y7572
X15015Y7094
X15159Y6400
X13959Y6950
X14549Y9125
X14759Y9400
X14309Y9650
X14105Y9357
X14659Y9950
X15059Y9900
X15009Y10200
X15215Y10455
X15609Y10350
X16109Y10750
X16459Y10350
X17259Y10450
X17809Y10450
X17859Y9800
X17309Y9500
X16709Y9000
X15609Y9200
X15009Y10828
X14359Y11100
X14059Y11100
X14059Y10800
X15659Y11100
X16859Y11800
X17259Y12600
X16984Y12775
X15809Y13900
X14859Y12950
X14009Y12700
X13909Y13000
X13959Y15550
X18259Y15200
X22959Y15550
X24809Y13900
X23859Y12950
X23009Y12700
X22909Y13000
X23059Y11100
X23059Y10800
X23359Y11100
X24009Y10828
X24215Y10455
X24009Y10200
X24059Y9900
X23659Y9950
X23309Y9650
X23105Y9357
X23549Y9125
X23759Y9400
X24059Y8635
X24509Y8335
X24092Y7983
X24322Y7787
X24532Y7572
X24015Y7094
X24159Y6400
X22959Y6950
X23089Y5130
X23709Y5150
X23709Y4100
X24709Y4650
X24859Y4950
X25159Y4250
X25559Y4250
X27179Y3900
X27278Y3600
X26603Y6420
X26859Y6600
X25961Y6851
X25609Y6500
X25745Y7636
X25959Y7850
X26859Y7750
X27309Y8450
X27009Y8800
X26309Y9500
X26859Y9800
X26809Y10450
X26259Y10450
X25459Y10350
X25109Y10750
X24659Y11100
X25859Y11800
X26259Y12600
X25984Y12775
X27259Y15200
X31959Y15550
X33809Y13900
X32859Y12950
X32009Y12700
X31909Y13000
X32059Y11100
X32059Y10800
X32359Y11100
X33009Y10828
X33215Y10455
X33009Y10200
X33059Y9900
X32659Y9950
X32309Y9650
X32105Y9357
X32549Y9125
X32759Y9400
X33059Y8635
X33509Y8335
X33092Y7983
X33322Y7787
X33532Y7572
X33015Y7094
X33159Y6400
X31959Y6950
X32089Y5130
X32709Y5150
X32709Y4100
X33709Y4650
X33859Y4950
X34159Y4250
X34559Y4250
X36179Y3900
X36278Y3600
X35603Y6420
X35859Y6600
X34961Y6851
X34609Y6500
X34745Y7636
X34959Y7850
X34209Y7985
X34709Y9000
X35309Y9500
X35859Y9800
X35809Y10450
X35259Y10450
X34459Y10350
X34109Y10750
X33659Y11100
X33609Y10350
X33609Y9200
X36009Y8800
X36309Y8450
X35859Y7750
X34859Y11800
X35259Y12600
X34984Y12775
X36259Y15200
X40959Y15550
X42809Y13900
X41859Y12950
X41009Y12700
X40909Y13000
X41059Y11100
X41059Y10800
X41359Y11100
X42009Y10828
X42215Y10455
X42009Y10200
X42059Y9900
X41659Y9950
X41309Y9650
X41105Y9357
X41549Y9125
X41759Y9400
X42059Y8635
X42509Y8335
X42092Y7983
X42322Y7787
X42532Y7572
X42015Y7094
X42159Y6400
X40959Y6950
X41089Y5130
X41709Y5150
X42709Y4650
X42859Y4950
X43159Y4250
X43559Y4250
X41709Y4100
X43609Y6500
X43961Y6851
X44603Y6420
X44859Y6600
X43745Y7636
X43959Y7850
X43209Y7985
X43709Y9000
X44309Y9500
X44859Y9800
X44809Y10450
X44259Y10450
X43459Y10350
X43109Y10750
X42659Y11100
X42609Y10350
X42609Y9200
X45009Y8800
X45309Y8450
X44859Y7750
X45179Y3900
X45278Y3600
X50089Y5130
X50709Y5150
X51709Y4650
X51859Y4950
X52159Y4250
X52559Y4250
X50709Y4100
X51159Y6400
X51015Y7094
X51532Y7572
X51322Y7787
X51092Y7983
X51509Y8335
X51059Y8635
X50549Y9125
X50759Y9400
X50309Y9650
X50105Y9357
X50659Y9950
X51059Y9900
X51009Y10200
X51215Y10455
X51609Y10350
X52109Y10750
X52459Y10350
X53259Y10450
X53809Y10450
X53859Y9800
X53309Y9500
X52709Y9000
X51609Y9200
X52209Y7985
X52745Y7636
X52959Y7850
X53859Y7750
X54309Y8450
X54009Y8800
X52961Y6851
X52609Y6500
X53603Y6420
X53859Y6600
X54179Y3900
X54278Y3600
X49959Y6950
X50059Y10800
X50059Y11100
X50359Y11100
X51009Y10828
X51659Y11100
X52859Y11800
X53259Y12600
X52984Y12775
X51809Y13900
X50859Y12950
X50009Y12700
X49909Y13000
X49959Y15550
X54259Y15200
X54278Y21100
X54179Y21400
X52559Y21750
X52159Y21750
X51709Y22150
X51859Y22450
X50709Y22650
X50089Y22630
X50709Y21600
X51159Y23900
X51015Y24594
X51532Y25072
X51322Y25287
X51092Y25483
X51509Y25835
X51059Y26135
X50549Y26625
X50759Y26900
X50309Y27150
X50105Y26857
X50659Y27450
X51059Y27400
X51009Y27700
X51215Y27955
X51609Y27850
X52109Y28250
X52459Y27850
X53259Y27950
X53809Y27950
X53859Y27300
X53309Y27000
X52709Y26500
X52209Y25485
X52745Y25136
X52959Y25350
X53859Y25250
X54309Y25950
X54009Y26300
X52961Y24351
X52609Y24000
X53603Y23920
X53859Y24100
X51609Y26700
X51009Y28328
X50359Y28600
X50059Y28600
X50059Y28300
X51659Y28600
X52859Y29300
X53259Y30100
X52984Y30275
X51809Y31400
X50859Y30450
X50009Y30200
X49909Y30500
X49959Y33050
X54259Y32700
X54278Y38600
X54179Y38900
X52559Y39250
X52159Y39250
X51709Y39650
X51859Y39950
X50709Y40150
X50089Y40130
X50709Y39100
X51159Y41400
X49959Y41950
X51015Y42094
X51532Y42572
X51322Y42787
X51092Y42983
X51509Y43335
X51059Y43635
X50549Y44125
X50759Y44400
X50309Y44650
X50105Y44357
X50659Y44950
X51059Y44900
X51009Y45200
X51215Y45455
X51609Y45350
X52109Y45750
X52459Y45350
X53259Y45450
X53809Y45450
X53859Y44800
X53309Y44500
X52709Y44000
X51609Y44200
X52209Y42985
X52745Y42636
X52959Y42850
X53859Y42750
X54309Y43450
X54009Y43800
X53859Y41600
X53603Y41420
X52961Y41851
X52609Y41500
X51009Y45828
X50359Y46100
X50059Y46100
X50059Y45800
X51659Y46100
X52859Y46800
X53259Y47600
X52984Y47775
X51809Y48900
X50859Y47950
X50009Y47700
X49909Y48000
X49959Y50550
X54259Y50200
X45259Y50200
X43984Y47775
X44259Y47600
X43859Y46800
X43109Y45750
X43459Y45350
X44259Y45450
X44809Y45450
X44859Y44800
X44309Y44500
X43709Y44000
X45009Y43800
X45309Y43450
X44859Y42750
X43959Y42850
X43745Y42636
X43209Y42985
X42509Y43335
X42059Y43635
X42092Y42983
X42322Y42787
X42532Y42572
X42015Y42094
X42159Y41400
X40959Y41950
X41089Y40130
X41709Y40150
X42709Y39650
X42859Y39950
X43159Y39250
X43559Y39250
X41709Y39100
X44603Y41420
X44859Y41600
X43961Y41851
X43609Y41500
X42609Y44200
X41759Y44400
X41549Y44125
X41105Y44357
X41309Y44650
X41659Y44950
X42059Y44900
X42009Y45200
X42215Y45455
X42609Y45350
X42659Y46100
X42009Y45828
X41359Y46100
X41059Y46100
X41059Y45800
X41009Y47700
X40909Y48000
X41859Y47950
X42809Y48900
X40959Y50550
X36259Y50200
X34984Y47775
X35259Y47600
X34859Y46800
X34109Y45750
X34459Y45350
X35259Y45450
X35809Y45450
X35859Y44800
X35309Y44500
X34709Y44000
X33609Y44200
X33059Y43635
X33509Y43335
X33092Y42983
X33322Y42787
X33532Y42572
X33015Y42094
X33159Y41400
X31959Y41950
X32089Y40130
X32709Y40150
X32709Y39100
X33709Y39650
X33859Y39950
X34159Y39250
X34559Y39250
X36179Y38900
X36278Y38600
X35603Y41420
X35859Y41600
X34961Y41851
X34609Y41500
X34745Y42636
X34959Y42850
X34209Y42985
X35859Y42750
X36309Y43450
X36009Y43800
X33609Y45350
X33215Y45455
X33009Y45200
X33059Y44900
X32659Y44950
X32309Y44650
X32105Y44357
X32549Y44125
X32759Y44400
X33009Y45828
X32359Y46100
X32059Y46100
X32059Y45800
X33659Y46100
X32859Y47950
X32009Y47700
X31909Y48000
X33809Y48900
X31959Y50550
X27259Y50200
X24809Y48900
X23859Y47950
X23009Y47700
X22909Y48000
X23059Y46100
X23059Y45800
X23359Y46100
X24009Y45828
X24215Y45455
X24009Y45200
X24059Y44900
X23659Y44950
X23309Y44650
X23105Y44357
X23549Y44125
X23759Y44400
X24059Y43635
X24509Y43335
X24092Y42983
X24322Y42787
X24532Y42572
X24015Y42094
X25209Y42985
X25745Y42636
X25959Y42850
X26859Y42750
X27309Y43450
X27009Y43800
X26309Y44500
X26859Y44800
X26809Y45450
X26259Y45450
X25459Y45350
X25109Y45750
X24659Y46100
X24609Y45350
X25859Y46800
X26259Y47600
X25984Y47775
X22959Y50550
X18259Y50200
X15809Y48900
X14859Y47950
X14009Y47700
X13909Y48000
X14059Y46100
X14059Y45800
X14359Y46100
X15009Y45828
X15215Y45455
X15009Y45200
X15059Y44900
X14659Y44950
X14309Y44650
X14105Y44357
X14549Y44125
X14759Y44400
X15609Y44200
X15059Y43635
X15509Y43335
X15092Y42983
X15322Y42787
X15532Y42572
X15015Y42094
X13959Y41950
X15159Y41400
X14709Y40150
X14089Y40130
X14709Y39100
X15709Y39650
X15859Y39950
X16159Y39250
X16559Y39250
X18179Y38900
X18278Y38600
X17603Y41420
X17859Y41600
X16961Y41851
X16609Y41500
X16745Y42636
X16959Y42850
X16209Y42985
X16709Y44000
X17309Y44500
X17859Y44800
X17809Y45450
X17259Y45450
X16459Y45350
X16109Y45750
X15659Y46100
X15609Y45350
X16859Y46800
X17259Y47600
X16984Y47775
X13959Y50550
X18009Y43800
X18309Y43450
X17859Y42750
X22959Y41950
X24159Y41400
X23709Y40150
X23089Y40130
X23709Y39100
X24709Y39650
X24859Y39950
X25159Y39250
X25559Y39250
X27179Y38900
X27278Y38600
X26603Y41420
X26859Y41600
X25961Y41851
X25609Y41500
X25709Y44000
X24609Y44200
X22959Y33050
X24809Y31400
X23859Y30450
X23009Y30200
X22909Y30500
X23059Y28600
X23059Y28300
X23359Y28600
X24009Y28328
X24215Y27955
X24009Y27700
X24059Y27400
X23659Y27450
X23309Y27150
X23105Y26857
X23549Y26625
X23759Y26900
X24059Y26135
X24509Y25835
X24092Y25483
X24322Y25287
X24532Y25072
X24015Y24594
X24159Y23900
X22959Y24450
X25209Y25485
X25745Y25136
X25959Y25350
X26859Y25250
X27309Y25950
X27009Y26300
X26309Y27000
X26859Y27300
X26809Y27950
X26259Y27950
X25459Y27850
X25109Y28250
X24659Y28600
X24609Y27850
X24609Y26700
X25709Y26500
X25961Y24351
X25609Y24000
X26603Y23920
X26859Y24100
X24859Y22450
X24709Y22150
X25159Y21750
X25559Y21750
X27179Y21400
X27278Y21100
X23709Y21600
X23709Y22650
X23089Y22630
X18278Y21100
X18179Y21400
X16559Y21750
X16159Y21750
X15709Y22150
X15859Y22450
X14709Y22650
X14089Y22630
X14709Y21600
X15159Y23900
X15015Y24594
X15532Y25072
X15322Y25287
X15092Y25483
X15509Y25835
X15059Y26135
X14549Y26625
X14759Y26900
X14309Y27150
X14105Y26857
X14659Y27450
X15059Y27400
X15009Y27700
X15215Y27955
X15609Y27850
X16109Y28250
X16459Y27850
X17259Y27950
X17809Y27950
X17859Y27300
X17309Y27000
X16709Y26500
X16209Y25485
X16745Y25136
X16959Y25350
X16961Y24351
X16609Y24000
X17603Y23920
X17859Y24100
X17859Y25250
X18309Y25950
X18009Y26300
X15609Y26700
X15009Y28328
X14359Y28600
X14059Y28600
X14059Y28300
X15659Y28600
X16859Y29300
X17259Y30100
X16984Y30275
X15809Y31400
X14859Y30450
X14009Y30200
X13909Y30500
X13959Y33050
X18259Y32700
X25859Y29300
X26259Y30100
X25984Y30275
X27259Y32700
X31959Y33050
X33809Y31400
X32859Y30450
X32009Y30200
X31909Y30500
X32059Y28600
X32059Y28300
X32359Y28600
X33009Y28328
X33215Y27955
X33009Y27700
X33059Y27400
X32659Y27450
X32309Y27150
X32105Y26857
X32549Y26625
X32759Y26900
X33059Y26135
X33509Y25835
X33092Y25483
X33322Y25287
X33532Y25072
X33015Y24594
X33159Y23900
X31959Y24450
X32089Y22630
X32709Y22650
X32709Y21600
X33709Y22150
X33859Y22450
X34159Y21750
X34559Y21750
X36179Y21400
X36278Y21100
X35603Y23920
X35859Y24100
X34961Y24351
X34609Y24000
X34745Y25136
X34959Y25350
X34209Y25485
X34709Y26500
X35309Y27000
X35859Y27300
X35809Y27950
X35259Y27950
X34459Y27850
X34109Y28250
X33659Y28600
X33609Y27850
X33609Y26700
X36009Y26300
X36309Y25950
X35859Y25250
X34859Y29300
X35259Y30100
X34984Y30275
X36259Y32700
X40959Y33050
X42809Y31400
X41859Y30450
X41009Y30200
X40909Y30500
X41059Y28600
X41059Y28300
X41359Y28600
X42009Y28328
X42215Y27955
X42009Y27700
X42059Y27400
X41659Y27450
X41309Y27150
X41105Y26857
X41549Y26625
X41759Y26900
X42059Y26135
X42509Y25835
X42092Y25483
X42322Y25287
X42532Y25072
X42015Y24594
X42159Y23900
X40959Y24450
X41089Y22630
X41709Y22650
X41709Y21600
X42709Y22150
X42859Y22450
X43159Y21750
X43559Y21750
X45179Y21400
X45278Y21100
X44603Y23920
X44859Y24100
X43961Y24351
X43609Y24000
X43745Y25136
X43959Y25350
X43209Y25485
X43709Y26500
X44309Y27000
X44859Y27300
X44809Y27950
X44259Y27950
X43459Y27850
X43109Y28250
X42659Y28600
X42609Y27850
X42609Y26700
X45009Y26300
X45309Y25950
X44859Y25250
X43859Y29300
X44259Y30100
X43984Y30275
X45259Y32700
X45278Y38600
X45179Y38900
X49959Y24450
X45259Y15200
X43984Y12775
X44259Y12600
X43859Y11800
X25709Y9000
X24609Y9200
X24609Y10350
X25209Y7985
X18309Y8450
X18009Y8800
X17859Y7750
X13959Y24450
T02
X16209Y31550
X25209Y31550
X34209Y31550
X43209Y31550
X52209Y31550
X52209Y49050
X43209Y49050
X34209Y49050
X25209Y49050
X16209Y49050
X16209Y14050
X25209Y14050
X34209Y14050
X43209Y14050
X52209Y14050
T03
X53247Y13919
X50971Y13919
X44247Y13919
X41971Y13919
X35247Y13919
X32971Y13919
X26247Y13919
X23971Y13919
X17247Y13919
X14971Y13919
X14971Y31419
X17247Y31419
X23971Y31419
X26247Y31419
X32971Y31419
X35247Y31419
X41971Y31419
X44247Y31419
X50971Y31419
X53247Y31419
X53247Y48919
X50971Y48919
X44247Y48919
X41971Y48919
X35247Y48919
X32971Y48919
X26247Y48919
X23971Y48919
X17247Y48919
X14971Y48919
T04
X13109Y49350
X13109Y48350
X13109Y47350
X13109Y46350
X13109Y45350
X13109Y44350
X13109Y43350
X13109Y42350
X13109Y41350
X13109Y40350
X13109Y39350
X13109Y38350
X19109Y38350
X19109Y39350
X19109Y40350
X19109Y41350
X19109Y42350
X19109Y43350
X19109Y44350
X19109Y45350
X19109Y46350
X19109Y47350
X19109Y48350
X19109Y49350
X22109Y49350
X22109Y48350
X22109Y47350
X22109Y46350
X22109Y45350
X22109Y44350
X22109Y43350
X22109Y42350
X22109Y41350
X22109Y40350
X22109Y39350
X22109Y38350
X28109Y38350
X28109Y39350
X28109Y40350
X28109Y41350
X28109Y42350
X28109Y43350
X28109Y44350
X28109Y45350
X28109Y46350
X28109Y47350
X28109Y48350
X28109Y49350
X31109Y49350
X31109Y48350
X31109Y47350
X31109Y46350
X31109Y45350
X31109Y44350
X31109Y43350
X31109Y42350
X31109Y41350
X31109Y40350
X31109Y39350
X31109Y38350
X37109Y38350
X37109Y39350
X37109Y40350
X37109Y41350
X37109Y42350
X37109Y43350
X37109Y44350
X37109Y45350
X37109Y46350
X37109Y47350
X37109Y48350
X37109Y49350
X40109Y49350
X40109Y48350
X40109Y47350
X40109Y46350
X40109Y45350
X40109Y44350
X40109Y43350
X40109Y42350
X40109Y41350
X40109Y40350
X40109Y39350
X40109Y38350
X46109Y38350
X46109Y39350
X46109Y40350
X46109Y41350
X46109Y42350
X46109Y43350
X46109Y44350
X46109Y45350
X46109Y46350
X46109Y47350
X46109Y48350
X46109Y49350
X49109Y49350
X49109Y48350
X49109Y47350
X49109Y46350
X49109Y45350
X49109Y44350
X49109Y43350
X49109Y42350
X49109Y41350
X49109Y40350
X49109Y39350
X49109Y38350
X55109Y38350
X55109Y39350
X55109Y40350
X55109Y41350
X55109Y42350
X55109Y43350
X55109Y44350
X55109Y45350
X55109Y46350
X55109Y47350
X55109Y48350
X55109Y49350
X55109Y31850
X55109Y30850
X55109Y29850
X55109Y28850
X55109Y27850
X55109Y26850
X55109Y25850
X55109Y24850
X55109Y23850
X55109Y22850
X55109Y21850
X55109Y20850
X49109Y20850
X49109Y21850
X49109Y22850
X49109Y23850
X49109Y24850
X49109Y25850
X49109Y26850
X49109Y27850
X49109Y28850
X49109Y29850
X49109Y30850
X49109Y31850
X46109Y31850
X46109Y30850
X46109Y29850
X46109Y28850
X46109Y27850
X46109Y26850
X46109Y25850
X46109Y24850
X46109Y23850
X46109Y22850
X46109Y21850
X46109Y20850
X40109Y20850
X40109Y21850
X40109Y22850
X40109Y23850
X40109Y24850
X40109Y25850
X40109Y26850
X40109Y27850
X40109Y28850
X40109Y29850
X40109Y30850
X40109Y31850
X37109Y31850
X37109Y30850
X37109Y29850
X37109Y28850
X37109Y27850
X37109Y26850
X37109Y25850
X37109Y24850
X37109Y23850
X37109Y22850
X37109Y21850
X37109Y20850
X31109Y20850
X31109Y21850
X31109Y22850
X31109Y23850
X31109Y24850
X31109Y25850
X31109Y26850
X31109Y27850
X31109Y28850
X31109Y29850
X31109Y30850
X31109Y31850
X28109Y31850
X28109Y30850
X28109Y29850
X28109Y28850
X28109Y27850
X28109Y26850
X28109Y25850
X28109Y24850
X28109Y23850
X28109Y22850
X28109Y21850
X28109Y20850
X22109Y20850
X22109Y21850
X22109Y22850
X22109Y23850
X22109Y24850
X22109Y25850
X22109Y26850
X22109Y27850
X22109Y28850
X22109Y29850
X22109Y30850
X22109Y31850
X19109Y31850
X19109Y30850
X19109Y29850
X19109Y28850
X19109Y27850
X19109Y26850
X19109Y25850
X19109Y24850
X19109Y23850
X19109Y22850
X19109Y21850
X19109Y20850
X13109Y20850
X13109Y21850
X13109Y22850
X13109Y23850
X13109Y24850
X13109Y25850
X13109Y26850
X13109Y27850
X13109Y28850
X13109Y29850
X13109Y30850
X13109Y31850
X13109Y14350
X13109Y13350
X13109Y12350
X13109Y11350
X13109Y10350
X13109Y9350
X13109Y8350
X13109Y7350
X13109Y6350
X13109Y5350
X13109Y4350
X13109Y3350
X19109Y3350
X19109Y4350
X19109Y5350
X19109Y6350
X19109Y7350
X19109Y8350
X19109Y9350
X19109Y10350
X19109Y11350
X19109Y12350
X19109Y13350
X19109Y14350
X22109Y14350
X22109Y13350
X22109Y12350
X22109Y11350
X22109Y10350
X22109Y9350
X22109Y8350
X22109Y7350
X22109Y6350
X22109Y5350
X22109Y4350
X22109Y3350
X28109Y3350
X28109Y4350
X28109Y5350
X28109Y6350
X28109Y7350
X28109Y8350
X28109Y9350
X28109Y10350
X28109Y11350
X28109Y12350
X28109Y13350
X28109Y14350
X31109Y14350
X31109Y13350
X31109Y12350
X31109Y11350
X31109Y10350
X31109Y9350
X31109Y8350
X31109Y7350
X31109Y6350
X31109Y5350
X31109Y4350
X31109Y3350
X37109Y3350
X37109Y4350
X37109Y5350
X37109Y6350
X37109Y7350
X37109Y8350
X37109Y9350
X37109Y10350
X37109Y11350
X37109Y12350
X37109Y13350
X37109Y14350
X40109Y14350
X40109Y13350
X40109Y12350
X40109Y11350
X40109Y10350
X40109Y9350
X40109Y8350
X40109Y7350
X40109Y6350
X40109Y5350
X40109Y4350
X40109Y3350
X46109Y3350
X46109Y4350
X46109Y5350
X46109Y6350
X46109Y7350
X46109Y8350
X46109Y9350
X46109Y10350
X46109Y11350
X46109Y12350
X46109Y13350
X46109Y14350
X49109Y14350
X49109Y13350
X49109Y12350
X49109Y11350
X49109Y10350
X49109Y9350
X49109Y8350
X49109Y7350
X49109Y6350
X49109Y5350
X49109Y4350
X49109Y3350
X55109Y3350
X55109Y4350
X55109Y5350
X55109Y6350
X55109Y7350
X55109Y8350
X55109Y9350
X55109Y10350
X55109Y11350
X55109Y12350
X55109Y13350
X55109Y14350
T05
X12491Y3350
X12491Y4350
X12491Y5350
X12491Y6350
X12491Y7350
X12491Y8350
X12491Y9350
X12491Y10350
X12491Y11350
X12491Y12350
X12491Y13350
X12491Y14350
X19727Y14350
X19727Y13350
X19727Y12350
X19727Y11350
X19727Y10350
X19727Y9350
X19727Y8350
X19727Y7350
X19727Y6350
X19727Y5350
X19727Y4350
X19727Y3350
X21491Y3350
X21491Y4350
X21491Y5350
X21491Y6350
X21491Y7350
X21491Y8350
X21491Y9350
X21491Y10350
X21491Y11350
X21491Y12350
X21491Y13350
X21491Y14350
X28727Y14350
X28727Y13350
X28727Y12350
X28727Y11350
X28727Y10350
X28727Y9350
X28727Y8350
X28727Y7350
X28727Y6350
X28727Y5350
X28727Y4350
X28727Y3350
X30491Y3350
X30491Y4350
X30491Y5350
X30491Y6350
X30491Y7350
X30491Y8350
X30491Y9350
X30491Y10350
X30491Y11350
X30491Y12350
X30491Y13350
X30491Y14350
X37727Y14350
X37727Y13350
X37727Y12350
X37727Y11350
X37727Y10350
X37727Y9350
X37727Y8350
X37727Y7350
X37727Y6350
X37727Y5350
X37727Y4350
X37727Y3350
X39491Y3350
X39491Y4350
X39491Y5350
X39491Y6350
X39491Y7350
X39491Y8350
X39491Y9350
X39491Y10350
X39491Y11350
X39491Y12350
X39491Y13350
X39491Y14350
X46727Y14350
X46727Y13350
X46727Y12350
X46727Y11350
X46727Y10350
X46727Y9350
X46727Y8350
X46727Y7350
X46727Y6350
X46727Y5350
X46727Y4350
X46727Y3350
X48491Y3350
X48491Y4350
X48491Y5350
X48491Y6350
X48491Y7350
X48491Y8350
X48491Y9350
X48491Y10350
X48491Y11350
X48491Y12350
X48491Y13350
X48491Y14350
X55727Y14350
X55727Y13350
X55727Y12350
X55727Y11350
X55727Y10350
X55727Y9350
X55727Y8350
X55727Y7350
X55727Y6350
X55727Y5350
X55727Y4350
X55727Y3350
X55727Y20850
X55727Y21850
X55727Y22850
X55727Y23850
X55727Y24850
X55727Y25850
X55727Y26850
X55727Y27850
X55727Y28850
X55727Y29850
X55727Y30850
X55727Y31850
X48491Y31850
X48491Y30850
X48491Y29850
X48491Y28850
X48491Y27850
X48491Y26850
X48491Y25850
X48491Y24850
X48491Y23850
X48491Y22850
X48491Y21850
X48491Y20850
X46727Y20850
X46727Y21850
X46727Y22850
X46727Y23850
X46727Y24850
X46727Y25850
X46727Y26850
X46727Y27850
X46727Y28850
X46727Y29850
X46727Y30850
X46727Y31850
X39491Y31850
X39491Y30850
X39491Y29850
X39491Y28850
X39491Y27850
X39491Y26850
X39491Y25850
X39491Y24850
X39491Y23850
X39491Y22850
X39491Y21850
X39491Y20850
X37727Y20850
X37727Y21850
X37727Y22850
X37727Y23850
X37727Y24850
X37727Y25850
X37727Y26850
X37727Y27850
X37727Y28850
X37727Y29850
X37727Y30850
X37727Y31850
X30491Y31850
X30491Y30850
X30491Y29850
X30491Y28850
X30491Y27850
X30491Y26850
X30491Y25850
X30491Y24850
X30491Y23850
X30491Y22850
X30491Y21850
X30491Y20850
X28727Y20850
X28727Y21850
X28727Y22850
X28727Y23850
X28727Y24850
X28727Y25850
X28727Y26850
X28727Y27850
X28727Y28850
X28727Y29850
X28727Y30850
X28727Y31850
X21491Y31850
X21491Y30850
X21491Y29850
X21491Y28850
X21491Y27850
X21491Y26850
X21491Y25850
X21491Y24850
X21491Y23850
X21491Y22850
X21491Y21850
X21491Y20850
X19727Y20850
X19727Y21850
X19727Y22850
X19727Y23850
X19727Y24850
X19727Y25850
X19727Y26850
X19727Y27850
X19727Y28850
X19727Y29850
X19727Y30850
X19727Y31850
X12491Y31850
X12491Y30850
X12491Y29850
X12491Y28850
X12491Y27850
X12491Y26850
X12491Y25850
X12491Y24850
X12491Y23850
X12491Y22850
X12491Y21850
X12491Y20850
X12491Y38350
X12491Y39350
X12491Y40350
X12491Y41350
X12491Y42350
X12491Y43350
X12491Y44350
X12491Y45350
X12491Y46350
X12491Y47350
X12491Y48350
X12491Y49350
X19727Y49350
X19727Y48350
X19727Y47350
X19727Y46350
X19727Y45350
X19727Y44350
X19727Y43350
X19727Y42350
X19727Y41350
X19727Y40350
X19727Y39350
X19727Y38350
X21491Y38350
X21491Y39350
X21491Y40350
X21491Y41350
X21491Y42350
X21491Y43350
X21491Y44350
X21491Y45350
X21491Y46350
X21491Y47350
X21491Y48350
X21491Y49350
X28727Y49350
X28727Y48350
X28727Y47350
X28727Y46350
X28727Y45350
X28727Y44350
X28727Y43350
X28727Y42350
X28727Y41350
X28727Y40350
X28727Y39350
X28727Y38350
X30491Y38350
X30491Y39350
X30491Y40350
X30491Y41350
X30491Y42350
X30491Y43350
X30491Y44350
X30491Y45350
X30491Y46350
X30491Y47350
X30491Y48350
X30491Y49350
X37727Y49350
X37727Y48350
X37727Y47350
X37727Y46350
X37727Y45350
X37727Y44350
X37727Y43350
X37727Y42350
X37727Y41350
X37727Y40350
X37727Y39350
X37727Y38350
X39491Y38350
X39491Y39350
X39491Y40350
X39491Y41350
X39491Y42350
X39491Y43350
X39491Y44350
X39491Y45350
X39491Y46350
X39491Y47350
X39491Y48350
X39491Y49350
X46727Y49350
X46727Y48350
X46727Y47350
X46727Y46350
X46727Y45350
X46727Y44350
X46727Y43350
X46727Y42350
X46727Y41350
X46727Y40350
X46727Y39350
X46727Y38350
X48491Y38350
X48491Y39350
X48491Y40350
X48491Y41350
X48491Y42350
X48491Y43350
X48491Y44350
X48491Y45350
X48491Y46350
X48491Y47350
X48491Y48350
X48491Y49350
X55727Y49350
X55727Y48350
X55727Y47350
X55727Y46350
X55727Y45350
X55727Y44350
X55727Y43350
X55727Y42350
X55727Y41350
X55727Y40350
X55727Y39350
X55727Y38350
M30
