%
M48
M72
T01C0.0120
T02C0.0150
T03C0.0256
T04C0.0315
T05C0.0335
T06C0.0374
T07C0.0394
%
T01
X4950Y4925
X5950Y5475
X6100Y5775
X4950Y5975
X4329Y5955
X5400Y7225
X4200Y7775
X5256Y7919
X5773Y8397
X5563Y8612
X5333Y8808
X5750Y9160
X5300Y9460
X4790Y9950
X5000Y10225
X4550Y10475
X4346Y10182
X4900Y10775
X5300Y10725
X5250Y11025
X5455Y11280
X5850Y11175
X6350Y11575
X6700Y11175
X7500Y11275
X8050Y11275
X8100Y10625
X7550Y10325
X6950Y9825
X5850Y10025
X6450Y8810
X6986Y8461
X7200Y8675
X8100Y8575
X8550Y9275
X8250Y9625
X8100Y7425
X7844Y7245
X7201Y7676
X6850Y7325
X6800Y5075
X6400Y5075
X8420Y4725
X8519Y4425
X11529Y5955
X12150Y5975
X13150Y5475
X13300Y5775
X13600Y5075
X14000Y5075
X15620Y4725
X15719Y4425
X18729Y5955
X19350Y5975
X20350Y5475
X20500Y5775
X20800Y5075
X21200Y5075
X22820Y4725
X22919Y4425
X25929Y5955
X26550Y5975
X27550Y5475
X27700Y5775
X28000Y5075
X28400Y5075
X30020Y4725
X30119Y4425
X33129Y5955
X33750Y5975
X34750Y5475
X34900Y5775
X35200Y5075
X35600Y5075
X37220Y4725
X37319Y4425
X33750Y4925
X34200Y7225
X33000Y7775
X34056Y7919
X34573Y8397
X34363Y8612
X34133Y8808
X34550Y9160
X34100Y9460
X33590Y9950
X33800Y10225
X33350Y10475
X33146Y10182
X33700Y10775
X34100Y10725
X34050Y11025
X34255Y11280
X34650Y11175
X35150Y11575
X35500Y11175
X36300Y11275
X36850Y11275
X36900Y10625
X36350Y10325
X35750Y9825
X34650Y10025
X35250Y8810
X35786Y8461
X36000Y8675
X36900Y8575
X37350Y9275
X37050Y9625
X36900Y7425
X36644Y7245
X36001Y7676
X35650Y7325
X30150Y9275
X29850Y9625
X29150Y10325
X29700Y10625
X29650Y11275
X29100Y11275
X28300Y11175
X27950Y11575
X27500Y11925
X26850Y11653
X27055Y11280
X26850Y11025
X26900Y10725
X26500Y10775
X26150Y10475
X25946Y10182
X26390Y9950
X26600Y10225
X26900Y9460
X27350Y9160
X26933Y8808
X27163Y8612
X27373Y8397
X26856Y7919
X25800Y7775
X27000Y7225
X28450Y7325
X28801Y7676
X29444Y7245
X29700Y7425
X29700Y8575
X28800Y8675
X28586Y8461
X28050Y8810
X28550Y9825
X27450Y10025
X27450Y11175
X26200Y11925
X25900Y11925
X25900Y11625
X25850Y13525
X25750Y13825
X26700Y13775
X27650Y14725
X28825Y13600
X29100Y13425
X28700Y12625
X30100Y16025
X33000Y16375
X34850Y14725
X33900Y13775
X33050Y13525
X32950Y13825
X35900Y12625
X36300Y13425
X36025Y13600
X34700Y11925
X34050Y11653
X33400Y11925
X33100Y11925
X33100Y11625
X37300Y16025
X37319Y18425
X37220Y18725
X35600Y19075
X35200Y19075
X34750Y19475
X34900Y19775
X33750Y19975
X33129Y19955
X33750Y18925
X34200Y21225
X34056Y21919
X34573Y22397
X34363Y22612
X34133Y22808
X34550Y23160
X34100Y23460
X33590Y23950
X33800Y24225
X33350Y24475
X33146Y24182
X33700Y24775
X34100Y24725
X34050Y25025
X34255Y25280
X34650Y25175
X35150Y25575
X35500Y25175
X36300Y25275
X36850Y25275
X36900Y24625
X36350Y24325
X35750Y23825
X34650Y24025
X35250Y22810
X35786Y22461
X36000Y22675
X36900Y22575
X37350Y23275
X37050Y23625
X36001Y21676
X35650Y21325
X36644Y21245
X36900Y21425
X33000Y21775
X30150Y23275
X29850Y23625
X29150Y24325
X29700Y24625
X29650Y25275
X29100Y25275
X28300Y25175
X27950Y25575
X27500Y25925
X26850Y25653
X27055Y25280
X26850Y25025
X26900Y24725
X26500Y24775
X26150Y24475
X25946Y24182
X26390Y23950
X26600Y24225
X27450Y24025
X26900Y23460
X27350Y23160
X26933Y22808
X27163Y22612
X27373Y22397
X26856Y21919
X27000Y21225
X25800Y21775
X25929Y19955
X26550Y19975
X27550Y19475
X27700Y19775
X28000Y19075
X28400Y19075
X30020Y18725
X30119Y18425
X26550Y18925
X28450Y21325
X28801Y21676
X29444Y21245
X29700Y21425
X28586Y22461
X28800Y22675
X28050Y22810
X28550Y23825
X29700Y22575
X27450Y25175
X26200Y25925
X25900Y25925
X25900Y25625
X28700Y26625
X29100Y27425
X28825Y27600
X27650Y28725
X26700Y27775
X25850Y27525
X25750Y27825
X22900Y30025
X20450Y28725
X19500Y27775
X18650Y27525
X18550Y27825
X21500Y26625
X20300Y25925
X20750Y25575
X21100Y25175
X21900Y25275
X22450Y25275
X22500Y24625
X21950Y24325
X21350Y23825
X20250Y24025
X19700Y23460
X20150Y23160
X19733Y22808
X19963Y22612
X20173Y22397
X19656Y21919
X19800Y21225
X18600Y21775
X18729Y19955
X19350Y19975
X20350Y19475
X20500Y19775
X20800Y19075
X21200Y19075
X22820Y18725
X22919Y18425
X25800Y16375
X22900Y16025
X20450Y14725
X19500Y13775
X18650Y13525
X18550Y13825
X21500Y12625
X21900Y13425
X21625Y13600
X20300Y11925
X20750Y11575
X21100Y11175
X21900Y11275
X22450Y11275
X22500Y10625
X21950Y10325
X21350Y9825
X20250Y10025
X19700Y9460
X20150Y9160
X19733Y8808
X19963Y8612
X20173Y8397
X19656Y7919
X18600Y7775
X19800Y7225
X21250Y7325
X21601Y7676
X22244Y7245
X22500Y7425
X22500Y8575
X22950Y9275
X22650Y9625
X21600Y8675
X21386Y8461
X20850Y8810
X19190Y9950
X19400Y10225
X18950Y10475
X18746Y10182
X19300Y10775
X19700Y10725
X19650Y11025
X19855Y11280
X20250Y11175
X19650Y11653
X19000Y11925
X18700Y11925
X18700Y11625
X15250Y11275
X14700Y11275
X13900Y11175
X13550Y11575
X13100Y11925
X12450Y11653
X12655Y11280
X12450Y11025
X12500Y10725
X12100Y10775
X11750Y10475
X11546Y10182
X11990Y9950
X12200Y10225
X12500Y9460
X12950Y9160
X12533Y8808
X12763Y8612
X12973Y8397
X12456Y7919
X11400Y7775
X12600Y7225
X14050Y7325
X14401Y7676
X15044Y7245
X15300Y7425
X15300Y8575
X15750Y9275
X15450Y9625
X14750Y10325
X15300Y10625
X14150Y9825
X13050Y10025
X13050Y11175
X11800Y11925
X11500Y11925
X11500Y11625
X11450Y13525
X11350Y13825
X12300Y13775
X13250Y14725
X14425Y13600
X14700Y13425
X14300Y12625
X15700Y16025
X18600Y16375
X15719Y18425
X15620Y18725
X14000Y19075
X13600Y19075
X13150Y19475
X13300Y19775
X12150Y19975
X11529Y19955
X12150Y18925
X12600Y21225
X12456Y21919
X12973Y22397
X12763Y22612
X12533Y22808
X12950Y23160
X12500Y23460
X11990Y23950
X12200Y24225
X11750Y24475
X11546Y24182
X12100Y24775
X12500Y24725
X12450Y25025
X12655Y25280
X13050Y25175
X13550Y25575
X13900Y25175
X14700Y25275
X15250Y25275
X15300Y24625
X14750Y24325
X14150Y23825
X13050Y24025
X13650Y22810
X14186Y22461
X14400Y22675
X15300Y22575
X15750Y23275
X15450Y23625
X14401Y21676
X14050Y21325
X15044Y21245
X15300Y21425
X11400Y21775
X8550Y23275
X8250Y23625
X7550Y24325
X8100Y24625
X8050Y25275
X7500Y25275
X6700Y25175
X6350Y25575
X5900Y25925
X5250Y25653
X5455Y25280
X5250Y25025
X5300Y24725
X4900Y24775
X4550Y24475
X4346Y24182
X4790Y23950
X5000Y24225
X5850Y24025
X5300Y23460
X5750Y23160
X5333Y22808
X5563Y22612
X5773Y22397
X5256Y21919
X5400Y21225
X4200Y21775
X4329Y19955
X4950Y19975
X5950Y19475
X6100Y19775
X6400Y19075
X6800Y19075
X8420Y18725
X8519Y18425
X11400Y16375
X8500Y16025
X6050Y14725
X5100Y13775
X4250Y13525
X4150Y13825
X7100Y12625
X7500Y13425
X7225Y13600
X5900Y11925
X5250Y11653
X4600Y11925
X4300Y11925
X4300Y11625
X4200Y16375
X4950Y18925
X6850Y21325
X7201Y21676
X7844Y21245
X8100Y21425
X6986Y22461
X7200Y22675
X6450Y22810
X6950Y23825
X8100Y22575
X5850Y25175
X4600Y25925
X4300Y25925
X4300Y25625
X7100Y26625
X7500Y27425
X7225Y27600
X6050Y28725
X5100Y27775
X4250Y27525
X4150Y27825
X4200Y30375
X4950Y32925
X5950Y33475
X6100Y33775
X6400Y33075
X6800Y33075
X8420Y32725
X8519Y32425
X8500Y30025
X11400Y30375
X13250Y28725
X12300Y27775
X11450Y27525
X11350Y27825
X14300Y26625
X13100Y25925
X12450Y25653
X11800Y25925
X11500Y25925
X11500Y25625
X14425Y27600
X14700Y27425
X15700Y30025
X15719Y32425
X15620Y32725
X14000Y33075
X13600Y33075
X13150Y33475
X13300Y33775
X12150Y33975
X11529Y33955
X12150Y32925
X12600Y35225
X12456Y35919
X12973Y36397
X12763Y36612
X12533Y36808
X12950Y37160
X12500Y37460
X11990Y37950
X12200Y38225
X11750Y38475
X11546Y38182
X12500Y38725
X12450Y39025
X12655Y39280
X13050Y39175
X13550Y39575
X13900Y39175
X14700Y39275
X15250Y39275
X15300Y38625
X14750Y38325
X14150Y37825
X13050Y38025
X12100Y38775
X12450Y39653
X11800Y39925
X11500Y39925
X11500Y39625
X13100Y39925
X14300Y40625
X14700Y41425
X14425Y41600
X13250Y42725
X12300Y41775
X11450Y41525
X11350Y41825
X8050Y39275
X7500Y39275
X6700Y39175
X6350Y39575
X5900Y39925
X5250Y39653
X5455Y39280
X5250Y39025
X5300Y38725
X4900Y38775
X4550Y38475
X4346Y38182
X4790Y37950
X5000Y38225
X5850Y38025
X5300Y37460
X5750Y37160
X5333Y36808
X5563Y36612
X5773Y36397
X5256Y35919
X5400Y35225
X4200Y35775
X6450Y36810
X6986Y36461
X7200Y36675
X8100Y36575
X7201Y35676
X6850Y35325
X7844Y35245
X8100Y35425
X8550Y37275
X8250Y37625
X7550Y38325
X8100Y38625
X6950Y37825
X5850Y39175
X4600Y39925
X4300Y39925
X4300Y39625
X7100Y40625
X7500Y41425
X7225Y41600
X6050Y42725
X5100Y41775
X4250Y41525
X4150Y41825
X4200Y44375
X8500Y44025
X11400Y44375
X15700Y44025
X18600Y44375
X20450Y42725
X19500Y41775
X18650Y41525
X18550Y41825
X18700Y39925
X19000Y39925
X18700Y39625
X19650Y39653
X19855Y39280
X19650Y39025
X19700Y38725
X19300Y38775
X18950Y38475
X18746Y38182
X19190Y37950
X19400Y38225
X20250Y38025
X19700Y37460
X20150Y37160
X19733Y36808
X19963Y36612
X20173Y36397
X19656Y35919
X19800Y35225
X18600Y35775
X20850Y36810
X21386Y36461
X21600Y36675
X22500Y36575
X21601Y35676
X21250Y35325
X22244Y35245
X22500Y35425
X20500Y33775
X20350Y33475
X20800Y33075
X21200Y33075
X22820Y32725
X22919Y32425
X25929Y33955
X26550Y33975
X27550Y33475
X27700Y33775
X28000Y33075
X28400Y33075
X30020Y32725
X30119Y32425
X30100Y30025
X33000Y30375
X34850Y28725
X33900Y27775
X33050Y27525
X32950Y27825
X35900Y26625
X34700Y25925
X34050Y25653
X33400Y25925
X33100Y25925
X33100Y25625
X36025Y27600
X36300Y27425
X37300Y30025
X37319Y32425
X37220Y32725
X35600Y33075
X35200Y33075
X34750Y33475
X34900Y33775
X33750Y33975
X33129Y33955
X33750Y32925
X34200Y35225
X34056Y35919
X34573Y36397
X34363Y36612
X34133Y36808
X34550Y37160
X34100Y37460
X33590Y37950
X33800Y38225
X33350Y38475
X33146Y38182
X34100Y38725
X34050Y39025
X34255Y39280
X34650Y39175
X35150Y39575
X35500Y39175
X36300Y39275
X36850Y39275
X36900Y38625
X36350Y38325
X35750Y37825
X34650Y38025
X33700Y38775
X34050Y39653
X33400Y39925
X33100Y39925
X33100Y39625
X34700Y39925
X35900Y40625
X36300Y41425
X36025Y41600
X34850Y42725
X33900Y41775
X33050Y41525
X32950Y41825
X29650Y39275
X29100Y39275
X28300Y39175
X27950Y39575
X27500Y39925
X26850Y39653
X27055Y39280
X26850Y39025
X26900Y38725
X26500Y38775
X26150Y38475
X25946Y38182
X26390Y37950
X26600Y38225
X27450Y38025
X26900Y37460
X27350Y37160
X26933Y36808
X27163Y36612
X27373Y36397
X26856Y35919
X27000Y35225
X25800Y35775
X28050Y36810
X28586Y36461
X28800Y36675
X29700Y36575
X28801Y35676
X28450Y35325
X29444Y35245
X29700Y35425
X30150Y37275
X29850Y37625
X29150Y38325
X29700Y38625
X28550Y37825
X27450Y39175
X26200Y39925
X25900Y39925
X25900Y39625
X28700Y40625
X29100Y41425
X28825Y41600
X27650Y42725
X26700Y41775
X25850Y41525
X25750Y41825
X22450Y39275
X21900Y39275
X21100Y39175
X20750Y39575
X20300Y39925
X21500Y40625
X21900Y41425
X21625Y41600
X22900Y44025
X25800Y44375
X30100Y44025
X33000Y44375
X37300Y44025
X37050Y37625
X37350Y37275
X36000Y36675
X35786Y36461
X35250Y36810
X36001Y35676
X35650Y35325
X36644Y35245
X36900Y35425
X36900Y36575
X33000Y35775
X26550Y32925
X25800Y30375
X21900Y27425
X21625Y27600
X19650Y25653
X19855Y25280
X19650Y25025
X19700Y24725
X19300Y24775
X18950Y24475
X18746Y24182
X19190Y23950
X19400Y24225
X20250Y25175
X19000Y25925
X18700Y25925
X18700Y25625
X20850Y22810
X21386Y22461
X21600Y22675
X22500Y22575
X22950Y23275
X22650Y23625
X21601Y21676
X21250Y21325
X22244Y21245
X22500Y21425
X19350Y18925
X14400Y8675
X14186Y8461
X13650Y8810
X12150Y4925
X19350Y4925
X26550Y4925
X18600Y30375
X19350Y32925
X19350Y33975
X18729Y33955
X15300Y35425
X15044Y35245
X14401Y35676
X14050Y35325
X14186Y36461
X14400Y36675
X13650Y36810
X15300Y36575
X15750Y37275
X15450Y37625
X11400Y35775
X4950Y33975
X4329Y33955
X20250Y39175
X21350Y37825
X21950Y38325
X22500Y38625
X22650Y37625
X22950Y37275
T02
X20850Y42875
X13650Y42875
X6450Y42875
X6450Y28875
X13650Y28875
X20850Y28875
X28050Y28875
X35250Y28875
X35250Y42875
X28050Y42875
X28050Y14875
X20850Y14875
X13650Y14875
X6450Y14875
X35250Y14875
T03
X36288Y14744
X34012Y14744
X29088Y14744
X26812Y14744
X21888Y14744
X19612Y14744
X14688Y14744
X12412Y14744
X7488Y14744
X5212Y14744
X5212Y28744
X7488Y28744
X12412Y28744
X14688Y28744
X19612Y28744
X21888Y28744
X26812Y28744
X29088Y28744
X34012Y28744
X36288Y28744
X36288Y42744
X34012Y42744
X29088Y42744
X26812Y42744
X21888Y42744
X19612Y42744
X14688Y42744
X12412Y42744
X7488Y42744
X5212Y42744
T04
X3350Y41175
X3350Y40175
X9350Y40175
X9850Y40175
X10550Y40175
X10550Y41175
X9850Y41175
X9350Y41175
X16550Y41175
X17050Y41175
X17750Y41175
X17750Y40175
X17050Y40175
X16550Y40175
X16550Y35175
X17250Y35175
X17750Y35175
X17750Y34175
X17250Y34175
X16550Y34175
X10550Y34175
X10050Y34175
X9350Y34175
X9350Y35175
X10050Y35175
X10550Y35175
X3350Y35175
X2850Y35175
X2850Y34175
X3350Y34175
X3350Y27175
X3350Y26175
X9350Y26175
X9850Y26175
X10550Y26175
X10550Y27175
X9850Y27175
X9350Y27175
X16550Y27175
X17050Y27175
X17750Y27175
X17750Y26175
X17050Y26175
X16550Y26175
X23750Y26175
X24250Y26175
X24950Y26175
X24950Y27175
X24250Y27175
X23750Y27175
X30950Y27175
X31450Y27175
X32150Y27175
X32150Y26175
X31450Y26175
X30950Y26175
X38150Y26175
X38650Y26175
X38650Y27175
X38150Y27175
X38150Y21175
X38150Y20175
X32150Y20175
X31650Y20175
X30950Y20175
X30950Y21175
X31650Y21175
X32150Y21175
X24950Y21175
X24450Y21175
X23750Y21175
X23750Y20175
X24450Y20175
X24950Y20175
X17750Y20175
X17250Y20175
X16550Y20175
X16550Y21175
X17250Y21175
X17750Y21175
X10550Y21175
X10050Y21175
X9350Y21175
X9350Y20175
X10050Y20175
X10550Y20175
X3350Y20175
X2850Y20175
X2850Y21175
X3350Y21175
X3350Y13175
X3350Y12175
X9350Y12175
X9850Y12175
X10550Y12175
X10550Y13175
X9850Y13175
X9350Y13175
X16550Y13175
X17050Y13175
X17750Y13175
X17750Y12175
X17050Y12175
X16550Y12175
X23750Y12175
X24250Y12175
X24950Y12175
X24950Y13175
X24250Y13175
X23750Y13175
X30950Y13175
X31450Y13175
X32150Y13175
X32150Y12175
X31450Y12175
X30950Y12175
X38150Y12175
X38650Y12175
X38650Y13175
X38150Y13175
X38150Y7175
X38150Y6175
X32150Y6175
X31650Y6175
X30950Y6175
X30950Y7175
X31650Y7175
X32150Y7175
X24950Y7175
X24450Y7175
X23750Y7175
X23750Y6175
X24450Y6175
X24950Y6175
X17750Y6175
X17250Y6175
X16550Y6175
X16550Y7175
X17250Y7175
X17750Y7175
X10550Y7175
X10050Y7175
X9350Y7175
X9350Y6175
X10050Y6175
X10550Y6175
X3350Y6175
X2850Y6175
X2850Y7175
X3350Y7175
X23750Y34175
X24450Y34175
X24950Y34175
X24950Y35175
X24450Y35175
X23750Y35175
X23750Y40175
X24250Y40175
X24950Y40175
X24950Y41175
X24250Y41175
X23750Y41175
X30950Y41175
X31450Y41175
X32150Y41175
X32150Y40175
X31450Y40175
X30950Y40175
X30950Y35175
X31650Y35175
X32150Y35175
X32150Y34175
X31650Y34175
X30950Y34175
X38150Y34175
X38150Y35175
X38150Y40175
X38650Y40175
X38650Y41175
X38150Y41175
T05
X38150Y39175
X38650Y39175
X38650Y38175
X38150Y38175
X38150Y37175
X38650Y37175
X38650Y36175
X38150Y36175
X38150Y33175
X38150Y32175
X32150Y29175
X32150Y28175
X32150Y25175
X31650Y25175
X31450Y25175
X30950Y25175
X30950Y24175
X31450Y24175
X31650Y24175
X32150Y24175
X32150Y23175
X31650Y23175
X31450Y23175
X30950Y23175
X30950Y22175
X31450Y22175
X31650Y22175
X32150Y22175
X30950Y19175
X30950Y18175
X32150Y15175
X32150Y14175
X32150Y11175
X31650Y11175
X31450Y11175
X30950Y11175
X30950Y10175
X31450Y10175
X31650Y10175
X32150Y10175
X32150Y9175
X31650Y9175
X31450Y9175
X30950Y9175
X30950Y8175
X31450Y8175
X31650Y8175
X32150Y8175
X30950Y5175
X30950Y4175
X24950Y8175
X24450Y8175
X24250Y8175
X23750Y8175
X23750Y9175
X24250Y9175
X24450Y9175
X24950Y9175
X24950Y10175
X24450Y10175
X24250Y10175
X23750Y10175
X23750Y11175
X24250Y11175
X24450Y11175
X24950Y11175
X24950Y14175
X24950Y15175
X23750Y18175
X23750Y19175
X23750Y22175
X24250Y22175
X24450Y22175
X24950Y22175
X24950Y23175
X24450Y23175
X24250Y23175
X23750Y23175
X23750Y24175
X24250Y24175
X24450Y24175
X24950Y24175
X24950Y25175
X24450Y25175
X24250Y25175
X23750Y25175
X24950Y28175
X24950Y29175
X23750Y32175
X23750Y33175
X23750Y36175
X24250Y36175
X24450Y36175
X24950Y36175
X24950Y37175
X24450Y37175
X24250Y37175
X23750Y37175
X23750Y38175
X24250Y38175
X24450Y38175
X24950Y38175
X24950Y39175
X24450Y39175
X24250Y39175
X23750Y39175
X24950Y42175
X24950Y43175
X30950Y39175
X31450Y39175
X31650Y39175
X32150Y39175
X32150Y38175
X31650Y38175
X31450Y38175
X30950Y38175
X30950Y37175
X31450Y37175
X31650Y37175
X32150Y37175
X32150Y36175
X31650Y36175
X31450Y36175
X30950Y36175
X30950Y33175
X30950Y32175
X38150Y25175
X38650Y25175
X38650Y24175
X38150Y24175
X38150Y23175
X38650Y23175
X38650Y22175
X38150Y22175
X38150Y19175
X38150Y18175
X38150Y11175
X38650Y11175
X38650Y10175
X38150Y10175
X38150Y9175
X38650Y9175
X38650Y8175
X38150Y8175
X38150Y5175
X38150Y4175
X23750Y4175
X23750Y5175
X17750Y8175
X17250Y8175
X17050Y8175
X16550Y8175
X16550Y9175
X17050Y9175
X17250Y9175
X17750Y9175
X17750Y10175
X17250Y10175
X17050Y10175
X16550Y10175
X16550Y11175
X17050Y11175
X17250Y11175
X17750Y11175
X17750Y14175
X17750Y15175
X16550Y18175
X16550Y19175
X16550Y22175
X17050Y22175
X17250Y22175
X17750Y22175
X17750Y23175
X17250Y23175
X17050Y23175
X16550Y23175
X16550Y24175
X17050Y24175
X17250Y24175
X17750Y24175
X17750Y25175
X17250Y25175
X17050Y25175
X16550Y25175
X17750Y28175
X17750Y29175
X16550Y32175
X16550Y33175
X16550Y36175
X17050Y36175
X17250Y36175
X17750Y36175
X17750Y37175
X17250Y37175
X17050Y37175
X16550Y37175
X16550Y38175
X17050Y38175
X17250Y38175
X17750Y38175
X17750Y39175
X17250Y39175
X17050Y39175
X16550Y39175
X17750Y42175
X17750Y43175
X10550Y43175
X10550Y42175
X10550Y39175
X10050Y39175
X9850Y39175
X9350Y39175
X9350Y38175
X9850Y38175
X10050Y38175
X10550Y38175
X10550Y37175
X10050Y37175
X9850Y37175
X9350Y37175
X9350Y36175
X9850Y36175
X10050Y36175
X10550Y36175
X9350Y33175
X9350Y32175
X10550Y29175
X10550Y28175
X10550Y25175
X10050Y25175
X9850Y25175
X9350Y25175
X9350Y24175
X9850Y24175
X10050Y24175
X10550Y24175
X10550Y23175
X10050Y23175
X9850Y23175
X9350Y23175
X9350Y22175
X9850Y22175
X10050Y22175
X10550Y22175
X9350Y19175
X9350Y18175
X10550Y15175
X10550Y14175
X10550Y11175
X10050Y11175
X9850Y11175
X9350Y11175
X9350Y10175
X9850Y10175
X10050Y10175
X10550Y10175
X10550Y9175
X10050Y9175
X9850Y9175
X9350Y9175
X9350Y8175
X9850Y8175
X10050Y8175
X10550Y8175
X9350Y5175
X9350Y4175
X3350Y8175
X2850Y8175
X2850Y9175
X3350Y9175
X3350Y10175
X2850Y10175
X2850Y11175
X3350Y11175
X3350Y14175
X3350Y15175
X3350Y22175
X2850Y22175
X2850Y23175
X3350Y23175
X3350Y24175
X2850Y24175
X2850Y25175
X3350Y25175
X3350Y28175
X3350Y29175
X3350Y36175
X2850Y36175
X2850Y37175
X3350Y37175
X3350Y38175
X2850Y38175
X2850Y39175
X3350Y39175
X3350Y42175
X3350Y43175
X32150Y43175
X32150Y42175
X16550Y5175
X16550Y4175
T06
X17050Y4175
X17050Y5175
X9850Y5175
X9850Y4175
X24250Y4175
X24250Y5175
X31450Y5175
X31450Y4175
X38650Y4175
X38650Y5175
X31650Y14175
X31650Y15175
X31450Y18175
X31450Y19175
X24250Y19175
X24250Y18175
X24450Y15175
X24450Y14175
X17250Y14175
X17250Y15175
X17050Y18175
X17050Y19175
X9850Y19175
X9850Y18175
X10050Y15175
X10050Y14175
X2850Y14175
X2850Y15175
X2850Y28175
X2850Y29175
X10050Y29175
X10050Y28175
X9850Y32175
X9850Y33175
X17050Y33175
X17050Y32175
X17250Y29175
X17250Y28175
X24450Y28175
X24450Y29175
X24250Y32175
X24250Y33175
X31450Y33175
X31450Y32175
X31650Y29175
X31650Y28175
X38650Y32175
X38650Y33175
X31650Y42175
X31650Y43175
X24450Y43175
X24450Y42175
X17250Y42175
X17250Y43175
X10050Y43175
X10050Y42175
X2850Y42175
X2850Y43175
X38650Y19175
X38650Y18175
T07
X2850Y4175
X3350Y4175
X3350Y5175
X2850Y5175
X9850Y6175
X9850Y7175
X10050Y5175
X10550Y5175
X10550Y4175
X10050Y4175
X17250Y4175
X17750Y4175
X17750Y5175
X17250Y5175
X17050Y6175
X17050Y7175
X24250Y7175
X24250Y6175
X24450Y5175
X24950Y5175
X24950Y4175
X24450Y4175
X31650Y4175
X32150Y4175
X32150Y5175
X31650Y5175
X31450Y6175
X31450Y7175
X38650Y7175
X38650Y6175
X31650Y12175
X31650Y13175
X31450Y14175
X30950Y14175
X30950Y15175
X31450Y15175
X31650Y18175
X32150Y18175
X32150Y19175
X31650Y19175
X31450Y20175
X31450Y21175
X24950Y19175
X24450Y19175
X24450Y18175
X24950Y18175
X24250Y20175
X24250Y21175
X17750Y19175
X17250Y19175
X17250Y18175
X17750Y18175
X17050Y20175
X17050Y21175
X10550Y19175
X10050Y19175
X10050Y18175
X10550Y18175
X9850Y20175
X9850Y21175
X3350Y19175
X2850Y19175
X2850Y18175
X3350Y18175
X9350Y15175
X9850Y15175
X9850Y14175
X9350Y14175
X10050Y13175
X10050Y12175
X16550Y14175
X17050Y14175
X17050Y15175
X16550Y15175
X17250Y13175
X17250Y12175
X23750Y14175
X24250Y14175
X24250Y15175
X23750Y15175
X24450Y13175
X24450Y12175
X38150Y14175
X38650Y14175
X38650Y15175
X38150Y15175
X38650Y20175
X38650Y21175
X31650Y26175
X31650Y27175
X31450Y28175
X30950Y28175
X30950Y29175
X31450Y29175
X31650Y32175
X32150Y32175
X32150Y33175
X31650Y33175
X31450Y34175
X31450Y35175
X24950Y33175
X24450Y33175
X24450Y32175
X24950Y32175
X24250Y34175
X24250Y35175
X17750Y33175
X17250Y33175
X17250Y32175
X17750Y32175
X17050Y34175
X17050Y35175
X10550Y33175
X10050Y33175
X10050Y32175
X10550Y32175
X9850Y34175
X9850Y35175
X3350Y33175
X2850Y33175
X2850Y32175
X3350Y32175
X9350Y29175
X9850Y29175
X9850Y28175
X9350Y28175
X10050Y27175
X10050Y26175
X16550Y28175
X17050Y28175
X17050Y29175
X16550Y29175
X17250Y27175
X17250Y26175
X23750Y28175
X24250Y28175
X24250Y29175
X23750Y29175
X24450Y27175
X24450Y26175
X38150Y28175
X38650Y28175
X38650Y29175
X38150Y29175
X38650Y34175
X38650Y35175
X31650Y40175
X31650Y41175
X31450Y42175
X30950Y42175
X30950Y43175
X31450Y43175
X38150Y43175
X38650Y43175
X38650Y42175
X38150Y42175
X24450Y41175
X24450Y40175
X24250Y42175
X23750Y42175
X23750Y43175
X24250Y43175
X17050Y43175
X16550Y43175
X16550Y42175
X17050Y42175
X17250Y41175
X17250Y40175
X10050Y40175
X10050Y41175
X9850Y42175
X9350Y42175
X9350Y43175
X9850Y43175
X2850Y41175
X2850Y40175
X2850Y27175
X2850Y26175
X2850Y13175
X2850Y12175
M30
