%
M48
M72
T01C0.0120
T02C0.0150
T03C0.0256
T04C0.0335
%
T01
X4750Y8425
X4750Y9475
X4129Y9455
X5200Y10725
X5056Y11419
X5573Y11897
X5363Y12112
X5133Y12308
X5550Y12660
X5100Y12960
X4590Y13450
X4800Y13725
X4350Y13975
X4146Y13682
X4700Y14275
X5100Y14225
X5050Y14525
X5255Y14780
X5650Y14675
X6150Y15075
X6500Y14675
X7300Y14775
X7850Y14775
X7900Y14125
X7350Y13825
X6750Y13325
X6250Y12310
X6786Y11961
X7000Y12175
X7900Y12075
X8350Y12775
X8050Y13125
X7900Y10925
X7644Y10745
X7001Y11176
X6650Y10825
X5900Y9275
X5750Y8975
X6200Y8575
X6600Y8575
X8220Y8225
X8319Y7925
X11329Y9455
X11950Y9475
X11950Y8425
X12950Y8975
X13100Y9275
X13400Y8575
X13800Y8575
X13850Y10825
X14201Y11176
X13986Y11961
X14200Y12175
X13450Y12310
X12750Y12660
X12333Y12308
X12563Y12112
X12773Y11897
X12256Y11419
X12400Y10725
X11200Y11275
X12300Y12960
X11790Y13450
X12000Y13725
X11550Y13975
X11346Y13682
X11900Y14275
X12300Y14225
X12250Y14525
X12455Y14780
X12850Y14675
X13350Y15075
X13700Y14675
X14500Y14775
X15050Y14775
X15100Y14125
X14550Y13825
X13950Y13325
X12850Y13525
X12250Y15153
X11600Y15425
X11300Y15425
X11300Y15125
X11250Y17025
X11150Y17325
X12100Y17275
X13050Y18225
X14225Y17100
X14500Y16925
X14100Y16125
X12900Y15425
X15100Y12075
X15550Y12775
X15250Y13125
X15100Y10925
X14844Y10745
X15420Y8225
X15519Y7925
X18400Y11275
X19456Y11419
X19973Y11897
X19763Y12112
X19533Y12308
X19950Y12660
X19500Y12960
X18990Y13450
X19200Y13725
X18750Y13975
X18546Y13682
X19100Y14275
X19500Y14225
X19450Y14525
X19655Y14780
X20050Y14675
X20100Y15425
X19450Y15153
X18800Y15425
X18500Y15425
X18500Y15125
X18450Y17025
X18350Y17325
X19300Y17275
X20250Y18225
X21425Y17100
X21700Y16925
X21300Y16125
X20550Y15075
X20900Y14675
X21700Y14775
X22250Y14775
X22300Y14125
X21750Y13825
X21150Y13325
X20650Y12310
X21186Y11961
X21400Y12175
X22300Y12075
X22750Y12775
X22450Y13125
X22300Y10925
X22044Y10745
X21401Y11176
X21050Y10825
X20300Y9275
X20150Y8975
X20600Y8575
X21000Y8575
X22620Y8225
X22719Y7925
X25729Y9455
X26350Y9475
X26350Y8425
X27350Y8975
X27500Y9275
X27800Y8575
X28200Y8575
X28250Y10825
X28601Y11176
X28386Y11961
X28600Y12175
X27850Y12310
X27150Y12660
X26733Y12308
X26963Y12112
X27173Y11897
X26656Y11419
X26800Y10725
X25600Y11275
X26700Y12960
X26190Y13450
X26400Y13725
X25950Y13975
X25746Y13682
X26300Y14275
X26700Y14225
X26650Y14525
X26855Y14780
X27250Y14675
X27750Y15075
X28100Y14675
X28900Y14775
X29450Y14775
X29500Y14125
X28950Y13825
X28350Y13325
X27250Y13525
X26650Y15153
X26000Y15425
X25700Y15425
X25700Y15125
X25650Y17025
X25550Y17325
X26500Y17275
X27450Y18225
X28625Y17100
X28900Y16925
X28500Y16125
X27300Y15425
X29500Y12075
X29950Y12775
X29650Y13125
X29500Y10925
X29244Y10745
X29820Y8225
X29919Y7925
X32800Y11275
X33856Y11419
X34373Y11897
X34163Y12112
X33933Y12308
X34350Y12660
X33900Y12960
X33390Y13450
X33600Y13725
X33150Y13975
X32946Y13682
X33500Y14275
X33900Y14225
X33850Y14525
X34055Y14780
X34450Y14675
X34500Y15425
X33850Y15153
X33200Y15425
X32900Y15425
X32900Y15125
X32850Y17025
X32750Y17325
X33700Y17275
X34650Y18225
X35825Y17100
X36100Y16925
X35700Y16125
X34950Y15075
X35300Y14675
X36100Y14775
X36650Y14775
X36700Y14125
X36150Y13825
X35550Y13325
X35050Y12310
X35586Y11961
X35800Y12175
X36700Y12075
X37150Y12775
X36850Y13125
X36700Y10925
X36444Y10745
X35801Y11176
X35450Y10825
X34700Y9275
X34550Y8975
X35000Y8575
X35400Y8575
X37020Y8225
X37119Y7925
X34000Y10725
X33550Y9475
X32929Y9455
X33550Y8425
X34450Y13525
X37100Y19525
X37119Y22925
X37020Y23225
X35400Y23575
X35000Y23575
X34550Y23975
X34700Y24275
X34000Y25725
X33856Y26419
X34373Y26897
X34163Y27112
X33933Y27308
X34350Y27660
X33900Y27960
X33390Y28450
X33600Y28725
X33150Y28975
X32946Y28682
X33500Y29275
X33900Y29225
X33850Y29525
X34055Y29780
X34450Y29675
X34500Y30425
X33850Y30153
X33200Y30425
X32900Y30425
X32900Y30125
X32850Y32025
X32750Y32325
X33700Y32275
X34650Y33225
X35825Y32100
X36100Y31925
X35700Y31125
X34950Y30075
X35300Y29675
X36100Y29775
X36650Y29775
X36700Y29125
X36150Y28825
X35550Y28325
X35050Y27310
X35586Y26961
X35800Y27175
X36700Y27075
X36700Y25925
X36444Y25745
X35801Y26176
X35450Y25825
X37150Y27775
X36850Y28125
X34450Y28525
X32800Y26275
X32929Y24455
X33550Y24475
X33550Y23425
X32800Y19875
X29900Y19525
X29919Y22925
X29820Y23225
X28200Y23575
X27800Y23575
X27350Y23975
X27500Y24275
X26350Y24475
X25729Y24455
X26350Y23425
X26800Y25725
X26656Y26419
X27173Y26897
X26963Y27112
X26733Y27308
X27150Y27660
X27850Y27310
X28386Y26961
X28600Y27175
X29500Y27075
X29500Y25925
X29244Y25745
X28601Y26176
X28250Y25825
X29950Y27775
X29650Y28125
X28950Y28825
X29500Y29125
X29450Y29775
X28900Y29775
X28100Y29675
X27750Y30075
X27300Y30425
X27250Y29675
X26855Y29780
X26650Y29525
X26700Y29225
X26300Y29275
X25950Y28975
X25746Y28682
X26190Y28450
X26400Y28725
X26700Y27960
X27250Y28525
X28350Y28325
X26650Y30153
X26000Y30425
X25700Y30425
X25700Y30125
X25650Y32025
X25550Y32325
X26500Y32275
X27450Y33225
X28625Y32100
X28900Y31925
X28500Y31125
X29900Y34525
X29919Y37925
X29820Y38225
X28200Y38575
X27800Y38575
X27350Y38975
X27500Y39275
X26350Y39475
X25729Y39455
X26350Y38425
X26800Y40725
X26656Y41419
X26963Y42112
X27173Y41897
X26733Y42308
X27150Y42660
X27850Y42310
X28350Y43325
X28600Y42175
X28386Y41961
X28601Y41176
X28250Y40825
X29244Y40745
X29500Y40925
X29500Y42075
X29950Y42775
X29650Y43125
X28950Y43825
X29500Y44125
X29450Y44775
X28900Y44775
X28100Y44675
X27750Y45075
X27300Y45425
X27250Y44675
X26855Y44780
X26650Y44525
X26700Y44225
X26300Y44275
X25950Y43975
X25746Y43682
X26190Y43450
X26400Y43725
X26700Y42960
X27250Y43525
X26650Y45153
X26000Y45425
X25700Y45425
X25700Y45125
X25650Y47025
X25550Y47325
X26500Y47275
X27450Y48225
X28625Y47100
X28900Y46925
X28500Y46125
X29900Y49525
X32800Y49875
X32750Y47325
X32850Y47025
X33700Y47275
X34650Y48225
X35825Y47100
X36100Y46925
X35700Y46125
X34950Y45075
X35300Y44675
X36100Y44775
X36650Y44775
X36700Y44125
X36150Y43825
X35550Y43325
X35050Y42310
X35586Y41961
X35800Y42175
X36700Y42075
X37150Y42775
X36850Y43125
X35801Y41176
X35450Y40825
X36444Y40745
X36700Y40925
X35400Y38575
X35000Y38575
X34550Y38975
X34700Y39275
X34000Y40725
X33856Y41419
X34373Y41897
X34163Y42112
X33933Y42308
X34350Y42660
X33900Y42960
X33390Y43450
X33600Y43725
X33150Y43975
X32946Y43682
X33500Y44275
X33900Y44225
X33850Y44525
X34055Y44780
X34450Y44675
X34500Y45425
X33850Y45153
X33200Y45425
X32900Y45425
X32900Y45125
X34450Y43525
X32800Y41275
X32929Y39455
X33550Y39475
X33550Y38425
X32800Y34875
X37100Y34525
X37119Y37925
X37020Y38225
X37100Y49525
X25600Y49875
X22700Y49525
X21425Y47100
X21700Y46925
X21300Y46125
X20550Y45075
X20900Y44675
X21700Y44775
X22250Y44775
X22300Y44125
X21750Y43825
X21150Y43325
X20650Y42310
X21186Y41961
X21400Y42175
X22300Y42075
X22750Y42775
X22450Y43125
X21401Y41176
X21050Y40825
X22044Y40745
X22300Y40925
X21000Y38575
X20600Y38575
X20150Y38975
X20300Y39275
X19600Y40725
X19456Y41419
X19973Y41897
X19763Y42112
X19533Y42308
X19950Y42660
X19500Y42960
X18990Y43450
X19200Y43725
X18750Y43975
X18546Y43682
X19100Y44275
X19500Y44225
X19450Y44525
X19655Y44780
X20050Y44675
X20100Y45425
X19450Y45153
X18800Y45425
X18500Y45425
X18500Y45125
X20050Y43525
X18400Y41275
X18529Y39455
X19150Y39475
X19150Y38425
X18400Y34875
X18350Y32325
X18450Y32025
X19300Y32275
X20250Y33225
X21425Y32100
X21700Y31925
X21300Y31125
X20550Y30075
X20900Y29675
X21700Y29775
X22250Y29775
X22300Y29125
X21750Y28825
X21150Y28325
X20650Y27310
X21186Y26961
X21400Y27175
X22300Y27075
X22300Y25925
X22044Y25745
X21401Y26176
X21050Y25825
X20300Y24275
X20150Y23975
X20600Y23575
X21000Y23575
X22620Y23225
X22719Y22925
X22700Y19525
X25600Y19875
X25600Y26275
X22750Y27775
X22450Y28125
X20050Y28525
X19500Y27960
X19950Y27660
X19533Y27308
X19763Y27112
X19973Y26897
X19456Y26419
X19600Y25725
X19150Y24475
X18529Y24455
X19150Y23425
X18400Y26275
X18990Y28450
X19200Y28725
X18750Y28975
X18546Y28682
X19100Y29275
X19500Y29225
X19450Y29525
X19655Y29780
X20050Y29675
X20100Y30425
X19450Y30153
X18800Y30425
X18500Y30425
X18500Y30125
X15550Y27775
X15250Y28125
X14550Y28825
X15100Y29125
X15050Y29775
X14500Y29775
X13700Y29675
X13350Y30075
X12900Y30425
X12850Y29675
X12455Y29780
X12250Y29525
X12300Y29225
X11900Y29275
X11550Y28975
X11346Y28682
X11790Y28450
X12000Y28725
X12300Y27960
X12333Y27308
X12563Y27112
X12773Y26897
X12750Y27660
X13450Y27310
X13986Y26961
X14200Y27175
X15100Y27075
X15100Y25925
X14844Y25745
X14201Y26176
X13850Y25825
X13100Y24275
X12950Y23975
X13400Y23575
X13800Y23575
X12400Y25725
X12256Y26419
X11200Y26275
X11329Y24455
X11950Y24475
X11950Y23425
X11200Y19875
X8300Y19525
X7025Y17100
X7300Y16925
X6900Y16125
X5700Y15425
X5050Y15153
X4400Y15425
X4100Y15425
X4100Y15125
X4050Y17025
X3950Y17325
X4900Y17275
X5850Y18225
X4000Y19875
X4750Y23425
X4750Y24475
X4129Y24455
X5200Y25725
X5056Y26419
X5573Y26897
X5363Y27112
X5133Y27308
X5550Y27660
X5100Y27960
X4590Y28450
X4800Y28725
X4350Y28975
X4146Y28682
X4700Y29275
X5100Y29225
X5050Y29525
X5255Y29780
X5650Y29675
X6150Y30075
X6500Y29675
X7300Y29775
X7850Y29775
X7900Y29125
X7350Y28825
X6750Y28325
X6250Y27310
X6786Y26961
X7000Y27175
X7900Y27075
X7900Y25925
X7644Y25745
X7001Y26176
X6650Y25825
X5900Y24275
X5750Y23975
X6200Y23575
X6600Y23575
X8220Y23225
X8319Y22925
X8350Y27775
X8050Y28125
X6900Y31125
X7300Y31925
X7025Y32100
X5850Y33225
X4900Y32275
X4050Y32025
X3950Y32325
X4100Y30425
X4100Y30125
X4400Y30425
X5050Y30153
X5700Y30425
X5650Y28525
X4000Y26275
X4000Y34875
X4750Y38425
X4750Y39475
X4129Y39455
X5200Y40725
X5056Y41419
X5573Y41897
X5363Y42112
X5133Y42308
X5550Y42660
X5100Y42960
X4590Y43450
X4800Y43725
X4350Y43975
X4146Y43682
X4700Y44275
X5100Y44225
X5050Y44525
X5255Y44780
X5650Y44675
X6150Y45075
X6500Y44675
X7300Y44775
X7850Y44775
X7900Y44125
X7350Y43825
X6750Y43325
X6250Y42310
X6786Y41961
X7000Y42175
X7900Y42075
X8350Y42775
X8050Y43125
X7001Y41176
X6650Y40825
X7644Y40745
X7900Y40925
X6600Y38575
X6200Y38575
X5900Y39275
X5750Y38975
X4000Y41275
X5650Y43525
X5050Y45153
X5700Y45425
X4400Y45425
X4100Y45425
X4100Y45125
X4050Y47025
X3950Y47325
X4900Y47275
X5850Y48225
X7025Y47100
X7300Y46925
X6900Y46125
X8300Y49525
X11200Y49875
X13050Y48225
X12100Y47275
X11250Y47025
X11150Y47325
X11300Y45425
X11300Y45125
X11600Y45425
X12250Y45153
X12455Y44780
X12250Y44525
X12300Y44225
X11900Y44275
X11550Y43975
X11346Y43682
X11790Y43450
X12000Y43725
X12300Y42960
X12333Y42308
X12563Y42112
X12773Y41897
X12750Y42660
X13450Y42310
X13950Y43325
X14200Y42175
X13986Y41961
X14201Y41176
X13850Y40825
X13100Y39275
X12950Y38975
X13400Y38575
X13800Y38575
X14844Y40745
X15100Y40925
X15100Y42075
X15550Y42775
X15250Y43125
X14550Y43825
X15100Y44125
X15050Y44775
X14500Y44775
X13700Y44675
X13350Y45075
X12900Y45425
X12850Y44675
X12850Y43525
X12256Y41419
X12400Y40725
X11950Y39475
X11329Y39455
X11950Y38425
X11200Y41275
X8220Y38225
X8319Y37925
X8300Y34525
X11200Y34875
X13050Y33225
X12100Y32275
X11250Y32025
X11150Y32325
X11300Y30425
X11300Y30125
X11600Y30425
X12250Y30153
X12850Y28525
X13950Y28325
X14100Y31125
X14500Y31925
X14225Y32100
X15500Y34525
X15519Y37925
X15420Y38225
X14100Y46125
X14500Y46925
X14225Y47100
X15500Y49525
X18400Y49875
X18350Y47325
X18450Y47025
X19300Y47275
X20250Y48225
X25600Y41275
X22620Y38225
X22719Y37925
X22700Y34525
X25600Y34875
X18400Y19875
X15500Y19525
X15519Y22925
X15420Y23225
X20050Y13525
X19600Y10725
X19150Y9475
X18529Y9455
X19150Y8425
X5650Y13525
X4000Y11275
X4000Y49875
T02
X6250Y48375
X13450Y48375
X20650Y48375
X27850Y48375
X35050Y48375
X35050Y33375
X27850Y33375
X20650Y33375
X13450Y33375
X6250Y33375
X6250Y18375
X13450Y18375
X20650Y18375
X27850Y18375
X35050Y18375
T03
X36088Y18244
X33812Y18244
X28888Y18244
X26612Y18244
X21688Y18244
X19412Y18244
X14488Y18244
X12212Y18244
X7288Y18244
X5012Y18244
X5012Y33244
X7288Y33244
X12212Y33244
X14488Y33244
X19412Y33244
X21688Y33244
X26612Y33244
X28888Y33244
X33812Y33244
X36088Y33244
X36088Y48244
X33812Y48244
X28888Y48244
X26612Y48244
X21688Y48244
X19412Y48244
X14488Y48244
X12212Y48244
X7288Y48244
X5012Y48244
T04
X2650Y7675
X3150Y7675
X3150Y8675
X2650Y8675
X2650Y9675
X3150Y9675
X3150Y10675
X2650Y10675
X2650Y11675
X3150Y11675
X3150Y12675
X2650Y12675
X2650Y13675
X3150Y13675
X3150Y14675
X2650Y14675
X2650Y15675
X3150Y15675
X3150Y16675
X2650Y16675
X2650Y17675
X3150Y17675
X3150Y18675
X2650Y18675
X2650Y22675
X3150Y22675
X3150Y23675
X2650Y23675
X2650Y24675
X3150Y24675
X3150Y25675
X2650Y25675
X2650Y26675
X3150Y26675
X3150Y27675
X2650Y27675
X2650Y28675
X3150Y28675
X3150Y29675
X2650Y29675
X2650Y30675
X3150Y30675
X3150Y31675
X2650Y31675
X2650Y32675
X3150Y32675
X3150Y33675
X2650Y33675
X2650Y37675
X3150Y37675
X3150Y38675
X2650Y38675
X2650Y39675
X3150Y39675
X3150Y40675
X2650Y40675
X2650Y41675
X3150Y41675
X3150Y42675
X2650Y42675
X2650Y43675
X3150Y43675
X3150Y44675
X2650Y44675
X2650Y45675
X3150Y45675
X3150Y46675
X2650Y46675
X2650Y47675
X3150Y47675
X3150Y48675
X2650Y48675
X9150Y48675
X9650Y48675
X9850Y48675
X9850Y47675
X9650Y47675
X9150Y47675
X9150Y46675
X9650Y46675
X9850Y46675
X10350Y46675
X10350Y45675
X10350Y44675
X9850Y44675
X9650Y44675
X9150Y44675
X9150Y45675
X9650Y45675
X9850Y45675
X9850Y43675
X9650Y43675
X9150Y43675
X9150Y42675
X9650Y42675
X9850Y42675
X9850Y41675
X9650Y41675
X9150Y41675
X9150Y40675
X9650Y40675
X9850Y40675
X10350Y40675
X10350Y39675
X10350Y38675
X9850Y38675
X9650Y38675
X9150Y38675
X9150Y39675
X9650Y39675
X9850Y39675
X9850Y37675
X9650Y37675
X9150Y37675
X10350Y37675
X10350Y33675
X10350Y32675
X9850Y32675
X9650Y32675
X9150Y32675
X9150Y33675
X9650Y33675
X9850Y33675
X9850Y31675
X9650Y31675
X9150Y31675
X9150Y30675
X9650Y30675
X9850Y30675
X9850Y29675
X9650Y29675
X9150Y29675
X9150Y28675
X9650Y28675
X9850Y28675
X10350Y28675
X10350Y27675
X10350Y26675
X9850Y26675
X9650Y26675
X9150Y26675
X9150Y27675
X9650Y27675
X9850Y27675
X9850Y25675
X9650Y25675
X9150Y25675
X9150Y24675
X9650Y24675
X9850Y24675
X9850Y23675
X9650Y23675
X9150Y23675
X9150Y22675
X9650Y22675
X9850Y22675
X10350Y22675
X10350Y23675
X10350Y24675
X10350Y25675
X10350Y29675
X10350Y30675
X10350Y31675
X16350Y31675
X16850Y31675
X17050Y31675
X17550Y31675
X17550Y30675
X17050Y30675
X16850Y30675
X16350Y30675
X16350Y29675
X16850Y29675
X17050Y29675
X17550Y29675
X17550Y28675
X17050Y28675
X16850Y28675
X16350Y28675
X16350Y27675
X16850Y27675
X17050Y27675
X17550Y27675
X17550Y26675
X17050Y26675
X16850Y26675
X16350Y26675
X16350Y25675
X16850Y25675
X17050Y25675
X17550Y25675
X17550Y24675
X17050Y24675
X16850Y24675
X16350Y24675
X16350Y23675
X16850Y23675
X17050Y23675
X17550Y23675
X17550Y22675
X17050Y22675
X16850Y22675
X16350Y22675
X16350Y18675
X16850Y18675
X17050Y18675
X17550Y18675
X17550Y17675
X17050Y17675
X16850Y17675
X16350Y17675
X16350Y16675
X16850Y16675
X17050Y16675
X17550Y16675
X17550Y15675
X17050Y15675
X16850Y15675
X16350Y15675
X16350Y14675
X16850Y14675
X17050Y14675
X17550Y14675
X17550Y13675
X17050Y13675
X16850Y13675
X16350Y13675
X16350Y12675
X16850Y12675
X17050Y12675
X17550Y12675
X17550Y11675
X17050Y11675
X16850Y11675
X16350Y11675
X16350Y10675
X16850Y10675
X17050Y10675
X17550Y10675
X17550Y9675
X17050Y9675
X16850Y9675
X16350Y9675
X16350Y8675
X16850Y8675
X17050Y8675
X17550Y8675
X17550Y7675
X17050Y7675
X16850Y7675
X16350Y7675
X10350Y7675
X9850Y7675
X9650Y7675
X9150Y7675
X9150Y8675
X9650Y8675
X9850Y8675
X10350Y8675
X10350Y9675
X10350Y10675
X9850Y10675
X9650Y10675
X9150Y10675
X9150Y9675
X9650Y9675
X9850Y9675
X9850Y11675
X9650Y11675
X9150Y11675
X9150Y12675
X9650Y12675
X9850Y12675
X9850Y13675
X9650Y13675
X9150Y13675
X9150Y14675
X9650Y14675
X9850Y14675
X10350Y14675
X10350Y13675
X10350Y12675
X10350Y11675
X10350Y15675
X10350Y16675
X9850Y16675
X9650Y16675
X9150Y16675
X9150Y15675
X9650Y15675
X9850Y15675
X9850Y17675
X9650Y17675
X9150Y17675
X9150Y18675
X9650Y18675
X9850Y18675
X10350Y18675
X10350Y17675
X16350Y32675
X16850Y32675
X17050Y32675
X17550Y32675
X17550Y33675
X17050Y33675
X16850Y33675
X16350Y33675
X16350Y37675
X16850Y37675
X17050Y37675
X17550Y37675
X17550Y38675
X17050Y38675
X16850Y38675
X16350Y38675
X16350Y39675
X16850Y39675
X17050Y39675
X17550Y39675
X17550Y40675
X17050Y40675
X16850Y40675
X16350Y40675
X16350Y41675
X16850Y41675
X17050Y41675
X17550Y41675
X17550Y42675
X17050Y42675
X16850Y42675
X16350Y42675
X16350Y43675
X16850Y43675
X17050Y43675
X17550Y43675
X17550Y44675
X17050Y44675
X16850Y44675
X16350Y44675
X16350Y45675
X16850Y45675
X17050Y45675
X17550Y45675
X17550Y46675
X17050Y46675
X16850Y46675
X16350Y46675
X16350Y47675
X16850Y47675
X17050Y47675
X17550Y47675
X17550Y48675
X17050Y48675
X16850Y48675
X16350Y48675
X10350Y48675
X10350Y47675
X10350Y43675
X10350Y42675
X10350Y41675
X23550Y41675
X24050Y41675
X24250Y41675
X24750Y41675
X24750Y42675
X24250Y42675
X24050Y42675
X23550Y42675
X23550Y43675
X24050Y43675
X24250Y43675
X24750Y43675
X24750Y44675
X24250Y44675
X24050Y44675
X23550Y44675
X23550Y45675
X24050Y45675
X24250Y45675
X24750Y45675
X24750Y46675
X24250Y46675
X24050Y46675
X23550Y46675
X23550Y47675
X24050Y47675
X24250Y47675
X24750Y47675
X24750Y48675
X24250Y48675
X24050Y48675
X23550Y48675
X23550Y40675
X24050Y40675
X24250Y40675
X24750Y40675
X24750Y39675
X24250Y39675
X24050Y39675
X23550Y39675
X23550Y38675
X24050Y38675
X24250Y38675
X24750Y38675
X24750Y37675
X24250Y37675
X24050Y37675
X23550Y37675
X23550Y33675
X24050Y33675
X24250Y33675
X24750Y33675
X24750Y32675
X24250Y32675
X24050Y32675
X23550Y32675
X23550Y31675
X24050Y31675
X24250Y31675
X24750Y31675
X24750Y30675
X24250Y30675
X24050Y30675
X23550Y30675
X23550Y29675
X24050Y29675
X24250Y29675
X24750Y29675
X24750Y28675
X24250Y28675
X24050Y28675
X23550Y28675
X23550Y27675
X24050Y27675
X24250Y27675
X24750Y27675
X24750Y26675
X24250Y26675
X24050Y26675
X23550Y26675
X23550Y25675
X24050Y25675
X24250Y25675
X24750Y25675
X24750Y24675
X24250Y24675
X24050Y24675
X23550Y24675
X23550Y23675
X24050Y23675
X24250Y23675
X24750Y23675
X24750Y22675
X24250Y22675
X24050Y22675
X23550Y22675
X23550Y18675
X24050Y18675
X24250Y18675
X24750Y18675
X24750Y17675
X24250Y17675
X24050Y17675
X23550Y17675
X23550Y16675
X24050Y16675
X24250Y16675
X24750Y16675
X24750Y15675
X24250Y15675
X24050Y15675
X23550Y15675
X23550Y14675
X24050Y14675
X24250Y14675
X24750Y14675
X24750Y13675
X24250Y13675
X24050Y13675
X23550Y13675
X23550Y12675
X24050Y12675
X24250Y12675
X24750Y12675
X24750Y11675
X24250Y11675
X24050Y11675
X23550Y11675
X23550Y10675
X24050Y10675
X24250Y10675
X24750Y10675
X24750Y9675
X24250Y9675
X24050Y9675
X23550Y9675
X23550Y8675
X24050Y8675
X24250Y8675
X24750Y8675
X24750Y7675
X24250Y7675
X24050Y7675
X23550Y7675
X30750Y7675
X31250Y7675
X31450Y7675
X31950Y7675
X31950Y8675
X31450Y8675
X31250Y8675
X30750Y8675
X30750Y9675
X30750Y10675
X31250Y10675
X31450Y10675
X31950Y10675
X31950Y9675
X31450Y9675
X31250Y9675
X31250Y11675
X31450Y11675
X31950Y11675
X31950Y12675
X31450Y12675
X31250Y12675
X31250Y13675
X31450Y13675
X31950Y13675
X31950Y14675
X31450Y14675
X31250Y14675
X30750Y14675
X30750Y13675
X30750Y12675
X30750Y11675
X30750Y15675
X30750Y16675
X31250Y16675
X31450Y16675
X31950Y16675
X31950Y15675
X31450Y15675
X31250Y15675
X31250Y17675
X31450Y17675
X31950Y17675
X31950Y18675
X31450Y18675
X31250Y18675
X30750Y18675
X30750Y17675
X30750Y22675
X31250Y22675
X31450Y22675
X31950Y22675
X31950Y23675
X31450Y23675
X31250Y23675
X31250Y24675
X31450Y24675
X31950Y24675
X31950Y25675
X31450Y25675
X31250Y25675
X30750Y25675
X30750Y24675
X30750Y23675
X30750Y26675
X30750Y27675
X31250Y27675
X31450Y27675
X31950Y27675
X31950Y26675
X31450Y26675
X31250Y26675
X31250Y28675
X31450Y28675
X31950Y28675
X31950Y29675
X31450Y29675
X31250Y29675
X31250Y30675
X31450Y30675
X31950Y30675
X31950Y31675
X31450Y31675
X31250Y31675
X30750Y31675
X30750Y30675
X30750Y29675
X30750Y28675
X30750Y32675
X30750Y33675
X31250Y33675
X31450Y33675
X31950Y33675
X31950Y32675
X31450Y32675
X31250Y32675
X31250Y37675
X31450Y37675
X31950Y37675
X31950Y38675
X31450Y38675
X31250Y38675
X31250Y39675
X31450Y39675
X31950Y39675
X31950Y40675
X31450Y40675
X31250Y40675
X30750Y40675
X30750Y39675
X30750Y38675
X30750Y37675
X30750Y41675
X30750Y42675
X31250Y42675
X31450Y42675
X31950Y42675
X31950Y41675
X31450Y41675
X31250Y41675
X31250Y43675
X31450Y43675
X31950Y43675
X31950Y44675
X31450Y44675
X31250Y44675
X31250Y45675
X31450Y45675
X31950Y45675
X31950Y46675
X31450Y46675
X31250Y46675
X30750Y46675
X30750Y45675
X30750Y44675
X30750Y43675
X30750Y47675
X30750Y48675
X31250Y48675
X31450Y48675
X31950Y48675
X31950Y47675
X31450Y47675
X31250Y47675
X37950Y47675
X38450Y47675
X38450Y48675
X37950Y48675
X37950Y46675
X38450Y46675
X38450Y45675
X37950Y45675
X37950Y44675
X38450Y44675
X38450Y43675
X37950Y43675
X37950Y42675
X38450Y42675
X38450Y41675
X37950Y41675
X37950Y40675
X38450Y40675
X38450Y39675
X37950Y39675
X37950Y38675
X38450Y38675
X38450Y37675
X37950Y37675
X37950Y33675
X38450Y33675
X38450Y32675
X37950Y32675
X37950Y31675
X38450Y31675
X38450Y30675
X37950Y30675
X37950Y29675
X38450Y29675
X38450Y28675
X37950Y28675
X37950Y27675
X38450Y27675
X38450Y26675
X37950Y26675
X37950Y25675
X38450Y25675
X38450Y24675
X37950Y24675
X37950Y23675
X38450Y23675
X38450Y22675
X37950Y22675
X37950Y18675
X38450Y18675
X38450Y17675
X37950Y17675
X37950Y16675
X38450Y16675
X38450Y15675
X37950Y15675
X37950Y14675
X38450Y14675
X38450Y13675
X37950Y13675
X37950Y12675
X38450Y12675
X38450Y11675
X37950Y11675
X37950Y10675
X38450Y10675
X38450Y9675
X37950Y9675
X37950Y8675
X38450Y8675
X38450Y7675
X37950Y7675
M30
